<svg width="803" height="54" viewBox="0 0 803 54" fill="none" xmlns="http://www.w3.org/2000/svg">
<g clip-path="url(#clip0_4811_3663)">
<path d="M10.0078 27.0042C10.0078 23.7014 12.6954 21.0229 16.0131 21.0229C19.3297 21.0229 22.0184 23.7002 22.0184 27.0042C22.0184 30.3094 19.3309 32.9867 16.0143 32.9867C12.6965 32.9867 10.0078 30.3082 10.0078 27.0054" fill="#A6AEBE"/>
<path d="M16.0111 11.055C7.1684 11.055 0 18.196 0 27.0055C0 33.6181 4.0085 39.2632 9.82853 41.7197C10.2378 41.8917 10.6801 41.9708 11.1237 41.9511C11.5672 41.9314 12.0008 41.8136 12.3932 41.606C12.7857 41.3985 13.1272 41.1064 13.393 40.7509C13.6589 40.3954 13.8426 39.9853 13.9308 39.5502C14.0668 38.872 13.9633 38.1676 13.638 37.5571C13.3126 36.9467 12.7856 36.468 12.1467 36.2028V36.2016C8.53964 34.6954 6.00417 31.1467 6.00417 27.0055C6.00417 21.4988 10.4838 17.0352 16.0123 17.0352C21.5407 17.0352 26.0215 21.4988 26.0215 27.0055C26.0215 31.1455 23.486 34.6954 19.8778 36.2005V36.2028C19.2388 36.4682 18.7118 36.9472 18.3866 37.558C18.0614 38.1687 17.9583 38.8734 18.0947 39.5517C18.2311 40.2301 18.5988 40.84 19.1348 41.2775C19.6708 41.715 20.3421 41.953 21.034 41.9507C21.4319 41.9483 21.8256 41.8695 22.1937 41.7186C28.0137 39.262 32.0234 33.6158 32.0234 27.0044C32.0234 18.1937 24.8538 11.0527 16.0111 11.0527" fill="#A6AEBE"/>
<path d="M78.481 25.235C78.481 22.3496 76.4945 20.2041 73.3975 20.2041C70.2982 20.2041 68.3128 22.3507 68.3128 25.2361C68.3128 28.1193 70.2993 30.2682 73.3975 30.2682C76.4945 30.2682 78.481 28.1204 78.481 25.2361M63.3288 25.2361C63.3288 19.9365 67.5374 15.8433 73.3975 15.8433C79.2895 15.8433 83.465 19.9365 83.465 25.2361C83.465 30.5358 79.2895 34.6278 73.3975 34.6278C67.5385 34.6278 63.3288 30.5358 63.3288 25.2361ZM81.7541 38.4659H84.4474C85.8953 38.4659 86.4008 37.9284 86.4008 36.6543V15.8491H91.3836V36.7207C91.3836 41.1157 89.5996 42.9936 84.8523 42.9936H81.753V38.4647L81.7541 38.4659ZM55.3404 26.206C55.3404 28.4018 53.1034 30.1561 50.2568 30.1561C47.0386 30.1561 45.0383 28.2657 45.0383 25.1263C45.0383 22.2238 47.1735 20.2315 50.4604 20.2315C53.0702 20.2315 55.3404 22.0545 55.3404 24.1131V26.206ZM55.5439 15.8376V17.9351H55.4753C54.1876 16.5856 52.0535 15.8422 49.5123 15.8422C44.056 15.8422 40.0234 19.893 40.0234 25.1252C40.0234 30.561 44.1577 34.5443 49.6816 34.5443C52.1541 34.5443 54.2219 33.7666 55.4764 32.3828H55.5451V34.1921C55.5451 36.6223 53.443 38.411 50.664 38.411C47.862 38.411 46.2312 37.6242 44.8153 36.2758L41.5708 39.3865C43.7449 41.6853 47.0226 42.9925 50.7658 42.9925C56.46 42.9925 60.3553 39.1875 60.3553 34.1246V15.8376H55.5439ZM104.118 19.8678C106.777 19.8678 108.63 21.2437 108.865 23.324H99.3023C99.5722 21.2437 101.425 19.8678 104.118 19.8678ZM104.633 30.6021C101.646 30.6021 99.2977 28.6785 99.236 26.8121H113.715V25.4043C113.715 20.0703 110.01 15.8433 104.016 15.8433C98.3599 15.8433 94.3194 19.8027 94.3194 25.2704C94.3194 30.9052 98.5818 34.6278 104.847 34.6278C108.685 34.6278 111.438 32.7945 112.874 31.039L109.497 28.6808C107.995 30.0772 106.632 30.6021 104.634 30.6021M116.65 11.0068H121.461L121.487 23.324H121.552L129.606 15.801H136.054L127.707 23.6705L136.02 34.6129H130.263L124.554 26.7046H124.489L121.461 29.5626V34.6267H116.65V11.0068Z" fill="#A6AEBE"/>
</g>
<g clip-path="url(#clip1_4811_3663)">
<path d="M186.184 32.99C186.184 31.4005 186.156 30.0699 186.07 28.8794H189.076L189.219 30.922H189.302C189.983 29.8439 191.23 28.5663 193.556 28.5663C195.371 28.5663 196.787 29.5889 197.383 31.119H197.441C197.924 30.3539 198.489 29.7858 199.141 29.3907C199.907 28.8503 200.788 28.5663 201.921 28.5663C204.218 28.5663 206.541 30.1254 206.541 34.5517V42.6871H203.139V35.0592C203.139 32.764 202.345 31.4005 200.672 31.4005C199.482 31.4005 198.602 32.254 198.234 33.2463C198.132 33.625 198.075 34.0144 198.064 34.4065V42.6883H194.661V34.6893C194.661 32.7653 193.896 31.4018 192.279 31.4018C190.978 31.4018 190.099 32.4244 189.783 33.3864C189.643 33.7273 189.585 34.1262 189.585 34.5201V42.6883H186.184V32.99ZM219.799 39.3718C219.799 40.6179 219.855 41.8362 219.996 42.6883H216.848L216.622 41.1582H216.536C215.685 42.2364 214.239 42.9989 212.456 42.9989C209.676 42.9989 208.117 40.9878 208.117 38.8883C208.117 35.3975 211.205 33.6427 216.312 33.6705V33.4445C216.312 32.5355 215.942 31.0331 213.503 31.0331C212.14 31.0331 210.724 31.4599 209.788 32.0532L209.108 29.7846C210.129 29.1596 211.916 28.565 214.097 28.565C218.522 28.565 219.8 31.3753 219.8 34.3774L219.799 39.3718ZM216.395 35.9417C213.927 35.8836 211.575 36.4227 211.575 38.5209C211.575 39.8818 212.456 40.5068 213.561 40.5068C214.948 40.5068 215.971 39.5965 216.283 38.6055C216.359 38.3577 216.397 38.0997 216.396 37.8404V35.9417H216.395ZM222.207 32.99C222.207 31.4005 222.178 30.0699 222.096 28.8794H225.155L225.325 30.9523H225.41C226.005 29.8729 227.509 28.5663 229.805 28.5663C232.216 28.5663 234.71 30.1254 234.71 34.4949V42.6871H231.223V34.8913C231.223 32.9067 230.484 31.3993 228.585 31.3993C227.198 31.3993 226.231 32.3928 225.864 33.4432C225.75 33.7538 225.722 34.1805 225.722 34.5744V42.6858H222.206L222.207 32.99ZM249.832 23.332V38.8037C249.832 40.2214 249.89 41.7554 249.945 42.6883H246.828L246.686 40.5068H246.628C245.807 42.0369 244.132 43.0002 242.12 43.0002C238.83 43.0002 236.223 40.1937 236.223 35.9429C236.193 31.3197 239.084 28.5675 242.405 28.5675C244.303 28.5675 245.664 29.3616 246.288 30.3868H246.347V23.3333H249.833V23.332H249.832ZM246.346 34.635C246.346 34.3535 246.318 34.0126 246.26 33.7273C245.948 32.3688 244.845 31.2616 243.255 31.2616C241.016 31.2616 239.766 33.2475 239.766 35.8268C239.766 38.3479 241.015 40.1924 243.228 40.1924C244.643 40.1924 245.892 39.2266 246.231 37.7243C246.317 37.4137 246.347 37.0716 246.347 36.7042V34.635H246.346ZM252.299 42.6883V28.8794H255.817V42.6883H252.299ZM258.281 33.3321C258.281 31.4611 258.255 30.1267 258.17 28.8806H261.204L261.315 31.5154H261.43C262.111 29.5598 263.725 28.8806 265.204 28.8806C265.543 28.8806 265.74 28.8225 266.023 28.8806V31.9446C265.688 31.8706 265.347 31.8325 265.004 31.831C263.328 31.831 262.194 32.9092 261.883 34.4658C261.815 34.8221 261.777 35.1837 261.771 35.5465V42.6896H258.281V33.3321ZM267.641 42.6883V28.8794H271.155V42.6883H267.641Z" fill="#A6AEBE"/>
<path d="M293.042 14.2748C291.301 12.289 289.45 13.1878 287.98 13.9188C287.361 14.2243 282.896 16.7556 282.896 16.7556C280.449 17.7643 278.544 16.6634 277.797 15.7368C277.725 15.6489 277.66 15.5556 277.603 15.4578L277.429 15.156C277.135 14.6468 276.807 14.1571 276.449 13.6903C276.232 13.4073 275.997 13.1387 275.745 12.8861C274.071 11.1956 271.396 10.0127 266.924 12.1614C264.807 13.3886 257.91 17.3288 257.91 17.3288C255.318 18.3956 253.336 17.0965 252.692 16.1433C252.663 16.1076 252.638 16.0691 252.616 16.0284L252.532 15.8845L252.095 15.1699C251.898 14.8569 251.686 14.5532 251.461 14.2597C251.242 13.9785 251.006 13.7104 250.756 13.4567C249.093 11.7764 246.432 10.596 241.999 12.7043C239.319 14.2344 233.085 17.7984 233.085 17.7984L233.082 17.8009L228.52 20.4079L230.88 23.3066C231.874 24.2534 233.741 25.8063 236.63 24.4971C236.63 24.4971 244.602 19.8802 244.634 19.8663C251.45 16.1256 254.813 19.6997 256.3 22.082C256.352 22.1565 256.394 22.2373 256.44 22.3092L256.443 22.313C256.462 22.3421 256.473 22.3686 256.49 22.3963L256.658 22.6716C257.382 23.7699 258.525 24.4794 259.887 24.4466C260.638 24.4315 261.148 24.1865 261.891 23.7737L269.604 19.2995L269.621 19.2919C276.523 15.5057 279.943 19.3134 281.403 21.6957C281.517 21.9015 281.646 22.0984 281.778 22.2815C282.502 23.2624 283.499 23.905 284.767 23.8734C285.604 23.857 286.542 23.3546 286.682 23.2624L295.929 17.9246C295.932 17.9272 294.988 16.4993 293.042 14.2748Z" fill="#A6AEBE"/>
</g>
<g clip-path="url(#clip2_4811_3663)">
<path d="M401.255 26.2262C407.698 23.3039 408.651 13.7676 399.486 13.7676H388.873L384.951 21.4581H386.797L382.105 39.8385H394.41C403.387 39.9153 407.425 29.3445 401.255 26.2262ZM394.41 33.1478H391.334L392.488 28.995H395.41C398.871 29.687 396.718 33.3015 394.41 33.1478ZM396.256 24.3035H393.641L394.41 20.689H397.333C400.156 21.3812 397.717 24.4574 396.256 24.3035Z" fill="#A6AEBE" stroke="#A6AEBE" stroke-width="0.220518"/>
<path d="M426.448 23.5897L430.477 16.4771L425.025 13.6333L424.314 14.511C421.373 12.9541 405.972 15.1037 405.008 30.2958C405.584 43.0402 419.865 40.7477 421.265 39.9391L425.193 31.8198C421.346 34.3536 413.47 35.57 413.137 27.9588C413.828 21.6824 421.238 19.3385 426.448 23.5897ZM446.553 13.7678H434.167L430.23 21.2282H432.253L422.918 39.8387H431.953L433.808 35.3499H439.355L439.493 39.8387H447.81L446.553 13.7678ZM436.321 29.3062L439.354 22.0659L439.493 29.3062H436.321Z" fill="#A6AEBE" stroke="#A6AEBE" stroke-width="0.220518"/>
<path d="M369.202 38.5939L369.683 38.4543L369.156 37.7251L369.202 38.5939ZM361.303 38.4698L361.21 39.1216C361.449 39.0983 361.744 39.3047 361.862 38.8422C361.853 38.4819 361.578 38.4621 361.303 38.4698ZM365.136 38.4543C365.096 38.2768 364.948 38.1461 364.577 38.2682L364.702 38.9353C365.006 38.8678 365.163 38.6877 365.136 38.4543ZM356.476 37.9083L356.328 38.5011C356.566 38.511 356.845 38.7042 357.003 38.3529C357.014 38.1328 357.023 37.9136 356.476 37.9083ZM364.81 39.4321L364.919 40.1151C365.173 40.1215 365.405 39.9686 365.338 39.6496C365.273 39.3426 365.015 39.3911 364.81 39.4321Z" fill="#A6AEBE"/>
<path d="M374.904 14.1191C366.686 9.93258 356.872 10.049 349.042 13.9365C345.004 21.0445 344.875 30.9896 349.042 39.798C357.668 44.1633 367.209 43.8758 374.965 39.9805C378.61 32.5021 379.212 23.5032 374.904 14.1191ZM361.025 35.3435L360.538 35.349C360.417 34.003 360.095 32.8717 359.405 32.006C356.24 28.0369 349.77 31.0251 351.433 24.2797C352.297 20.8312 362.157 18.7974 361.025 35.3435ZM351.444 28.6812C352.135 30.0879 356.465 30.3183 357.968 31.3951C360.353 33.103 360.01 35.3497 360.01 35.3497H359.448C358.341 31.9566 355.234 34.6431 352.746 33.7293C351.183 33.1736 350.049 30.7649 351.444 28.6812ZM359.333 39.7426L359.566 37.8958L359.985 37.9269L359.799 39.9598C359.611 40.8553 358.275 40.7356 358.107 39.8822L358.324 37.7716L358.821 37.8495L358.604 39.6185C358.631 40.2039 359.218 40.1689 359.333 39.7426ZM357.103 40.2469L356.626 40.1316C356.682 39.7369 357.15 38.9338 356.225 38.9338L355.967 39.9834L355.44 39.8846L356 37.3648C357.368 37.5138 357.488 37.8947 357.515 38.3035C357.461 38.6206 357.377 38.842 357.104 38.8963C357.423 39.1865 357.107 39.7947 357.103 40.2469ZM354.07 37.4245C353.938 37.5992 353.675 38.2093 353.636 38.6956C353.596 39.2109 354.091 39.1024 354.214 39.0422C354.314 38.994 354.388 38.58 354.388 38.58L354.041 38.4645L354.156 38.1181L354.937 38.378L354.561 39.6782L354.243 39.5913L354.272 39.3891C353.883 39.5664 353.171 39.4334 353.088 38.9847C353.004 38.6241 353.257 37.531 353.665 37.0203C354.062 36.5237 355.029 37.0091 355.052 37.3092C355.076 37.6082 354.958 37.9447 354.958 37.9447L354.594 37.8761C354.594 37.8761 354.616 37.7681 354.648 37.5979C354.681 37.4175 354.211 37.2369 354.07 37.4245ZM361.164 39.5406L361.071 40.6582L360.684 40.6428L360.823 37.9888C361.792 38.0089 362.347 38.143 362.329 38.827C362.271 39.7616 361.514 39.5514 361.164 39.5406ZM362.13 35.3495H361.481C361.424 33.0512 361.865 28.8475 360.658 25.7538C359.743 23.4086 357.428 22.3537 356.914 20.4592C356.102 17.4606 357.485 14.2161 362.13 13.9663C366.157 14.3798 367.395 17.4888 366.708 20.3836C365.527 23.2779 364.345 22.862 362.875 25.745C361.674 28.8356 362.131 32.8845 362.13 35.3495ZM369.328 39.6028L368.878 39.758L368.738 37.0887L369.265 36.9491L370.569 39.1527L370.212 39.3856L369.777 38.7651L369.281 38.9512L369.328 39.6028ZM364.077 35.3495H363.558C363.986 29.4471 371.403 30.7294 372.081 28.6812C373.253 30.7117 372.831 32.4238 371.607 33.3015C368.565 35.4833 365.649 31.6869 364.077 35.3495ZM366.829 38.3304L367.062 39.5565C367.207 39.839 367.305 39.7867 367.528 39.7583C367.785 39.5717 367.731 39.39 367.683 39.1529L368.133 39.091C368.25 39.9792 367.828 40.0699 367.512 40.1307C366.835 40.1792 366.702 40.0474 366.519 39.1686C366.412 38.4164 366.228 37.6221 366.86 37.477C367.898 37.3185 367.837 37.7857 367.931 38.1132L367.481 38.191C367.409 37.9097 367.306 37.7981 367.077 37.8188C366.869 37.9143 366.784 38.0689 366.829 38.3304ZM365.882 39.6028C365.904 39.9894 365.773 40.246 365.525 40.3323L364.47 40.5495L364.051 37.9888C364.268 37.9535 365.329 37.5646 365.587 38.2684C365.715 38.6982 365.583 38.8524 365.432 39.0442C365.718 39.136 365.814 39.3582 365.882 39.6028ZM363.172 26.7526C365.523 20.1326 370.903 21.3025 372.097 24.2799C373.731 30.2544 368.468 28.6159 365.096 31.0659C363.821 32.1742 363.151 33.4457 363.141 35.3733H362.563C362.529 31.4908 362.466 28.7416 363.172 26.7526Z" fill="#A6AEBE"/>
</g>
<g clip-path="url(#clip3_4811_3663)">
<path fill-rule="evenodd" clip-rule="evenodd" d="M576.567 33.4327C574.968 35.0566 573.057 35.8728 570.841 35.8728C569.049 35.8728 567.526 35.507 565.972 34.6029V30.8805C567.222 31.7294 568.793 32.5378 570.342 32.5378C573.574 32.5378 575.498 30.3106 575.498 27.1544C575.498 23.9956 573.508 21.7022 570.275 21.7022C568.831 21.7022 567.66 22.222 566.746 23.2639C565.766 24.3926 565.259 26.0059 565.259 28.1389V42.8378H565.016C563.234 42.8378 561.791 41.3926 561.791 39.6092V27.5871C561.791 22.4856 564.905 18.3665 570.259 18.3665C572.902 18.3665 575.049 19.2717 576.677 21.0901C578.208 22.7889 578.966 24.9415 578.966 27.532C578.966 29.8371 578.166 31.8077 576.567 33.4327ZM614.118 33.3081C612.527 35.0195 610.478 35.8728 607.994 35.8728C605.372 35.8728 603.236 34.9676 601.61 33.1496C600.08 31.4298 599.321 29.2753 599.321 26.7084C599.321 22.1643 602.824 18.3665 607.434 18.3665C609.211 18.3665 610.755 18.7426 612.315 19.5989V23.3603C611.065 22.511 609.494 21.7025 607.945 21.7025C604.713 21.7025 602.789 23.9294 602.789 27.0867C602.789 30.2011 604.825 32.5382 608.011 32.5382C609.454 32.5382 610.642 31.9967 611.593 30.9059C612.538 29.8224 613.028 28.2301 613.028 26.0912V14.3908C613.028 12.607 614.473 11.1621 616.253 11.1621H616.497V26.6397C616.497 29.3654 615.709 31.5967 614.118 33.3081ZM623.913 16.7147C623.549 17.1228 623.027 17.3106 622.391 17.3106C621.199 17.3106 620.348 16.4316 620.348 15.2485C620.348 14.0378 621.184 13.2206 622.39 13.2206C623.551 13.2206 624.433 14.0823 624.433 15.2485C624.433 15.8257 624.264 16.3202 623.913 16.7147ZM641.535 26.0908C641.535 24.7217 641.018 23.6378 639.979 22.8169C639.042 22.0779 637.873 21.7022 636.45 21.7022C633.311 21.7022 631.296 24.1592 631.296 27.1889C631.296 30.1044 633.432 32.5378 636.417 32.5378C638.494 32.5378 639.604 31.3235 640.788 29.8106V34.1724C640.185 34.625 639.491 35.1184 638.783 35.4081C638.035 35.7206 637.143 35.8728 636.112 35.8728C631.12 35.8728 627.828 31.7331 627.828 26.9489C627.828 24.4923 628.59 22.4614 630.124 20.8776C631.752 19.1992 633.888 18.3665 636.502 18.3665C641.458 18.3665 645.004 21.2162 645.004 26.365V35.5298H644.761C642.979 35.5298 641.535 34.0842 641.535 32.3003V26.0908ZM594.057 25.107C593.619 23.75 593.069 23.082 591.806 22.3753C588.8 20.6941 585.842 22.1253 584.466 25.0941L594.057 25.107ZM591.41 35.8217C589.195 36.293 587.021 35.9294 584.901 34.7426C582.832 33.586 581.446 31.8658 580.752 29.5926C579.348 24.9952 582.224 19.872 586.85 18.6316C589.143 18.0169 591.341 18.2952 593.43 19.4636C596.899 21.4055 598.163 24.4088 597.942 28.2787L583.97 28.2507C584.175 29.829 585.153 31.0639 586.527 31.832C587.919 32.6114 589.199 32.7974 590.387 32.4287C591.707 32.0139 592.777 30.936 593.647 29.9323L596.495 32.0099C595.333 34.0908 593.752 35.3224 591.41 35.8217ZM620.656 18.7103H624.124V35.5294H623.88C622.1 35.5294 620.656 34.0838 620.656 32.3L620.656 18.7103ZM503.021 35.5294C499.629 35.5294 497.945 33.2195 497.945 29.9926V17.7537C497.945 15.9706 499.389 14.5246 501.171 14.5246H501.414V18.7106H507.274V22.0459H501.414V30.3798C501.414 31.797 502.046 32.1948 503.398 32.1948H507.274V35.5301L503.021 35.5294ZM523.163 33.4033C521.45 35.0481 519.391 35.8724 516.998 35.8724C514.628 35.8724 512.58 35.0474 510.867 33.4033C509.148 31.7525 508.291 29.6514 508.291 27.1198C508.291 22.1801 512.057 18.3669 516.998 18.3669C519.369 18.3669 521.423 19.1978 523.146 20.854C524.876 22.5151 525.741 24.6099 525.741 27.1198C525.741 29.6514 524.882 31.7522 523.163 33.4033ZM539.379 22.7573C538.87 23.6117 538.476 24.2242 538.198 24.5945C537.892 24.997 537.59 25.3187 537.291 25.5408C539.701 26.3202 540.599 27.9923 540.599 30.4831V35.5294H540.356C538.574 35.5294 537.13 34.0838 537.13 32.3V30.8253C537.13 29.2125 536.408 28.1184 534.701 28.1184H531.552V35.5294H531.308C529.527 35.5294 528.084 34.0838 528.084 32.3V14.3908C528.084 12.607 529.527 11.1621 531.308 11.1621H531.552V24.7492H532.577C533.703 24.7492 534.443 24.3632 534.868 23.6334L537.781 18.711L541.734 18.7073L539.379 22.7573ZM557.283 33.4037C555.569 35.0485 553.509 35.8728 551.117 35.8728C548.747 35.8728 546.699 35.0478 544.985 33.4037C543.266 31.7529 542.409 29.6518 542.409 27.1202C542.409 22.1805 546.177 18.3673 551.117 18.3673C553.488 18.3673 555.541 19.1981 557.266 20.8544C558.996 22.5154 559.859 24.6103 559.859 27.1202C559.859 29.6518 559.002 31.7525 557.283 33.4037ZM554.779 23.2059C553.823 22.2048 552.609 21.7022 551.117 21.7022C547.925 21.7022 546.014 24.032 546.014 27.1202C546.014 30.1654 547.971 32.5378 551.117 32.5378C554.264 32.5378 556.22 30.1654 556.22 27.1202C556.22 25.5033 555.734 24.2059 554.779 23.2059ZM520.66 23.2059C519.705 22.2048 518.491 21.7022 516.999 21.7022C513.807 21.7022 511.896 24.032 511.896 27.1202C511.896 30.1654 513.852 32.5378 516.998 32.5378C520.145 32.5378 522.1 30.1654 522.1 27.1202C522.1 25.5033 521.616 24.2059 520.66 23.2059Z" fill="#A6AEBE"/>
</g>
<path d="M695.198 10.154V7.274H700.346V20H697.106V10.154H695.198ZM702.172 13.502C702.172 15.494 702.574 17.072 703.378 18.236C704.182 19.4 705.466 19.982 707.23 19.982C708.982 19.982 710.26 19.4 711.064 18.236C711.88 17.072 712.288 15.494 712.288 13.502C712.288 11.522 711.88 9.956 711.064 8.804C710.26 7.64 708.982 7.058 707.23 7.058C705.466 7.058 704.182 7.64 703.378 8.804C702.574 9.956 702.172 11.522 702.172 13.502ZM709.228 13.502C709.228 14.642 709.09 15.524 708.814 16.148C708.55 16.76 708.022 17.066 707.23 17.066C706.426 17.066 705.886 16.76 705.61 16.148C705.334 15.524 705.196 14.642 705.196 13.502C705.196 12.374 705.334 11.504 705.61 10.892C705.886 10.28 706.426 9.974 707.23 9.974C708.022 9.974 708.55 10.28 708.814 10.892C709.09 11.492 709.228 12.362 709.228 13.502ZM713.756 13.502C713.756 15.494 714.158 17.072 714.962 18.236C715.766 19.4 717.05 19.982 718.814 19.982C720.566 19.982 721.844 19.4 722.648 18.236C723.464 17.072 723.872 15.494 723.872 13.502C723.872 11.522 723.464 9.956 722.648 8.804C721.844 7.64 720.566 7.058 718.814 7.058C717.05 7.058 715.766 7.64 714.962 8.804C714.158 9.956 713.756 11.522 713.756 13.502ZM720.812 13.502C720.812 14.642 720.674 15.524 720.398 16.148C720.134 16.76 719.606 17.066 718.814 17.066C718.01 17.066 717.47 16.76 717.194 16.148C716.918 15.524 716.78 14.642 716.78 13.502C716.78 12.374 716.918 11.504 717.194 10.892C717.47 10.28 718.01 9.974 718.814 9.974C719.606 9.974 720.134 10.28 720.398 10.892C720.674 11.492 720.812 12.362 720.812 13.502ZM734.232 15.122H731.118V18.29H728.148V15.122H725.034V12.296H728.148V9.11H731.118V12.296H734.232V15.122ZM746.971 13.448C747.739 13.628 748.345 14 748.789 14.564C749.245 15.128 749.473 15.782 749.473 16.526C749.473 17.618 749.107 18.47 748.375 19.082C747.655 19.694 746.617 20 745.261 20H739.339V7.274H745.117C746.413 7.274 747.415 7.556 748.123 8.12C748.831 8.684 749.185 9.488 749.185 10.532C749.185 11.3 748.981 11.942 748.573 12.458C748.165 12.962 747.631 13.292 746.971 13.448ZM742.417 12.476H744.433C745.501 12.476 746.035 12.02 746.035 11.108C746.035 10.196 745.489 9.74 744.397 9.74H742.417V12.476ZM744.613 17.498C745.753 17.498 746.323 17.03 746.323 16.094C746.323 15.638 746.173 15.284 745.873 15.032C745.573 14.768 745.147 14.636 744.595 14.636H742.417V17.498H744.613ZM750.811 7.13C750.811 6.662 750.979 6.278 751.315 5.978C751.651 5.666 752.095 5.51 752.647 5.51C753.199 5.51 753.643 5.666 753.979 5.978C754.315 6.278 754.483 6.662 754.483 7.13C754.483 7.586 754.315 7.97 753.979 8.282C753.643 8.582 753.199 8.732 752.647 8.732C752.095 8.732 751.651 8.582 751.315 8.282C750.979 7.97 750.811 7.586 750.811 7.13ZM754.177 9.956V20H751.099V9.956H754.177ZM760.118 9.83C760.886 9.83 761.546 10.004 762.098 10.352C762.65 10.7 763.058 11.174 763.322 11.774V9.956H766.382V19.946C766.382 20.882 766.202 21.722 765.842 22.466C765.482 23.222 764.93 23.822 764.186 24.266C763.442 24.71 762.518 24.932 761.414 24.932C759.902 24.932 758.69 24.572 757.778 23.852C756.878 23.144 756.338 22.178 756.158 20.954H759.2C759.296 21.362 759.512 21.68 759.848 21.908C760.196 22.136 760.646 22.25 761.198 22.25C761.834 22.25 762.344 22.064 762.728 21.692C763.124 21.332 763.322 20.75 763.322 19.946V18.182C763.058 18.782 762.65 19.256 762.098 19.604C761.546 19.952 760.886 20.126 760.118 20.126C759.29 20.126 758.546 19.922 757.886 19.514C757.238 19.094 756.722 18.494 756.338 17.714C755.966 16.934 755.78 16.022 755.78 14.978C755.78 13.922 755.966 13.01 756.338 12.242C756.722 11.462 757.238 10.868 757.886 10.46C758.546 10.04 759.29 9.83 760.118 9.83ZM761.108 12.53C760.448 12.53 759.914 12.746 759.506 13.178C759.11 13.61 758.912 14.21 758.912 14.978C758.912 15.746 759.11 16.346 759.506 16.778C759.914 17.21 760.448 17.426 761.108 17.426C761.756 17.426 762.284 17.204 762.692 16.76C763.112 16.316 763.322 15.722 763.322 14.978C763.322 14.222 763.112 13.628 762.692 13.196C762.284 12.752 761.756 12.53 761.108 12.53ZM701.876 34.148C703.496 34.148 704.834 34.574 705.89 35.426C706.958 36.278 707.648 37.43 707.96 38.882H704.702C704.462 38.294 704.09 37.832 703.586 37.496C703.094 37.16 702.506 36.992 701.822 36.992C700.922 36.992 700.196 37.322 699.644 37.982C699.092 38.642 698.816 39.524 698.816 40.628C698.816 41.732 699.092 42.614 699.644 43.274C700.196 43.922 700.922 44.246 701.822 44.246C702.506 44.246 703.094 44.078 703.586 43.742C704.09 43.406 704.462 42.95 704.702 42.374H707.96C707.648 43.814 706.958 44.966 705.89 45.83C704.834 46.682 703.496 47.108 701.876 47.108C700.64 47.108 699.554 46.838 698.618 46.298C697.682 45.746 696.956 44.978 696.44 43.994C695.936 43.01 695.684 41.888 695.684 40.628C695.684 39.368 695.936 38.246 696.44 37.262C696.956 36.278 697.682 35.516 698.618 34.976C699.554 34.424 700.64 34.148 701.876 34.148ZM714.383 36.83C715.379 36.83 716.267 37.04 717.047 37.46C717.839 37.868 718.457 38.462 718.901 39.242C719.357 40.022 719.585 40.934 719.585 41.978C719.585 43.022 719.357 43.934 718.901 44.714C718.457 45.494 717.839 46.094 717.047 46.514C716.267 46.922 715.379 47.126 714.383 47.126C713.387 47.126 712.493 46.922 711.701 46.514C710.909 46.094 710.285 45.494 709.829 44.714C709.385 43.934 709.163 43.022 709.163 41.978C709.163 40.934 709.385 40.022 709.829 39.242C710.285 38.462 710.909 37.868 711.701 37.46C712.493 37.04 713.387 36.83 714.383 36.83ZM714.383 39.494C713.795 39.494 713.297 39.71 712.889 40.142C712.493 40.562 712.295 41.174 712.295 41.978C712.295 42.782 712.493 43.394 712.889 43.814C713.297 44.234 713.795 44.444 714.383 44.444C714.971 44.444 715.463 44.234 715.859 43.814C716.255 43.394 716.453 42.782 716.453 41.978C716.453 41.174 716.255 40.562 715.859 40.142C715.463 39.71 714.971 39.494 714.383 39.494ZM734.195 36.848C735.431 36.848 736.403 37.232 737.111 38C737.819 38.756 738.173 39.812 738.173 41.168V47H735.113V41.528C735.113 40.892 734.939 40.4 734.591 40.052C734.255 39.692 733.793 39.512 733.205 39.512C732.593 39.512 732.107 39.704 731.747 40.088C731.399 40.46 731.225 40.988 731.225 41.672V47H728.147V41.528C728.147 40.892 727.979 40.4 727.643 40.052C727.307 39.692 726.845 39.512 726.257 39.512C725.645 39.512 725.159 39.698 724.799 40.07C724.439 40.442 724.259 40.976 724.259 41.672V47H721.181V36.956H724.259V38.666C724.523 38.102 724.925 37.658 725.465 37.334C726.017 37.01 726.659 36.848 727.391 36.848C728.159 36.848 728.837 37.028 729.425 37.388C730.013 37.736 730.457 38.24 730.757 38.9C731.105 38.276 731.579 37.778 732.179 37.406C732.791 37.034 733.463 36.848 734.195 36.848ZM746.482 36.83C747.31 36.83 748.048 37.04 748.696 37.46C749.356 37.868 749.872 38.462 750.244 39.242C750.628 40.01 750.82 40.922 750.82 41.978C750.82 43.022 750.628 43.934 750.244 44.714C749.872 45.494 749.356 46.094 748.696 46.514C748.048 46.922 747.31 47.126 746.482 47.126C745.714 47.126 745.054 46.952 744.502 46.604C743.95 46.256 743.548 45.782 743.296 45.182V51.788H740.218V36.956H743.296V38.774C743.548 38.174 743.95 37.7 744.502 37.352C745.054 37.004 745.714 36.83 746.482 36.83ZM745.492 39.53C744.844 39.53 744.31 39.752 743.89 40.196C743.482 40.628 743.278 41.222 743.278 41.978C743.278 42.722 743.482 43.316 743.89 43.76C744.31 44.204 744.844 44.426 745.492 44.426C746.152 44.426 746.68 44.21 747.076 43.778C747.484 43.346 747.688 42.746 747.688 41.978C747.688 41.21 747.484 40.61 747.076 40.178C746.68 39.746 746.152 39.53 745.492 39.53ZM756.233 36.83C757.001 36.83 757.661 37.004 758.213 37.352C758.765 37.7 759.173 38.174 759.437 38.774V36.956H762.497V47H759.437V45.182C759.173 45.782 758.765 46.256 758.213 46.604C757.661 46.952 757.001 47.126 756.233 47.126C755.405 47.126 754.661 46.922 754.001 46.514C753.353 46.094 752.837 45.494 752.453 44.714C752.081 43.934 751.895 43.022 751.895 41.978C751.895 40.922 752.081 40.01 752.453 39.242C752.837 38.462 753.353 37.868 754.001 37.46C754.661 37.04 755.405 36.83 756.233 36.83ZM757.223 39.53C756.563 39.53 756.029 39.746 755.621 40.178C755.225 40.61 755.027 41.21 755.027 41.978C755.027 42.746 755.225 43.346 755.621 43.778C756.029 44.21 756.563 44.426 757.223 44.426C757.871 44.426 758.399 44.204 758.807 43.76C759.227 43.316 759.437 42.722 759.437 41.978C759.437 41.222 759.227 40.628 758.807 40.196C758.399 39.752 757.871 39.53 757.223 39.53ZM770.989 36.848C772.141 36.848 773.053 37.232 773.725 38C774.409 38.768 774.751 39.824 774.751 41.168V47H771.673V41.528C771.673 40.856 771.493 40.334 771.133 39.962C770.785 39.578 770.317 39.386 769.729 39.386C769.105 39.386 768.607 39.584 768.235 39.98C767.875 40.376 767.695 40.94 767.695 41.672V47H764.617V36.956H767.695V38.792C767.983 38.192 768.409 37.718 768.973 37.37C769.549 37.022 770.221 36.848 770.989 36.848ZM776.493 34.13C776.493 33.662 776.661 33.278 776.997 32.978C777.333 32.666 777.777 32.51 778.329 32.51C778.881 32.51 779.325 32.666 779.661 32.978C779.997 33.278 780.165 33.662 780.165 34.13C780.165 34.586 779.997 34.97 779.661 35.282C779.325 35.582 778.881 35.732 778.329 35.732C777.777 35.732 777.333 35.582 776.997 35.282C776.661 34.97 776.493 34.586 776.493 34.13ZM779.859 36.956V47H776.781V36.956H779.859ZM791.524 41.708C791.524 41.96 791.494 42.236 791.434 42.536H784.468C784.504 43.292 784.696 43.838 785.044 44.174C785.392 44.498 785.836 44.66 786.376 44.66C786.832 44.66 787.21 44.546 787.51 44.318C787.81 44.09 788.008 43.796 788.104 43.436H791.362C791.23 44.144 790.942 44.78 790.498 45.344C790.054 45.896 789.49 46.334 788.806 46.658C788.122 46.97 787.36 47.126 786.52 47.126C785.536 47.126 784.66 46.922 783.892 46.514C783.136 46.094 782.542 45.494 782.11 44.714C781.678 43.934 781.462 43.022 781.462 41.978C781.462 40.922 781.672 40.01 782.092 39.242C782.524 38.462 783.124 37.868 783.892 37.46C784.66 37.04 785.536 36.83 786.52 36.83C787.516 36.83 788.392 37.034 789.148 37.442C789.904 37.85 790.486 38.426 790.894 39.17C791.314 39.902 791.524 40.748 791.524 41.708ZM788.41 41.24C788.422 40.58 788.242 40.088 787.87 39.764C787.51 39.428 787.06 39.26 786.52 39.26C785.956 39.26 785.488 39.428 785.116 39.764C784.744 40.1 784.534 40.592 784.486 41.24H788.41ZM796.782 36.83C798.054 36.83 799.068 37.148 799.824 37.784C800.592 38.42 801.072 39.26 801.264 40.304H798.384C798.3 39.896 798.108 39.578 797.808 39.35C797.52 39.11 797.154 38.99 796.71 38.99C796.362 38.99 796.098 39.068 795.918 39.224C795.738 39.368 795.648 39.578 795.648 39.854C795.648 40.166 795.81 40.4 796.134 40.556C796.47 40.712 796.992 40.868 797.7 41.024C798.468 41.204 799.098 41.39 799.59 41.582C800.082 41.762 800.508 42.062 800.868 42.482C801.228 42.902 801.408 43.466 801.408 44.174C801.408 44.75 801.252 45.26 800.94 45.704C800.628 46.148 800.178 46.496 799.59 46.748C799.002 47 798.306 47.126 797.502 47.126C796.146 47.126 795.06 46.826 794.244 46.226C793.428 45.626 792.93 44.768 792.75 43.652H795.72C795.768 44.084 795.948 44.414 796.26 44.642C796.584 44.87 796.998 44.984 797.502 44.984C797.85 44.984 798.114 44.906 798.294 44.75C798.474 44.582 798.564 44.366 798.564 44.102C798.564 43.754 798.396 43.508 798.06 43.364C797.736 43.208 797.202 43.046 796.458 42.878C795.714 42.722 795.102 42.554 794.622 42.374C794.142 42.194 793.728 41.906 793.38 41.51C793.032 41.102 792.858 40.55 792.858 39.854C792.858 38.954 793.2 38.228 793.884 37.676C794.568 37.112 795.534 36.83 796.782 36.83Z" fill="#A6AEBE"/>
<defs>
<clipPath id="clip0_4811_3663">
<rect width="136.054" height="32" fill="white" transform="translate(0 11)"/>
</clipPath>
<clipPath id="clip1_4811_3663">
<rect width="109.89" height="32" fill="white" transform="translate(186.055 11)"/>
</clipPath>
<clipPath id="clip2_4811_3663">
<rect width="102" height="31.9872" fill="white" transform="translate(345.945 11)"/>
</clipPath>
<clipPath id="clip3_4811_3663">
<rect width="147.059" height="32" fill="white" transform="translate(497.945 11)"/>
</clipPath>
</defs>
</svg>
