<svg width="70" height="70" viewBox="0 0 70 70" fill="none" xmlns="http://www.w3.org/2000/svg">
<path d="M56.6206 47.9709C53.8466 50.801 49.9664 52.4014 45.7632 52.4071C41.5573 52.4155 37.6742 50.8263 34.9002 48.0046C33.544 46.6288 32.5501 45.0508 31.9324 43.3634C31.3288 41.7069 31.0985 39.9352 31.2529 38.1804C31.4018 36.4677 31.9071 34.8027 32.741 33.2978C33.5525 31.8265 34.6671 30.4985 36.0429 29.3754C38.7383 27.1769 42.1693 25.9893 45.7632 25.9837C49.3571 25.978 52.7853 27.1601 55.4835 29.3473C56.8565 30.4676 57.9711 31.79 58.7798 33.2584C59.6137 34.7634 60.1219 36.4255 60.2707 38.1383C60.4251 39.8959 60.192 41.6647 59.5884 43.3241C58.9707 45.0087 57.974 46.5895 56.6206 47.9709V47.9709Z" fill="white"/>
<path d="M36.7954 38.36C36.9217 36.0717 38.0448 34.053 39.735 32.6239C41.3944 31.2172 43.6293 30.3608 46.0636 30.3608C48.5007 30.3636 50.7329 31.22 52.3922 32.6239C54.0825 34.0558 55.2055 36.0717 55.3347 38.36C55.4639 40.7129 54.5177 42.9001 52.8583 44.5201C51.1681 46.1683 48.759 47.2043 46.0636 47.2043C43.3682 47.2043 40.9564 46.1683 39.2662 44.5201C37.6096 42.9001 36.6662 40.7129 36.7954 38.36V38.36Z" fill="#005385"/>
<path d="M22.0296 42.9928C22.0464 43.8856 22.3328 45.6264 22.7596 46.9882C23.6608 49.8661 25.1882 52.5306 27.3165 54.8778C29.5009 57.2897 32.1851 59.227 35.2904 60.6C38.5558 62.0459 42.0907 62.7844 45.7603 62.7759C49.43 62.7703 52.9649 62.0207 56.2275 60.5635C59.33 59.1736 62.0142 57.2307 64.1958 54.8133C66.3212 52.4548 67.8458 49.7875 68.7471 46.9095C69.1963 45.4748 69.4855 43.9951 69.6034 42.4986C69.7158 41.0386 69.668 39.5674 69.4631 38.1158C69.0588 35.2688 68.0732 32.5986 66.5571 30.1643C65.1673 27.9294 63.3816 25.9696 61.2561 24.3187L61.2589 24.3159L39.8136 7.85144C39.7968 7.83741 39.7771 7.82056 39.7603 7.80652C38.348 6.72836 35.9839 6.73117 34.4368 7.81494C32.8701 8.90995 32.6933 10.7209 34.0831 11.8637L34.0775 11.8665L43.0228 19.1441L15.7515 19.1721H15.715C13.4632 19.175 11.2957 20.6546 10.8661 22.5217C10.4281 24.4254 11.9583 26.0033 14.3027 26.0145L14.2999 26.023L28.1223 25.9949L3.45653 44.9273C3.42565 44.9526 3.39195 44.975 3.36388 44.9975C1.03909 46.7776 0.286622 49.7425 1.74944 51.6181C3.23753 53.5245 6.39901 53.5273 8.75188 51.6265L22.2121 40.6118C22.2121 40.6118 22.0155 42.0999 22.0296 42.9928V42.9928ZM56.6206 47.9709C53.8466 50.801 49.9663 52.4014 45.7632 52.4071C41.5572 52.4155 37.6741 50.8263 34.9001 48.0046C33.544 46.6288 32.5501 45.0508 31.9324 43.3634C31.3287 41.7069 31.0985 39.9352 31.2529 38.1804C31.4017 36.4677 31.9071 34.8027 32.741 33.2978C33.5524 31.8265 34.6671 30.4985 36.0429 29.3754C38.7383 27.1769 42.1693 25.9893 45.7632 25.9837C49.357 25.978 52.7852 27.1601 55.4835 29.3473C56.8564 30.4676 57.9711 31.79 58.7797 33.2584C59.6136 34.7634 60.1218 36.4255 60.2706 38.1383C60.425 39.8959 60.192 41.6647 59.5883 43.3241C58.9706 45.0087 57.9739 46.5895 56.6206 47.9709V47.9709Z" fill="#FF7021"/>
</svg>
