<svg width="26" height="36" viewBox="0 0 26 36" fill="none" xmlns="http://www.w3.org/2000/svg">
<g clip-path="url(#clip0_3900_3176)">
<path d="M17.0673 13.003L13.467 16.3552L10.125 9.61142L11.8514 5.73384C12.2878 4.96037 13.0014 4.95016 13.4378 5.73384L17.0673 13.003Z" fill="#FFA000"/>
<path d="M13.4672 16.3537L0 28.8795L10.1252 9.61133L13.4672 16.3537Z" fill="#F57F17"/>
<path d="M21.0136 7.87616C21.6587 7.26176 22.3227 7.46899 22.4905 8.3417L25.9916 28.7103L14.3793 35.6817C13.9721 35.9094 12.8922 35.9984 12.8922 35.9984C12.8922 35.9984 11.91 35.8788 11.5335 35.6715L0 28.8796L21.0136 7.87616Z" fill="#FFCA28"/>
<path d="M10.1252 9.61172L0 28.8799L4.5124 0.716797C4.68169 -0.155912 5.17642 -0.244934 5.62299 0.528537L10.1252 9.61172Z" fill="#FFA000"/>
</g>
<defs>
<clipPath id="clip0_3900_3176">
<rect width="25.9916" height="36" fill="white"/>
</clipPath>
</defs>
</svg>
