<svg width="36" height="36" viewBox="0 0 36 36" fill="none" xmlns="http://www.w3.org/2000/svg">
<g clip-path="url(#clip0_3931_3168)">
<path fill-rule="evenodd" clip-rule="evenodd" d="M1.68847 24.8206C-0.562852 22.5883 -0.562816 18.9692 1.68853 16.737L7.8033 10.6742C9.7065 8.78717 12.6093 8.49533 14.8216 9.79867C15.506 10.2018 15.5 11.1266 14.9372 11.6846C14.3744 12.2427 13.4555 12.1947 12.6916 11.9731C11.7133 11.6894 10.6131 11.9301 9.84157 12.6951L3.72677 18.7579C2.6011 19.874 2.60108 21.6835 3.72674 22.7997C4.85242 23.9158 6.67755 23.9158 7.80322 22.7997L20.0326 10.6743C22.2841 8.44203 25.9342 8.44202 28.1856 10.6742L34.3004 16.737C36.5518 18.9691 36.5518 22.5883 34.3004 24.8206C32.0491 27.0528 28.3989 27.0528 26.1475 24.8206L24.1093 22.7997L21.5615 25.3258C19.6582 27.2128 16.7554 27.5047 14.543 26.2013C13.8587 25.7982 13.8647 24.8734 14.4276 24.3154C14.9904 23.7573 15.9091 23.8053 16.6732 24.0268C17.6515 24.3106 18.7516 24.0699 19.5232 23.3049L22.1438 20.7066C23.2293 19.6303 24.9892 19.6303 26.0747 20.7066L28.1858 22.7997C29.3114 23.9158 31.1365 23.9158 32.2622 22.7997C33.3878 21.6835 33.3878 19.874 32.2622 18.7579L26.1473 12.6952C25.0216 11.5791 23.1966 11.5791 22.0709 12.6952L9.8415 24.8206C7.59007 27.0529 3.93983 27.0529 1.68847 24.8206Z" fill="#0468FD"/>
</g>
<defs>
<clipPath id="clip0_3931_3168">
<rect width="36" height="18" fill="white" transform="translate(0 9)"/>
</clipPath>
</defs>
</svg>
