<svg width="36" height="36" viewBox="0 0 36 36" fill="none" xmlns="http://www.w3.org/2000/svg">
<path d="M17.9727 0.0981445L18.9334 1.90252C19.1494 2.2355 19.3834 2.53022 19.659 2.80471C20.467 3.60264 21.2202 4.45427 21.9133 5.35378C23.5411 7.49113 24.639 9.86471 25.4231 12.4318C25.8933 13.9999 26.1487 15.6086 26.1678 17.2352C26.2465 22.0982 24.5794 26.2739 21.2181 29.7443C20.6714 30.2947 20.0807 30.7995 19.452 31.254C19.119 31.254 18.9615 30.9986 18.8243 30.7635C18.5744 30.3275 18.408 29.8487 18.3338 29.3517C18.2157 28.7634 18.1381 28.1751 18.1763 27.5676V27.2931C18.1493 27.2346 17.8557 0.23651 17.9727 0.0981445V0.0981445Z" fill="#599636"/>
<path d="M17.9724 0.0387007C17.933 -0.0400438 17.8937 0.019577 17.8543 0.0578243C17.8734 0.451547 17.7362 0.802522 17.5213 1.13775C17.2851 1.47073 16.9724 1.72608 16.6585 2.00056C14.9149 3.51021 13.5425 5.33371 12.4434 7.37319C10.981 10.118 10.2273 13.0597 10.0136 16.1566C9.91572 17.2736 10.3668 21.2153 10.7189 22.3526C11.6796 25.3719 13.4052 27.9019 15.6404 30.0977C16.1894 30.6264 16.7766 31.1169 17.3841 31.5882C17.5607 31.5882 17.5798 31.4308 17.6203 31.3138C17.6977 31.0634 17.7568 30.8078 17.7969 30.5488L18.1906 27.6083L17.9724 0.0387007Z" fill="#6CAC48"/>
<path d="M18.9318 32.4487C18.9712 31.9988 19.1872 31.6253 19.4223 31.2529C19.1861 31.1551 19.0106 30.9605 18.8733 30.7433C18.755 30.5378 18.657 30.3211 18.5809 30.0965C18.3064 29.2731 18.2479 28.4091 18.1691 27.5677V27.0581C18.0713 27.1368 18.051 27.8028 18.051 27.9018C17.9938 28.7911 17.8758 29.6755 17.6978 30.5487C17.6393 30.902 17.5999 31.2541 17.3828 31.5679C17.3828 31.6073 17.3828 31.6467 17.4019 31.7052C17.7552 32.7446 17.8519 33.8031 17.9115 34.8819V35.2757C17.9115 35.7459 17.8924 35.6469 18.2827 35.8044C18.4402 35.8629 18.6157 35.8831 18.7732 36.0001C18.8913 36.0001 18.9105 35.9022 18.9105 35.8235L18.852 35.1767V33.3723C18.8328 33.0573 18.8913 32.7446 18.9307 32.4499L18.9318 32.4487Z" fill="#C2BFBF"/>
</svg>
