<svg width="48" height="48" viewBox="0 0 48 48" fill="none" xmlns="http://www.w3.org/2000/svg">
<g clip-path="url(#clip0_985_671)">
<circle cx="24" cy="24" r="24" fill="#E8EFFF"/>
<mask id="mask0_985_671" style="mask-type:alpha" maskUnits="userSpaceOnUse" x="0" y="0" width="48" height="48">
<circle cx="24" cy="24" r="24" fill="#E8EFFF"/>
</mask>
<g mask="url(#mask0_985_671)">
<rect x="17" y="16" width="28" height="41" rx="5" fill="#B7C8EC"/>
<rect x="8" y="12" width="34" height="42.5" rx="3" fill="#6A84FF"/>
<rect x="8" y="18.375" width="34" height="42.5" fill="#506FFF"/>
<rect x="17" y="40" width="15" height="2" rx="1" fill="white"/>
<rect x="19" y="44" width="11" height="2" rx="1" fill="#A7B7FF"/>
<rect x="15" y="24" width="19" height="12" rx="1" fill="#6F89FF"/>
<mask id="mask1_985_671" style="mask-type:alpha" maskUnits="userSpaceOnUse" x="15" y="24" width="19" height="12">
<rect x="15" y="24" width="19" height="12" rx="1" fill="#6F89FF"/>
</mask>
<g mask="url(#mask1_985_671)">
<rect x="17" y="29.7143" width="3.67925" height="8.35714" rx="1" fill="#8097FF"/>
<rect x="22.6604" y="27.8571" width="3.67925" height="10.2143" rx="1" fill="#8097FF"/>
<rect x="28.3208" y="26" width="3.67925" height="12.0714" rx="1" fill="#48C5A1"/>
</g>
<rect x="17.1" y="21.1" width="18.8" height="12.8" rx="0.9" stroke="white" stroke-width="0.2"/>
<circle cx="25" cy="11" r="7" fill="#F4A42B"/>
<circle r="2.43056" transform="matrix(4.37114e-08 1 1 -4.37114e-08 24.5556 10.5556)" stroke="white" stroke-width="0.583333"/>
<rect width="2.72222" height="0.777778" rx="0.388889" transform="matrix(0.707107 0.707107 0.707107 -0.707107 26.1111 12.2722)" fill="white"/>
</g>
</g>
<defs>
<clipPath id="clip0_985_671">
<rect width="48" height="48" fill="white"/>
</clipPath>
</defs>
</svg>
