<svg width="48" height="48" viewBox="0 0 48 48" fill="none" xmlns="http://www.w3.org/2000/svg">
<g clip-path="url(#clip0_958_669)">
<circle cx="24" cy="24" r="24" fill="#E8EFFF"/>
<mask id="mask0_958_669" style="mask-type:alpha" maskUnits="userSpaceOnUse" x="0" y="0" width="48" height="48">
<circle cx="24" cy="24" r="24" fill="#E8EFFF"/>
</mask>
<g mask="url(#mask0_958_669)">
<path d="M34.5 2.5C34.5 2.22386 34.7241 1.99847 34.9997 2.0147C36.5053 2.10335 37.9634 2.59131 39.2223 3.43251C40.6202 4.3665 41.7096 5.69402 42.353 7.24719C42.9963 8.80036 43.1646 10.5094 42.8367 12.1583C42.5087 13.8071 41.6992 15.3217 40.5104 16.5104C39.3217 17.6992 37.8071 18.5087 36.1583 18.8367C34.5094 19.1646 32.8004 18.9963 31.2472 18.353C29.694 17.7096 28.3665 16.6202 27.4325 15.2223C26.5913 13.9634 26.1034 12.5053 26.0147 10.9997C25.9985 10.7241 26.2239 10.5 26.5 10.5L34 10.5C34.2761 10.5 34.5 10.2761 34.5 10L34.5 2.5Z" fill="#B7C8EC"/>
<path d="M24.5 8.5C24.2239 8.5 23.9985 8.27595 24.0147 8.00028C24.0704 7.05491 24.2837 6.12427 24.647 5.24719C25.0742 4.21592 25.7003 3.27889 26.4896 2.48959C27.2789 1.70029 28.2159 1.07419 29.2472 0.647022C30.1243 0.283722 31.0549 0.0703751 32.0003 0.0147015C32.276 -0.00153387 32.5 0.223858 32.5 0.5L32.5 8C32.5 8.27614 32.2761 8.5 32 8.5L24.5 8.5Z" fill="#B7C8EC"/>
<rect x="7" y="12.5625" width="34" height="42.5" rx="3" fill="#6A84FF"/>
<rect x="7" y="18.9375" width="34" height="42.5" fill="#506FFF"/>
<rect x="12.3125" y="38.0625" width="6.375" height="13.8125" rx="1" fill="#6F89FF"/>
<circle cx="14.4375" cy="32.8125" r="1.0625" fill="white"/>
<circle cx="19.75" cy="26.4375" r="1.0625" fill="white"/>
<circle cx="24" cy="28.5625" r="1.0625" fill="white"/>
<circle cx="28.25" cy="23.25" r="1.0625" fill="white"/>
<circle cx="33.0625" cy="26.0625" r="1.0625" fill="white"/>
<path d="M14.4375 32.8125L19.75 26.4375L24 28.5625L28.25 23.25L33 26" stroke="white" stroke-width="0.5" stroke-linejoin="round"/>
<rect x="20.8125" y="33.8125" width="6.375" height="18.0625" rx="1" fill="#6F89FF"/>
<rect x="29.3125" y="30.625" width="6.375" height="21.25" rx="1" fill="#48C5A1"/>
</g>
<circle cx="10" cy="16" r="1" fill="#98AAFF"/>
<circle cx="13" cy="16" r="1" fill="#98AAFF"/>
<circle cx="16" cy="16" r="1" fill="#98AAFF"/>
</g>
<defs>
<clipPath id="clip0_958_669">
<rect width="48" height="48" fill="white"/>
</clipPath>
</defs>
</svg>
