<svg width="48" height="48" viewBox="0 0 48 48" fill="none" xmlns="http://www.w3.org/2000/svg">
<g clip-path="url(#clip0_158_13)">
<mask id="mask0_158_13" style="mask-type:alpha" maskUnits="userSpaceOnUse" x="0" y="0" width="48" height="48">
<circle cx="24" cy="24" r="24" fill="#ECF2FF"/>
</mask>
<g mask="url(#mask0_158_13)">
<circle cx="24" cy="24" r="24" fill="#ECF2FF"/>
<rect x="17" y="18" width="28" height="41" rx="5" fill="#B7C8EC"/>
<mask id="mask1_158_13" style="mask-type:alpha" maskUnits="userSpaceOnUse" x="12" y="10" width="30" height="41">
<rect x="12" y="10" width="30" height="41" rx="5" fill="#506FFF"/>
</mask>
<g mask="url(#mask1_158_13)">
<rect x="12" y="10" width="30" height="41" rx="5" fill="#506FFF"/>
<rect x="12" y="10" width="30" height="5" fill="#6A84FF"/>
<rect x="17" y="21" width="19" height="12" rx="1" fill="#6F89FF"/>
<rect x="23" y="36" width="15" height="1.73611" rx="0.868056" fill="white"/>
<rect x="28" y="39.4722" width="10" height="1.73611" rx="0.868056" fill="#A7B7FF"/>
<rect x="19.1" y="18.1" width="18.8" height="12.8" rx="0.9" stroke="white" stroke-width="0.2"/>
</g>
<circle cx="16.5" cy="17.5" r="10.5" fill="#48C5A1"/>
</g>
<g clip-path="url(#clip1_158_13)">
<path d="M22.2641 17.924C22.1292 17.7491 21.9829 17.5742 21.8265 17.3999C21.934 17.2751 22.0364 17.1501 22.1329 17.0251C23.1294 15.733 23.4124 14.5608 22.9296 13.7245C22.4468 12.8883 21.2903 12.5472 19.6728 12.7642C19.5023 12.7871 19.3282 12.8161 19.1514 12.8506C19.0912 12.6746 19.0275 12.5042 18.9601 12.3403C18.3393 10.8311 17.4656 10 16.5 10C15.5344 10 14.6607 10.8311 14.04 12.3403C13.9725 12.5042 13.9088 12.6746 13.8486 12.8506C13.6718 12.8161 13.4977 12.7871 13.3272 12.7642C11.7099 12.5473 10.5533 12.8883 10.0705 13.7245C9.58767 14.5608 9.87062 15.733 10.8672 17.0251C10.9636 17.1501 11.066 17.2751 11.1736 17.3999C11.0171 17.5742 10.8708 17.7491 10.7359 17.924C9.73934 19.2161 9.45639 20.3883 9.9392 21.2245C10.3271 21.8964 11.1498 22.2486 12.2971 22.2486C12.5778 22.2486 12.8781 22.2275 13.1959 22.1849C13.4007 22.1574 13.6105 22.1212 13.8242 22.0771C13.8915 22.2788 13.9633 22.4734 14.04 22.6598C14.6607 24.1689 15.5344 25 16.5 25C17.4656 25 18.3393 24.1689 18.96 22.6597C19.0367 22.4734 19.1085 22.2787 19.1758 22.0771C19.3895 22.1211 19.5993 22.1574 19.8041 22.1848C20.122 22.2275 20.4221 22.2486 20.7029 22.2486C21.8501 22.2486 22.6729 21.8964 23.0608 21.2245C23.5436 20.3883 23.2607 19.2161 22.2641 17.924ZM20.5765 13.5779C21.3799 13.5779 21.9478 13.7818 22.1684 14.164C22.4571 14.664 22.1904 15.5112 21.4369 16.4883C21.3651 16.5815 21.2895 16.6746 21.2107 16.7678C20.7701 16.3486 20.2741 15.9384 19.7346 15.5475C19.66 14.8967 19.548 14.2747 19.4014 13.6964C19.8316 13.617 20.2266 13.5779 20.5765 13.5779ZM17.6667 19.6091C17.2717 19.8372 16.8818 20.0418 16.5003 20.2238C16.1185 20.0418 15.7285 19.8374 15.3333 19.6091C14.8972 19.3574 14.4798 19.0909 14.0861 18.8141C14.0531 18.3937 14.0352 17.955 14.0352 17.5C14.0352 16.9903 14.0575 16.501 14.0987 16.0351C14.4498 15.794 14.8186 15.5613 15.2019 15.3399C15.6426 15.0856 16.0767 14.8607 16.5 14.6637C16.9233 14.8607 17.3574 15.0856 17.798 15.3399C18.1814 15.5613 18.5502 15.794 18.9013 16.0351C18.9424 16.501 18.9648 16.9903 18.9648 17.5C18.9648 17.955 18.9469 18.3937 18.9139 18.8141C18.5202 19.0909 18.1028 19.3574 17.6667 19.6091ZM18.7798 19.9611C18.7209 20.3352 18.6495 20.6896 18.5675 21.0217C18.2415 20.9269 17.9018 20.8123 17.5515 20.6773C17.7369 20.5789 17.9219 20.4767 18.1062 20.3703C18.3357 20.2378 18.5603 20.1011 18.7798 19.9611ZM15.4484 20.6773C15.0981 20.8123 14.7585 20.9268 14.4325 21.0215C14.3505 20.6895 14.2791 20.3351 14.2202 19.9611C14.4396 20.1011 14.6643 20.2378 14.8938 20.3703C15.078 20.4767 15.2631 20.5789 15.4484 20.6773ZM13.167 18.1136C12.8887 17.883 12.6279 17.6481 12.3873 17.411C12.6311 17.1785 12.8939 16.9485 13.1734 16.723C13.1621 16.9795 13.1563 17.2387 13.1563 17.5C13.1563 17.7059 13.16 17.9105 13.167 18.1136ZM14.2445 14.8899C14.3036 14.5397 14.3738 14.2078 14.4533 13.896C14.7656 13.9832 15.091 14.0892 15.4268 14.214C15.2048 14.3299 14.9831 14.4515 14.7625 14.5788C14.5869 14.6802 14.4143 14.784 14.2445 14.8899ZM17.5732 14.214C17.9089 14.0891 18.2344 13.9832 18.5467 13.8959C18.6262 14.2078 18.6964 14.5397 18.7555 14.8899C18.5857 14.784 18.4131 14.6802 18.2375 14.5788C18.0169 14.4514 17.7952 14.3298 17.5732 14.214ZM19.8266 16.723C20.1061 16.9485 20.3689 17.1785 20.6127 17.411C20.3721 17.6481 20.1113 17.883 19.833 18.1136C19.84 17.9105 19.8437 17.7059 19.8437 17.5C19.8437 17.2387 19.8379 16.9795 19.8266 16.723ZM16.5 10.8789C17.1357 10.8789 17.811 11.6876 18.2937 13.0556C17.7121 13.219 17.1093 13.4357 16.5 13.7006C15.8907 13.4357 15.2879 13.2191 14.7063 13.0556C15.189 11.6876 15.8643 10.8789 16.5 10.8789ZM10.8316 14.164C11.0523 13.7818 11.6198 13.5779 12.4235 13.5779C12.7733 13.5779 13.1684 13.617 13.5986 13.6964C13.452 14.2747 13.34 14.8967 13.2655 15.5476C12.7259 15.9384 12.2299 16.3486 11.7893 16.7678C11.7106 16.6746 11.635 16.5815 11.5632 16.4884C10.8096 15.5112 10.5429 14.664 10.8316 14.164ZM12.2922 21.3711C11.4888 21.3711 10.921 21.1672 10.7003 20.7851C10.4116 20.285 10.6783 19.4378 11.4318 18.4607C11.5392 18.3215 11.6546 18.1821 11.7773 18.0429C12.213 18.4712 12.7074 18.8912 13.248 19.2924C13.3192 19.974 13.4309 20.626 13.5803 21.2312C13.106 21.3252 12.6725 21.3712 12.2922 21.3711ZM16.5 24.1211C15.852 24.1211 15.1629 23.2806 14.6785 21.864C15.2699 21.6921 15.8823 21.4657 16.5 21.1906C17.1177 21.4657 17.7301 21.6921 18.3215 21.864C17.8371 23.2806 17.148 24.1211 16.5 24.1211ZM22.2997 20.7851C21.9746 21.3482 20.8961 21.524 19.4197 21.2312C19.5691 20.626 19.6808 19.974 19.752 19.2924C20.2926 18.8912 20.787 18.4712 21.2226 18.0429C21.3454 18.1821 21.4608 18.3215 21.5681 18.4607C22.3218 19.4378 22.5884 20.285 22.2997 20.7851Z" fill="white"/>
<path d="M16.5 18.8579C17.25 18.8579 17.8579 18.25 17.8579 17.5C17.8579 16.75 17.25 16.1421 16.5 16.1421C15.75 16.1421 15.1421 16.75 15.1421 17.5C15.1421 18.25 15.75 18.8579 16.5 18.8579Z" fill="white"/>
</g>
</g>
<defs>
<clipPath id="clip0_158_13">
<rect width="48" height="48" fill="white"/>
</clipPath>
<clipPath id="clip1_158_13">
<rect width="15" height="15" fill="white" transform="translate(9 10)"/>
</clipPath>
</defs>
</svg>
