<svg width="630" height="435" viewBox="0 0 630 435" fill="none" xmlns="http://www.w3.org/2000/svg">
<ellipse cx="313.464" cy="421.182" rx="96.2118" ry="13.8176" fill="#EEF3FF"/>
<path d="M437.122 411.149C426.887 411.149 456.247 365.906 469.472 346.369L478.696 351.268C478.696 351.268 448.477 411.148 437.122 411.149Z" fill="#8397CC"/>
<path d="M617.671 412.172C627.906 412.172 598.546 366.929 585.321 347.393L576.097 352.292C576.097 352.292 606.316 412.172 617.671 412.172Z" fill="#8397CC"/>
<rect x="426.052" y="272.259" width="203.682" height="101.329" fill="#DEE5F5"/>
<rect x="436.287" y="281.471" width="183.212" height="82.9059" fill="#EFF2FA"/>
<path d="M527.381 277.376V367.959" stroke="#DEE5F5" stroke-width="4.35"/>
<path d="M509.981 321.388C509.981 324.78 507.232 327.529 503.84 327.529C500.449 327.529 497.699 324.78 497.699 321.388C497.699 317.997 500.449 315.247 503.84 315.247C507.232 315.247 509.981 317.997 509.981 321.388Z" fill="#8397CC"/>
<path d="M557.064 321.388C557.064 324.78 554.314 327.529 550.923 327.529C547.531 327.529 544.781 324.78 544.781 321.388C544.781 317.997 547.531 315.247 550.923 315.247C554.314 315.247 557.064 317.997 557.064 321.388Z" fill="#8397CC"/>
<rect x="126.287" y="2.175" width="101.074" height="154.297" stroke="#DEE5F5" stroke-width="4.35"/>
<path d="M133.323 83.4177V149.435H219.812V54.2471L189.106 68.0647L175.8 54.2471L133.323 83.4177Z" fill="#E8EBF2"/>
<path d="M59.6573 418.981C68.7947 367.964 82.5008 259.077 82.5008 259.077H95.2931L76.1046 418.981H59.6573Z" fill="#E8EBF2"/>
<path d="M110.826 418.981L118.136 259.077H130.928L124.989 418.981H110.826Z" fill="#DEE5F5"/>
<path d="M321.901 418.981C312.763 367.964 299.057 259.077 299.057 259.077H286.265L305.453 418.981H321.901Z" fill="#E8EBF2"/>
<path d="M270.732 418.981L263.422 259.077H250.63L256.569 418.981H270.732Z" fill="#DEE5F5"/>
<rect x="55.0894" y="248.112" width="261.329" height="13.7061" rx="6.85304" fill="#EFF2FA"/>
<rect x="393.299" y="224.153" width="133.059" height="124.871" rx="21.75" fill="#FFB754"/>
<path fill-rule="evenodd" clip-rule="evenodd" d="M475.521 224.153H465.067L393.55 242.592C393.412 243.494 393.329 244.415 393.306 245.35L475.521 224.153ZM393.299 307.823L489.07 224.153H493.037L393.299 311.288V307.823ZM396.903 339.269L464.085 279.752L393.299 315.858V312.928L472.029 272.77L473.487 274.909L398.478 341.361C397.912 340.697 397.386 339.998 396.903 339.269ZM475.138 349.023H471.902C472.137 348.715 472.359 348.417 472.567 348.131C473.196 347.268 473.682 346.541 474.005 345.977C474.167 345.694 474.274 345.476 474.338 345.317C474.37 345.236 474.384 345.189 474.389 345.171C474.401 344.85 474.52 344.598 474.565 344.506C474.632 344.365 474.716 344.228 474.795 344.107C474.957 343.862 475.177 343.574 475.435 343.256C475.956 342.616 476.708 341.764 477.655 340.733C479.555 338.666 482.296 335.818 485.677 332.38C492.442 325.5 501.805 316.22 512.202 306.022C516.764 301.546 521.527 296.893 526.358 292.187V295.831C522.154 299.929 518.015 303.975 514.029 307.885C503.635 318.08 494.287 327.347 487.538 334.21C484.162 337.643 481.446 340.465 479.577 342.499C478.641 343.518 477.931 344.324 477.461 344.903C477.223 345.195 477.065 345.406 476.973 345.545L476.973 345.546C476.931 345.823 476.844 346.08 476.761 346.288C476.636 346.599 476.466 346.932 476.27 347.273C475.975 347.79 475.59 348.38 475.138 349.023ZM526.358 272.234L399.516 342.498C400.161 343.155 400.846 343.772 401.57 344.344L526.358 275.218V272.234Z" fill="#E8992B" fill-opacity="0.4"/>
<path d="M494.628 258.726C489.015 248.728 491.677 237.136 491.803 229.944L438.577 228.116C434.128 242.736 437.725 242.581 432.068 255.985C428.79 263.752 431.942 266.667 432.068 269.822C446.078 263.008 459.709 266.793 471.447 266.793C480.837 266.793 482.888 272.902 485.286 275.174C485.286 275.174 490.624 269.822 489.734 266.036C491.959 269.234 487.63 274.321 486.62 276.087L488.4 279.742C488.4 279.742 500.856 269.822 494.628 258.726Z" fill="#373131"/>
<path d="M420.533 287.966C425.284 281.752 442.31 276.544 447.488 277.458L456.626 279.742C458.301 278.981 462.656 277.092 466.677 275.63C471.702 273.803 487.236 283.854 493.175 291.164C497.927 297.012 505.206 308.829 503.226 320.403L487.465 327.018L493.175 349.024H425.541L430.147 329.065L410.482 324.515C407.283 303.956 415.781 294.179 420.533 287.966Z" fill="#F65D6D"/>
<path fill-rule="evenodd" clip-rule="evenodd" d="M410.017 311.182C410.056 310.806 410.099 310.434 410.147 310.068L414.217 307.478C414.419 307.349 414.688 307.409 414.817 307.612C414.946 307.815 414.886 308.083 414.684 308.212L410.017 311.182ZM448.905 349.024H447.625C447.625 348.876 447.7 348.732 447.836 348.65L452.954 345.58C453.16 345.456 453.427 345.523 453.55 345.729C453.674 345.935 453.607 346.202 453.401 346.326L448.905 349.024ZM491.995 349.024H490.776L486.713 346.315C486.513 346.182 486.459 345.912 486.592 345.712C486.725 345.512 486.995 345.458 487.195 345.591L491.801 348.662C491.927 348.745 491.995 348.883 491.995 349.024ZM501.153 304.686C501.286 305.025 501.414 305.368 501.539 305.712C501.455 305.73 501.364 305.723 501.279 305.686L497.696 304.151C497.476 304.057 497.373 303.801 497.468 303.58C497.563 303.359 497.818 303.257 498.039 303.351L501.153 304.686ZM480.903 280.796C481.2 280.987 481.496 281.18 481.792 281.377L478.582 282.661C478.359 282.75 478.106 282.642 478.017 282.419C477.928 282.196 478.036 281.943 478.259 281.853L480.903 280.796ZM421.094 287.298C421.361 287.005 421.655 286.715 421.972 286.428H424.685C424.926 286.428 425.12 286.623 425.12 286.863C425.12 287.103 424.926 287.298 424.685 287.298H421.103C421.1 287.298 421.097 287.298 421.094 287.298ZM438.309 282.472C438.145 282.297 437.87 282.287 437.695 282.451C437.519 282.615 437.509 282.89 437.673 283.066L437.981 282.779L437.673 283.066L437.673 283.066L437.674 283.066L437.675 283.068L437.68 283.073L437.7 283.094L437.777 283.178C437.845 283.25 437.942 283.356 438.063 283.487C438.305 283.75 438.639 284.117 439.011 284.531C439.757 285.362 440.643 286.376 441.23 287.13C441.378 287.32 441.651 287.354 441.841 287.206C442.03 287.059 442.065 286.786 441.917 286.596C441.31 285.815 440.405 284.782 439.658 283.95C439.284 283.532 438.947 283.163 438.703 282.898C438.582 282.766 438.483 282.66 438.415 282.586L438.337 282.502L438.316 282.48L438.311 282.474L438.31 282.473L438.309 282.472L438.309 282.472L437.995 282.766L438.309 282.472ZM456.722 283.485C456.553 283.315 456.277 283.315 456.107 283.485C455.937 283.655 455.937 283.93 456.107 284.1L458.154 286.147C458.324 286.317 458.6 286.317 458.77 286.147C458.939 285.977 458.939 285.702 458.77 285.532L456.722 283.485ZM471.691 284.816C471.691 284.576 471.496 284.381 471.256 284.381C471.016 284.381 470.821 284.576 470.821 284.816V288.91C470.821 289.15 471.016 289.345 471.256 289.345C471.496 289.345 471.691 289.15 471.691 288.91V284.816ZM454.609 294.901C454.809 294.768 454.863 294.498 454.73 294.298C454.596 294.098 454.326 294.044 454.127 294.178L449.521 297.248C449.321 297.381 449.267 297.652 449.4 297.851C449.533 298.051 449.803 298.105 450.003 297.972L454.609 294.901ZM495.447 296.488C495.674 296.412 495.798 296.165 495.722 295.937C495.646 295.709 495.399 295.586 495.171 295.662L490.566 297.197C490.338 297.273 490.214 297.52 490.29 297.748C490.366 297.976 490.613 298.099 490.841 298.023L495.447 296.488ZM484.817 338.683C484.759 338.45 484.523 338.308 484.289 338.366C484.056 338.424 483.915 338.661 483.973 338.894L484.997 342.988C485.055 343.221 485.291 343.363 485.524 343.304C485.757 343.246 485.899 343.01 485.841 342.777L484.817 338.683ZM430.071 339.812C430.071 339.571 429.876 339.377 429.636 339.377C429.396 339.377 429.201 339.571 429.201 339.812V344.418C429.201 344.658 429.396 344.853 429.636 344.853C429.876 344.853 430.071 344.658 430.071 344.418V339.812ZM463.848 341.859C463.848 341.619 463.653 341.424 463.413 341.424C463.172 341.424 462.978 341.619 462.978 341.859V344.929C462.978 345.17 463.172 345.364 463.413 345.364C463.653 345.364 463.848 345.17 463.848 344.929V341.859ZM473.49 342.623C473.63 342.428 473.585 342.156 473.389 342.017C473.194 341.877 472.922 341.922 472.782 342.118L470.223 345.7C470.084 345.896 470.129 346.167 470.325 346.307C470.52 346.447 470.792 346.401 470.931 346.206L473.49 342.623ZM437.501 342.49C437.284 342.386 437.025 342.477 436.921 342.694C436.817 342.911 436.908 343.17 437.124 343.274L441.385 345.321C441.602 345.426 441.862 345.334 441.966 345.118C442.07 344.901 441.979 344.641 441.762 344.537L437.501 342.49Z" fill="white"/>
<path d="M467.589 275.629C461.376 273.071 462.564 265.731 463.934 262.38C458.299 259.334 447.395 255.253 448.857 263.294C450.319 271.335 448.248 276.391 447.03 277.914C457.629 282.665 465.152 278.371 467.589 275.629Z" fill="#FFB09E"/>
<path d="M456.863 279.742L467.588 275.173C475.355 275.63 473.036 281.113 468.284 282.94C463.533 284.768 458.081 280.96 456.863 279.742C455.492 281.57 447.691 283.54 444.984 282.027C439.262 278.828 446.355 277.153 447.725 277.001L456.863 279.742Z" fill="white"/>
<path d="M413.222 297.56L419.162 289.337C428.299 286.748 447.67 285.956 452.056 303.5C454.797 295.276 466.219 280.839 489.976 288.88V298.474L452.056 303.5L413.222 297.56Z" fill="white"/>
<path d="M409.568 299.882L422.817 343.741C433.325 335.974 449.011 339.629 460.737 343.741C472.798 338.624 492.566 341.609 500.942 343.741L492.718 293.943C476.636 281.516 458.91 294.856 452.056 303.08C432.685 284.074 415.659 293.029 409.568 299.882Z" fill="#0CAF80"/>
<path fill-rule="evenodd" clip-rule="evenodd" d="M449.927 301.095L458.198 342.882C459.062 343.164 459.909 343.451 460.736 343.742C461.788 343.295 462.899 342.911 464.055 342.582L455.006 299.919C453.877 301.011 452.887 302.084 452.056 303.081C451.343 302.381 450.633 301.72 449.927 301.095Z" fill="#07936A"/>
<path d="M500.831 324.756C504.376 323.737 504.71 319.213 504.435 317.078C504.466 316.476 504.124 314.676 502.504 312.295C501.957 311.492 501.257 310.793 500.458 310.204C500.038 308.602 498.641 305.431 496.406 305.558C494.172 305.685 494.356 307.241 494.727 308.003C494.112 307.931 493.483 307.775 492.915 307.934C489.251 308.957 487.239 309.891 486.778 311.239C486.221 312.867 487.762 313.24 488.768 313.222C487.874 313.299 487.414 313.721 487.29 313.939C485.588 317.275 488.915 317.624 489.419 317.716C488.311 318.034 487.911 318.742 487.915 320.046C487.92 321.663 489.113 321.879 490.04 321.763C489.157 322.081 488.106 322.922 489.341 324.737C491.367 327.713 496.401 326.029 500.831 324.756Z" fill="#FFCEBF"/>
<mask id="mask0_3285_2700" style="mask-type:alpha" maskUnits="userSpaceOnUse" x="486" y="305" width="19" height="22">
<path d="M500.831 324.756C504.376 323.738 504.711 319.213 504.435 317.078C504.467 316.476 504.125 314.676 502.504 312.295C501.958 311.492 501.257 310.793 500.458 310.204C500.039 308.603 498.641 305.431 496.407 305.558C494.172 305.685 494.356 307.241 494.728 308.003C494.112 307.931 493.503 307.908 492.915 307.934C489.489 308.088 487.476 309.023 486.778 311.24C486.262 312.878 487.765 313.241 488.765 313.222C487.873 313.3 487.414 313.721 487.291 313.939C485.588 317.275 488.915 317.624 489.419 317.716C488.312 318.034 487.911 318.743 487.915 320.046C487.92 321.664 489.113 321.879 490.04 321.764C489.158 322.081 488.106 322.922 489.341 324.737C491.367 327.713 496.401 326.029 500.831 324.756Z" fill="#FFCEBF"/>
</mask>
<g mask="url(#mask0_3285_2700)">
<path d="M497.349 319.56C494.773 320.964 491.443 321.692 490.1 321.88C488.488 322.106 485.89 322.829 488.393 323.912C490.896 324.996 495.406 321.462 497.349 319.56Z" fill="#FFB09E"/>
<path d="M495.246 316.188C493.861 316.965 490.07 317.646 488.272 317.898C487.264 317.713 485.55 317.66 486.764 318.924C487.948 320.158 492.801 317.679 495.246 316.188C495.31 316.153 495.369 316.116 495.423 316.08C495.365 316.116 495.307 316.152 495.246 316.188Z" fill="#FFB09E"/>
<path d="M486.846 313.207C489.872 313.761 493.695 311.595 493.996 311.39C493.394 312.235 492.492 313.72 489.772 314.264C488.035 314.612 487.286 314.069 486.846 313.207Z" fill="#FFB09E"/>
<path d="M497.918 308.721C496.222 307.785 494.389 308.074 493.38 307.89C492.372 307.705 493.737 306.079 494.785 306.062C495.833 306.046 496.975 307.766 497.918 308.721Z" fill="#FFB09E"/>
</g>
<path d="M417.073 331.501C413.474 332.309 411.009 328.5 410.226 326.495C409.909 325.982 409.346 324.239 409.624 321.372C409.718 320.405 409.997 319.456 410.416 318.555C410.015 316.949 409.718 313.496 411.739 312.535C413.761 311.574 414.346 313.027 414.386 313.874C414.891 313.515 415.368 313.077 415.943 312.943C419.648 312.083 421.862 311.936 422.914 312.897C424.183 314.058 423.01 315.125 422.119 315.592C422.94 315.23 423.547 315.38 423.76 315.512C426.855 317.621 424.103 319.524 423.705 319.847C424.83 319.594 425.521 320.023 426.143 321.169C426.915 322.591 425.972 323.352 425.103 323.696C426.03 323.55 427.356 323.784 427.143 325.968C426.795 329.552 421.571 330.491 417.073 331.501Z" fill="#FFCEBF"/>
<mask id="mask1_3285_2700" style="mask-type:alpha" maskUnits="userSpaceOnUse" x="409" y="311" width="19" height="21">
<path d="M417.073 331.501C413.475 332.309 411.009 328.5 410.226 326.495C409.91 325.982 409.346 324.239 409.624 321.373C409.718 320.405 409.998 319.456 410.416 318.556C410.015 316.949 409.718 313.496 411.74 312.535C413.761 311.574 414.346 313.027 414.386 313.874C414.892 313.516 415.415 313.203 415.943 312.944C419.023 311.434 421.237 311.288 422.914 312.898C424.153 314.087 423.009 315.127 422.123 315.591C422.942 315.231 423.547 315.38 423.76 315.512C426.855 317.621 424.103 319.524 423.705 319.847C424.83 319.595 425.521 320.024 426.143 321.169C426.915 322.591 425.972 323.353 425.104 323.696C426.03 323.551 427.356 323.784 427.144 325.969C426.795 329.552 421.571 330.491 417.073 331.501Z" fill="#FFCEBF"/>
</mask>
<g mask="url(#mask1_3285_2700)">
<path d="M417.634 325.271C420.568 325.267 423.839 324.307 425.108 323.827C426.63 323.251 429.256 322.639 427.581 324.791C425.905 326.943 420.252 326.008 417.634 325.271Z" fill="#FFB09E"/>
<path d="M417.861 321.304C419.449 321.321 423.101 320.098 424.799 319.456C425.595 318.81 427.073 317.941 426.615 319.633C426.169 321.284 420.722 321.438 417.861 321.304C417.787 321.304 417.718 321.3 417.654 321.294C417.722 321.298 417.79 321.301 417.861 321.304Z" fill="#FFB09E"/>
<path d="M423.799 314.657C421.411 316.595 417.017 316.53 416.654 316.494C417.588 316.947 419.092 317.817 421.739 316.989C423.431 316.46 423.827 315.624 423.799 314.657Z" fill="#FFB09E"/>
<path d="M411.932 316.036C412.971 314.4 414.719 313.774 415.515 313.128C416.311 312.482 414.332 311.711 413.405 312.2C412.477 312.689 412.302 314.745 411.932 316.036Z" fill="#FFB09E"/>
</g>
<path d="M488.087 246.001C488.71 241.997 484.389 240.082 482.335 241.533C485.622 218.32 472.065 219.523 459.33 216.258C446.595 212.994 440.574 227.158 439.341 237.676C438.109 248.195 437.698 264.154 453.309 266.693C465.798 268.724 474.119 258.212 476.584 252.892C479.459 253.255 487.191 251.759 488.087 246.001Z" fill="#FFCFBF"/>
<mask id="mask2_3285_2700" style="mask-type:alpha" maskUnits="userSpaceOnUse" x="438" y="215" width="51" height="52">
<path d="M488.086 246C488.709 241.996 484.389 240.081 482.335 241.532C485.622 218.319 472.065 219.522 459.329 216.257C446.594 212.993 440.573 227.157 439.341 237.675C438.108 248.194 437.698 264.153 453.308 266.692C465.797 268.723 474.118 258.211 476.583 252.891C479.459 253.254 487.19 251.758 488.086 246Z" fill="#FFCFBF"/>
</mask>
<g mask="url(#mask2_3285_2700)">
<g filter="url(#filter0_f_3285_2700)">
<path d="M485.648 255.562C485.512 262.121 480.084 267.328 473.525 267.191C466.966 267.055 461.76 261.627 461.896 255.068C462.033 248.509 467.461 243.302 474.02 243.439C480.578 243.576 485.785 249.003 485.648 255.562Z" fill="#EF4646" fill-opacity="0.6"/>
<path d="M449.099 246.425C448.962 252.984 443.534 258.19 436.975 258.054C430.416 257.917 425.21 252.489 425.347 245.93C425.483 239.371 430.911 234.165 437.47 234.302C444.029 234.438 449.235 239.866 449.099 246.425Z" fill="#EF4646" fill-opacity="0.6"/>
</g>
</g>
<path d="M439.719 217.608C444.652 210.04 448.797 208.079 461.129 205.827C476.986 204.926 484.033 210.331 489.318 219.792C494.533 229.127 490.346 240.065 487.556 245.02C486.499 241.777 483.152 241.566 481.83 242.317L483.121 235.109L480.509 240.064C478.395 237.902 466.674 235.426 466.674 235.426C466.674 235.426 468.47 225.963 469.498 224.461C464.212 225.903 462.726 232.097 463.019 233.598C452.448 226.39 440.125 230.125 434.693 232.228C433.959 230.726 434.786 225.176 439.719 217.608Z" fill="#373131"/>
<ellipse cx="448.626" cy="242.424" rx="1.7383" ry="3.0467" transform="rotate(3.78803 448.626 242.424)" fill="#3F3333"/>
<ellipse cx="461.43" cy="244.74" rx="1.7383" ry="3.0467" transform="rotate(9.60318 461.43 244.74)" fill="#3F3333"/>
<path d="M445.156 234.663C446.35 233.298 449.557 231.285 452.832 234.151M462.556 236.71C464.603 236.198 468.185 239.781 467.673 242.851" stroke="#3F3333" stroke-width="1.305" stroke-linecap="round"/>
<path d="M452.989 244.657C452.804 245.055 451.831 246.386 449.413 248.523C446.995 250.661 450.114 252.263 451.976 252.796" stroke="#FF877A" stroke-width="0.87" stroke-linecap="round"/>
<path d="M461.532 255.134C456.21 258 451.809 256.328 450.273 255.134C450.785 258.716 453.708 260.178 454.367 260.251C458.973 260.763 461.703 256.84 461.532 255.134Z" fill="white"/>
<rect x="0.265198" y="55.3126" width="158.991" height="177.265" rx="21.75" fill="#4DEABD"/>
<path fill-rule="evenodd" clip-rule="evenodd" d="M80.6052 55.3126L83.8955 55.3126C77.8417 71.0788 68.0341 93.9697 57.4748 114.319C56.3134 116.557 55.1412 118.768 53.9623 120.938C54.6376 121.93 55.2773 123.005 55.8768 124.166C60.1756 132.486 58.3685 142.62 53.5596 152.862C48.7276 163.154 40.7022 173.916 31.9269 183.784C23.1397 193.666 13.5396 202.718 5.4927 209.591C3.95041 210.909 2.46378 212.147 1.04947 213.297C0.764421 212.173 0.553819 211.019 0.423218 209.84C1.41708 209.02 2.44398 208.157 3.49843 207.257C11.4602 200.456 20.9555 191.501 29.6323 181.744C38.321 171.973 46.1284 161.465 50.7801 151.557C55.4549 141.601 56.7824 132.608 53.1488 125.575C52.8665 125.029 52.5756 124.505 52.2767 124.004C45.959 135.356 39.503 145.369 33.5125 152.029C29.7171 156.249 25.9287 159.331 22.3138 160.388C20.4601 160.93 18.6064 160.953 16.8452 160.275C15.0951 159.602 13.5878 158.297 12.3094 156.45C2.47139 142.24 9.29537 126.009 20.2431 117.516C25.7472 113.246 32.4813 110.753 38.9942 111.445C43.7252 111.948 48.2083 114.118 51.9052 118.287C52.8571 116.519 53.8058 114.723 54.7493 112.904C65.0447 93.064 74.5879 70.8603 80.6052 55.3126ZM38.6698 114.499C42.8636 114.944 46.9542 116.957 50.33 121.18C43.8257 132.994 37.2327 143.301 31.2295 149.976C27.5164 154.104 24.2081 156.635 21.4519 157.441C20.12 157.831 18.9696 157.802 17.9474 157.409C16.9139 157.012 15.8584 156.182 14.834 154.702C6.2484 142.301 11.9627 127.826 22.1252 119.942C27.1762 116.024 33.1403 113.911 38.6698 114.499Z" fill="#84FFDC"/>
<path d="M159.257 122.819C156.217 124.91 152.789 126.83 149.23 128.388C144.108 130.63 138.63 132.158 133.573 132.319C128.515 132.48 123.72 131.271 120.231 127.845C118.335 125.983 116.903 123.544 116.011 120.484C113.356 125.672 112.763 131.748 113.671 138.298C116.02 155.233 128.326 174.609 139.102 187.337L140.726 189.256L138.278 189.825C111.493 196.052 71.8258 205.162 39.8762 212.256C25.7799 215.386 13.178 218.125 3.84588 220.05C3.30455 219.14 2.81807 218.194 2.39102 217.215C11.7732 215.288 24.6896 212.483 39.2106 209.259C70.1962 202.379 108.45 193.6 135.159 187.397C124.653 174.529 112.98 155.668 110.63 138.72C109.487 130.477 110.532 122.537 115.145 115.992C114.991 114.562 114.926 113.032 114.955 111.4C115.09 103.782 117.272 93.769 122.165 80.8275C125.897 70.9581 129.776 62.5057 133.75 55.3127C134.898 55.3163 136.027 55.3954 137.135 55.5453C133.015 62.8283 128.958 71.5443 125.038 81.9134C120.207 94.688 118.151 104.33 118.025 111.455C118.018 111.834 118.017 112.206 118.021 112.57C123.87 106.677 133.22 102.534 146.954 100.829C151.862 100.22 155.938 100.033 159.257 100.221V103.297C156.214 103.11 152.291 103.261 147.332 103.876C132.701 105.693 123.787 110.286 118.792 116.28C118.641 116.461 118.493 116.644 118.349 116.828C118.975 120.921 120.448 123.755 122.382 125.654C125.074 128.297 128.927 129.395 133.475 129.25C138.024 129.105 143.109 127.715 147.998 125.575C152.093 123.783 155.992 121.49 159.257 119.038V122.819Z" fill="#84FFDC"/>
<path d="M26.3885 159.228C35.8481 149.299 74.5705 156.34 75.9025 156.663C66.4925 163.156 45.8104 176.067 38.3619 175.765C29.0512 175.388 16.9289 169.157 26.3885 159.228Z" fill="#CB7500"/>
<path d="M31.2858 162.296C42.2649 163.548 28.2555 155.407 71.3547 156.03C61.5229 165.555 39.4807 183.558 29.9658 179.37C18.0722 174.135 18.5442 162.497 24.4916 157.358C29.2496 153.246 42.7501 153.794 45.9658 154.103C39.8752 154.663 21.1699 161.142 31.2858 162.296Z" fill="#EE8F0D"/>
<path d="M62.2786 159.022C68.4921 156.464 67.3042 149.123 65.9336 145.773C71.5683 142.727 82.4723 138.646 81.0103 146.687C79.5483 154.727 81.6194 159.783 82.8378 161.306C72.2384 166.058 64.7153 161.763 62.2786 159.022Z" fill="#643F34"/>
<path d="M82.8383 161.307C72.97 165.327 65.0204 161.459 62.2792 159.023C60.0862 160.119 52.2281 161.002 48.5731 161.307V230.751C59.538 234.04 82.686 234.254 92.8895 233.949L91.062 163.591C88.869 162.495 84.6658 161.611 82.8383 161.307Z" fill="white"/>
<path fill-rule="evenodd" clip-rule="evenodd" d="M85.9911 161.95C84.7417 161.655 83.589 161.432 82.8378 161.307C72.9694 165.327 65.0199 161.459 62.2787 159.023C61.5808 159.372 60.3092 159.699 58.7819 159.993C63.1615 165.67 73.7412 172.962 85.8275 162.099C85.8827 162.049 85.9373 162 85.9911 161.95Z" fill="#DCE7F1"/>
<path d="M46.2711 210.067C50.8512 213.924 60.1013 227.339 73.2433 218.416C85.9988 209.754 84.839 187.745 84.6765 186.073C84.6726 186.042 84.6687 186.01 84.6649 185.978C84.6675 185.991 84.6716 186.023 84.6765 186.073C87.3998 208.417 85.0973 227.097 67.7609 227.553C55.6982 227.87 46.2143 211.842 46.2711 210.067Z" fill="#DCE7F1"/>
<path d="M145.081 142.88C140.458 149.091 135.963 160.609 135.835 166.173L147.007 170.444L151.245 165.009C158.95 163.068 167.041 147.927 168.967 145.598C170.893 143.268 168.582 137.833 163.574 144.045C159.567 149.014 151.374 148.962 148.163 148.315C148.163 148.315 150.21 145.305 152.016 142.88C154.327 139.774 151.149 134.727 145.081 142.88Z" fill="#6E4B40"/>
<path fill-rule="evenodd" clip-rule="evenodd" d="M169.579 142.954C168.162 141.315 164.59 144.895 162.79 147.144C161.328 148.972 153.348 151.713 149.541 152.626C152.739 152.017 159.683 150.068 161.876 148.971C163.184 148.317 164.179 147.144 165.111 146.045C166.133 144.841 167.078 143.728 168.272 143.489C169.3 143.283 169.316 144.321 168.971 145.594C169.57 144.866 169.758 143.837 169.579 142.954ZM159.642 158.731L162.333 155.368C162.333 154.804 163.112 153.853 163.941 152.841C165.19 151.316 166.553 149.653 165.531 148.971C164.707 148.422 162.066 149.855 158.7 151.681C156.468 152.891 153.918 154.275 151.368 155.368C155.14 155.368 158.635 153.033 161.125 151.369C162.857 150.212 164.103 149.379 164.617 149.885C165.268 150.526 164.009 152.105 162.456 154.051C161.073 155.784 159.458 157.809 158.753 159.722C159.053 159.399 159.349 159.068 159.642 158.731Z" fill="#543329"/>
<path d="M97.4583 168.617C93.8033 164.231 89.8438 163.134 88.3209 163.134L92.4327 233.492C98.6766 234.254 113.357 234.863 122.129 231.208C130.901 227.553 147.409 187.958 154.567 168.617C146.892 168.617 138.272 164.962 134.922 163.134L111.164 200.598C108.119 191.765 101.113 173.003 97.4583 168.617Z" fill="#EFA641"/>
<path fill-rule="evenodd" clip-rule="evenodd" d="M130.52 170.076L134.922 163.134C138.273 164.962 146.892 168.617 154.568 168.617C153.75 170.825 152.811 173.298 151.775 175.951C137.242 175.983 132.666 172.143 130.52 170.076Z" fill="#EE900D"/>
<path d="M92.432 233.949L85.1221 161.764L90.6045 163.134L96.5438 233.949H92.432Z" fill="#FFC97D"/>
<path d="M89.2348 225.726C83.7523 223.898 77.813 226.182 75.5287 227.553C81.3157 229.533 93.3466 233.218 95.1741 232.122C97.4584 230.751 96.0878 228.01 89.2348 225.726Z" fill="#57372D"/>
<path d="M72.5405 227.56C75.7386 226.342 83.9623 224.819 91.2722 228.474C100.41 233.042 103.151 236.697 99.9527 238.525C99.2702 238.915 98.7684 238.993 98.412 238.918C99.1417 239.811 99.518 240.678 98.1254 241.723C96.939 242.613 96.0611 242.181 95.5283 241.651C96.193 242.469 96.6772 243.064 94.9273 244.464C92.7868 246.177 91.729 242.637 84.876 241.266C78.023 239.896 72.0836 239.439 71.1699 235.784C70.4389 232.86 71.7791 229.083 72.5405 227.56Z" fill="#6E4B40"/>
<path fill-rule="evenodd" clip-rule="evenodd" d="M97.7321 241.978C97.1952 242.269 96.7308 242.285 96.3429 242.164C92.6854 239.432 86.8302 236.622 83.7529 235.32C91.9647 236.859 96.0025 239.69 97.7321 241.978ZM100.636 238.025C100.451 238.204 100.224 238.371 99.9549 238.525C99.4272 238.826 99.0076 238.941 98.6797 238.943C98.4106 238.805 98.1496 238.658 97.9159 238.518C97.0021 236.843 93.9868 233.035 89.2354 231.208C92.4184 232.42 99.1315 235.474 100.636 238.025Z" fill="#57372D"/>
<path d="M59.4718 219.769C60.9337 200.033 54.0557 176.231 51.7713 160.85C47.9641 160.697 39.0703 163.408 33.9534 175.47C27.5572 190.546 17.963 218.872 21.1611 225.725C24.3591 232.579 41.7203 243.087 75.5286 243.087L75.9855 225.269C70.8076 222.68 59.0813 219.769 59.4718 219.769Z" fill="#EFA641"/>
<path fill-rule="evenodd" clip-rule="evenodd" d="M68.4358 222.407C67.4468 227.868 66.4919 237.321 68.3892 242.924C70.6822 243.03 73.062 243.086 75.5293 243.086L75.9862 225.268C74.0568 224.303 71.2181 223.294 68.4358 222.407Z" fill="#EE900D"/>
<path fill-rule="evenodd" clip-rule="evenodd" d="M59.589 217.837C59.5587 218.485 59.52 219.13 59.4726 219.77C59.3943 219.77 59.8036 219.887 60.5499 220.095L60.4513 220.243C58.4942 220.026 54.6118 219.084 49.9769 217.959C44.874 216.721 38.8588 215.262 33.496 214.304C38.6895 213.883 52.0855 214.083 59.589 217.837Z" fill="#EE8F0D"/>
<path fill-rule="evenodd" clip-rule="evenodd" d="M59.8388 219.895L55.8824 219.329C55.5778 214.608 54.7859 203.522 54.0549 196.943C53.35 190.599 49.7561 171.282 47.8618 161.445C49.4099 160.969 50.7669 160.81 51.7705 160.85L51.7706 160.85L51.7708 160.85C52.4066 165.131 53.3981 170.064 54.4666 175.38C57.2376 189.165 60.5263 205.526 59.4712 219.77C59.4233 219.77 59.5573 219.813 59.8388 219.895Z" fill="#FFC97D"/>
<path d="M46.9727 127.498C44.0138 123.419 38.5188 113.405 40.2096 105.978C41.9004 98.5515 51.0588 105.978 55.4267 110.62L53.7359 124.967L55.8836 128.869C61.366 135.874 70.1379 148.789 61.366 144.403C52.5941 140.017 48.1155 131.306 46.9727 127.498Z" fill="#111111"/>
<path d="M46.3229 126.917C45.6885 122.843 49.8609 122.882 51.953 124.359C48.6055 100.73 59.0134 100.24 71.9844 96.9175C84.9554 93.5948 91.0879 108.011 92.3431 118.718C93.5984 129.424 94.0168 145.669 78.1169 148.253C65.3969 150.32 56.9214 139.62 54.4109 134.205C51.4819 134.575 47.2355 132.779 46.3229 126.917Z" fill="#6F4B40"/>
<ellipse rx="1.53529" ry="2.6909" transform="matrix(-0.997815 0.0660654 0.0660654 0.997815 83.1383 123.687)" fill="#2D2424"/>
<ellipse rx="1.53529" ry="2.6909" transform="matrix(-0.997815 0.0660654 0.0660654 0.997815 83.1383 123.687)" fill="#2D2424"/>
<ellipse rx="1.53529" ry="2.6909" transform="matrix(-0.985987 0.166823 0.166823 0.985987 71.827 125.733)" fill="#2D2424"/>
<path d="M86.4005 118.723C86.1473 117.007 83.9482 114.567 80.4064 116.721M72.5125 117.643C72.0693 117.273 68.1858 115.531 65.9746 120.075" stroke="#2D2424" stroke-width="1.305" stroke-linecap="round"/>
<path d="M79.0781 126.165C79.2626 126.563 80.236 127.893 82.6541 130.031C85.0723 132.169 81.9531 133.77 80.0913 134.304" stroke="#603F34" stroke-width="0.87" stroke-linecap="round"/>
<path d="M43.7093 110.996C42.1741 111.413 38.7687 110.996 37.4289 105.992C36.0891 100.988 39.941 98.069 42.0345 97.235C41.7553 96.401 41.7831 94.0658 44.1277 91.3969C46.4724 88.7281 50.129 89.1729 51.6642 89.7289C51.2455 87.0879 52.5016 81.6391 60.8754 80.9719C69.2492 80.3047 69.947 84.308 69.2492 86.393C69.6679 85.142 71.2589 82.8902 74.2735 83.891C76.8248 84.738 77.3568 86.043 77.2909 86.8454C77.8834 84.6048 80.1986 81.3696 85.5782 83.891C92.6959 87.227 94.7894 90.5631 91.4398 93.4821C94.7894 95.1501 97.2178 100.655 90.1838 102.656C90.6025 105.436 89.4301 110.246 81.3912 107.243C77.0648 111.413 66.7371 118.002 60.038 110.996C56.1304 115.166 47.3939 121.004 43.7093 110.996Z" fill="#282828"/>
<ellipse cx="79.077" cy="139.2" rx="2.04706" ry="3.07059" fill="#D74848"/>
<path fill-rule="evenodd" clip-rule="evenodd" d="M80.9798 138.077C79.6772 137.216 78.1123 137.709 77.1203 138.28C77.3808 137.034 78.157 136.129 79.074 136.129C79.9403 136.129 80.6809 136.937 80.9798 138.077Z" fill="white"/>
<path d="M283.666 399.442L283.362 358.779L301.485 360.946L301.008 400.258C307.321 406.043 306.971 419.495 303.716 425.54L247.881 423.845C247.372 423.83 246.984 423.385 247.066 422.882C248.169 416.131 253.15 407.174 263.591 408.102C272.336 408.88 280.618 402.653 283.666 399.442Z" fill="#F28B67"/>
<mask id="mask3_3285_2700" style="mask-type:alpha" maskUnits="userSpaceOnUse" x="247" y="358" width="60" height="68">
<path d="M283.666 399.441L283.363 358.778L301.486 360.945L301.008 400.257C307.322 406.042 306.972 419.494 303.716 425.539L247.882 423.844C247.373 423.829 246.984 423.384 247.066 422.881C248.17 416.13 253.15 407.173 263.592 408.101C272.337 408.878 280.618 402.651 283.666 399.441Z" fill="#F28B67"/>
</mask>
<g mask="url(#mask3_3285_2700)">
<path d="M293.6 402.196C297.839 397.639 300.624 398.715 301.487 399.823L307.344 407.218L306.32 424.083L242.86 423.18C244.821 420.376 250.393 408.67 250.793 407.957C251.192 407.244 271.615 402.838 281.777 400.724C283.952 403.114 289.36 406.753 293.6 402.196Z" fill="#373232"/>
<path d="M264.561 416.671C276.883 417.251 287.953 409.43 294.554 401.325C294.634 401.227 294.71 401.13 294.781 401.032C294.401 401.371 294.006 401.758 293.599 402.196C291.785 404.146 291.514 402.836 291.08 400.737C290.5 397.93 289.627 393.71 284.38 393.986C278.122 395.288 266.986 400.014 259.259 403.62L254.548 409.199L264.561 416.671Z" fill="#5B5353"/>
<path d="M304.899 423.528C305.294 432.481 251.538 428.503 242.828 424.204L251.665 408.163L255.841 409.274C258.78 408.844 265.069 414.437 267.971 422.407L305.855 422.533L305.448 423.545L304.899 423.528Z" fill="white"/>
<path d="M271.754 415.866C271.521 414.331 268.933 407.347 264.569 406.776M278.993 413.526C278.76 411.99 276.63 407.069 273.761 405.836M286.294 409.139C286.358 407.77 282.582 403.05 278.952 402.422" stroke="white" stroke-width="1.74" stroke-linecap="round"/>
</g>
<path d="M281.734 401.637C278.111 400.857 271.275 398.401 272.907 394.819C274.539 391.237 279.472 397.872 281.734 401.637ZM281.734 401.637C281.855 399.051 282.716 394.366 285.186 396.311C287.656 398.257 283.913 400.673 281.734 401.637Z" stroke="black" stroke-width="0.87"/>
<path d="M336.177 399.207L331.373 358.828L349.625 358.975L353.503 398.098C360.418 403.149 361.559 416.557 358.993 422.925L303.314 427.422C302.807 427.463 302.371 427.064 302.397 426.555C302.747 419.723 306.705 410.27 317.185 410.036C325.962 409.841 333.503 402.735 336.177 399.207Z" fill="#F28B67"/>
<mask id="mask4_3285_2700" style="mask-type:alpha" maskUnits="userSpaceOnUse" x="302" y="358" width="59" height="70">
<path d="M336.176 399.206L331.372 358.827L349.624 358.974L353.501 398.097C360.417 403.148 361.558 416.556 358.992 422.924L303.313 427.421C302.806 427.462 302.37 427.063 302.396 426.554C302.746 419.722 306.703 410.269 317.184 410.036C325.961 409.84 333.502 402.734 336.176 399.206Z" fill="#F28B67"/>
</mask>
<g mask="url(#mask4_3285_2700)">
<path d="M346.354 400.844C350.063 395.846 352.95 396.607 353.93 397.612L360.569 404.314L361.419 421.189L298.249 427.318C299.888 424.313 304.13 412.062 304.448 411.309C304.766 410.556 324.576 403.917 334.441 400.691C336.867 402.825 342.645 405.843 346.354 400.844Z" fill="#373232"/>
<path d="M319.097 418.446C331.407 417.658 341.543 408.659 347.207 399.873C347.275 399.767 347.34 399.661 347.4 399.557C347.059 399.936 346.71 400.364 346.353 400.844C344.767 402.983 344.353 401.711 343.689 399.673C342.801 396.948 341.467 392.85 336.283 393.706C330.207 395.692 319.662 401.622 312.382 406.062L308.318 412.128L319.097 418.446Z" fill="#5B5353"/>
<path d="M359.946 420.794C361.329 429.648 307.464 431.646 298.331 428.338L305.337 411.417L309.611 412.059C312.484 411.307 319.354 416.169 323.12 423.769L360.786 419.699L360.493 420.75L359.946 420.794Z" fill="white"/>
<path d="M326.156 416.849C325.755 415.349 322.409 408.695 318.009 408.61M333.091 413.722C332.69 412.221 330.028 407.566 327.04 406.659M339.862 408.554C339.774 407.186 335.498 402.913 331.822 402.69" stroke="white" stroke-width="1.74" stroke-linecap="round"/>
</g>
<path d="M334.498 401.603C330.812 401.228 323.745 399.544 324.971 395.803C326.196 392.063 331.833 398.111 334.498 401.603ZM334.498 401.603C334.333 399.019 334.669 394.267 337.339 395.927C340.009 397.588 336.558 400.403 334.498 401.603Z" stroke="black" stroke-width="0.87"/>
<path d="M282.518 369.953L285.157 194.171L338.127 195.851L356.509 369.674C358.579 369.503 360.289 371.266 360.055 373.33L358.939 383.152C358.731 384.987 357.385 386.491 355.584 386.902L354.918 387.054L330.205 388.824C329.104 388.801 328.132 388.101 327.761 387.065L324.245 377.263C323.472 375.109 324.834 372.781 327.09 372.398L312.504 251.365L303.957 371.92L304.637 371.983C307.39 372.235 309.212 374.959 308.394 377.601L305.758 386.118C305.358 387.41 304.151 388.281 302.799 388.253C302.799 388.253 294.563 388.216 282.263 386.911C280.426 386.873 278.894 385.495 278.663 383.672L277.538 374.808C277.188 372.049 279.481 369.674 282.251 369.929L282.518 369.953Z" fill="#ECDBD3"/>
<path d="M328.807 195.555C328.804 202.209 330.026 215.948 340.077 214.43C340.082 214.429 340.087 214.429 340.091 214.428L338.127 195.851L328.807 195.555Z" fill="#EAD1C9"/>
<path d="M284.837 215.441L285.156 194.171L293.193 194.425C295.699 196.897 297.343 200.597 297.089 205.729C296.786 211.86 289.692 214.841 284.837 215.441Z" fill="#EAD1C9"/>
<path d="M280.078 370.736C280.795 370.3 281.626 370.034 282.517 369.998L282.56 367.156C286.498 369.322 291.855 371.65 296.763 372.107L280.078 370.736Z" fill="#EAD1C9"/>
<path d="M326.407 372.582C326.623 372.5 326.852 372.438 327.09 372.398L326.083 363.634C331.002 366.54 341.451 371.295 350.059 370.522L326.427 372.751L326.407 372.582Z" fill="#EAD1C9"/>
<path d="M297.194 372.143C297.05 372.132 296.907 372.121 296.763 372.107L297.194 372.143Z" fill="#EAD1C9"/>
<path d="M359.256 134.898L342.203 141.854L357.324 161.819C353.895 162.118 343.878 161.109 341.794 161.496L344.763 172.525C360.132 180.613 383.417 181.555 380.448 170.526C377.479 159.497 359.256 134.898 359.256 134.898Z" fill="#F28B68"/>
<path d="M256.074 141.053L265.467 128.911L278.418 143.346C273.4 150.249 261.814 163.838 255.618 162.978C249.421 162.118 224.208 127.899 212.377 110.897C207.222 109.724 199.071 102.773 199.463 94.6344C199.697 93.28 200.8 90.0291 203.34 87.8606C203.152 87.5765 202.98 87.2694 202.822 86.9362C202.306 85.8469 203.828 85.295 206.058 85.1694C205.188 83.021 203.008 77.9837 201.242 75.0224C199.034 71.3206 199.436 68.7027 202.251 70.4733C204.506 71.8916 207.437 77.4507 211.082 85.274C212.795 85.6331 215.666 86.5801 216.525 87.2215C219.045 89.1019 221.287 99.9635 222.092 105.159L256.074 141.053Z" fill="#F28B68"/>
<path d="M212.097 91.6198C208.07 91.9015 205.322 87.823 203.057 86.8619C203.904 90.0783 208.393 93.9798 210.661 94.7887C211.022 99.3659 213.867 101.71 215.533 102.202C211.224 98.4562 211.447 93.5865 212.097 91.6198Z" fill="#E37651"/>
<path d="M211.317 85.206L206.293 85.1014L210.442 83.3599L211.317 85.206Z" fill="#E37651"/>
<path d="M209.234 97.5007C211.434 97.1809 210.658 94.9409 209.766 93.856L211.565 95.2644L211.955 98.4713C208.282 99.3087 204.228 96.4825 202.468 93.2471C203.962 94.6491 207.033 97.8204 209.234 97.5007Z" fill="#E37651"/>
<path d="M210.062 101.63C212.255 101.676 211.934 99.5368 211.499 98.4615C211.959 98.3187 212.872 98.3986 212.841 99.8603C212.82 100.869 212.784 102.601 209.13 102.525C209.111 103.438 208.338 105.707 206.779 105.675C205.866 105.656 204.288 105.411 202.707 103.762L202.259 103.296C204.061 104.552 206.609 104.757 207.255 104.771C207.712 104.78 208.775 102.808 208.216 102.506C208.216 102.506 207.69 102.302 206.408 101.554C203.158 99.6587 201.488 96.4251 201.06 95.0453L202.383 97.3577C203.706 99.6701 207.322 101.573 210.062 101.63Z" fill="#E37651"/>
<path d="M295.993 100.638C301.521 98.4949 300.35 92.5752 299.073 89.8832C305.813 86.2606 319.034 79.965 316.121 88.1828C313.208 96.4006 316.545 101.222 318.812 102.053C305.401 109.676 298.012 104.286 295.993 100.638Z" fill="#E37651"/>
<path d="M351.646 75.5727C356.193 70.959 335.88 52.2032 327.3 42.3823L321.434 63.9239C324.218 68.4899 329.495 73.3833 332.016 76.0405C335.168 79.362 345.962 81.3399 351.646 75.5727Z" fill="#3146CC"/>
<path d="M331.569 59.2508C328.343 56.4216 326.255 58.8525 325.615 60.4216L323.083 72.453C324.15 72.3314 326.838 71.7544 329.055 70.4195C331.827 68.7509 335.6 62.7874 331.569 59.2508Z" fill="#E37651"/>
<path d="M290.853 84.1203C284.771 77.7788 283.072 55.4738 282.983 45.114C303.481 26.3481 324.492 39.9465 325.558 41.431C326.89 43.2866 330.059 66.658 320.153 81.5317C310.247 96.4053 298.457 92.0471 290.853 84.1203Z" fill="#F3956C"/>
<path d="M306.431 38.2913C287.429 37.8956 282.996 52.3191 283.738 60.5599C282.187 47.2756 280.138 28.1475 304.899 24.0933C330.404 19.9173 334.43 46.9475 332.477 60.3113C331.061 58.0883 327.947 58.3891 327.024 58.8268C327.205 50.1482 325.433 38.687 306.431 38.2913Z" fill="#4B3838"/>
<path d="M331.401 68.0573C328.783 70.9274 325.685 71.8987 324.464 72.0256C322.513 77.9255 320.458 81.5385 318.745 83.3307C327.566 76.6599 328.255 72.8661 331.401 68.0573Z" fill="#4B3838"/>
<path d="M325.14 39.5951C314.276 34.6164 293.229 35.8836 285.838 39.6901L282.85 51.5092C282.85 51.5092 290.482 36.1318 326.786 48.3117L325.14 39.5951Z" fill="#3D58FF"/>
<g opacity="0.7">
<mask id="mask5_3285_2700" style="mask-type:alpha" maskUnits="userSpaceOnUse" x="282" y="35" width="46" height="57">
<path d="M290.854 84.1203C284.771 77.7788 283.072 55.4738 282.983 45.114C303.481 26.3481 324.492 39.9465 325.558 41.431C326.89 43.2866 330.06 66.658 320.153 81.5317C310.247 96.4053 298.457 92.0471 290.854 84.1203Z" fill="#F7A582"/>
</mask>
<g mask="url(#mask5_3285_2700)">
<g filter="url(#filter1_f_3285_2700)">
<circle cx="324.856" cy="75.2321" r="11.8786" transform="rotate(1.19302 324.856 75.2321)" fill="#EF4646" fill-opacity="0.6"/>
</g>
<g filter="url(#filter2_f_3285_2700)">
<circle cx="278.265" cy="74.2612" r="11.8786" transform="rotate(1.19302 278.265 74.2612)" fill="#EF4646" fill-opacity="0.6"/>
</g>
</g>
</g>
<path d="M318.352 102.189C305.798 108.143 298.212 103.75 295.989 100.81C290.051 100.686 278.969 101.786 272.925 111.165C266.88 120.544 263.504 124.657 261.617 127.512L280.345 149.837L285.036 143.994L283.27 193.447C292.599 198.973 310.722 205.673 338.029 193.447L339.392 145.126L362.014 134.042C360.136 129.128 354.993 120.095 347.883 110.442C340.772 100.789 324.179 100.331 318.352 102.189Z" fill="#373232"/>
<path d="M328.372 101.437C335.283 101.964 343.437 104.405 347.884 110.441C354.994 120.094 360.137 129.128 362.015 134.041L339.537 145.054C332.164 134.429 320.051 111.471 328.372 101.437Z" fill="#262626"/>
<path d="M295.123 100.801C289.064 107.505 285.82 132.04 284.914 144.146L280.346 149.836L261.618 127.512C262.242 126.568 263.028 125.488 264.019 124.126C266.027 121.365 268.878 117.445 272.926 111.165C278.687 102.225 289.025 100.807 295.123 100.801Z" fill="#262626"/>
<path d="M357.782 125.636L335.476 138.31L336.487 140.089L358.78 127.423C358.464 126.844 358.131 126.248 357.782 125.636Z" fill="white"/>
<path d="M285.029 144.765L285.1 144.709L285.034 144.625L285.029 144.765Z" fill="white"/>
<path d="M284.813 144.344L266.419 120.893C265.978 121.513 265.565 122.089 265.177 122.626L283.489 145.972L283.536 145.935L284.813 144.344Z" fill="white"/>
<path d="M319.722 144.825L291.387 161.644L319.428 207.767L347.721 189.535L319.722 144.825Z" fill="#F1E8E8"/>
<path d="M329.759 140.395L298.799 151.752L317.93 203.626L349.107 190.84L329.759 140.395Z" fill="white"/>
<path d="M316.775 145.158C322.975 143.544 328.625 143.11 329.774 146.164C331.226 150.028 337.624 163.744 343.339 175.803L329.758 140.395L316.775 145.158Z" fill="#F2E9E9"/>
<path d="M334.637 154.034C334.637 154.034 336.288 153.144 337.377 154.091C338.712 155.251 342.092 157.937 342.929 159.566C346.63 161.235 349.349 165.286 348.726 168.403C349.255 175.635 342.781 175.225 336.892 177.387C332.215 179.104 332.273 175.966 333.273 174.6C333.107 174.82 332.028 176.178 330.983 175.893C329.165 175.398 329.113 173.859 329.679 172.667C325.778 172.999 325.802 169.818 326.742 167.945C324.039 167.889 323.574 164.267 329.033 161.801C333.4 159.827 336.654 159.379 336.654 159.379L334.637 154.034Z" fill="#F28B68"/>
<mask id="mask6_3285_2700" style="mask-type:alpha" maskUnits="userSpaceOnUse" x="324" y="153" width="25" height="25">
<path d="M334.637 154.034C334.637 154.034 336.288 153.144 337.377 154.091C338.711 155.251 342.092 157.937 342.928 159.566C346.63 161.235 349.349 165.286 348.726 168.403C349.255 175.635 342.781 175.225 336.892 177.387C332.215 179.104 332.273 175.966 333.273 174.6C333.106 174.82 332.028 176.178 330.983 175.893C329.165 175.398 329.113 173.859 329.679 172.667C325.778 172.999 325.801 169.818 326.742 167.945C324.039 167.889 323.574 164.267 329.033 161.801C333.4 159.827 336.654 159.379 336.654 159.379L334.637 154.034Z" fill="#F28B68"/>
</mask>
<g mask="url(#mask6_3285_2700)">
<path d="M337.653 162.779C332.21 160.838 326.757 166.666 326.12 168.023C324.708 169.974 322.726 172.979 326.091 169.394C329.456 165.808 335.36 163.189 337.653 162.779Z" fill="#E37651"/>
<path d="M339.385 167.386C334.408 164.997 328.775 172.191 327.823 174C327.166 176.271 326.687 180.282 328.232 176.293C329.778 172.304 335.274 167.3 339.385 167.386Z" fill="#E37651"/>
<path d="M342.516 170.65C337.073 168.709 333.003 173.955 332.362 175.465C331.702 177.888 330.771 181.647 332.324 177.292C333.877 172.938 340.384 170.605 342.516 170.65Z" fill="#E37651"/>
</g>
<path d="M334.503 50.7572L326.329 48.3018C322.002 34.34 308.496 26.9099 299.274 30.8306C293.551 33.2642 289.568 36.1121 286.238 42.4403L282.85 51.5091C282.85 51.5091 282.913 44.863 283.021 43.2872C284.826 26.921 292.493 21.6881 305.364 20.1947C318.235 18.7012 327.308 25.3853 330.314 32.4938C332.718 38.1807 335.609 48.138 334.503 50.7572Z" fill="#3D58FF"/>
<ellipse cx="295.041" cy="62.947" rx="2.04706" ry="3.58235" fill="#3F3333"/>
<ellipse cx="295.041" cy="62.947" rx="2.04706" ry="3.58235" fill="#3F3333"/>
<ellipse cx="309.37" cy="63.9705" rx="2.04706" ry="3.58235" fill="#3F3333"/>
<ellipse cx="309.37" cy="63.9705" rx="2.04706" ry="3.58235" fill="#3F3333"/>
<path d="M290.435 57.3174C290.606 55.0998 293.096 51.7904 297.6 54.2468M307.324 54.7586C307.835 54.2468 312.441 51.6882 315.512 57.3176" stroke="#3F3333" stroke-width="1.305" stroke-linecap="round"/>
<path d="M300.492 65.5059C300.321 66.0176 299.366 67.7576 296.909 70.6235C294.453 73.4894 297.933 75.2294 299.98 75.7412" stroke="#EE6549" stroke-width="0.87" stroke-linecap="round"/>
<path d="M311.929 76.7646C306.607 80.8588 301.182 79.8352 299.135 78.8117C299.818 80.6882 302.308 84.2364 306.812 83.4176C311.315 82.5988 312.1 78.6411 311.929 76.7646Z" fill="#D74848"/>
<path d="M311.771 78.7877C308.111 81.2141 302.886 81.069 300.069 80.5528C299.627 79.9299 299.317 79.3115 299.135 78.8117C301.182 79.8352 306.607 80.8588 311.929 76.7646C311.979 77.3071 311.948 78.0235 311.771 78.7877Z" fill="white"/>
<rect x="184.841" y="242.629" width="96.8563" height="5.48243" rx="1.74" fill="#697DB5"/>
<path d="M155.057 200.018C154.025 197.715 155.709 195.114 158.232 195.114H229.114C230.522 195.114 231.791 195.963 232.33 197.264L253.37 248.111H178.87C177.498 248.111 176.255 247.306 175.694 246.055L155.057 200.018Z" fill="#8397CC"/>
<path fill-rule="evenodd" clip-rule="evenodd" d="M227.689 195.115L176.616 244.457L179.44 248.112H191.202L235.988 206.106L232.329 197.264C231.791 195.963 230.522 195.115 229.114 195.115H227.689Z" fill="url(#paint0_linear_3285_2700)"/>
<circle cx="201.389" cy="221.594" r="3.58235" fill="#5B73B3"/>
<path d="M424.396 51.4309C428.412 53.6882 426.475 59.7077 425.004 62.4353H416.988C417.242 61.6358 419.163 59.2186 420.137 55.9455C421.354 51.8541 409.792 45.6465 415.421 42.9659C421.049 40.2854 416.029 36.7584 411.77 31.3972C407.51 26.0361 417.094 15.7371 421.049 20.8161C425.004 25.895 420.441 26.036 420.137 31.3972C419.832 36.7583 428.047 37.0405 426.982 42.9659C425.917 48.8914 419.376 48.6092 424.396 51.4309Z" fill="#EFF2FA"/>
<path d="M422.528 52.6851C425.504 55.1721 423.309 60.2215 421.839 62.4353H419.91C420.875 61.0223 422.749 57.6026 422.528 55.2286C422.253 52.2612 419.084 50.9894 418.808 48.1632C418.533 45.3371 424.457 43.5001 417.706 35.7281C412.305 29.5105 415.639 25.6952 417.982 24.5648C416.879 25.2242 415.171 27.7018 417.155 32.3367C419.635 38.1303 423.63 40.6739 422.115 44.3479C420.599 48.0219 418.808 49.5763 422.528 52.6851Z" fill="#E8EBF2"/>
<path d="M416.663 51.1926C422.182 54.1157 419.442 59.9057 417.382 62.4353H413.215C413.215 60.1867 412.209 60.3275 410.197 57.9384C408.185 55.5493 412.496 55.1277 407.036 51.1926C401.575 47.2575 403.587 44.166 403.443 41.9174C403.299 39.6689 399.276 41.0741 396.833 35.3122C394.39 29.5502 402.293 29.2692 405.455 34.0473C408.616 38.8255 408.904 38.2634 413.215 41.4957C417.526 44.728 409.766 47.5387 416.663 51.1926Z" fill="#3D58FF"/>
<path d="M416.663 51.1926C422.182 54.1157 419.442 59.9057 417.382 62.4353H413.215C413.215 60.1867 412.209 60.3275 410.197 57.9384C408.185 55.5493 412.496 55.1277 407.036 51.1926C401.575 47.2575 403.587 44.166 403.443 41.9174C403.299 39.6689 399.276 41.0741 396.833 35.3122C394.39 29.5502 402.293 29.2692 405.455 34.0473C408.616 38.8255 408.904 38.2634 413.215 41.4957C417.526 44.728 409.766 47.5387 416.663 51.1926Z" fill="#EFF2FA"/>
<path fill-rule="evenodd" clip-rule="evenodd" d="M415.762 62.6556C416.638 59.5404 417.481 54.69 415.453 54.1831C412.619 53.4744 409.784 49.931 410.776 46.671C411.768 43.4111 408.225 40.2929 405.39 39.5842C402.729 38.9188 398.318 33.1301 398.141 31.0178C400.137 30.0306 403.815 31.0658 405.73 34.0249C408.136 37.7424 408.854 38.2548 411.009 39.7913C411.647 40.2466 412.412 40.7918 413.384 41.537C415.296 43.0026 414.801 44.3823 414.295 45.792C413.676 47.5177 413.041 49.2884 416.786 51.3167C422.228 54.2649 419.526 60.1044 417.494 62.6556H415.762Z" fill="#E8EBF2"/>
<path d="M424.819 54.2229C421.701 55.8259 423.249 59.0011 424.413 60.3883H426.769C426.769 59.1551 427.337 59.2323 428.474 57.9222C429.612 56.6121 427.175 56.3808 430.261 54.2229C433.348 52.0649 432.211 50.3696 432.292 49.1365C432.373 47.9034 434.647 48.674 436.028 45.5143C437.409 42.3545 432.942 42.2004 431.155 44.8207C429.368 47.441 429.205 47.1327 426.769 48.9052C424.332 50.6778 428.718 52.2191 424.819 54.2229Z" fill="#3D58FF"/>
<path d="M424.819 54.2229C421.701 55.8259 423.249 59.0011 424.413 60.3883H426.769C426.769 59.1551 427.337 59.2323 428.474 57.9222C429.612 56.6121 427.175 56.3808 430.261 54.2229C433.348 52.0649 432.211 50.3696 432.292 49.1365C432.373 47.9034 434.647 48.674 436.028 45.5143C437.409 42.3545 432.942 42.2004 431.155 44.8207C429.368 47.441 429.205 47.1327 426.769 48.9052C424.332 50.6778 428.718 52.2191 424.819 54.2229Z" fill="#EFF2FA"/>
<path fill-rule="evenodd" clip-rule="evenodd" d="M425.317 60.6595C424.833 58.9392 424.367 56.2606 425.487 55.9807C427.052 55.5893 428.618 53.6326 428.07 51.8324C427.522 50.0322 429.479 48.3103 431.044 47.919C432.514 47.5515 434.95 44.354 435.047 43.188C433.945 42.644 431.915 43.2158 430.858 44.8492C429.529 46.9021 429.133 47.185 427.943 48.0335C427.59 48.2849 427.168 48.586 426.631 48.9975C425.575 49.8068 425.849 50.5687 426.128 51.3472C426.47 52.3002 426.821 53.278 424.753 54.398C421.747 56.026 423.24 59.2507 424.361 60.6595H425.317Z" fill="#E8EBF2"/>
<path d="M427.077 70.624C425.03 65.7111 427.419 60.3882 429.124 58.3412H408.142C410.53 60.5588 413.976 66.5299 410.701 72.6711C406.606 80.3475 406.606 100.306 420.424 98.2593C434.242 96.2122 429.636 76.7652 427.077 70.624Z" fill="#E8EBF2"/>
<rect x="488.489" y="15.353" width="15.3529" height="84.9529" fill="#E8EBF2"/>
<rect x="511.007" y="17.4" width="15.3529" height="84.9529" fill="#E8EBF2"/>
<rect x="475.073" y="16.3765" width="15.3529" height="84.9529" transform="rotate(29.5173 475.073 16.3765)" fill="#E8EBF2"/>
<rect x="395.348" y="98.2589" width="142.271" height="15.3529" fill="#EFF2FA"/>
<path d="M94.9638 204.217C94.9638 210.73 89.6838 216.01 83.1706 216.01C76.6574 216.01 71.3774 210.73 71.3774 204.217C71.3774 197.704 76.6574 192.424 83.1706 192.424C89.6838 192.424 94.9638 197.704 94.9638 204.217Z" fill="#FE101D"/>
<path opacity="0.6" d="M63.7687 204.217C63.7687 210.73 58.4887 216.01 51.9755 216.01C45.4623 216.01 40.1823 210.73 40.1823 204.217C40.1823 197.704 45.4623 192.424 51.9755 192.424C58.4887 192.424 63.7687 197.704 63.7687 204.217Z" fill="black"/>
<path d="M83.3611 202.315C78.0347 202.315 76.7031 204.966 76.7031 206.119H79.7844C80.0585 206.119 80.3024 205.966 80.4576 205.74C80.8314 205.195 81.4457 204.736 83.3611 204.736C84.686 204.736 85.4403 205.194 85.8159 205.626C86.0392 205.882 86.3376 206.119 86.678 206.119H89.6274C89.758 204.966 88.6875 202.315 83.3611 202.315Z" fill="white"/>
<path d="M126.158 204.217C126.158 210.73 120.878 216.01 114.364 216.01C107.851 216.01 102.571 210.73 102.571 204.217C102.571 197.704 107.851 192.424 114.364 192.424C120.878 192.424 126.158 197.704 126.158 204.217Z" fill="white"/>
<path d="M81.2682 206.119C81.2682 206.959 80.2463 207.641 78.9857 207.641C77.7251 207.641 76.7031 206.959 76.7031 206.119C76.7031 205.278 77.7251 204.597 78.9857 204.597C80.2463 204.597 81.2682 205.278 81.2682 206.119Z" fill="white"/>
<path d="M89.6382 206.119C89.6382 206.959 88.6162 207.641 87.3556 207.641C86.095 207.641 85.0731 206.959 85.0731 206.119C85.0731 205.278 86.095 204.597 87.3556 204.597C88.6162 204.597 89.6382 205.278 89.6382 206.119Z" fill="white"/>
<path d="M108.658 202.315C108.658 201.474 109.339 200.793 110.18 200.793H113.984C114.825 200.793 115.506 201.474 115.506 202.315V206.119C115.506 206.959 114.825 207.641 113.984 207.641H110.18C109.339 207.641 108.658 206.959 108.658 206.119V202.315Z" fill="#272727"/>
<path d="M119.69 201.554L117.004 203.232C116.782 203.371 116.647 203.615 116.647 203.878V204.888C116.647 205.176 116.809 205.439 117.067 205.568L119.69 206.88V201.554Z" fill="#272727"/>
<path d="M50.8329 200.032C50.8329 199.192 51.5142 198.51 52.3547 198.51C53.1951 198.51 53.8764 199.192 53.8764 200.032V204.597C53.8764 205.438 53.1951 206.119 52.3547 206.119C51.5142 206.119 50.8329 205.438 50.8329 204.597V200.032Z" fill="white"/>
<path fill-rule="evenodd" clip-rule="evenodd" d="M55.0628 202.316C55.2723 202.3 55.4552 202.456 55.4713 202.666C55.6283 204.706 55.2078 206.046 54.5554 206.885C54.0292 207.562 53.3707 207.886 52.8095 207.986V209.543H54.3312C54.5413 209.543 54.7116 209.713 54.7116 209.923C54.7116 210.133 54.5413 210.304 54.3312 210.304H50.5269C50.3168 210.304 50.1465 210.133 50.1465 209.923C50.1465 209.713 50.3168 209.543 50.5269 209.543H52.0487V208.004C51.3886 207.943 50.8511 207.72 50.4225 207.38C49.9193 206.98 49.593 206.438 49.3818 205.871C48.9634 204.748 48.9682 203.445 49.0057 202.677C49.0159 202.467 49.1943 202.305 49.4042 202.315C49.614 202.325 49.7759 202.504 49.7656 202.714C49.7289 203.466 49.7338 204.637 50.0948 205.606C50.2733 206.085 50.5315 206.494 50.8959 206.784C51.2552 207.07 51.7446 207.26 52.4291 207.26C52.8224 207.26 53.452 207.064 53.9548 206.418C54.4563 205.773 54.8601 204.641 54.7127 202.724C54.6966 202.515 54.8534 202.332 55.0628 202.316Z" fill="white"/>
<path d="M470.6 327.04C470.6 333.554 465.32 338.834 458.806 338.834C452.293 338.834 447.013 333.554 447.013 327.04C447.013 320.527 452.293 315.247 458.806 315.247C465.32 315.247 470.6 320.527 470.6 327.04Z" fill="#FE101D"/>
<path opacity="0.6" d="M439.404 327.04C439.404 333.554 434.124 338.834 427.61 338.834C421.097 338.834 415.817 333.554 415.817 327.04C415.817 320.527 421.097 315.247 427.61 315.247C434.124 315.247 439.404 320.527 439.404 327.04Z" fill="black"/>
<path d="M458.997 325.138C453.67 325.138 452.339 327.79 452.339 328.942H455.42C455.694 328.942 455.938 328.789 456.093 328.563C456.467 328.019 457.081 327.559 458.997 327.559C460.322 327.559 461.076 328.017 461.452 328.449C461.675 328.706 461.973 328.942 462.314 328.942H465.263C465.394 327.79 464.323 325.138 458.997 325.138Z" fill="white"/>
<path d="M501.793 327.04C501.793 333.554 496.513 338.834 490 338.834C483.487 338.834 478.207 333.554 478.207 327.04C478.207 320.527 483.487 315.247 490 315.247C496.513 315.247 501.793 320.527 501.793 327.04Z" fill="white"/>
<path d="M456.904 328.942C456.904 329.783 455.882 330.464 454.621 330.464C453.361 330.464 452.339 329.783 452.339 328.942C452.339 328.102 453.361 327.421 454.621 327.421C455.882 327.421 456.904 328.102 456.904 328.942Z" fill="white"/>
<path d="M465.274 328.942C465.274 329.783 464.252 330.464 462.991 330.464C461.731 330.464 460.709 329.783 460.709 328.942C460.709 328.102 461.731 327.421 462.991 327.421C464.252 327.421 465.274 328.102 465.274 328.942Z" fill="white"/>
<path d="M484.294 325.138C484.294 324.298 484.975 323.616 485.816 323.616H489.62C490.46 323.616 491.142 324.298 491.142 325.138V328.942C491.142 329.783 490.46 330.464 489.62 330.464H485.816C484.975 330.464 484.294 329.783 484.294 328.942V325.138Z" fill="#272727"/>
<path d="M495.326 324.377L492.64 326.056C492.418 326.195 492.282 326.439 492.282 326.701V327.711C492.282 328 492.445 328.263 492.703 328.392L495.326 329.703V324.377Z" fill="#272727"/>
<path d="M426.469 322.856C426.469 322.015 427.15 321.334 427.99 321.334C428.831 321.334 429.512 322.015 429.512 322.856V327.421C429.512 328.261 428.831 328.942 427.99 328.942C427.15 328.942 426.469 328.261 426.469 327.421V322.856Z" fill="white"/>
<path fill-rule="evenodd" clip-rule="evenodd" d="M430.699 325.139C430.908 325.123 431.091 325.28 431.107 325.489C431.264 327.529 430.844 328.87 430.191 329.709C429.665 330.385 429.006 330.71 428.445 330.81V332.366H429.967C430.177 332.366 430.347 332.537 430.347 332.747C430.347 332.957 430.177 333.127 429.967 333.127H426.163C425.953 333.127 425.782 332.957 425.782 332.747C425.782 332.537 425.953 332.366 426.163 332.366H427.684V330.827C427.024 330.766 426.487 330.544 426.058 330.203C425.555 329.803 425.229 329.262 425.018 328.695C424.599 327.572 424.604 326.269 424.641 325.5C424.652 325.29 424.83 325.128 425.04 325.139C425.25 325.149 425.412 325.327 425.401 325.537C425.365 326.29 425.37 327.46 425.731 328.429C425.909 328.908 426.167 329.318 426.532 329.608C426.891 329.893 427.38 330.084 428.065 330.084C428.458 330.084 429.088 329.888 429.591 329.242C430.092 328.597 430.496 327.464 430.348 325.548C430.332 325.338 430.489 325.155 430.699 325.139Z" fill="white"/>
<path d="M502.704 236.723C502.704 234.5 504.506 232.698 506.729 232.698C508.952 232.698 510.754 234.5 510.754 236.723C510.754 238.946 508.952 240.748 506.729 240.748C504.506 240.748 502.704 238.946 502.704 236.723Z" fill="#253493"/>
<path d="M501.899 224.647V228.672H513.169V224.647C517.463 223.574 526.05 218.207 526.05 205.327C526.05 192.446 514.243 188.421 508.339 188.421C502.167 188.689 489.824 193.09 489.824 205.327C489.824 217.563 497.874 223.305 501.899 224.647Z" fill="#FFD954"/>
<path fill-rule="evenodd" clip-rule="evenodd" d="M505.224 214.009C505.484 218.671 505.345 223.958 505.119 227.914L503.512 227.822C503.742 223.801 503.877 218.439 503.599 213.802C501.096 213.355 499.163 212.382 497.91 211.129C496.657 209.877 496.059 208.299 496.41 206.735C496.76 205.179 498 203.853 499.963 202.981C500.757 202.628 501.55 202.66 502.241 203.106C502.873 203.513 503.327 204.207 503.67 204.982C504.36 206.541 504.778 208.853 505.029 211.426C505.06 211.74 505.088 212.06 505.114 212.385C506.29 212.497 507.604 212.492 509.051 212.333C509.119 210.814 509.236 209.389 509.426 208.152C509.566 207.243 509.749 206.414 509.991 205.715C510.228 205.027 510.545 204.399 510.991 203.952C512.095 202.848 513.675 202.823 515.003 203.252C516.342 203.685 517.641 204.633 518.41 205.831C519.195 207.055 519.461 208.623 518.498 210.094C517.583 211.493 515.663 212.623 512.55 213.355C511.887 213.511 511.241 213.64 510.612 213.743C510.605 214.012 510.599 214.284 510.594 214.558C510.545 217.364 510.614 220.318 510.676 223.006C510.717 224.784 510.755 226.445 510.755 227.868H509.145C509.145 226.531 509.108 224.9 509.068 223.133C509.005 220.399 508.936 217.337 508.984 214.53C508.988 214.338 508.991 214.147 508.996 213.957C507.645 214.091 506.385 214.102 505.224 214.009ZM510.673 212.1C511.163 212.013 511.666 211.909 512.181 211.788C515.151 211.089 516.574 210.094 517.151 209.212C517.681 208.402 517.589 207.533 517.055 206.7C516.504 205.841 515.522 205.112 514.508 204.784C513.482 204.453 512.635 204.585 512.129 205.091C511.932 205.288 511.715 205.654 511.512 206.241C511.314 206.816 511.149 207.542 511.018 208.397C510.851 209.481 510.741 210.737 510.673 212.1ZM503.478 212.138C503.462 211.951 503.444 211.766 503.427 211.582C503.178 209.036 502.777 206.943 502.198 205.633C501.906 204.973 501.613 204.616 501.369 204.459C501.184 204.34 500.973 204.294 500.617 204.452C498.958 205.19 498.185 206.179 497.981 207.088C497.779 207.99 498.087 209.029 499.048 209.99C499.966 210.908 501.455 211.712 503.478 212.138Z" fill="#FFE381"/>
<path d="M496.263 230.282C496.263 228.949 497.344 227.867 498.678 227.867H514.778C516.112 227.867 517.193 228.949 517.193 230.282V231.892C517.193 233.226 516.112 234.307 514.778 234.307H498.678C497.344 234.307 496.263 233.226 496.263 231.892V230.282Z" fill="#3146CC"/>
<path d="M500.287 234.308H513.167L511.235 236.884C510.931 237.289 510.454 237.528 509.947 237.528H503.507C503 237.528 502.523 237.289 502.219 236.884L500.287 234.308Z" fill="#3146CC"/>
<path fill-rule="evenodd" clip-rule="evenodd" d="M508.338 169.906C508.783 169.906 509.143 170.266 509.143 170.711V182.786C509.143 183.231 508.783 183.591 508.338 183.591C507.894 183.591 507.533 183.231 507.533 182.786V170.711C507.533 170.266 507.894 169.906 508.338 169.906ZM478.698 183.935C478.953 183.57 479.455 183.482 479.819 183.737L487.869 189.372C488.234 189.627 488.322 190.129 488.067 190.493C487.812 190.857 487.31 190.946 486.946 190.691L478.896 185.056C478.532 184.801 478.443 184.299 478.698 183.935ZM533.124 183.902C533.397 184.253 533.334 184.759 532.983 185.032L525.738 190.667C525.387 190.94 524.881 190.877 524.608 190.526C524.335 190.175 524.399 189.669 524.75 189.396L531.995 183.761C532.346 183.488 532.852 183.551 533.124 183.902ZM472.112 203.717C472.112 203.272 472.473 202.912 472.917 202.912H481.773C482.217 202.912 482.578 203.272 482.578 203.717C482.578 204.161 482.217 204.522 481.773 204.522H472.917C472.473 204.522 472.112 204.161 472.112 203.717ZM531.684 203.717C531.684 203.272 532.044 202.912 532.489 202.912H542.954C543.399 202.912 543.759 203.272 543.759 203.717C543.759 204.161 543.399 204.522 542.954 204.522H532.489C532.044 204.522 531.684 204.161 531.684 203.717ZM524.54 219.426C524.756 219.038 525.246 218.898 525.635 219.114L532.88 223.139C533.269 223.355 533.409 223.845 533.193 224.233C532.977 224.622 532.487 224.762 532.098 224.546L524.853 220.521C524.464 220.305 524.324 219.815 524.54 219.426Z" fill="#FFD954"/>
<circle cx="131.277" cy="95.1882" r="22.5176" fill="white"/>
<path d="M114.901 124.871C118.995 121.595 118.313 115.318 117.46 112.588L141.001 115.659L114.901 124.871Z" fill="white"/>
<path d="M125.03 89.9193C125.03 89.2736 125.238 88.6211 125.652 87.9618C126.067 87.2957 126.672 86.7451 127.467 86.3101C128.262 85.8751 129.19 85.6576 130.25 85.6576C131.236 85.6576 132.106 85.8411 132.86 86.2082C133.615 86.5684 134.196 87.0612 134.604 87.6865C135.018 88.3118 135.226 88.9915 135.226 89.7255C135.226 90.3033 135.107 90.8096 134.869 91.2446C134.638 91.6796 134.359 92.0569 134.033 92.3763C133.713 92.689 133.136 93.2191 132.3 93.9668C132.069 94.1775 131.882 94.3644 131.739 94.5275C131.603 94.6839 131.501 94.83 131.433 94.9659C131.365 95.0951 131.311 95.2276 131.27 95.3636C131.236 95.4927 131.182 95.7238 131.107 96.0568C130.978 96.7637 130.573 97.1171 129.894 97.1171C129.54 97.1171 129.241 97.0016 128.996 96.7705C128.758 96.5394 128.64 96.1962 128.64 95.7408C128.64 95.1698 128.728 94.6771 128.905 94.2625C129.081 93.8411 129.316 93.474 129.608 93.1614C129.9 92.8419 130.295 92.4647 130.791 92.0297C131.226 91.6491 131.538 91.3636 131.729 91.1733C131.926 90.9762 132.089 90.7587 132.218 90.5208C132.354 90.2829 132.422 90.0246 132.422 89.7459C132.422 89.2022 132.218 88.7434 131.81 88.3696C131.409 87.9957 130.889 87.8088 130.25 87.8088C129.503 87.8088 128.952 87.9991 128.599 88.3798C128.245 88.7536 127.946 89.3075 127.702 90.0416C127.47 90.8096 127.032 91.1937 126.386 91.1937C126.006 91.1937 125.683 91.0611 125.418 90.7961C125.16 90.5242 125.03 90.2319 125.03 89.9193ZM130.006 101.093C129.591 101.093 129.227 100.961 128.915 100.696C128.609 100.424 128.456 100.047 128.456 99.564C128.456 99.1358 128.606 98.7756 128.905 98.4833C129.204 98.1911 129.571 98.0449 130.006 98.0449C130.434 98.0449 130.794 98.1911 131.086 98.4833C131.379 98.7756 131.525 99.1358 131.525 99.564C131.525 100.04 131.372 100.414 131.066 100.686C130.76 100.957 130.407 101.093 130.006 101.093Z" fill="black"/>
<defs>
<filter id="filter0_f_3285_2700" x="407.944" y="216.899" width="95.1069" height="67.6947" filterUnits="userSpaceOnUse" color-interpolation-filters="sRGB">
<feFlood flood-opacity="0" result="BackgroundImageFix"/>
<feBlend mode="normal" in="SourceGraphic" in2="BackgroundImageFix" result="shape"/>
<feGaussianBlur stdDeviation="8.7" result="effect1_foregroundBlur_3285_2700"/>
</filter>
<filter id="filter1_f_3285_2700" x="295.577" y="45.9535" width="58.5573" height="58.5573" filterUnits="userSpaceOnUse" color-interpolation-filters="sRGB">
<feFlood flood-opacity="0" result="BackgroundImageFix"/>
<feBlend mode="normal" in="SourceGraphic" in2="BackgroundImageFix" result="shape"/>
<feGaussianBlur stdDeviation="8.7" result="effect1_foregroundBlur_3285_2700"/>
</filter>
<filter id="filter2_f_3285_2700" x="248.987" y="44.9826" width="58.5573" height="58.5573" filterUnits="userSpaceOnUse" color-interpolation-filters="sRGB">
<feFlood flood-opacity="0" result="BackgroundImageFix"/>
<feBlend mode="normal" in="SourceGraphic" in2="BackgroundImageFix" result="shape"/>
<feGaussianBlur stdDeviation="8.7" result="effect1_foregroundBlur_3285_2700"/>
</filter>
<linearGradient id="paint0_linear_3285_2700" x1="230.526" y1="200.141" x2="189.408" y2="244" gradientUnits="userSpaceOnUse">
<stop stop-color="#8DA0D5"/>
<stop offset="1" stop-color="#8397CC"/>
</linearGradient>
</defs>
</svg>
