<svg width="290" height="279" viewBox="0 0 290 279" fill="none" xmlns="http://www.w3.org/2000/svg">
<mask id="mask0" mask-type="alpha" maskUnits="userSpaceOnUse" x="0" y="0" width="290" height="279">
<rect width="290" height="279" rx="16" fill="#2131BC"/>
</mask>
<g mask="url(#mask0)">
<rect width="290" height="279" rx="16" fill="#2131BC"/>
<path d="M58.2523 -4.3632C90.2395 -2.9637 156.628 15.5191 166.286 78.2541C178.359 156.673 272.445 107.458 317.919 125.266" stroke="#3546CE" stroke-width="2"/>
<path d="M70.7181 -22.0439C102.705 -20.6444 169.094 -2.16162 178.752 60.5734C190.825 138.992 284.911 89.7773 330.385 107.586" stroke="#3546CE" stroke-width="2"/>
<path d="M83.1838 -39.7245C115.171 -38.325 181.56 -19.8422 191.218 42.8928C203.291 121.312 297.377 72.0967 342.85 89.9051" stroke="#3546CE" stroke-width="2"/>
<path d="M95.6494 -57.4051C127.637 -56.0056 194.026 -37.5228 203.684 25.2122C215.756 103.631 309.842 54.4161 355.316 72.2245" stroke="#3546CE" stroke-width="2"/>
<path d="M108.115 -75.0857C140.102 -73.6862 206.491 -55.2035 216.149 7.53152C228.222 85.9503 322.308 36.7355 367.782 54.5439" stroke="#3546CE" stroke-width="2"/>
<path d="M120.581 -92.7664C152.568 -91.3669 218.957 -72.8841 228.615 -10.1491C240.688 68.2696 334.774 19.0548 380.247 36.8632" stroke="#3546CE" stroke-width="2"/>
<path d="M204.631 255.039C215.071 251.425 224.04 269.931 227.219 279.635H159.454C158.785 278.799 158.35 276.523 161.964 274.114C165.578 271.704 170.162 273.445 172.003 274.616C174.011 267.588 182.042 267.086 188.568 266.083C195.093 265.079 191.579 259.557 204.631 255.039Z" fill="#3546CE"/>
<path d="M275.407 245C257.337 245.001 260.181 253.534 259.345 257.549L255.831 279.635H303.015C303.015 267.086 293.478 267.086 289.964 265.078C286.451 263.07 286.865 245 275.407 245Z" fill="#3546CE"/>
<path fill-rule="evenodd" clip-rule="evenodd" d="M279.191 245.781C279.876 249.526 280.13 255.326 276.915 256.041C276.278 256.182 275.661 256.294 275.085 256.398C271.576 257.033 269.591 257.392 273.903 262.566L274.008 262.692C275.182 264.101 275.72 264.746 275.746 265.412C275.768 265.975 275.424 266.552 274.788 267.619C273.707 269.432 271.783 272.658 269.386 279.631H269.387C269.537 279.43 281.393 263.583 290.97 265.578C291.027 265.59 291.083 265.601 291.139 265.612C290.702 265.443 290.307 265.268 289.968 265.074C288.789 264.401 288.053 261.921 287.162 258.921C285.73 254.099 283.899 247.935 279.191 245.781ZM190.302 265.628C191.873 265.005 192.641 263.947 193.579 262.657C194.763 261.026 196.217 259.024 199.901 257.057C201.182 258.393 202.39 261.22 202.122 266.582C201.721 274.613 205.301 276.621 207.142 276.621C202.196 277.259 192.258 275.859 190.302 265.628ZM188.049 279.631H189.064C187.218 279.127 182.238 277.623 177.024 275.617C174.4 274.608 176.316 271.443 177.724 269.118C177.918 268.797 178.103 268.492 178.264 268.212C175.341 269.354 172.974 271.225 172.006 274.612C171.689 274.41 171.291 274.192 170.831 273.981C175.184 277.572 183.117 279.493 188.049 279.631Z" fill="#1C2BB3"/>
<path d="M117.088 126.74C108.61 139.271 117.602 150.948 118.116 151.956C102.481 151.956 102.687 162.716 104.744 168.095C97.0296 166.582 78 167.814 78 178.686C78 191.327 127.374 181.712 141.261 179.695C155.147 177.677 175.72 179.695 185.492 179.695C195.264 179.695 201.435 175.66 198.864 169.608C196.807 164.767 186.006 166.582 180.863 168.095C183.091 165.91 187.446 157.703 180.863 148.827C174.28 139.951 169 140.327 160.5 141.827C163.5 133.327 158.053 125.47 153.5 121.827C143.5 113.827 126.5 112.827 117.088 126.74Z" fill="#3546CE"/>
<path d="M104.632 21.6536C95.8884 24.2095 95.4721 34.8593 95.0557 36.9892C85.7293 34.2628 83.9529 41.2491 84.2305 45.0831C83.1202 44.6571 79.9004 44.6571 75.9034 48.065C70.9071 52.3249 76.3197 53.6029 85.4795 52.7509C94.6394 51.8989 129.197 51.0469 132.528 51.0469C135.859 51.0469 140.022 50.6209 138.773 46.361C137.774 42.9531 133.083 43.2371 130.862 43.8051C132.861 34.9445 124.756 33.5813 120.453 34.0073C121.286 24.2095 113.375 19.0976 104.632 21.6536Z" fill="#3546CE"/>
<path d="M20.9322 53.2669C20.5322 40.8669 4.76557 40.1002 -3.06776 41.2669C-4.9011 61.1003 -12.1677 98.9671 -0.567749 95.7671C13.9323 91.7671 47.4322 98.7671 54.4322 93.7671C60.0322 89.7671 54.4322 87.7671 50.9322 87.2671C49.7322 75.2671 33.4322 76.9338 25.4322 79.2671C27.8322 70.4671 21.7656 69.6004 18.4322 70.2671C19.4322 69.767 21.3322 65.6669 20.9322 53.2669Z" fill="#3546CE"/>
<path d="M222.777 292.768L228.475 211.574L253.068 196.87L246.268 292.101L222.777 292.768Z" fill="#C82132"/>
<path d="M222.777 292.768L228.475 211.574L253.068 196.87L246.268 292.101L222.777 292.768Z" fill="url(#paint0_linear)"/>
<path d="M332.989 139.183L206.923 126.927L245.423 233.309L316.365 239.893L332.989 139.183Z" fill="url(#paint1_linear)"/>
<path d="M266.399 130.955L261.417 130.525L258.589 162.532C256.944 163.433 255.976 165.309 256.318 167.259C256.747 169.707 259.08 171.343 261.528 170.913C263.976 170.484 265.612 168.151 265.183 165.703C264.986 164.584 264.392 163.634 263.57 162.974L266.399 130.955Z" fill="#C82133"/>
<path d="M161.973 167.131C163.605 142.976 184.381 125.004 208.515 126.871C232.967 128.762 251.533 150.274 249.831 174.742L245.747 233.436L158 225.922L161.973 167.131Z" fill="#F65D6D"/>
<rect x="173.375" y="171.819" width="60" height="7.98222" transform="rotate(3.25191 173.375 171.819)" fill="#DD2F41"/>
<rect x="173.375" y="171.819" width="60" height="7.98222" transform="rotate(3.25191 173.375 171.819)" fill="url(#paint2_linear)"/>
<path d="M235.357 78.9345L267.511 84.2803L266.592 107.911L232.183 101.483L244.846 93.364L235.357 78.9345Z" fill="#C4C4C4"/>
<path d="M235.357 78.9345L267.511 84.2803L266.592 107.911L232.183 101.483L244.846 93.364L235.357 78.9345Z" fill="url(#paint3_linear)"/>
<rect x="264.489" y="166.381" width="5" height="82.2255" transform="rotate(-174.951 264.489 166.381)" fill="#C4C4C4"/>
<rect x="264.489" y="166.381" width="5" height="82.2255" transform="rotate(-174.951 264.489 166.381)" fill="url(#paint4_linear)"/>
<circle cx="262.043" cy="165.662" r="4.5" transform="rotate(-99.9511 262.043 165.662)" fill="#FFC152"/>
<circle cx="262.043" cy="165.662" r="4.5" transform="rotate(-99.9511 262.043 165.662)" fill="url(#paint5_linear)"/>
</g>
<defs>
<linearGradient id="paint0_linear" x1="236.575" y1="197.338" x2="239.27" y2="292.3" gradientUnits="userSpaceOnUse">
<stop stop-color="#C82132"/>
<stop offset="1" stop-color="#DD2F41"/>
</linearGradient>
<linearGradient id="paint1_linear" x1="327.684" y1="150.041" x2="253.309" y2="213.105" gradientUnits="userSpaceOnUse">
<stop stop-color="#F65D6D"/>
<stop offset="1" stop-color="#DC2D3F"/>
</linearGradient>
<linearGradient id="paint2_linear" x1="191.992" y1="179.957" x2="227.548" y2="179.94" gradientUnits="userSpaceOnUse">
<stop stop-color="#DD2F41"/>
<stop offset="1" stop-color="#C82132"/>
</linearGradient>
<linearGradient id="paint3_linear" x1="265.263" y1="96.0886" x2="246.235" y2="89.8899" gradientUnits="userSpaceOnUse">
<stop stop-color="#FFC356"/>
<stop offset="1" stop-color="#FFD58A"/>
</linearGradient>
<linearGradient id="paint4_linear" x1="266.989" y1="166.381" x2="266.989" y2="248.606" gradientUnits="userSpaceOnUse">
<stop stop-color="#FFC152"/>
<stop offset="1" stop-color="#FFD58B"/>
</linearGradient>
<linearGradient id="paint5_linear" x1="262.043" y1="161.162" x2="262.043" y2="170.162" gradientUnits="userSpaceOnUse">
<stop stop-color="#FFC152"/>
<stop offset="1" stop-color="#FFD58B"/>
</linearGradient>
</defs>
</svg>
