<svg width="48" height="48" viewBox="0 0 48 48" fill="none" xmlns="http://www.w3.org/2000/svg">
<mask id="mask0" mask-type="alpha" maskUnits="userSpaceOnUse" x="0" y="0" width="48" height="48">
<path d="M48 24C48 37.2548 37.2548 48 24 48C10.7452 48 0 37.2548 0 24C0 10.7452 10.7452 0 24 0C37.2548 0 48 10.7452 48 24Z" fill="#E8EFFF"/>
</mask>
<g mask="url(#mask0)">
<path d="M48 24C48 37.2548 37.2548 48 24 48C10.7452 48 0 37.2548 0 24C0 10.7452 10.7452 0 24 0C37.2548 0 48 10.7452 48 24Z" fill="#E8EFFF"/>
<rect y="16" width="10.4167" height="8.68056" rx="1" fill="#6F89FF"/>
<rect x="14" y="16.1111" width="10.4167" height="8.68056" rx="1" fill="#A7B7FF"/>
<rect y="28.1111" width="10.4167" height="8.68056" rx="1" fill="#A7B7FF"/>
<rect x="14" y="28.2222" width="10.4167" height="8.68056" rx="1" fill="#6F89FF"/>
<rect y="40.1111" width="10.4167" height="8.68056" rx="1" fill="#6F89FF"/>
<rect x="14" y="40.2222" width="10.4167" height="8.68056" rx="1" fill="#A7B7FF"/>
<rect x="-1.9" y="17.2111" width="10.2167" height="8.48056" rx="0.9" stroke="white" stroke-width="0.2"/>
<rect x="-1.9" y="29.2111" width="10.2167" height="8.48056" rx="0.9" stroke="white" stroke-width="0.2"/>
<rect x="12.1" y="17.2111" width="10.2167" height="8.48056" rx="0.9" stroke="white" stroke-width="0.2"/>
<rect x="12.1" y="29.2111" width="10.2167" height="8.48056" rx="0.9" stroke="white" stroke-width="0.2"/>
<rect x="12.1" y="41.2111" width="10.2167" height="8.48056" rx="0.9" stroke="white" stroke-width="0.2"/>
<rect x="15" y="16" width="20.9677" height="23.3871" rx="4" fill="#B7C8EC"/>
<rect x="12" y="14" width="20.9677" height="23.3871" rx="4" fill="#506FFF"/>
<rect x="15.2258" y="17.2258" width="14.5161" height="9.67742" rx="3" fill="#6F89FF"/>
<path d="M24.0032 21.5449C24.4032 21.7758 24.4032 22.3532 24.0032 22.5841L22.1742 23.6401C21.7742 23.871 21.2742 23.5824 21.2742 23.1205L21.2742 21.0085C21.2742 20.5466 21.7742 20.2579 22.1742 20.4889L24.0032 21.5449Z" fill="white"/>
<rect x="15.2258" y="30.129" width="14.5161" height="0.806452" rx="0.403226" fill="#A7B7FF"/>
<circle cx="26.9194" cy="30.5322" r="1.20968" fill="white"/>
<circle cx="35" cy="12" r="9" fill="#48C5A1"/>
<path d="M32.6584 11.1409C32.4601 10.7772 32.0045 10.6432 31.6409 10.8416C31.2772 11.0399 31.1432 11.4955 31.3416 11.8591L32.6584 11.1409ZM33.5 14L32.9 14.45C33.0305 14.6239 33.23 14.7327 33.4468 14.7481C33.6637 14.7635 33.8766 14.6841 34.0303 14.5303L33.5 14ZM38.5303 10.0303C38.8232 9.73744 38.8232 9.26256 38.5303 8.96967C38.2374 8.67678 37.7626 8.67678 37.4697 8.96967L38.5303 10.0303ZM32 11.5C31.3416 11.8591 31.3416 11.8592 31.3416 11.8592C31.3416 11.8592 31.3416 11.8593 31.3417 11.8593C31.3417 11.8594 31.3418 11.8595 31.3418 11.8596C31.342 11.8599 31.3422 11.8603 31.3425 11.8608C31.343 11.8618 31.3438 11.8632 31.3448 11.865C31.3468 11.8687 31.3498 11.8741 31.3536 11.8811C31.3613 11.8952 31.3725 11.9156 31.387 11.9418C31.4158 11.9942 31.4574 12.0695 31.5089 12.1619C31.6117 12.3465 31.7542 12.5999 31.9129 12.8748C32.2216 13.4099 32.6184 14.0745 32.9 14.45L34.1 13.55C33.8816 13.2588 33.5284 12.6735 33.2121 12.1252C33.0583 11.8585 32.9195 11.6119 32.8192 11.4318C32.7691 11.3419 32.7287 11.2688 32.7009 11.2183C32.687 11.1931 32.6763 11.1735 32.6691 11.1604C32.6655 11.1538 32.6628 11.1488 32.661 11.1455C32.6601 11.1439 32.6594 11.1427 32.659 11.1419C32.6588 11.1415 32.6586 11.1412 32.6585 11.141C32.6585 11.141 32.6584 11.1409 32.6584 11.1409C32.6584 11.1409 32.6584 11.1409 32.6584 11.1408C32.6584 11.1408 32.6584 11.1409 32 11.5ZM34.0303 14.5303L38.5303 10.0303L37.4697 8.96967L32.9697 13.4697L34.0303 14.5303Z" fill="white"/>
<circle cx="34" cy="10" r="8.85" stroke="white" stroke-width="0.3"/>
</g>
</svg>
