<svg width="28" height="28" viewBox="0 0 28 28" fill="none" xmlns="http://www.w3.org/2000/svg">
<path fill-rule="evenodd" clip-rule="evenodd" d="M2.1875 16.625C2.1875 21.6991 6.30088 25.8125 11.375 25.8125H16.625C21.6991 25.8125 25.8125 21.6991 25.8125 16.625V11.375C25.8125 6.30088 21.6991 2.1875 16.625 2.1875H11.375C6.30088 2.1875 2.1875 6.30088 2.1875 11.375V16.625ZM11.375 0C5.09276 0 0 5.09276 0 11.375V16.625C0 22.9072 5.09276 28 11.375 28H16.625C22.9072 28 28 22.9072 28 16.625V11.375C28 5.09276 22.9072 0 16.625 0H11.375Z" fill="#999AA4"/>
<path fill-rule="evenodd" clip-rule="evenodd" d="M10.5 10.9375C11.2249 10.9375 11.8125 10.3499 11.8125 9.625C11.8125 8.90013 11.2249 8.3125 10.5 8.3125C9.77513 8.3125 9.1875 8.90013 9.1875 9.625C9.1875 10.3499 9.77513 10.9375 10.5 10.9375ZM10.5 13.125C12.433 13.125 14 11.558 14 9.625C14 7.692 12.433 6.125 10.5 6.125C8.567 6.125 7 7.692 7 9.625C7 11.558 8.567 13.125 10.5 13.125Z" fill="#999AA4"/>
<path fill-rule="evenodd" clip-rule="evenodd" d="M24.1111 13.4602C23.0117 13.6434 22.0739 14.1674 21.562 15.3193C20.5515 17.5929 18.8533 18.9286 16.7494 19.3889C14.7069 19.8356 12.394 19.4356 10.0938 18.5156C8.90248 18.039 7.65861 18.4685 6.40218 19.553C5.15749 20.6274 4.14352 22.1587 3.60329 23.2392L1.64673 22.2609C2.27316 21.008 3.4467 19.2144 4.97284 17.8971C6.48724 16.5899 8.59754 15.561 10.9062 16.4845C12.981 17.3144 14.8244 17.5707 16.2819 17.2519C17.6779 16.9465 18.8235 16.0948 19.563 14.4309C20.4511 12.4327 22.1383 11.5713 23.7514 11.3025C25.3254 11.0401 26.9094 11.317 27.9084 11.65L27.2166 13.7252C26.4656 13.4749 25.2496 13.2704 24.1111 13.4602Z" fill="#999AA4"/>
</svg>
