<svg width="48" height="48" viewBox="0 0 48 48" fill="none" xmlns="http://www.w3.org/2000/svg">
<mask id="mask0_3818_3217" style="mask-type:alpha" maskUnits="userSpaceOnUse" x="0" y="0" width="48" height="48">
<path d="M48 24C48 37.2548 37.2548 48 24 48C10.7452 48 0 37.2548 0 24C0 10.7452 10.7452 0 24 0C37.2548 0 48 10.7452 48 24Z" fill="#E8EFFF"/>
</mask>
<g mask="url(#mask0_3818_3217)">
<path d="M48 24C48 37.2548 37.2548 48 24 48C10.7452 48 0 37.2548 0 24C0 10.7452 10.7452 0 24 0C37.2548 0 48 10.7452 48 24Z" fill="#E8EFFF"/>
<circle cx="1" cy="19" r="1" fill="#C6D4F2"/>
<circle cx="1" cy="14" r="1" fill="#F65D6D"/>
<circle cx="1" cy="9" r="1" fill="#C6D4F2"/>
<circle cx="1" cy="24" r="1" fill="#C6D4F2"/>
<circle cx="5" cy="19" r="1" fill="#48C5A1"/>
<circle cx="5" cy="14" r="1" fill="#C6D4F2"/>
<circle cx="5" cy="9" r="1" fill="#C6D4F2"/>
<circle cx="5" cy="24" r="1" fill="#C6D4F2"/>
<circle cx="9" cy="19" r="1" fill="#C6D4F2"/>
<circle cx="9" cy="14" r="1" fill="#C6D4F2"/>
<circle cx="9" cy="9" r="1" fill="#C6D4F2"/>
<circle cx="9" cy="24" r="1" fill="#C6D4F2"/>
<circle cx="13" cy="19" r="1" fill="#C6D4F2"/>
<circle cx="13" cy="14" r="1" fill="#C6D4F2"/>
<circle cx="13" cy="9" r="1" fill="#F4A42B"/>
<circle cx="13" cy="24" r="1" fill="#F65D6D"/>
<rect x="9.29596" y="24.9422" width="24.1291" height="41" rx="2" transform="rotate(-12.5635 9.29596 24.9422)" fill="#B7C8EC"/>
<rect x="4" y="14.8016" width="24.1291" height="41" rx="2" transform="rotate(-12.0501 4 14.8016)" fill="#506FFF"/>
<rect x="6.75107" y="16.9" width="19.6528" height="31.0737" rx="2" transform="rotate(-12.0501 6.75107 16.9)" fill="#6F89FF"/>
<circle cx="35.5" cy="14.5" r="10.5" fill="#48C5A1"/>
<circle cx="33.5" cy="15.5" r="10.35" stroke="white" stroke-width="0.3"/>
<circle cx="19.5" cy="27.5" r="7.5" fill="#F4A42B"/>
<path d="M21 28.5L18.5 29C19 30.5 19.5 31.5 20.5 31C21.5 30.5 21 29.5 21 28.5Z" fill="white"/>
<path d="M14.5528 26.2764C14.4293 26.5234 14.5294 26.8237 14.7764 26.9472C15.0234 27.0707 15.3237 26.9706 15.4472 26.7236L14.5528 26.2764ZM17.1464 26.3535C17.3417 26.5488 17.6583 26.5488 17.8536 26.3535C18.0488 26.1583 18.0488 25.8417 17.8536 25.6464L17.1464 26.3535ZM20.5097 25.4019C20.4556 25.6727 20.6312 25.9361 20.9019 25.9903C21.1727 26.0444 21.4361 25.8688 21.4903 25.598L20.5097 25.4019ZM23.1464 25.3535C23.3417 25.5488 23.6583 25.5488 23.8536 25.3535C24.0488 25.1583 24.0488 24.8417 23.8536 24.6464L23.1464 25.3535ZM18.5 29L18.4019 28.5097C18.2613 28.5378 18.1395 28.625 18.0675 28.749C17.9956 28.8731 17.9803 29.0221 18.0257 29.1581L18.5 29ZM21 28.5H21.5C21.5 28.3502 21.4328 28.2083 21.317 28.1133C21.2012 28.0184 21.0488 27.9803 20.9019 28.0097L21 28.5ZM15.4472 26.7236C15.5866 26.4447 15.8418 26.1335 16.1273 26.0073C16.2569 25.9499 16.3901 25.931 16.5369 25.9651C16.6887 26.0004 16.8947 26.1018 17.1464 26.3535L17.8536 25.6464C17.5053 25.2982 17.1405 25.0787 16.7631 24.9911C16.3808 24.9023 16.0264 24.9584 15.7227 25.0927C15.1415 25.3498 14.7467 25.8886 14.5528 26.2764L15.4472 26.7236ZM21.4903 25.598C21.5304 25.3977 21.7422 25.1446 22.0831 25.0408C22.3907 24.9472 22.7808 24.9879 23.1464 25.3535L23.8536 24.6464C23.2192 24.0121 22.4426 23.8861 21.7919 24.0842C21.1745 24.2721 20.6363 24.7689 20.5097 25.4019L21.4903 25.598ZM18.5981 29.4903L21.0981 28.9903L20.9019 28.0097L18.4019 28.5097L18.5981 29.4903ZM20.5 28.5C20.5 28.7868 20.5358 29.0673 20.5666 29.3062C20.5991 29.558 20.625 29.7576 20.625 29.9375C20.625 30.1124 20.5993 30.2262 20.5567 30.3078C20.5185 30.3809 20.4466 30.4677 20.2764 30.5528L20.7236 31.4472C21.0534 31.2823 21.294 31.0566 21.4433 30.7703C21.5882 30.4926 21.625 30.2001 21.625 29.9375C21.625 29.6799 21.5884 29.4107 21.5584 29.1782C21.5267 28.9327 21.5 28.7132 21.5 28.5H20.5ZM20.2764 30.5528C20.1022 30.6399 20.005 30.6357 19.9526 30.6232C19.8951 30.6094 19.8095 30.5653 19.6966 30.4299C19.4532 30.1378 19.2277 29.6021 18.9743 28.8419L18.0257 29.1581C18.2723 29.8979 18.5468 30.6122 18.9284 31.0701C19.128 31.3097 19.3861 31.5156 19.7193 31.5956C20.0575 31.6768 20.3978 31.6101 20.7236 31.4472L20.2764 30.5528Z" fill="white"/>
<path d="M15.1983 39.8244C15.0721 39.265 15.3658 38.7223 15.8542 38.6121L27.3507 36.0191C27.8391 35.9089 28.3373 36.2731 28.4635 36.8324V36.8324C28.5896 37.3917 28.2959 37.9345 27.8075 38.0446L16.3111 40.6377C15.8226 40.7478 15.3244 40.3837 15.1983 39.8244V39.8244Z" fill="#A7B7FF"/>
<path d="M18.2607 42.7685C18.1481 42.2693 18.3225 41.8046 18.6502 41.7307L26.3636 39.991C26.6913 39.917 27.0482 40.2618 27.1608 40.761V40.761C27.2734 41.2603 27.0991 41.7249 26.7714 41.7988L19.058 43.5386C18.7303 43.6125 18.3733 43.2677 18.2607 42.7685V42.7685Z" fill="#A7B7FF"/>
<circle cx="24.5" cy="49.5" r="2.5" fill="#A7B7FF"/>
<path d="M31 14L34.1579 17L41 11" stroke="white" stroke-width="2" stroke-linecap="round" stroke-linejoin="round"/>
<circle cx="16.5" cy="15.5" r="2.5" fill="#506FFF"/>
<circle cx="16.5" cy="15.5" r="1.5" fill="#A7B7FF"/>
</g>
</svg>
