<svg width="28" height="28" viewBox="0 0 28 28" fill="none" xmlns="http://www.w3.org/2000/svg">
<path fill-rule="evenodd" clip-rule="evenodd" d="M2.1875 16.625C2.1875 21.6991 6.30088 25.8125 11.375 25.8125H16.625C21.6991 25.8125 25.8125 21.6991 25.8125 16.625V11.375C25.8125 6.30088 21.6991 2.1875 16.625 2.1875H11.375C6.30088 2.1875 2.1875 6.30088 2.1875 11.375V16.625ZM11.375 0C5.09276 0 0 5.09276 0 11.375V16.625C0 22.9072 5.09276 28 11.375 28H16.625C22.9072 28 28 22.9072 28 16.625V11.375C28 5.09276 22.9072 0 16.625 0H11.375Z" fill="#999AA4"/>
<path fill-rule="evenodd" clip-rule="evenodd" d="M10.2392 10.2392C10.6664 9.81205 11.3589 9.81205 11.786 10.2392L14.1502 12.6034L16.5144 10.2392C16.9415 9.81205 17.6341 9.81205 18.0612 10.2392C18.4883 10.6663 18.4883 11.3589 18.0612 11.786L15.697 14.1502L18.0612 16.5144C18.4883 16.9415 18.4883 17.634 18.0612 18.0612C17.6341 18.4883 16.9415 18.4883 16.5144 18.0612L14.1502 15.697L11.786 18.0612C11.3589 18.4883 10.6664 18.4883 10.2392 18.0612C9.8121 17.634 9.8121 16.9415 10.2392 16.5144L12.6034 14.1502L10.2392 11.786C9.8121 11.3589 9.8121 10.6663 10.2392 10.2392Z" fill="#999AA4"/>
</svg>
