<svg width="28" height="28" viewBox="0 0 28 28" fill="none" xmlns="http://www.w3.org/2000/svg">
<path fill-rule="evenodd" clip-rule="evenodd" d="M2.1875 16.625C2.1875 21.6991 6.30088 25.8125 11.375 25.8125H16.625C21.6991 25.8125 25.8125 21.6991 25.8125 16.625V11.375C25.8125 6.30088 21.6991 2.1875 16.625 2.1875H11.375C6.30088 2.1875 2.1875 6.30088 2.1875 11.375V16.625ZM11.375 0C5.09276 0 0 5.09276 0 11.375V16.625C0 22.9072 5.09276 28 11.375 28H16.625C22.9072 28 28 22.9072 28 16.625V11.375C28 5.09276 22.9072 0 16.625 0H11.375Z" fill="#999AA4"/>
<path fill-rule="evenodd" clip-rule="evenodd" d="M21.7734 9.7266C22.2005 10.1537 22.2005 10.8463 21.7734 11.2734L15.3567 17.6901C14.9296 18.1172 14.2371 18.1172 13.8099 17.6901L11.0833 14.9635L7.7734 18.2734C7.34626 18.7005 6.65374 18.7005 6.2266 18.2734C5.79947 17.8463 5.79947 17.1537 6.2266 16.7266L10.3099 12.6433C10.7371 12.2161 11.4296 12.2161 11.8567 12.6433L14.5833 15.3699L20.2266 9.7266C20.6537 9.29947 21.3463 9.29947 21.7734 9.7266Z" fill="#999AA4"/>
<path fill-rule="evenodd" clip-rule="evenodd" d="M17.2812 10.5C17.2812 9.89594 17.7709 9.40625 18.375 9.40625H21C21.6041 9.40625 22.0938 9.89594 22.0938 10.5V13.125C22.0938 13.7291 21.6041 14.2188 21 14.2188C20.3959 14.2188 19.9062 13.7291 19.9062 13.125V11.5938H18.375C17.7709 11.5938 17.2812 11.1041 17.2812 10.5Z" fill="#999AA4"/>
</svg>
