<svg width="29" height="28" viewBox="0 0 29 28" fill="none" xmlns="http://www.w3.org/2000/svg">
<path fill-rule="evenodd" clip-rule="evenodd" d="M2.4375 16.625C2.4375 21.6991 6.55088 25.8125 11.625 25.8125H16.875C21.9491 25.8125 26.0625 21.6991 26.0625 16.625V11.375C26.0625 6.30088 21.9491 2.1875 16.875 2.1875H11.625C6.55088 2.1875 2.4375 6.30088 2.4375 11.375V16.625ZM11.625 0C5.34276 0 0.25 5.09276 0.25 11.375V16.625C0.25 22.9072 5.34276 28 11.625 28H16.875C23.1572 28 28.25 22.9072 28.25 16.625V11.375C28.25 5.09276 23.1572 0 16.875 0H11.625Z" fill="#999AA4"/>
<circle cx="14.25" cy="14" r="3" fill="#999AA4"/>
<path fill-rule="evenodd" clip-rule="evenodd" d="M19.5913 11.264C20.0124 12.0844 20.25 13.0144 20.25 14C20.25 17.3137 17.5637 20 14.25 20C10.9363 20 8.25 17.3137 8.25 14C8.25 10.6863 10.9363 8 14.25 8C15.1171 8 15.9412 8.18392 16.6855 8.51489L18.1036 6.98763C16.9606 6.35814 15.6471 6 14.25 6C9.83172 6 6.25 9.58172 6.25 14C6.25 18.4183 9.83172 22 14.25 22C18.6683 22 22.25 18.4183 22.25 14C22.25 12.4298 21.7976 10.9653 21.0161 9.72958L19.5913 11.264Z" fill="#999AA4"/>
<path d="M20.75 7L15.25 13" stroke="#999AA4" stroke-width="2" stroke-linecap="round"/>
<path d="M20.75 5.93333V3.8737C20.75 3.71396 20.572 3.61869 20.4391 3.70729L19.3391 4.44063C19.2834 4.47772 19.25 4.54017 19.25 4.60704V7.4C19.25 7.5922 19.4947 7.67376 19.61 7.52L20.71 6.05333C20.736 6.01871 20.75 5.97661 20.75 5.93333Z" fill="#999AA4"/>
<path d="M21.8244 6.99999L23.3932 6.99999C23.5426 6.99999 23.6392 7.1579 23.5713 7.29098L22.9484 8.51008C22.918 8.56963 22.8599 8.61003 22.7934 8.61775L20.0692 8.93433C19.8735 8.95707 19.7663 8.71305 19.9154 8.5843L21.6937 7.04862C21.73 7.01725 21.7764 6.99999 21.8244 6.99999Z" fill="#999AA4"/>
</svg>
