<svg width="48" height="48" viewBox="0 0 48 48" fill="none" xmlns="http://www.w3.org/2000/svg">
<mask id="mask0" mask-type="alpha" maskUnits="userSpaceOnUse" x="0" y="0" width="48" height="48">
<path d="M48 24C48 37.2548 37.2548 48 24 48C10.7452 48 0 37.2548 0 24C0 10.7452 10.7452 0 24 0C37.2548 0 48 10.7452 48 24Z" fill="#E8EFFF"/>
</mask>
<g mask="url(#mask0)">
<path d="M48 24C48 37.2548 37.2548 48 24 48C10.7452 48 0 37.2548 0 24C0 10.7452 10.7452 0 24 0C37.2548 0 48 10.7452 48 24Z" fill="#E8EFFF"/>
<rect x="5" y="25" width="28" height="41" rx="5" fill="#B7C8EC"/>
<rect x="-3" y="9" width="31" height="46" rx="4" fill="#506FFF"/>
<path fill-rule="evenodd" clip-rule="evenodd" d="M28 17.3324V35.6676C23.9662 34.5702 21 30.8815 21 26.5C21 22.1185 23.9662 18.4298 28 17.3324Z" fill="#3146CC"/>
<path d="M-3 13C-3 10.7909 -1.20914 9 1 9H24C26.2091 9 28 10.7909 28 13V19H-3V13Z" fill="#6A84FF"/>
<circle cx="11.7361" cy="14.2083" r="1.73611" fill="white"/>
<circle cx="16.9445" cy="14.2083" r="1.73611" fill="white"/>
<circle cx="22.1528" cy="14.2083" r="1.73611" fill="white"/>
<rect x="2" y="22" width="19" height="12" rx="1" fill="#6F89FF"/>
<rect x="6" y="37" width="15" height="1.73611" rx="0.868056" fill="white"/>
<rect x="11" y="40.4722" width="10" height="1.73611" rx="0.868056" fill="#A7B7FF"/>
<path d="M43 22.5C43 27.7467 38.7467 32 33.5 32C28.2533 32 24 27.7467 24 22.5C24 17.2533 28.2533 13 33.5 13C38.7467 13 43 17.2533 43 22.5Z" fill="#F65D6D"/>
<path fill-rule="evenodd" clip-rule="evenodd" d="M33 34.7348C38.3764 34.7348 42.7348 30.3764 42.7348 25C42.7348 19.6236 38.3764 15.2652 33 15.2652C27.6236 15.2652 23.2652 19.6236 23.2652 25C23.2652 30.3764 27.6236 34.7348 33 34.7348ZM33 35C38.5228 35 43 30.5228 43 25C43 19.4772 38.5228 15 33 15C27.4772 15 23 19.4772 23 25C23 30.5228 27.4772 35 33 35Z" fill="white"/>
<path fill-rule="evenodd" clip-rule="evenodd" d="M30.2563 19.2563C30.598 18.9146 31.152 18.9146 31.4937 19.2563L33.5 21.2626L35.5063 19.2563C35.848 18.9146 36.402 18.9146 36.7437 19.2563C37.0854 19.598 37.0854 20.152 36.7437 20.4937L34.7374 22.5L36.7437 24.5063C37.0854 24.848 37.0854 25.402 36.7437 25.7437C36.402 26.0854 35.848 26.0854 35.5063 25.7437L33.5 23.7374L31.4937 25.7437C31.152 26.0854 30.598 26.0854 30.2563 25.7437C29.9146 25.402 29.9146 24.848 30.2563 24.5063L32.2626 22.5L30.2563 20.4937C29.9146 20.152 29.9146 19.598 30.2563 19.2563Z" fill="white"/>
</g>
</svg>
