<svg width="24" height="24" viewBox="0 0 24 24" fill="none" xmlns="http://www.w3.org/2000/svg">
<path d="M24 12C24 18.6274 18.6274 24 12 24C5.37258 24 0 18.6274 0 12C0 5.37258 5.37258 0 12 0C18.6274 0 24 5.37258 24 12Z" fill="#F65D6D"/>
<path fill-rule="evenodd" clip-rule="evenodd" d="M7.9027 7.90267C8.33434 7.47104 9.03415 7.47104 9.46578 7.90267L12 10.4369L14.5343 7.90267C14.9659 7.47104 15.6657 7.47104 16.0974 7.90267C16.529 8.33431 16.529 9.03412 16.0974 9.46575L13.5631 12L16.0974 14.5343C16.529 14.9659 16.529 15.6657 16.0974 16.0973C15.6657 16.529 14.9659 16.529 14.5343 16.0973L12 13.5631L9.46578 16.0973C9.03415 16.529 8.33434 16.529 7.9027 16.0973C7.47107 15.6657 7.47107 14.9659 7.9027 14.5343L10.437 12L7.9027 9.46575C7.47107 9.03412 7.47107 8.33431 7.9027 7.90267Z" fill="white"/>
</svg>
