<svg width="28" height="28" viewBox="0 0 28 28" fill="none" xmlns="http://www.w3.org/2000/svg">
<circle cx="14" cy="14" r="14" fill="#2447F9"/>
<path d="M13.0489 4.92705C13.3483 4.00574 14.6517 4.00574 14.9511 4.92705L16.4697 9.60081C16.6035 10.0128 16.9875 10.2918 17.4207 10.2918H22.335C23.3037 10.2918 23.7065 11.5314 22.9228 12.1008L18.947 14.9894C18.5966 15.244 18.4499 15.6954 18.5838 16.1074L20.1024 20.7812C20.4017 21.7025 19.3472 22.4686 18.5635 21.8992L14.5878 19.0106C14.2373 18.756 13.7627 18.756 13.4122 19.0106L9.43648 21.8992C8.65276 22.4686 7.59828 21.7025 7.89763 20.7812L9.41623 16.1074C9.5501 15.6954 9.40345 15.244 9.05296 14.9894L5.07722 12.1008C4.29351 11.5314 4.69628 10.2918 5.66501 10.2918H10.5793C11.0125 10.2918 11.3965 10.0128 11.5303 9.60081L13.0489 4.92705Z" fill="white"/>
</svg>
