<svg width="32" height="32" viewBox="0 0 32 32" fill="none" xmlns="http://www.w3.org/2000/svg">
<rect width="32" height="32" rx="16" fill="#DFFFF4"/>
<path d="M16.075 21C16.2917 21 16.4708 20.9292 16.6125 20.7875C16.7542 20.6458 16.825 20.4667 16.825 20.25V15.725C16.825 15.525 16.75 15.3542 16.6 15.2125C16.45 15.0708 16.275 15 16.075 15C15.8583 15 15.6792 15.0708 15.5375 15.2125C15.3958 15.3542 15.325 15.5333 15.325 15.75V20.275C15.325 20.475 15.4 20.6458 15.55 20.7875C15.7 20.9292 15.875 21 16.075 21ZM16 13.15C16.2333 13.15 16.4292 13.075 16.5875 12.925C16.7458 12.775 16.825 12.5833 16.825 12.35C16.825 12.1167 16.7458 11.9167 16.5875 11.75C16.4292 11.5833 16.2333 11.5 16 11.5C15.7667 11.5 15.5708 11.5833 15.4125 11.75C15.2542 11.9167 15.175 12.1167 15.175 12.35C15.175 12.5833 15.2542 12.775 15.4125 12.925C15.5708 13.075 15.7667 13.15 16 13.15ZM16 26C14.5833 26 13.2667 25.7458 12.05 25.2375C10.8333 24.7292 9.775 24.025 8.875 23.125C7.975 22.225 7.27083 21.1667 6.7625 19.95C6.25417 18.7333 6 17.4167 6 16C6 14.6 6.25417 13.2917 6.7625 12.075C7.27083 10.8583 7.975 9.8 8.875 8.9C9.775 8 10.8333 7.29167 12.05 6.775C13.2667 6.25833 14.5833 6 16 6C17.4 6 18.7083 6.25833 19.925 6.775C21.1417 7.29167 22.2 8 23.1 8.9C24 9.8 24.7083 10.8583 25.225 12.075C25.7417 13.2917 26 14.6 26 16C26 17.4167 25.7417 18.7333 25.225 19.95C24.7083 21.1667 24 22.225 23.1 23.125C22.2 24.025 21.1417 24.7292 19.925 25.2375C18.7083 25.7458 17.4 26 16 26ZM16 24.5C18.3333 24.5 20.3333 23.6667 22 22C23.6667 20.3333 24.5 18.3333 24.5 16C24.5 13.6667 23.6667 11.6667 22 10C20.3333 8.33333 18.3333 7.5 16 7.5C13.6667 7.5 11.6667 8.33333 10 10C8.33333 11.6667 7.5 13.6667 7.5 16C7.5 18.3333 8.33333 20.3333 10 22C11.6667 23.6667 13.6667 24.5 16 24.5Z" fill="#22C58B"/>
</svg>
