<svg width="28" height="28" viewBox="0 0 28 28" fill="none" xmlns="http://www.w3.org/2000/svg">
<path fill-rule="evenodd" clip-rule="evenodd" d="M2.1875 16.625C2.1875 21.6991 6.30088 25.8125 11.375 25.8125H16.625C21.6991 25.8125 25.8125 21.6991 25.8125 16.625V11.375C25.8125 6.30088 21.6991 2.1875 16.625 2.1875H11.375C6.30088 2.1875 2.1875 6.30088 2.1875 11.375V16.625ZM11.375 0C5.09276 0 0 5.09276 0 11.375V16.625C0 22.9072 5.09276 28 11.375 28H16.625C22.9072 28 28 22.9072 28 16.625V11.375C28 5.09276 22.9072 0 16.625 0H11.375Z" fill="#999AA4"/>
<path d="M13.125 16.0294C13.125 16.6435 12.9868 17.1953 12.7104 17.6847C12.438 18.1741 12.0374 18.5574 11.5087 18.8344C10.9799 19.1115 10.353 19.25 9.628 19.25C8.75876 19.25 8.04174 19.0607 7.47693 18.6821C7.07636 18.4096 6.74989 18.0472 6.49753 17.5947C6.24918 17.1375 6.125 16.6943 6.125 16.2648C6.125 16.0155 6.19911 15.8031 6.34732 15.6276C6.49954 15.4476 6.69181 15.3575 6.92414 15.3575C7.11241 15.3575 7.27064 15.4268 7.39882 15.5653C7.53101 15.7038 7.64317 15.9093 7.7353 16.1817C7.84746 16.5049 7.96763 16.7751 8.09582 16.9921C8.228 17.2091 8.41227 17.3892 8.64861 17.5323C8.88494 17.6708 9.19539 17.7401 9.57994 17.7401C10.1087 17.7401 10.5373 17.5993 10.8658 17.3176C11.1982 17.0313 11.3645 16.6758 11.3645 16.251C11.3645 15.9139 11.2744 15.6415 11.0941 15.4337C10.9178 15.2213 10.6875 15.0597 10.4031 14.9489C10.1227 14.8381 9.74617 14.7203 9.2735 14.5956C8.64059 14.4248 8.10984 14.2263 7.68122 14C7.25662 13.7691 6.91813 13.4575 6.66577 13.065C6.41742 12.6679 6.29324 12.1761 6.29324 11.5897C6.29324 11.031 6.42543 10.5346 6.68981 10.1006C6.95418 9.66656 7.33673 9.3341 7.83745 9.10323C8.33816 8.86774 8.927 8.75 9.60397 8.75C10.1447 8.75 10.6114 8.8285 11.004 8.98549C11.4005 9.13786 11.729 9.34334 11.9894 9.60191C12.2497 9.85587 12.44 10.1237 12.5602 10.4053C12.6804 10.687 12.7405 10.9617 12.7405 11.2296C12.7405 11.4743 12.6643 11.6959 12.5121 11.8945C12.3639 12.0884 12.1776 12.1854 11.9533 12.1854C11.749 12.1854 11.5928 12.1276 11.4847 12.0122C11.3805 11.8922 11.2663 11.6982 11.1422 11.4304C10.9819 11.0472 10.7897 10.7493 10.5653 10.5369C10.341 10.3199 9.98051 10.2114 9.4838 10.2114C9.02314 10.2114 8.65061 10.3292 8.3662 10.5646C8.0858 10.7955 7.9456 11.0749 7.9456 11.4027C7.9456 11.6059 7.99367 11.7813 8.08981 11.9291C8.18594 12.0768 8.31813 12.2038 8.48637 12.31C8.65461 12.4162 8.82486 12.4993 8.9971 12.5594C9.16935 12.6194 9.45376 12.7071 9.85032 12.8226C10.347 12.9565 10.7957 13.1042 11.1962 13.2658C11.6008 13.4274 11.9433 13.6237 12.2237 13.8546C12.5081 14.0854 12.7284 14.3786 12.8847 14.7342C13.0449 15.0851 13.125 15.5168 13.125 16.0294Z" fill="#999AA4"/>
<path fill-rule="evenodd" clip-rule="evenodd" d="M9.625 6.125C10.1082 6.125 10.5 6.51675 10.5 7L10.5 20.125C10.5 20.6082 10.1082 21 9.625 21C9.14175 21 8.75 20.6082 8.75 20.125L8.75 7C8.75 6.51675 9.14175 6.125 9.625 6.125Z" fill="#999AA4"/>
<path fill-rule="evenodd" clip-rule="evenodd" d="M14.6562 9.625C14.6562 9.02094 15.1459 8.53125 15.75 8.53125H20.125C20.7291 8.53125 21.2188 9.02094 21.2188 9.625C21.2188 10.2291 20.7291 10.7188 20.125 10.7188H15.75C15.1459 10.7188 14.6562 10.2291 14.6562 9.625Z" fill="#999AA4"/>
<path fill-rule="evenodd" clip-rule="evenodd" d="M14.6562 14C14.6562 13.3959 15.1459 12.9062 15.75 12.9062H20.125C20.7291 12.9062 21.2188 13.3959 21.2188 14C21.2188 14.6041 20.7291 15.0938 20.125 15.0938H15.75C15.1459 15.0938 14.6562 14.6041 14.6562 14Z" fill="#999AA4"/>
<path fill-rule="evenodd" clip-rule="evenodd" d="M14.6562 18.375C14.6562 17.7709 15.1459 17.2812 15.75 17.2812H20.125C20.7291 17.2812 21.2188 17.7709 21.2188 18.375C21.2188 18.9791 20.7291 19.4688 20.125 19.4688H15.75C15.1459 19.4688 14.6562 18.9791 14.6562 18.375Z" fill="#999AA4"/>
</svg>
