<svg width="48" height="48" viewBox="0 0 48 48" fill="none" xmlns="http://www.w3.org/2000/svg">
<mask id="mask0_844_610" style="mask-type:alpha" maskUnits="userSpaceOnUse" x="0" y="0" width="48" height="48">
<path d="M48 24C48 37.2548 37.2548 48 24 48C10.7452 48 0 37.2548 0 24C0 10.7452 10.7452 0 24 0C37.2548 0 48 10.7452 48 24Z" fill="#E8EFFF"/>
</mask>
<g mask="url(#mask0_844_610)">
<path d="M48 24C48 37.2548 37.2548 48 24 48C10.7452 48 0 37.2548 0 24C0 10.7452 10.7452 0 24 0C37.2548 0 48 10.7452 48 24Z" fill="#E8EFFF"/>
<rect y="11" width="31" height="42" rx="4" fill="#506FFF"/>
<path fill-rule="evenodd" clip-rule="evenodd" d="M4 11C1.79086 11 0 12.7909 0 15V16H31V15C31 12.7909 29.2091 11 27 11H4Z" fill="#6A84FF"/>
<rect x="5" y="23" width="19" height="12" rx="1" fill="#6F89FF"/>
<rect x="7.1" y="20.1" width="18.8" height="12.8" rx="0.9" stroke="white" stroke-width="0.2"/>
<circle cx="31" cy="15" r="10" fill="#48C5A1"/>
<rect x="11" y="38" width="15" height="1.73611" rx="0.868056" fill="white"/>
<rect x="16" y="41.4722" width="10" height="1.73611" rx="0.868056" fill="#A7B7FF"/>
<path fill-rule="evenodd" clip-rule="evenodd" d="M27 16.2857C27.7101 16.2857 28.2857 15.7101 28.2857 15C28.2857 14.2899 27.7101 13.7143 27 13.7143C26.2899 13.7143 25.7143 14.2899 25.7143 15C25.7143 15.7101 26.2899 16.2857 27 16.2857ZM27 18C28.6569 18 30 16.6569 30 15C30 13.3431 28.6569 12 27 12C25.3431 12 24 13.3431 24 15C24 16.6569 25.3431 18 27 18Z" fill="white"/>
<path fill-rule="evenodd" clip-rule="evenodd" d="M29 15C29 14.4477 29.4029 14 29.9 14H37.1C37.5971 14 38 14.4477 38 15C38 15.5523 37.5971 16 37.1 16H29.9C29.4029 16 29 15.5523 29 15Z" fill="white"/>
<path fill-rule="evenodd" clip-rule="evenodd" d="M35 15C35.5523 15 36 15.3358 36 15.75V17.25C36 17.6642 35.5523 18 35 18C34.4477 18 34 17.6642 34 17.25V15.75C34 15.3358 34.4477 15 35 15Z" fill="white"/>
</g>
</svg>
