<svg width="48" height="48" viewBox="0 0 48 48" fill="none" xmlns="http://www.w3.org/2000/svg">
<mask id="mask0" mask-type="alpha" maskUnits="userSpaceOnUse" x="0" y="0" width="48" height="48">
<path d="M48 24C48 37.2548 37.2548 48 24 48C10.7452 48 0 37.2548 0 24C0 10.7452 10.7452 0 24 0C37.2548 0 48 10.7452 48 24Z" fill="#E8EFFF"/>
</mask>
<g mask="url(#mask0)">
<path d="M48 24C48 37.2548 37.2548 48 24 48C10.7452 48 0 37.2548 0 24C0 10.7452 10.7452 0 24 0C37.2548 0 48 10.7452 48 24Z" fill="#E8EFFF"/>
<circle cx="17" cy="16" r="7" fill="#B7C8EC"/>
<circle cx="17" cy="46" r="20" fill="#B7C8EC"/>
<circle cx="24" cy="16" r="7" fill="#506FFF"/>
<circle cx="24" cy="46" r="20" fill="#506FFF"/>
<circle cx="37.5" cy="31.5" r="7.5" fill="#48C5A1"/>
<path d="M38.6003 28.6154L34.0218 33.1941C33.9988 33.2172 33.9822 33.2463 33.9743 33.2777L33.4668 35.3146C33.4516 35.3759 33.4696 35.4411 33.5144 35.4858C33.5482 35.5197 33.5944 35.5384 33.6415 35.5384C33.656 35.5384 33.6708 35.5367 33.6852 35.533L35.7221 35.0255C35.7538 35.0176 35.7827 35.001 35.8057 34.978L40.3846 30.3996L38.6003 28.6154Z" fill="white"/>
<path d="M41.3107 28.1243L40.8706 27.6828C40.5764 27.3877 40.0638 27.388 39.77 27.6828L39.2309 28.2236L40.7716 29.7692L41.3107 29.2284C41.4576 29.0811 41.5386 28.8849 41.5386 28.6764C41.5386 28.4678 41.4576 28.2717 41.3107 28.1243Z" fill="white"/>
<circle cx="35.5" cy="30.5" r="7.35" stroke="white" stroke-width="0.3"/>
</g>
</svg>
