<svg width="70" height="70" viewBox="0 0 70 70" fill="none" xmlns="http://www.w3.org/2000/svg">
<mask id="mask0_2127_3591" style="mask-type:alpha" maskUnits="userSpaceOnUse" x="0" y="0" width="70" height="70">
<path d="M70 35C70 54.33 54.33 70 35 70C15.67 70 0 54.33 0 35C0 15.67 15.67 0 35 0C54.33 0 70 15.67 70 35Z" fill="#E8EFFF"/>
</mask>
<g mask="url(#mask0_2127_3591)">
<path d="M70 35C70 54.33 54.33 70 35 70C15.67 70 0 54.33 0 35C0 15.67 15.67 0 35 0C54.33 0 70 15.67 70 35Z" fill="#E8EFFF"/>
<circle cx="37.9166" cy="67.0834" r="1.45833" transform="rotate(-90 37.9166 67.0834)" fill="#C6D4F2"/>
<circle cx="30.625" cy="67.0834" r="1.45833" transform="rotate(-90 30.625 67.0834)" fill="#506FFF"/>
<circle cx="23.3333" cy="67.0834" r="1.45833" transform="rotate(-90 23.3333 67.0834)" fill="#C6D4F2"/>
<circle cx="45.2083" cy="67.0834" r="1.45833" transform="rotate(-90 45.2083 67.0834)" fill="#C6D4F2"/>
<circle cx="37.9166" cy="61.2499" r="1.45833" transform="rotate(-90 37.9166 61.2499)" fill="#C6D4F2"/>
<circle cx="30.625" cy="61.2499" r="1.45833" transform="rotate(-90 30.625 61.2499)" fill="#C6D4F2"/>
<circle cx="23.3333" cy="61.2499" r="1.45833" transform="rotate(-90 23.3333 61.2499)" fill="#C6D4F2"/>
<circle cx="45.2083" cy="61.2499" r="1.45833" transform="rotate(-90 45.2083 61.2499)" fill="#48C5A1"/>
<path d="M24.0625 11.6666C24.0625 9.65305 25.6948 8.02075 27.7083 8.02075H72.9167C74.9302 8.02075 76.5625 9.65305 76.5625 11.6666V36.4583C76.5625 38.4718 74.9302 40.1041 72.9167 40.1041H27.7083C25.6948 40.1041 24.0625 38.4718 24.0625 36.4583V11.6666Z" stroke="#94A8D4" stroke-width="4.375"/>
<path d="M11.6667 21.8751C11.6667 18.6534 14.2784 16.0417 17.5 16.0417H52.5C55.7217 16.0417 58.3334 18.6534 58.3334 21.8751V40.8334C58.3334 44.0551 55.7217 46.6667 52.5 46.6667H17.5C14.2784 46.6667 11.6667 44.0551 11.6667 40.8334V21.8751Z" fill="#506FFF"/>
<rect x="16.0417" y="52.5" width="37.9167" height="2.91667" rx="1.45833" fill="#A7B7FF"/>
<circle cx="21.875" cy="53.9584" r="2.91667" fill="#6F89FF"/>
<path d="M40.1042 30.0913C41.0764 30.6526 41.0764 32.0559 40.1042 32.6172L34.6354 35.7746C33.6632 36.3359 32.4479 35.6343 32.4479 34.5116L32.4479 28.1969C32.4479 27.0742 33.6632 26.3726 34.6354 26.9339L40.1042 30.0913Z" fill="white"/>
</g>
</svg>
