<svg width="48" height="50" viewBox="0 0 48 50" fill="none" xmlns="http://www.w3.org/2000/svg">
<mask id="mask0" mask-type="alpha" maskUnits="userSpaceOnUse" x="0" y="0" width="48" height="48">
<path d="M48 24C48 37.2548 37.2548 48 24 48C10.7452 48 0 37.2548 0 24C0 10.7452 10.7452 0 24 0C37.2548 0 48 10.7452 48 24Z" fill="#E8EFFF"/>
</mask>
<g mask="url(#mask0)">
<path d="M48 24C48 37.2548 37.2548 48 24 48C10.7452 48 0 37.2548 0 24C0 10.7452 10.7452 0 24 0C37.2548 0 48 10.7452 48 24Z" fill="#E8EFFF"/>
<rect x="31" y="22" width="11" height="32" rx="5.5" fill="#B7C8EC"/>
<circle cx="29" cy="1.02857" r="1.02857" fill="#BACAF0"/>
<circle cx="29" cy="10.6285" r="1.02857" fill="#BACAF0"/>
<circle cx="29" cy="5.82856" r="1.02857" fill="#3D58FF"/>
<circle cx="18.0286" cy="1.02857" r="1.02857" fill="#BACAF0"/>
<circle cx="18.0286" cy="10.6285" r="1.02857" fill="#ECAE00"/>
<circle cx="18.0286" cy="5.82856" r="1.02857" fill="#BACAF0"/>
<circle cx="23.5143" cy="1.02857" r="1.02857" fill="#BACAF0"/>
<circle cx="23.5143" cy="10.6285" r="1.02857" fill="#BACAF0"/>
<circle cx="23.5143" cy="5.82856" r="1.02857" fill="#BACAF0"/>
<path d="M15 19.2429L10 15V48H30C34.4183 48 38 44.4183 38 40V15L33.5 19.2429L29 15L24.5 19.2429L20 15L15 19.2429Z" fill="#506FFF"/>
<path d="M17 19.2429L12 15V48H32C36.4183 48 40 44.4183 40 40V15L35.5 19.2429L31 15L26.5 19.2429L22 15L17 19.2429Z" stroke="white" stroke-width="0.3"/>
<path d="M15.0087 32.9261C15.0039 32.4259 15.4054 32.0166 15.9056 32.0118L27.6779 31.8983C28.178 31.8935 28.5873 32.2951 28.5922 32.7952C28.597 33.2953 28.1955 33.7047 27.6953 33.7095L15.923 33.8229C15.4229 33.8277 15.0135 33.4262 15.0087 32.9261Z" fill="white"/>
<path d="M15.0087 26.9841C15.0039 26.484 15.4054 26.0746 15.9056 26.0698L22.2445 26.0087C22.7446 26.0039 23.154 26.4055 23.1588 26.9056C23.1636 27.4057 22.7621 27.8151 22.262 27.8199L15.923 27.881C15.4229 27.8858 15.0135 27.4842 15.0087 26.9841Z" fill="#A7B7FF"/>
<path d="M3 39H24.0294V41.5294C24.0294 45.103 26.9264 48 30.5 48H8.22993C5.57626 48 3.38483 45.9269 3.23763 43.2774L3 39Z" fill="#3146CC"/>
</g>
</svg>
