<svg width="150" height="150" viewBox="0 0 150 150" fill="none" xmlns="http://www.w3.org/2000/svg">
<mask id="mask0" mask-type="alpha" maskUnits="userSpaceOnUse" x="0" y="0" width="150" height="150">
<path d="M150 75C150 116.421 116.421 150 75 150C33.5786 150 0 116.421 0 75C0 33.5786 33.5786 0 75 0C116.421 0 150 33.5786 150 75Z" fill="#E8EFFF"/>
</mask>
<g mask="url(#mask0)">
<path d="M150 75C150 116.421 116.421 150 75 150C33.5786 150 0 116.421 0 75C0 33.5786 33.5786 0 75 0C116.421 0 150 33.5786 150 75Z" fill="#E8EFFF"/>
<rect x="31.25" y="81.25" width="87.5" height="128.125" rx="5" fill="#B7C8EC"/>
<circle r="3.125" transform="matrix(-1 0 0 1 150 50)" fill="#C6D4F2"/>
<circle r="3.125" transform="matrix(-1 0 0 1 150 34.375)" fill="#F65D6D"/>
<circle r="3.125" transform="matrix(-1 0 0 1 150 18.75)" fill="#C6D4F2"/>
<circle r="3.125" transform="matrix(-1 0 0 1 150 65.625)" fill="#C6D4F2"/>
<circle r="3.125" transform="matrix(-1 0 0 1 137.5 50)" fill="#48C5A1"/>
<circle r="3.125" transform="matrix(-1 0 0 1 137.5 34.375)" fill="#C6D4F2"/>
<circle r="3.125" transform="matrix(-1 0 0 1 137.5 18.75)" fill="#C6D4F2"/>
<circle r="3.125" transform="matrix(-1 0 0 1 137.5 65.625)" fill="#C6D4F2"/>
<circle r="3.125" transform="matrix(-1 0 0 1 125 50)" fill="#C6D4F2"/>
<circle r="3.125" transform="matrix(-1 0 0 1 125 34.375)" fill="#C6D4F2"/>
<circle r="3.125" transform="matrix(-1 0 0 1 125 18.75)" fill="#C6D4F2"/>
<circle r="3.125" transform="matrix(-1 0 0 1 125 65.625)" fill="#C6D4F2"/>
<circle r="3.125" transform="matrix(-1 0 0 1 112.5 50)" fill="#C6D4F2"/>
<circle r="3.125" transform="matrix(-1 0 0 1 112.5 34.375)" fill="#C6D4F2"/>
<circle r="3.125" transform="matrix(-1 0 0 1 112.5 18.75)" fill="#F4A42B"/>
<circle r="3.125" transform="matrix(-1 0 0 1 112.5 65.625)" fill="#F65D6D"/>
<rect x="-2.59863" y="25" width="96.875" height="143.75" rx="4" fill="#506FFF"/>
<rect x="6.25" y="65.2778" width="32.5521" height="27.1267" rx="1" fill="#6F89FF"/>
<rect x="50" y="65.6249" width="32.5521" height="27.1267" rx="1" fill="#A7B7FF"/>
<rect x="6.25" y="103.125" width="32.5521" height="27.1267" rx="1" fill="#A7B7FF"/>
<rect x="50" y="103.472" width="32.5521" height="27.1267" rx="1" fill="#6F89FF"/>
<rect x="6.25" y="140.625" width="32.5521" height="27.1267" rx="1" fill="#6F89FF"/>
<rect x="50" y="140.972" width="32.5521" height="27.1267" rx="1" fill="#6F89FF"/>
<rect x="0.1" y="68.85" width="32.3521" height="26.9267" rx="0.9" stroke="white" stroke-width="0.2"/>
<rect x="0.1" y="106.35" width="32.3521" height="26.9267" rx="0.9" stroke="white" stroke-width="0.2"/>
<rect x="43.85" y="68.85" width="32.3521" height="26.9267" rx="0.9" stroke="white" stroke-width="0.2"/>
<rect x="43.85" y="106.35" width="32.3521" height="26.9267" rx="0.9" stroke="white" stroke-width="0.2"/>
<rect x="43.85" y="143.85" width="32.3521" height="26.9267" rx="0.9" stroke="white" stroke-width="0.2"/>
<path d="M-3.125 29C-3.125 26.7909 -1.33414 25 0.875 25H90.5312C92.7404 25 94.5312 26.7909 94.5312 29V57.5521H-3.125V29Z" fill="#6A84FF"/>
<circle cx="29.4273" cy="41.2761" r="5.42535" fill="white"/>
<circle cx="45.7042" cy="41.2761" r="5.42535" fill="white"/>
<circle cx="61.9791" cy="41.2761" r="5.42535" fill="white"/>
</g>
</svg>
