<svg width="48" height="50" viewBox="0 0 48 50" fill="none" xmlns="http://www.w3.org/2000/svg">
<mask id="mask0" mask-type="alpha" maskUnits="userSpaceOnUse" x="0" y="0" width="48" height="48">
<path d="M48 24C48 37.2548 37.2548 48 24 48C10.7452 48 0 37.2548 0 24C0 10.7452 10.7452 0 24 0C37.2548 0 48 10.7452 48 24Z" fill="#E8EFFF"/>
</mask>
<g mask="url(#mask0)">
<path d="M48 24C48 37.2548 37.2548 48 24 48C10.7452 48 0 37.2548 0 24C0 10.7452 10.7452 0 24 0C37.2548 0 48 10.7452 48 24Z" fill="#E8EFFF"/>
<circle cx="27" cy="11" r="1" transform="rotate(-90 27 11)" fill="#C6D4F2"/>
<circle cx="22" cy="11" r="1" transform="rotate(-90 22 11)" fill="#C6D4F2"/>
<circle cx="17" cy="11" r="1" transform="rotate(-90 17 11)" fill="#F2BC19"/>
<circle cx="32" cy="11" r="1" transform="rotate(-90 32 11)" fill="#C6D4F2"/>
<circle cx="27" cy="7" r="1" transform="rotate(-90 27 7)" fill="#C6D4F2"/>
<circle cx="22" cy="7" r="1" transform="rotate(-90 22 7)" fill="#C6D4F2"/>
<circle cx="17" cy="7" r="1" transform="rotate(-90 17 7)" fill="#C6D4F2"/>
<circle cx="32" cy="7" r="1" transform="rotate(-90 32 7)" fill="#F65D6D"/>
<circle cx="27" cy="3" r="1" transform="rotate(-90 27 3)" fill="#506FFF"/>
<circle cx="22" cy="3" r="1" transform="rotate(-90 22 3)" fill="#C6D4F2"/>
<circle cx="17" cy="3" r="1" transform="rotate(-90 17 3)" fill="#C6D4F2"/>
<circle cx="32" cy="3" r="1" transform="rotate(-90 32 3)" fill="#C6D4F2"/>
<rect x="2" y="24.9437" width="39" height="19" rx="4" transform="rotate(-7.28244 2 24.9437)" fill="#B7C8EC"/>
<rect x="-0.999908" y="17.9442" width="39" height="21.9995" rx="4" transform="rotate(-7.28244 -0.999908 17.9442)" fill="#506FFF"/>
<path d="M-0.492958 21.9114C-0.772989 19.7201 0.776415 17.7167 2.96773 17.4366L33.7177 13.507C35.909 13.227 37.9124 14.7764 38.1924 16.9677L38.6995 20.9355L0.0140846 25.8791L-0.492958 21.9114Z" fill="#6A84FF"/>
<circle cx="20.1692" cy="20.013" r="1.73611" transform="rotate(-7.28244 20.1692 20.013)" fill="white"/>
<circle cx="25.3355" cy="19.3528" r="1.73611" transform="rotate(-7.28244 25.3355 19.3528)" fill="white"/>
<circle cx="30.5018" cy="18.6926" r="1.73611" transform="rotate(-7.28244 30.5018 18.6926)" fill="white"/>
<path d="M6.25523 30.5711L6.44444 29.5665C7.19693 29.7281 7.74808 29.8809 8.09788 30.0249C7.90708 29.2162 7.78974 28.6581 7.74586 28.3507L8.73087 28.2249C8.77458 28.675 8.79426 29.2432 8.78992 29.9296C9.22629 29.6344 9.73291 29.3488 10.3098 29.0725L10.7455 29.9972C10.1947 30.2609 9.64706 30.4598 9.10264 30.5938C9.40957 30.7985 9.85374 31.1767 10.4352 31.7284L9.69375 32.41C9.38536 32.0858 9.01292 31.6386 8.57644 31.0684C8.32291 31.7498 8.09075 32.2743 7.87997 32.6418L7.00458 32.1668C7.44716 31.4521 7.76836 30.9761 7.96818 30.7388C7.36949 30.7002 6.79851 30.6443 6.25523 30.5711Z" fill="#A7B7FF"/>
<path d="M6.24136 35.1647L11.201 34.5309" stroke="#6F89FF" stroke-width="0.5" stroke-linecap="round"/>
<path d="M30.2552 27.5711L30.4444 26.5665C31.1969 26.7281 31.7481 26.8809 32.0979 27.0249C31.9071 26.2162 31.7897 25.6581 31.7459 25.3507L32.7309 25.2249C32.7746 25.675 32.7943 26.2432 32.7899 26.9296C33.2263 26.6344 33.7329 26.3488 34.3098 26.0725L34.7455 26.9972C34.1947 27.2609 33.6471 27.4598 33.1026 27.5938C33.4096 27.7985 33.8537 28.1767 34.4352 28.7284L33.6938 29.41C33.3854 29.0858 33.0129 28.6386 32.5764 28.0684C32.3229 28.7498 32.0908 29.2743 31.88 29.6418L31.0046 29.1668C31.4472 28.4521 31.7684 27.9761 31.9682 27.7388C31.3695 27.7002 30.7985 27.6443 30.2552 27.5711Z" fill="#A7B7FF"/>
<path d="M30.0478 32.1224L35.0074 31.4886" stroke="#6F89FF" stroke-width="0.5" stroke-linecap="round"/>
<path d="M22.2552 28.5711L22.4444 27.5665C23.1969 27.7281 23.7481 27.8809 24.0979 28.0249C23.9071 27.2162 23.7897 26.6581 23.7459 26.3507L24.7309 26.2249C24.7746 26.675 24.7943 27.2432 24.7899 27.9296C25.2263 27.6344 25.7329 27.3488 26.3098 27.0725L26.7455 27.9972C26.1947 28.2609 25.6471 28.4598 25.1026 28.5938C25.4096 28.7985 25.8537 29.1767 26.4352 29.7284L25.6938 30.41C25.3854 30.0858 25.0129 29.6386 24.5764 29.0684C24.3229 29.7498 24.0908 30.2743 23.88 30.6418L23.0046 30.1668C23.4472 29.4521 23.7684 28.9761 23.9682 28.7388C23.3695 28.7002 22.7985 28.6443 22.2552 28.5711Z" fill="#A7B7FF"/>
<path d="M22.1123 33.1365L27.072 32.5027" stroke="#6F89FF" stroke-width="0.5" stroke-linecap="round"/>
<path d="M14.2552 29.5711L14.4444 28.5665C15.1969 28.7281 15.7481 28.8809 16.0979 29.0249C15.9071 28.2162 15.7897 27.6581 15.7459 27.3507L16.7309 27.2249C16.7746 27.675 16.7943 28.2432 16.7899 28.9296C17.2263 28.6344 17.7329 28.3488 18.3098 28.0725L18.7455 28.9972C18.1947 29.2609 17.6471 29.4598 17.1026 29.5938C17.4096 29.7985 17.8537 30.1767 18.4352 30.7284L17.6938 31.41C17.3854 31.0858 17.0129 30.6386 16.5764 30.0684C16.3229 30.7498 16.0908 31.2743 15.88 31.6418L15.0046 31.1668C15.4472 30.4521 15.7684 29.9761 15.9682 29.7388C15.3695 29.7002 14.7985 29.6443 14.2552 29.5711Z" fill="#A7B7FF"/>
<path d="M14.1768 34.1506L19.1365 33.5168" stroke="#6F89FF" stroke-width="0.5" stroke-linecap="round"/>
<rect x="1.16783" y="16.0734" width="38.7" height="21.6995" rx="3.85" transform="rotate(-7.28244 1.16783 16.0734)" stroke="white" stroke-width="0.3"/>
</g>
</svg>
