<svg width="150" height="150" viewBox="0 0 150 150" fill="none" xmlns="http://www.w3.org/2000/svg">
<mask id="mask0" mask-type="alpha" maskUnits="userSpaceOnUse" x="0" y="0" width="150" height="150">
<path d="M150 75C150 116.421 116.421 150 75 150C33.5786 150 0 116.421 0 75C0 33.5786 33.5786 0 75 0C116.421 0 150 33.5786 150 75Z" fill="#E8EFFF"/>
</mask>
<g mask="url(#mask0)">
<path d="M150 75C150 116.421 116.421 150 75 150C33.5786 150 0 116.421 0 75C0 33.5786 33.5786 0 75 0C116.421 0 150 33.5786 150 75Z" fill="#E8EFFF"/>
<rect x="15.625" y="78.125" width="87.5" height="128.125" rx="5" fill="#B7C8EC"/>
<rect x="-9.375" y="28.125" width="96.875" height="143.75" rx="4" fill="#506FFF"/>
<path fill-rule="evenodd" clip-rule="evenodd" d="M87.5 54.1636V111.461C74.8942 108.032 65.625 96.5046 65.625 82.8124C65.625 69.1203 74.8942 57.5931 87.5 54.1636Z" fill="#3146CC"/>
<path d="M-9.375 32.125C-9.375 29.9159 -7.58414 28.125 -5.375 28.125H83.5C85.7091 28.125 87.5 29.9159 87.5 32.125V59.375H-9.375V32.125Z" fill="#6A84FF"/>
<circle cx="36.6753" cy="44.4009" r="5.42535" fill="white"/>
<circle cx="52.9517" cy="44.4009" r="5.42535" fill="white"/>
<circle cx="69.2271" cy="44.4009" r="5.42535" fill="white"/>
<rect x="6.25" y="68.75" width="59.375" height="37.5" rx="1" fill="#6F89FF"/>
<rect x="18.75" y="115.625" width="46.875" height="5.42535" rx="2.71267" fill="white"/>
<rect x="34.375" y="126.476" width="31.25" height="5.42535" rx="2.71267" fill="#A7B7FF"/>
<path d="M134.375 70.3125C134.375 86.7085 121.083 100 104.687 100C88.2915 100 75 86.7085 75 70.3125C75 53.9165 88.2915 40.625 104.687 40.625C121.083 40.625 134.375 53.9165 134.375 70.3125Z" fill="#F65D6D"/>
<path fill-rule="evenodd" clip-rule="evenodd" d="M103.125 108.546C119.926 108.546 133.546 94.9263 133.546 78.125C133.546 61.3237 119.926 47.7036 103.125 47.7036C86.3237 47.7036 72.7036 61.3237 72.7036 78.125C72.7036 94.9263 86.3237 108.546 103.125 108.546ZM103.125 109.375C120.384 109.375 134.375 95.3839 134.375 78.125C134.375 60.8661 120.384 46.875 103.125 46.875C85.8661 46.875 71.875 60.8661 71.875 78.125C71.875 95.3839 85.8661 109.375 103.125 109.375Z" fill="white"/>
<path fill-rule="evenodd" clip-rule="evenodd" d="M94.5509 60.1759C95.6187 59.108 97.35 59.108 98.4179 60.1759L104.688 66.4455L110.957 60.1759C112.025 59.108 113.756 59.108 114.824 60.1759C115.892 61.2437 115.892 62.975 114.824 64.0429L108.554 70.3125L114.824 76.5821C115.892 77.65 115.892 79.3813 114.824 80.4491C113.756 81.517 112.025 81.517 110.957 80.4491L104.688 74.1795L98.4179 80.4491C97.35 81.517 95.6187 81.517 94.5509 80.4491C93.483 79.3813 93.483 77.65 94.5509 76.5821L100.821 70.3125L94.5509 64.0429C93.483 62.975 93.483 61.2437 94.5509 60.1759Z" fill="white"/>
</g>
</svg>
