<svg width="48" height="48" viewBox="0 0 48 48" fill="none" xmlns="http://www.w3.org/2000/svg">
<mask id="mask0" mask-type="alpha" maskUnits="userSpaceOnUse" x="0" y="0" width="48" height="48">
<path d="M48 24C48 37.2548 37.2548 48 24 48C10.7452 48 0 37.2548 0 24C0 10.7452 10.7452 0 24 0C37.2548 0 48 10.7452 48 24Z" fill="#E8EFFF"/>
</mask>
<g mask="url(#mask0)">
<path d="M48 24C48 37.2548 37.2548 48 24 48C10.7452 48 0 37.2548 0 24C0 10.7452 10.7452 0 24 0C37.2548 0 48 10.7452 48 24Z" fill="#E8EFFF"/>
<circle cx="26" cy="11" r="1" transform="rotate(-90 26 11)" fill="#C6D4F2"/>
<circle cx="21" cy="11" r="1" transform="rotate(-90 21 11)" fill="#C6D4F2"/>
<circle cx="16" cy="11" r="1" transform="rotate(-90 16 11)" fill="#F2BC19"/>
<circle cx="31" cy="11" r="1" transform="rotate(-90 31 11)" fill="#C6D4F2"/>
<circle cx="26" cy="7" r="1" transform="rotate(-90 26 7)" fill="#48C5A1"/>
<circle cx="21" cy="7" r="1" transform="rotate(-90 21 7)" fill="#C6D4F2"/>
<circle cx="16" cy="7" r="1" transform="rotate(-90 16 7)" fill="#C6D4F2"/>
<circle cx="31" cy="7" r="1" transform="rotate(-90 31 7)" fill="#C6D4F2"/>
<circle cx="26" cy="3" r="1" transform="rotate(-90 26 3)" fill="#C6D4F2"/>
<circle cx="21" cy="3" r="1" transform="rotate(-90 21 3)" fill="#506FFF"/>
<circle cx="16" cy="3" r="1" transform="rotate(-90 16 3)" fill="#C6D4F2"/>
<circle cx="31" cy="3" r="1" transform="rotate(-90 31 3)" fill="#C6D4F2"/>
<circle cx="24.5" cy="43.5" r="29.5" fill="#506FFF"/>
<circle cx="24.2814" cy="41.5" r="2.5" fill="white"/>
<path fill-rule="evenodd" clip-rule="evenodd" d="M39.8218 30.1641C39.1339 30.369 38.4161 30.5043 37.6765 30.562C38.1508 31.235 38.6033 31.9579 39.031 32.7323C39.298 33.2158 39.9064 33.3913 40.3898 33.1243C40.8733 32.8573 41.0488 32.249 40.7818 31.7655C40.474 31.2081 40.1536 30.6744 39.8218 30.1641ZM26.5496 21.253C25.1918 21.0559 23.8221 21.0141 22.4639 21.1168C15.7322 21.6258 9.32718 25.6806 6.11528 31.7832C5.85806 32.2719 6.04573 32.8766 6.53446 33.1339C7.02318 33.3911 7.6279 33.2034 7.88512 32.7147C10.767 27.2392 16.5494 23.5697 22.6146 23.1111C24.0621 23.0017 25.5285 23.0749 26.9777 23.3525C26.7656 22.6797 26.6203 21.9773 26.5496 21.253ZM12.1374 36.5684C14.7503 31.9233 18.7396 29.2862 22.8185 29.0788C26.8684 28.8729 31.2827 31.0505 34.7953 36.6121C35.0902 37.0791 35.7078 37.2185 36.1748 36.9236C36.6417 36.6287 36.7812 36.0111 36.4863 35.5441C32.6864 29.5277 27.6554 26.8303 22.717 27.0814C17.8077 27.331 13.2657 30.483 10.3942 35.5879C10.1235 36.0692 10.2942 36.679 10.7756 36.9497C11.2569 37.2205 11.8666 37.0498 12.1374 36.5684ZM17.5822 39.0703C19.3207 36.4626 21.3622 35.0684 23.3633 34.9434C25.3293 34.8205 27.6297 35.9036 29.9571 39.1038C30.2819 39.5505 30.9073 39.6492 31.354 39.3244C31.8006 38.9995 31.8994 38.3741 31.5745 37.9275C29.027 34.4245 26.1476 32.7655 23.2386 32.9473C20.3647 33.1269 17.8359 35.0843 15.9181 37.9609C15.6118 38.4205 15.736 39.0413 16.1955 39.3477C16.655 39.654 17.2759 39.5299 17.5822 39.0703Z" fill="white"/>
<circle cx="36.7814" cy="20" r="8" fill="#F65D6D"/>
<circle cx="38" cy="21" r="7.85" stroke="white" stroke-width="0.3"/>
<path d="M37.5 16H36.5C36.2239 16 36 16.2239 36 16.5V20.6C36 20.7105 35.9105 20.8 35.8 20.8H34.4038C34.2383 20.8 34.1444 20.9896 34.2447 21.1212L36.7751 24.4424C36.9832 24.7155 37.3984 24.7024 37.5889 24.4167L39.7927 21.1109C39.8813 20.978 39.786 20.8 39.6263 20.8H38.2C38.0895 20.8 38 20.7105 38 20.6V16.5C38 16.2239 37.7761 16 37.5 16Z" fill="white"/>
</g>
</svg>
