<svg width="100" height="100" viewBox="0 0 100 100" fill="none" xmlns="http://www.w3.org/2000/svg">
<mask id="mask0_2578_2750" style="mask-type:alpha" maskUnits="userSpaceOnUse" x="0" y="0" width="100" height="100">
<path d="M100 50C100 77.6142 77.6142 100 50 100C22.3858 100 0 77.6142 0 50C0 22.3858 22.3858 0 50 0C77.6142 0 100 22.3858 100 50Z" fill="#E8EFFF"/>
</mask>
<g mask="url(#mask0_2578_2750)">
<path d="M100 50C100 77.6142 77.6142 100 50 100C22.3858 100 0 77.6142 0 50C0 22.3858 22.3858 0 50 0C77.6142 0 100 22.3858 100 50Z" fill="#E8EFFF"/>
<rect x="25" y="62.5001" width="50" height="47.9167" fill="#506FFF"/>
<rect x="25" y="64.5835" width="50" height="10.4167" fill="#3146CC"/>
<rect x="18.75" y="60.4166" width="62.5" height="12.5" rx="2" fill="#6A84FF"/>
<rect x="31.25" y="77.0835" width="8.33333" height="37.5" rx="1" fill="#3146CC"/>
<rect x="45.8335" y="77.0835" width="8.33333" height="37.5" rx="1" fill="#3146CC"/>
<rect x="60.4165" y="77.0835" width="8.33333" height="37.5" rx="1" fill="#3146CC"/>
<circle cx="51.0415" cy="34.375" r="21.875" fill="#F4A42B"/>
<circle cx="55.2085" cy="32.2916" r="21.725" stroke="white" stroke-width="0.3"/>
<path d="M58.1513 29.7514C58.2152 29.8112 58.3197 29.7659 58.3197 29.6784V25.1C58.3197 25.0448 58.2749 25 58.2197 25H53.3255C53.2348 25 53.191 25.1111 53.2572 25.173L58.1513 29.7514Z" fill="white"/>
<path d="M45.1377 30.751C45.0705 30.8126 45.1141 30.9247 45.2053 30.9247H56.8787C56.9699 30.9247 57.0135 30.8126 56.9462 30.751L51.1096 25.4007C51.0713 25.3656 51.0127 25.3656 50.9744 25.4007L45.1377 30.751Z" fill="white"/>
<path d="M57.7518 32.7571C57.7806 32.691 57.7322 32.6172 57.6601 32.6172H44.4235C44.3515 32.6172 44.3031 32.691 44.3318 32.7571L50.9501 47.9792C50.985 48.0593 51.0987 48.0593 51.1335 47.9792L57.7518 32.7571Z" fill="white"/>
<path d="M43.7622 29.6784C43.7622 29.7659 43.8666 29.8112 43.9305 29.7514L48.8246 25.173C48.8909 25.1111 48.847 25 48.7563 25H43.8622C43.807 25 43.7622 25.0448 43.7622 25.1V29.6784Z" fill="white"/>
<path d="M42.1393 30.9246C42.1945 30.9246 42.2393 30.8799 42.2393 30.8246V26.4328C42.2393 26.3429 42.1297 26.2986 42.0673 26.3634L37.8323 30.7552C37.7711 30.8187 37.8161 30.9246 37.9043 30.9246H42.1393Z" fill="white"/>
<path d="M59.8428 30.8246C59.8428 30.8799 59.8875 30.9246 59.9428 30.9246H64.1777C64.266 30.9246 64.311 30.8187 64.2497 30.7552L60.0148 26.3634C59.9523 26.2986 59.8428 26.3429 59.8428 26.4328V30.8246Z" fill="white"/>
<path d="M59.6968 32.6172C59.657 32.6172 59.6211 32.6407 59.6052 32.6772L54.3741 44.6602C54.3277 44.7665 54.469 44.8533 54.5428 44.764L64.4488 32.7809C64.5027 32.7157 64.4563 32.6172 64.3717 32.6172H59.6968Z" fill="white"/>
<path d="M42.479 32.6772C42.4631 32.6407 42.4271 32.6172 42.3873 32.6172H37.7124C37.6278 32.6172 37.5814 32.7157 37.6353 32.7809L47.5413 44.764C47.6152 44.8533 47.7564 44.7665 47.7101 44.6602L42.479 32.6772Z" fill="white"/>
</g>
</svg>
