<svg width="27" height="27" viewBox="0 0 27 27" fill="none" xmlns="http://www.w3.org/2000/svg">
<path d="M9.01611 17L17.0268 9" stroke="#383547" stroke-width="2" stroke-linecap="round" stroke-linejoin="round"/>
<path d="M9.68367 10.3333C10.0523 10.3333 10.3512 10.0349 10.3512 9.66667C10.3512 9.29848 10.0523 9 9.68367 9C9.31499 9 9.01611 9.29848 9.01611 9.66667C9.01611 10.0349 9.31499 10.3333 9.68367 10.3333Z" fill="#383547" stroke="#383547" stroke-width="2" stroke-linecap="round" stroke-linejoin="round"/>
<path d="M16.3594 16.9998C16.7281 16.9998 17.027 16.7014 17.027 16.3332C17.027 15.965 16.7281 15.6665 16.3594 15.6665C15.9908 15.6665 15.6919 15.965 15.6919 16.3332C15.6919 16.7014 15.9908 16.9998 16.3594 16.9998Z" fill="#383547" stroke="#383547" stroke-width="2" stroke-linecap="round" stroke-linejoin="round"/>
<path d="M3.6757 6.59988C3.6757 5.82191 3.98515 5.07581 4.53599 4.5257C5.08683 3.9756 5.83393 3.66655 6.61293 3.66655H7.94804C8.72361 3.66611 9.46752 3.35935 10.0175 2.81322L10.952 1.87988C11.225 1.60575 11.5495 1.38821 11.907 1.23976C12.2644 1.09131 12.6477 1.01489 13.0348 1.01489C13.4219 1.01489 13.8052 1.09131 14.1627 1.23976C14.5201 1.38821 14.8446 1.60575 15.1176 1.87988L16.0522 2.81322C16.6021 3.35935 17.346 3.66611 18.1216 3.66655H19.4567C20.2357 3.66655 20.9828 3.9756 21.5336 4.5257C22.0845 5.07581 22.3939 5.82191 22.3939 6.59988V7.93322C22.3944 8.70775 22.7015 9.45067 23.2484 9.99988L24.183 10.9332C24.4575 11.2058 24.6753 11.5299 24.8239 11.8869C24.9726 12.2438 25.0491 12.6266 25.0491 13.0132C25.0491 13.3998 24.9726 13.7826 24.8239 14.1396C24.6753 14.4965 24.4575 14.8206 24.183 15.0932L23.2484 16.0266C22.7015 16.5758 22.3944 17.3187 22.3939 18.0932V19.4265C22.3939 20.2045 22.0845 20.9506 21.5336 21.5007C20.9828 22.0508 20.2357 22.3599 19.4567 22.3599H18.1216C17.346 22.3603 16.6021 22.6671 16.0522 23.2132L15.1176 24.1466C14.8446 24.4207 14.5201 24.6382 14.1627 24.7867C13.8052 24.9351 13.4219 25.0115 13.0348 25.0115C12.6477 25.0115 12.2644 24.9351 11.907 24.7867C11.5495 24.6382 11.225 24.4207 10.952 24.1466L10.0175 23.2132C9.46752 22.6671 8.72361 22.3603 7.94804 22.3599H6.61293C5.83393 22.3599 5.08683 22.0508 4.53599 21.5007C3.98515 20.9506 3.6757 20.2045 3.6757 19.4265V18.0932C3.67525 17.3187 3.36809 16.5758 2.82123 16.0266L1.88665 15.0932C1.61215 14.8206 1.39432 14.4965 1.24567 14.1396C1.09703 13.7826 1.02051 13.3998 1.02051 13.0132C1.02051 12.6266 1.09703 12.2438 1.24567 11.8869C1.39432 11.5299 1.61215 11.2058 1.88665 10.9332L2.82123 9.99988C3.36809 9.45067 3.67525 8.70775 3.6757 7.93322V6.59988" stroke="#383547" stroke-width="2" stroke-linecap="round" stroke-linejoin="round"/>
</svg>
