<svg width="70" height="70" viewBox="0 0 70 70" fill="none" xmlns="http://www.w3.org/2000/svg">
<mask id="mask0_2127_3522" style="mask-type:alpha" maskUnits="userSpaceOnUse" x="0" y="0" width="70" height="70">
<path d="M70 35C70 54.33 54.33 70 35 70C15.67 70 0 54.33 0 35C0 15.67 15.67 0 35 0C54.33 0 70 15.67 70 35Z" fill="#E8EFFF"/>
</mask>
<g mask="url(#mask0_2127_3522)">
<path d="M70 35C70 54.33 54.33 70 35 70C15.67 70 0 54.33 0 35C0 15.67 15.67 0 35 0C54.33 0 70 15.67 70 35Z" fill="#E8EFFF"/>
<circle cx="1.45833" cy="27.7083" r="1.45833" fill="#C6D4F2"/>
<circle cx="1.45833" cy="20.4168" r="1.45833" fill="#F65D6D"/>
<circle cx="1.45833" cy="13.1248" r="1.45833" fill="#C6D4F2"/>
<circle cx="1.45833" cy="34.9998" r="1.45833" fill="#C6D4F2"/>
<circle cx="7.29162" cy="27.7083" r="1.45833" fill="#48C5A1"/>
<circle cx="7.29162" cy="20.4168" r="1.45833" fill="#C6D4F2"/>
<circle cx="7.29162" cy="13.1248" r="1.45833" fill="#C6D4F2"/>
<circle cx="7.29162" cy="34.9998" r="1.45833" fill="#C6D4F2"/>
<circle cx="13.1251" cy="27.7083" r="1.45833" fill="#C6D4F2"/>
<circle cx="13.1251" cy="20.4168" r="1.45833" fill="#C6D4F2"/>
<circle cx="13.1251" cy="13.1248" r="1.45833" fill="#C6D4F2"/>
<circle cx="13.1251" cy="34.9998" r="1.45833" fill="#C6D4F2"/>
<circle cx="18.9583" cy="27.7083" r="1.45833" fill="#C6D4F2"/>
<circle cx="18.9583" cy="20.4168" r="1.45833" fill="#C6D4F2"/>
<circle cx="18.9583" cy="13.1248" r="1.45833" fill="#F4A42B"/>
<circle cx="18.9583" cy="34.9998" r="1.45833" fill="#F65D6D"/>
<rect x="13.5566" y="36.374" width="35.1883" height="59.7917" rx="2.91667" transform="rotate(-12.5635 13.5566 36.374)" fill="#B7C8EC"/>
<rect x="5.83328" y="21.5854" width="35.1883" height="59.7917" rx="2.91667" transform="rotate(-12.0501 5.83328 21.5854)" fill="#506FFF"/>
<rect x="9.84543" y="24.6458" width="28.6604" height="45.3158" rx="2.91667" transform="rotate(-12.0501 9.84543 24.6458)" fill="#6F89FF"/>
<circle cx="51.7709" cy="21.146" r="15.3125" fill="#48C5A1"/>
<circle cx="48.8541" cy="22.604" r="15.0938" stroke="white" stroke-width="0.4375"/>
<circle cx="28.4375" cy="40.104" r="10.9375" fill="#F4A42B"/>
<path d="M30.625 41.5628L26.9792 42.292C27.7083 44.4795 28.4375 45.9378 29.8958 45.2087C31.3542 44.4795 30.625 43.0212 30.625 41.5628Z" fill="white"/>
<path d="M21.2228 38.3201C21.0427 38.6802 21.1887 39.1182 21.5489 39.2983C21.9091 39.4784 22.3471 39.3324 22.5272 38.9722L21.2228 38.3201ZM25.0052 38.4326C25.29 38.7173 25.7517 38.7173 26.0364 38.4326C26.3212 38.1478 26.3212 37.6861 26.0364 37.4014L25.0052 38.4326ZM29.91 37.0448C29.831 37.4397 30.0871 37.8238 30.482 37.9028C30.8769 37.9818 31.261 37.7257 31.34 37.3308L29.91 37.0448ZM33.7552 36.9742C34.04 37.259 34.5017 37.259 34.7864 36.9742C35.0712 36.6895 35.0712 36.2278 34.7864 35.943L33.7552 36.9742ZM26.9792 42.292L26.8362 41.577C26.6311 41.618 26.4535 41.7451 26.3485 41.926C26.2435 42.1069 26.2213 42.3242 26.2874 42.5226L26.9792 42.292ZM30.625 41.5628H31.3542C31.3542 41.3444 31.2562 41.1374 31.0873 40.9989C30.9183 40.8604 30.6962 40.805 30.482 40.8478L30.625 41.5628ZM29.8958 45.2087L30.2219 45.8609L29.8958 45.2087ZM22.5272 38.9722C22.7305 38.5656 23.1026 38.1117 23.5189 37.9276C23.708 37.844 23.9022 37.8164 24.1163 37.8662C24.3376 37.9176 24.6381 38.0655 25.0052 38.4326L26.0364 37.4014C25.5285 36.8935 24.9966 36.5735 24.4462 36.4457C23.8886 36.3161 23.3719 36.398 22.929 36.5939C22.0814 36.9688 21.5056 37.7545 21.2228 38.3201L22.5272 38.9722ZM31.34 37.3308C31.3984 37.0387 31.7073 36.6695 32.2045 36.5182C32.6531 36.3817 33.222 36.441 33.7552 36.9742L34.7864 35.943C33.8614 35.018 32.7288 34.8343 31.7799 35.1231C30.8795 35.3971 30.0946 36.1216 29.91 37.0448L31.34 37.3308ZM27.1222 43.007L30.768 42.2778L30.482 40.8478L26.8362 41.577L27.1222 43.007ZM29.8958 41.5628C29.8958 41.981 29.948 42.3902 29.993 42.7385C30.0404 43.1058 30.0781 43.3968 30.0781 43.6592C30.0781 43.9143 30.0406 44.0801 29.9785 44.1992C29.9229 44.3059 29.8179 44.4324 29.5697 44.5565L30.2219 45.8609C30.7029 45.6203 31.0537 45.2912 31.2715 44.8738C31.4828 44.4687 31.5365 44.0421 31.5365 43.6592C31.5365 43.2836 31.4831 42.891 31.4393 42.5519C31.3931 42.1938 31.3542 41.8738 31.3542 41.5628H29.8958ZM29.5697 44.5565C29.3156 44.6835 29.1739 44.6775 29.0976 44.6591C29.0137 44.639 28.8888 44.5748 28.7242 44.3773C28.3692 43.9513 28.0405 43.1701 27.6709 42.0614L26.2874 42.5226C26.647 43.6014 27.0474 44.6431 27.6039 45.3109C27.895 45.6602 28.2715 45.9606 28.7572 46.0772C29.2505 46.1956 29.7469 46.0984 30.2219 45.8609L29.5697 44.5565Z" fill="white"/>
<path d="M22.1643 58.077C21.9803 57.2613 22.4086 56.4699 23.1208 56.3092L39.8865 52.5277C40.5988 52.367 41.3254 52.898 41.5093 53.7137C41.6933 54.5294 41.2651 55.3209 40.5528 55.4816L23.7871 59.2631C23.0748 59.4238 22.3483 58.8927 22.1643 58.077Z" fill="#A7B7FF"/>
<path d="M26.6304 62.371C26.4662 61.6429 26.7204 60.9654 27.1983 60.8576L38.4471 58.3204C38.9249 58.2126 39.4455 58.7154 39.6097 59.4434C39.7739 60.1715 39.5196 60.849 39.0417 60.9568L27.793 63.494C27.3151 63.6018 26.7946 63.099 26.6304 62.371Z" fill="#A7B7FF"/>
<path d="M58.1145 17.5C56.8895 17.5 55.7326 17.9558 54.9032 18.7494L52.4999 20.7843L52.4957 20.7802L51.2069 21.8668L51.2154 21.875L48.9227 23.8203C48.3783 24.3372 47.6552 24.6221 46.8853 24.6221C45.2946 24.6221 44.0015 23.3889 44.0015 21.875C44.0015 20.3611 45.2946 19.1279 46.8853 19.1279C47.6552 19.1279 48.3783 19.4128 48.961 19.9663L49.9266 20.7843L51.2111 19.6977L50.1349 18.7861C49.2672 17.9599 48.1145 17.5041 46.8853 17.5041C44.3503 17.5 42.2916 19.4616 42.2916 21.875C42.2916 24.2884 44.3503 26.25 46.8853 26.25C48.1103 26.25 49.2631 25.7942 50.0967 25.0047L52.4999 22.9657L52.5042 22.9698L53.7887 21.8791L53.7845 21.875L56.0771 19.9337C56.6215 19.4128 57.3446 19.1279 58.1145 19.1279C59.7053 19.1279 60.9984 20.3611 60.9984 21.875C60.9984 23.3889 59.7053 24.6221 58.1145 24.6221C57.3446 24.6221 56.6215 24.3372 56.0388 23.7878L55.0733 22.9698L53.7887 24.0605L54.8649 24.9721C55.7326 25.7982 56.8853 26.25 58.1103 26.25C60.6496 26.25 62.7083 24.2884 62.7083 21.875C62.7083 19.4616 60.6496 17.5 58.1145 17.5Z" fill="white"/>
<circle cx="35.7292" cy="72.1873" r="3.64583" fill="#A7B7FF"/>
<circle cx="24.0624" cy="22.6043" r="3.64583" fill="#506FFF"/>
<circle cx="24.0625" cy="22.604" r="2.1875" fill="#A7B7FF"/>
</g>
</svg>
