<svg width="36" height="36" viewBox="0 0 36 36" fill="none" xmlns="http://www.w3.org/2000/svg">
<path fill-rule="evenodd" clip-rule="evenodd" d="M2.8125 21.375C2.8125 27.8989 8.10114 33.1875 14.625 33.1875H21.375C27.8989 33.1875 33.1875 27.8989 33.1875 21.375V14.625C33.1875 8.10114 27.8989 2.8125 21.375 2.8125H14.625C8.10114 2.8125 2.8125 8.10114 2.8125 14.625V21.375ZM14.625 0C6.54784 0 0 6.54784 0 14.625V21.375C0 29.4522 6.54784 36 14.625 36H21.375C29.4522 36 36 29.4522 36 21.375V14.625C36 6.54784 29.4522 0 21.375 0H14.625Z" fill="#E3E6F8"/>
<path fill-rule="evenodd" clip-rule="evenodd" d="M17.6762 8.11015C18.1053 7.94043 18.5873 7.96789 18.9944 8.18524C21.571 9.56106 25.3521 10.3265 26.9282 10.5268C27.5903 10.611 28.1269 11.1042 28.2666 11.7568C29.4853 17.4508 28.2299 21.737 26.0199 24.7531C23.8526 27.7109 20.8496 29.3379 18.6752 29.9425C18.4485 30.0056 18.2105 30.0169 17.9788 29.9757C13.0218 29.0934 10.3635 25.674 9.08906 22.0155C7.83539 18.4167 7.84525 14.4393 8.2236 11.8578C8.3367 11.0862 8.99857 10.5143 9.77842 10.5143C10.0053 10.5143 10.4624 10.4487 11.1528 10.2828C11.8105 10.1247 12.5788 9.90127 13.3799 9.64575C14.9809 9.13505 16.6419 8.51926 17.6762 8.11015ZM11.2033 13.4894C11.0356 15.6545 11.184 18.4757 12.057 20.9816C13.0431 23.8122 14.8794 26.094 18.1735 26.8111C19.7491 26.2922 21.9078 25.0477 23.4847 22.8955C25.0141 20.8084 26.0696 17.7708 25.3897 13.4677C23.512 13.135 20.5894 12.4379 18.1724 11.2891C17.1128 11.6941 15.7086 12.2018 14.3349 12.64C13.4938 12.9083 12.6464 13.1562 11.8871 13.3387C11.6607 13.393 11.4311 13.4444 11.2033 13.4894Z" fill="#E3E6F8"/>
<path fill-rule="evenodd" clip-rule="evenodd" d="M22.044 15.8375C22.719 16.4 22.8102 17.4032 22.2477 18.0782L19.0659 21.8963C18.7797 22.2397 18.3623 22.4469 17.9158 22.4671C17.4693 22.4874 17.0349 22.3188 16.7188 22.0028L14.8097 20.0937C14.1884 19.4724 14.1884 18.4651 14.8097 17.8438C15.431 17.2225 16.4383 17.2225 17.0596 17.8438L17.7368 18.5211L19.8034 16.0412C20.3659 15.3662 21.369 15.275 22.044 15.8375Z" fill="#E3E6F8"/>
</svg>
