<svg width="48" height="48" viewBox="0 0 48 48" fill="none" xmlns="http://www.w3.org/2000/svg">
<mask id="mask0" mask-type="alpha" maskUnits="userSpaceOnUse" x="0" y="0" width="48" height="48">
<circle cx="24" cy="24" r="24" fill="#ECF2FF"/>
</mask>
<g mask="url(#mask0)">
<circle cx="24" cy="24" r="24" fill="#ECF2FF"/>
<rect x="18" y="3" width="31" height="49" rx="4" fill="#506FFF"/>
<rect x="33.625" y="11.625" width="12.1528" height="1.73611" rx="0.868056" fill="white"/>
<rect x="21.4722" y="9.88892" width="10.4167" height="8.68056" rx="1" fill="#6F89FF"/>
<rect x="19.8361" y="11.725" width="10.2167" height="8.48056" rx="0.9" stroke="white" stroke-width="0.2"/>
<rect x="33.625" y="15.0973" width="8.68056" height="1.73611" rx="0.868056" fill="#A7B7FF"/>
<rect x="33.625" y="24.0417" width="12.1528" height="1.73611" rx="0.868056" fill="white"/>
<rect x="21.4722" y="22.3056" width="10.4167" height="8.68056" rx="1" fill="#6F89FF"/>
<rect x="19.8361" y="24.1417" width="10.2167" height="8.48056" rx="0.9" stroke="white" stroke-width="0.2"/>
<rect x="33.625" y="27.5139" width="8.68056" height="1.73611" rx="0.868056" fill="#A7B7FF"/>
<rect x="33.625" y="36.4583" width="12.1528" height="1.73611" rx="0.868056" fill="white"/>
<rect x="21.4722" y="34.7222" width="10.4167" height="8.68056" rx="1" fill="#6F89FF"/>
<rect x="19.8361" y="36.5583" width="10.2167" height="8.48056" rx="0.9" stroke="white" stroke-width="0.2"/>
<rect x="33.625" y="39.9306" width="8.68056" height="1.73611" rx="0.868056" fill="#A7B7FF"/>
<path d="M18 7C18 4.79086 19.7909 3 22 3H45C47.2091 3 49 4.79086 49 7V8H18V7Z" fill="#6A84FF"/>
<circle cx="15.5" cy="21.5" r="10.5" fill="#48C5A1"/>
<path d="M15.0245 14.7969C15.1742 14.3362 15.8259 14.3362 15.9755 14.7969L17.2213 18.6309C17.2882 18.8369 17.4802 18.9764 17.6968 18.9764H21.7281C22.2125 18.9764 22.4139 19.5962 22.022 19.8809L18.7606 22.2504C18.5854 22.3778 18.512 22.6034 18.579 22.8094L19.8247 26.6435C19.9744 27.1041 19.4472 27.4872 19.0553 27.2025L15.7939 24.8329C15.6187 24.7056 15.3814 24.7056 15.2061 24.8329L11.9447 27.2025C11.5529 27.4872 11.0256 27.1041 11.1753 26.6435L12.421 22.8094C12.488 22.6034 12.4146 22.3778 12.2394 22.2504L8.978 19.8809C8.58614 19.5962 8.78753 18.9764 9.27189 18.9764H13.3032C13.5198 18.9764 13.7118 18.8369 13.7787 18.6309L15.0245 14.7969Z" fill="white"/>
</g>
</svg>
