<svg width="48" height="48" viewBox="0 0 48 48" fill="none" xmlns="http://www.w3.org/2000/svg">
<mask id="mask0" mask-type="alpha" maskUnits="userSpaceOnUse" x="0" y="0" width="48" height="48">
<path d="M48 24C48 37.2548 37.2548 48 24 48C10.7452 48 0 37.2548 0 24C0 10.7452 10.7452 0 24 0C37.2548 0 48 10.7452 48 24Z" fill="#E8EFFF"/>
</mask>
<g mask="url(#mask0)">
<path d="M48 24C48 37.2548 37.2548 48 24 48C10.7452 48 0 37.2548 0 24C0 10.7452 10.7452 0 24 0C37.2548 0 48 10.7452 48 24Z" fill="#E8EFFF"/>
<rect x="12" y="30" width="24" height="23" fill="#506FFF"/>
<rect x="12" y="31" width="24" height="5" fill="#3146CC"/>
<rect x="9" y="29" width="30" height="6" rx="2" fill="#6A84FF"/>
<rect x="15" y="37" width="4" height="18" rx="1" fill="#3146CC"/>
<rect x="22" y="37" width="4" height="18" rx="1" fill="#3146CC"/>
<rect x="29" y="37" width="4" height="18" rx="1" fill="#3146CC"/>
<circle cx="24.5" cy="16.5" r="10.5" fill="#F4A42B"/>
<circle cx="26.5" cy="15.5" r="10.35" stroke="white" stroke-width="0.3"/>
<path d="M27.8254 14.1988C27.8893 14.2586 27.9938 14.2133 27.9938 14.1258V12.1C27.9938 12.0448 27.949 12 27.8938 12H25.7283C25.6376 12 25.5937 12.1111 25.66 12.173L27.8254 14.1988Z" fill="white"/>
<path d="M21.7645 14.67C21.6973 14.7316 21.7409 14.8437 21.8321 14.8437H27.1679C27.2591 14.8437 27.3027 14.7316 27.2355 14.67L24.5676 12.2244C24.5294 12.1894 24.4707 12.1894 24.4324 12.2244L21.7645 14.67Z" fill="white"/>
<path d="M27.6892 15.7961C27.7179 15.7301 27.6695 15.6562 27.5975 15.6562H21.4025C21.3305 15.6562 21.2821 15.7301 21.3108 15.7961L24.4083 22.9203C24.4431 23.0005 24.5569 23.0005 24.5917 22.9203L27.6892 15.7961Z" fill="white"/>
<path d="M21.0063 14.1258C21.0063 14.2133 21.1107 14.2586 21.1746 14.1988L23.34 12.173C23.4063 12.1111 23.3624 12 23.2717 12H21.1063C21.051 12 21.0063 12.0448 21.0063 12.1V14.1258Z" fill="white"/>
<path d="M20.175 14.8437C20.2302 14.8437 20.275 14.799 20.275 14.7437V12.8165C20.275 12.7265 20.1655 12.6823 20.103 12.7471L18.2446 14.6743C18.1834 14.7378 18.2284 14.8437 18.3166 14.8437H20.175Z" fill="white"/>
<path d="M28.725 14.7437C28.725 14.799 28.7698 14.8437 28.825 14.8437H30.6834C30.7716 14.8437 30.8166 14.7378 30.7554 14.6743L28.897 12.7471C28.8345 12.6823 28.725 12.7265 28.725 12.8165V14.7437Z" fill="white"/>
<path d="M28.6881 15.6562C28.6483 15.6562 28.6124 15.6798 28.5965 15.7162L26.2472 21.0977C26.2009 21.204 26.3421 21.2908 26.416 21.2015L30.8647 15.82C30.9186 15.7548 30.8722 15.6562 30.7876 15.6562H28.6881Z" fill="white"/>
<path d="M20.4035 15.7162C20.3876 15.6798 20.3516 15.6562 20.3119 15.6562H18.2124C18.1278 15.6562 18.0814 15.7548 18.1353 15.82L22.584 21.2015C22.6579 21.2908 22.7991 21.204 22.7528 21.0977L20.4035 15.7162Z" fill="white"/>
</g>
</svg>
