<svg width="55" height="55" viewBox="0 0 55 55" fill="none" xmlns="http://www.w3.org/2000/svg">
<mask id="mask0_2909_2642" style="mask-type:alpha" maskUnits="userSpaceOnUse" x="0" y="0" width="55" height="55">
<path d="M55 27.5C55 42.6878 42.6878 55 27.5 55C12.3122 55 0 42.6878 0 27.5C0 12.3122 12.3122 0 27.5 0C42.6878 0 55 12.3122 55 27.5Z" fill="#E8EFFF"/>
</mask>
<g mask="url(#mask0_2909_2642)">
<path d="M55 27.5C55 42.6878 42.6878 55 27.5 55C12.3122 55 0 42.6878 0 27.5C0 12.3122 12.3122 0 27.5 0C42.6878 0 55 12.3122 55 27.5Z" fill="#E8EFFF"/>
<rect x="4.58398" y="22.9167" width="32.0833" height="46.9792" rx="5.72917" fill="#B7C8EC"/>
<rect x="8.02148" y="14.8958" width="38.9583" height="57.2917" rx="8.02083" fill="#506FFF"/>
<rect x="13.75" y="20.625" width="27.5" height="18.3333" rx="3.4375" fill="#6F89FF"/>
<path d="M30.3652 28.7993C31.1291 29.2403 31.1291 30.3429 30.3652 30.7839L26.9277 32.7685C26.1638 33.2096 25.209 32.6583 25.209 31.7762L25.209 27.8069C25.209 26.9249 26.1638 26.3736 26.9277 26.8146L30.3652 28.7993Z" fill="white"/>
<rect x="13.75" y="44.6875" width="27.5" height="2.29167" rx="1.14583" fill="#A7B7FF"/>
<circle cx="35.5202" cy="45.8334" r="2.29167" fill="white"/>
<circle cx="37.8125" cy="17.1875" r="10.3125" fill="#48C5A1"/>
<path d="M37.3448 10.6041C37.4918 10.1517 38.1319 10.1517 38.2789 10.6041L39.5024 14.3697C39.5681 14.572 39.7567 14.709 39.9694 14.709H43.9288C44.4045 14.709 44.6023 15.3177 44.2174 15.5974L41.0142 17.9246C40.8421 18.0496 40.7701 18.2713 40.8358 18.4736L42.0593 22.2392C42.2063 22.6916 41.6885 23.0678 41.3037 22.7882L38.1005 20.461C37.9284 20.3359 37.6953 20.3359 37.5232 20.461L34.32 22.7882C33.9352 23.0678 33.4174 22.6916 33.5644 22.2392L34.7879 18.4736C34.8536 18.2713 34.7816 18.0496 34.6095 17.9246L31.4063 15.5974C31.0214 15.3177 31.2192 14.709 31.6949 14.709H35.6543C35.867 14.709 36.0556 14.572 36.1213 14.3697L37.3448 10.6041Z" fill="white"/>
</g>
</svg>
