<svg width="48" height="48" viewBox="0 0 48 48" fill="none" xmlns="http://www.w3.org/2000/svg">
<mask id="mask0" mask-type="alpha" maskUnits="userSpaceOnUse" x="0" y="0" width="48" height="48">
<circle cx="24" cy="24" r="24" fill="#ECF2FF"/>
</mask>
<g mask="url(#mask0)">
<circle cx="24" cy="24" r="24" fill="#ECF2FF"/>
<rect x="17" y="8" width="31" height="46" rx="4" fill="#506FFF"/>
<rect x="21" y="40" width="12.1528" height="1.73611" rx="0.868056" fill="white"/>
<rect x="21" y="23" width="21" height="12" rx="1" fill="#6F89FF"/>
<rect x="23.1" y="20.1" width="21.8" height="12.8" rx="0.9" stroke="white" stroke-width="0.2"/>
<rect x="21" y="43.4722" width="8.68056" height="1.73611" rx="0.868056" fill="#A7B7FF"/>
<path d="M17 12C17 9.79086 18.7909 8 21 8H44.25C46.4591 8 48.25 9.79086 48.25 12V18.4167H17V12Z" fill="#6A84FF"/>
<circle cx="22.4167" cy="13.2083" r="1.73611" fill="white"/>
<circle cx="27.625" cy="13.2083" r="1.73611" fill="white"/>
<circle cx="32.8333" cy="13.2083" r="1.73611" fill="white"/>
<circle cx="15.5" cy="23.5" r="10.5" fill="#6DB9FF"/>
<path d="M10.8073 21.002C11.4373 21.002 11.9576 21.1677 12.3683 21.499C12.7836 21.8303 13.052 22.2783 13.1733 22.843H11.9063C11.813 22.6143 11.6683 22.4347 11.4723 22.304C11.281 22.1733 11.0523 22.108 10.7863 22.108C10.4363 22.108 10.154 22.2363 9.9393 22.493C9.72463 22.7497 9.6173 23.0927 9.6173 23.522C9.6173 23.9513 9.72463 24.2943 9.9393 24.551C10.154 24.803 10.4363 24.929 10.7863 24.929C11.0523 24.929 11.281 24.8637 11.4723 24.733C11.6683 24.6023 11.813 24.425 11.9063 24.201H13.1733C13.052 24.761 12.7836 25.209 12.3683 25.545C11.9576 25.8763 11.4373 26.042 10.8073 26.042C10.3266 26.042 9.9043 25.937 9.5403 25.727C9.1763 25.5123 8.89397 25.2137 8.6933 24.831C8.4973 24.4483 8.3993 24.012 8.3993 23.522C8.3993 23.032 8.4973 22.5957 8.6933 22.213C8.89397 21.8303 9.1763 21.534 9.5403 21.324C9.9043 21.1093 10.3266 21.002 10.8073 21.002ZM17.4002 24.607C17.4002 24.8683 17.3325 25.1087 17.1972 25.328C17.0665 25.5473 16.8705 25.7223 16.6092 25.853C16.3525 25.9837 16.0398 26.049 15.6712 26.049C15.1158 26.049 14.6585 25.9137 14.2992 25.643C13.9398 25.3723 13.7438 24.9943 13.7112 24.509H14.9852C15.0038 24.6957 15.0692 24.8427 15.1812 24.95C15.2978 25.0573 15.4448 25.111 15.6222 25.111C15.7762 25.111 15.8975 25.069 15.9862 24.985C16.0748 24.901 16.1192 24.789 16.1192 24.649C16.1192 24.523 16.0772 24.418 15.9932 24.334C15.9138 24.25 15.8135 24.1823 15.6922 24.131C15.5708 24.075 15.4028 24.0097 15.1882 23.935C14.8755 23.8277 14.6188 23.725 14.4182 23.627C14.2222 23.5243 14.0518 23.375 13.9072 23.179C13.7672 22.9783 13.6972 22.7193 13.6972 22.402C13.6972 22.108 13.7718 21.8537 13.9212 21.639C14.0705 21.4243 14.2758 21.261 14.5372 21.149C14.8032 21.0323 15.1065 20.974 15.4472 20.974C15.9978 20.974 16.4342 21.1047 16.7562 21.366C17.0828 21.6273 17.2672 21.9867 17.3092 22.444H16.0142C15.9908 22.2807 15.9302 22.1523 15.8322 22.059C15.7388 21.961 15.6105 21.912 15.4472 21.912C15.3072 21.912 15.1928 21.9493 15.1042 22.024C15.0202 22.0987 14.9782 22.2083 14.9782 22.353C14.9782 22.4697 15.0155 22.57 15.0902 22.654C15.1695 22.7333 15.2675 22.7987 15.3842 22.85C15.5008 22.9013 15.6688 22.9667 15.8882 23.046C16.2055 23.1533 16.4645 23.2607 16.6652 23.368C16.8658 23.4707 17.0385 23.6223 17.1832 23.823C17.3278 24.0237 17.4002 24.285 17.4002 24.607ZM21.6179 24.607C21.6179 24.8683 21.5503 25.1087 21.4149 25.328C21.2843 25.5473 21.0883 25.7223 20.8269 25.853C20.5703 25.9837 20.2576 26.049 19.8889 26.049C19.3336 26.049 18.8763 25.9137 18.5169 25.643C18.1576 25.3723 17.9616 24.9943 17.9289 24.509H19.2029C19.2216 24.6957 19.2869 24.8427 19.3989 24.95C19.5156 25.0573 19.6626 25.111 19.8399 25.111C19.9939 25.111 20.1153 25.069 20.2039 24.985C20.2926 24.901 20.3369 24.789 20.3369 24.649C20.3369 24.523 20.2949 24.418 20.2109 24.334C20.1316 24.25 20.0313 24.1823 19.9099 24.131C19.7886 24.075 19.6206 24.0097 19.4059 23.935C19.0933 23.8277 18.8366 23.725 18.6359 23.627C18.4399 23.5243 18.2696 23.375 18.1249 23.179C17.9849 22.9783 17.9149 22.7193 17.9149 22.402C17.9149 22.108 17.9896 21.8537 18.1389 21.639C18.2883 21.4243 18.4936 21.261 18.7549 21.149C19.0209 21.0323 19.3243 20.974 19.6649 20.974C20.2156 20.974 20.6519 21.1047 20.9739 21.366C21.3006 21.6273 21.4849 21.9867 21.5269 22.444H20.2319C20.2086 22.2807 20.1479 22.1523 20.0499 22.059C19.9566 21.961 19.8283 21.912 19.6649 21.912C19.5249 21.912 19.4106 21.9493 19.3219 22.024C19.2379 22.0987 19.1959 22.2083 19.1959 22.353C19.1959 22.4697 19.2333 22.57 19.3079 22.654C19.3873 22.7333 19.4853 22.7987 19.6019 22.85C19.7186 22.9013 19.8866 22.9667 20.1059 23.046C20.4233 23.1533 20.6823 23.2607 20.8829 23.368C21.0836 23.4707 21.2563 23.6223 21.4009 23.823C21.5456 24.0237 21.6179 24.285 21.6179 24.607Z" fill="white"/>
</g>
</svg>
