<svg width="459" height="450" viewBox="0 0 459 450" fill="none" xmlns="http://www.w3.org/2000/svg">
<path d="M296.086 229.059C291.423 239.783 282.097 241.687 278.017 241.298L275.686 240.133L273.938 221.482L300.166 201.082C300.748 205.939 300.748 218.334 296.086 229.059Z" fill="#070707"/>
<path d="M250.623 423.146C250.623 428.297 234.705 432.472 215.069 432.472C195.434 432.472 179.516 428.297 179.516 423.146C179.516 417.996 195.434 413.821 215.069 413.821C234.705 413.821 250.623 417.996 250.623 423.146Z" fill="#EEF3FF"/>
<path d="M393.472 140.598C421.369 118.852 438.91 139.532 444.194 152.59C452.436 147.474 457.138 155.255 458.459 159.785H280.934C284.104 152.749 292.293 153.655 295.992 154.988C297.26 138.358 312.371 138.998 319.767 141.397C350.2 94.7064 381.584 121.41 393.472 140.598Z" fill="#EFF2FA"/>
<path d="M75.1039 40.7735C42.8642 15.6419 22.5922 39.5416 16.4862 54.6329C6.96085 48.7204 1.5265 57.7124 0 62.9474H205.162C201.498 54.8166 192.034 55.8638 187.76 57.4037C186.294 38.1854 168.831 38.9248 160.283 41.6968C125.112 -12.2623 88.8424 18.5983 75.1039 40.7735Z" fill="#EFF2FA"/>
<path d="M68.3467 384.68C80.5176 380.467 90.972 402.039 94.6778 413.351H15.6846C14.9044 412.376 14.3973 409.724 18.6103 406.915C22.8232 404.106 28.1675 406.135 30.313 407.5C32.6535 399.308 42.0157 398.723 49.6224 397.553C57.2292 396.383 53.1332 389.946 68.3467 384.68Z" fill="#EFF2FA"/>
<path d="M150.851 372.977C129.786 372.978 133.102 382.925 132.126 387.606L128.031 413.351H183.033C183.033 398.723 171.916 398.722 167.82 396.382C163.724 394.041 164.207 372.977 150.851 372.977Z" fill="#EFF2FA"/>
<path fill-rule="evenodd" clip-rule="evenodd" d="M155.261 373.887C156.059 378.253 156.355 385.014 152.607 385.847C151.865 386.012 151.145 386.142 150.474 386.264C146.384 387.004 144.07 387.423 149.096 393.454L149.218 393.601C150.587 395.243 151.215 395.995 151.245 396.771C151.271 397.428 150.869 398.101 150.128 399.344C148.868 401.457 146.625 405.218 143.831 413.347H143.832C144.007 413.112 157.828 394.639 168.991 396.965C169.057 396.979 169.123 396.992 169.188 397.005C168.678 396.807 168.218 396.603 167.823 396.377C166.449 395.592 165.59 392.701 164.552 389.205C162.882 383.584 160.748 376.398 155.261 373.887ZM51.6436 397.024C53.4743 396.297 54.3699 395.064 55.4626 393.56C56.8433 391.659 58.5386 389.325 62.8321 387.032C64.3256 388.59 65.7346 391.884 65.4221 398.135C64.9539 407.497 69.1278 409.838 71.2733 409.838C65.5073 410.582 53.9237 408.949 51.6436 397.024ZM49.017 413.347H50.2001C48.048 412.759 42.2428 411.005 36.1652 408.668C33.1062 407.491 35.3403 403.801 36.9813 401.091C37.2076 400.717 37.4226 400.362 37.6109 400.035C34.2032 401.366 31.444 403.547 30.3159 407.496C29.9466 407.261 29.4824 407.006 28.9456 406.76C34.0203 410.946 43.2677 413.185 49.017 413.347Z" fill="#E8EBF2"/>
<path d="M134.855 367.816C150.927 377.156 143.175 402.064 137.291 413.351H105.212C106.226 410.043 113.914 400.04 117.81 386.497C122.68 369.567 76.4137 343.88 98.938 332.789C121.462 321.697 101.373 307.102 84.3277 284.919C67.2822 262.735 105.634 220.118 121.462 241.135C137.29 262.151 119.028 262.734 117.81 284.918C116.592 307.102 149.466 308.27 145.204 332.789C140.943 357.308 114.766 356.14 134.855 367.816Z" fill="#EFF2FA"/>
<path d="M128.033 372.976C140.671 383.275 131.348 404.183 125.107 413.351H116.915C121.011 407.499 128.969 393.339 128.033 383.509C126.862 371.221 113.404 365.955 112.234 354.252C111.064 342.549 136.224 334.943 107.553 302.76C84.6156 277.014 98.7758 261.216 108.723 256.534C104.042 259.265 96.7864 269.524 105.212 288.717C115.745 312.707 132.714 323.24 126.277 338.453C119.841 353.667 112.234 360.103 128.033 372.976Z" fill="#E8EBF2"/>
<path d="M103.1 366.412C125.569 378.583 114.413 402.69 106.026 413.223H89.0567C89.0567 403.86 84.9608 404.446 76.7689 394.499C68.577 384.552 86.1311 382.796 63.8959 366.412C41.6608 350.028 49.8527 337.156 49.2676 327.794C48.6824 318.431 32.2986 324.282 22.3513 300.292C12.4041 276.301 44.5865 275.131 57.4594 295.025C70.3324 314.92 71.5027 312.579 89.0567 326.038C106.611 339.496 75.0136 351.198 103.1 366.412Z" fill="#3D58FF"/>
<path d="M103.1 366.412C125.569 378.583 114.413 402.69 106.026 413.223H89.0567C89.0567 403.86 84.9608 404.446 76.7689 394.499C68.577 384.552 86.1311 382.796 63.8959 366.412C41.6608 350.028 49.8527 337.156 49.2676 327.794C48.6824 318.431 32.2986 324.282 22.3513 300.292C12.4041 276.301 44.5865 275.131 57.4594 295.025C70.3324 314.92 71.5027 312.579 89.0567 326.038C106.611 339.496 75.0136 351.198 103.1 366.412Z" fill="#EFF2FA"/>
<path fill-rule="evenodd" clip-rule="evenodd" d="M98.8739 413.22C102.493 400.359 105.972 380.336 97.6015 378.243C85.8988 375.318 74.1963 360.689 78.2923 347.231C82.3882 333.773 67.7599 320.9 56.0572 317.974C45.0677 315.227 26.8545 291.324 26.1288 282.606C34.3709 278.535 49.5523 282.809 57.4555 295.023C67.386 310.37 70.3523 312.485 79.248 318.829C81.8839 320.708 85.0403 322.959 89.0528 326.035C96.945 332.086 94.902 337.782 92.8146 343.601C90.2592 350.726 87.6372 358.036 103.096 366.409C125.565 378.58 114.409 402.688 106.022 413.22H98.8739Z" fill="#E8EBF2"/>
<path d="M374.56 350.709C394.433 355.217 426.136 404.805 428.975 413.821H205.162C206.424 409.313 210.746 398.043 217.938 389.027C224.089 381.138 221.723 369.305 222.67 358.598C223.616 347.892 237.811 341.693 248.221 334.368C252.48 329.86 262.89 324.226 272.826 319.718C282.763 315.21 288.441 314.083 299.798 319.718C311.154 325.353 313.047 321.971 321.091 321.971C326.769 321.408 339.544 327.043 348.062 334.368C356.579 341.693 354.686 346.201 374.56 350.709Z" fill="#EFF2FA"/>
<path fill-rule="evenodd" clip-rule="evenodd" d="M360.159 345.931C357.304 351.22 353.538 358.405 352.633 360.912C351.779 363.276 351.95 365.235 352.223 368.368C352.405 370.458 352.633 373.069 352.633 376.671C352.633 380.32 354.19 383.137 355.411 385.347C357.204 388.592 358.274 390.528 352.633 391.868C343.149 394.119 354.53 402.561 363.065 404.812C369.17 406.423 371.151 405.729 372.652 405.204C373.249 404.995 373.77 404.812 374.445 404.812C375.011 404.812 376.035 404.492 377.35 404.081C381.55 402.768 388.718 400.527 393.412 404.812C399.577 410.441 400.051 413.255 396.732 413.255H389.145C387.964 413.255 386.929 413.169 385.717 413.068C382.549 412.804 378.177 412.441 366.858 413.255C364.557 413.42 362.368 413.61 360.304 413.819H334.908C333.846 411.097 333.64 407.657 336.037 404.812C336.777 403.934 337.431 403.215 337.996 402.593L337.997 402.591L337.997 402.591C341.417 398.829 341.595 398.632 337.933 388.491C337.044 386.028 336.134 383.858 335.316 381.906C332.204 374.487 330.406 370.199 336.037 364.852C340.582 360.536 340.867 358.978 341.347 356.36C341.618 354.881 341.951 353.063 343.149 350.218C346.917 344.405 348.739 340.279 349.893 337.665C350.044 337.324 350.183 337.009 350.314 336.719C351.384 337.801 352.275 338.819 353.119 339.784C355.129 342.082 356.876 344.078 360.159 345.931ZM322.604 322.077C327.649 322.471 335.932 325.949 343.014 330.755C341.218 333.897 337.516 341.136 336.037 346.841C334.685 352.056 332.611 351.553 329.642 350.834C328.446 350.544 327.103 350.218 325.605 350.218C321.761 350.218 321.265 351.441 318.993 357.039L318.993 357.04C318.181 359.038 317.144 361.594 315.647 364.852C311.095 374.758 303.318 374.983 299.999 373.857C302.212 373.294 306.638 371.606 306.638 369.354V350.218C306.638 341.544 307.471 341.967 309.137 342.812C310.281 343.393 311.819 344.173 313.75 342.339C316.317 339.901 316.661 339.278 317.038 338.594C317.357 338.015 317.701 337.392 319.44 335.585C322.352 332.561 318.512 325.839 315.962 322.483C317.388 322.268 318.952 322.079 320.862 322.079C320.867 322.078 320.873 322.078 320.879 322.077H322.604ZM212.414 396.447C213.906 393.937 215.599 391.418 217.491 389.055C221.929 383.382 221.943 375.665 221.956 367.797C221.962 364.738 221.967 361.656 222.232 358.663C222.977 350.264 231.912 344.642 240.767 339.071C241.368 338.693 241.969 338.315 242.567 337.936C240.72 343.959 239.766 351.07 243.098 354.721C246.168 358.085 248.414 359.075 250.482 359.987C252.566 360.905 254.469 361.744 256.849 364.852C260.642 363.726 268.988 362.15 272.022 364.852C275.816 368.229 281.98 373.294 284.825 372.169C287.671 371.043 292.886 372.731 293.36 373.294C293.74 373.745 295.731 375.733 296.68 376.671C291.148 378.36 278.945 380.498 274.393 375.546C269.841 370.593 262.065 377.618 258.745 381.75C256.849 385.557 256.849 387.128 256.849 389.616C256.849 392.993 282.929 403.687 287.671 394.119C292.412 384.551 296.68 384.551 303.319 391.868C304.898 393.608 307.633 394.91 310.698 396.37C317.279 399.502 325.377 403.358 326.807 413.819H267.993C267.76 413.634 267.522 413.446 267.281 413.255C232.115 395.291 230.379 396.175 226.376 398.213C226.114 398.346 225.843 398.484 225.553 398.621C224.368 399.184 223.538 399.747 222.864 400.204C220.841 401.576 220.219 401.998 215.595 398.621C214.434 397.773 213.373 397.065 212.414 396.447Z" fill="#E8EBF2"/>
<path d="M197.949 390.125C210.303 357.128 234.307 290.265 234.307 279.183C234.307 267.992 228.867 250.429 226.147 243.047L191.759 253.538C194.091 258.783 198.52 271.49 197.588 280.349C197.427 281.871 197.223 284.197 196.964 287.146C195.856 299.764 193.747 323.779 189.807 344.953L178.671 386.578C171.314 390.299 167.536 401.583 167.657 409.486C167.692 411.738 169.454 413.461 171.653 413.956L209.283 422.432C217.364 424.252 225.836 422.412 232.435 417.404C232.55 417.317 232.628 417.184 232.649 417.041C233.746 409.62 228.838 408.697 216.822 406.449C207.112 404.634 200.032 395.37 197.707 390.966L197.949 390.125Z" fill="#F3956C"/>
<mask id="mask0" mask-type="alpha" maskUnits="userSpaceOnUse" x="165" y="339" width="83" height="89">
<path d="M197.658 390.978L213.906 346.792L190.055 343.857L178.623 386.591C171.255 390.317 167.477 401.629 167.609 409.534C167.647 411.768 169.387 413.481 171.562 413.992L214.462 424.051L219.954 424.115C225.518 424.181 230.641 421.097 233.187 416.15C233.201 416.123 233.211 416.092 233.216 416.061C234.416 408.48 228.886 408.727 216.774 406.462C207.063 404.646 199.984 395.383 197.658 390.978Z" fill="#6E4B40"/>
</mask>
<g mask="url(#mask0)">
<path d="M192.176 392.039C193.628 378.74 185.119 373.042 180.684 371.854L183.103 382.543C185.523 391.249 190.724 405.338 192.176 392.039Z" fill="#ED8961"/>
<path d="M200.5 385.259C193.972 381.062 190.397 385.065 189.426 387.591L190.591 395.168L203.997 398.665C205.551 395.945 207.028 389.457 200.5 385.259Z" fill="white"/>
<path d="M189.864 383.572C188.415 378.713 183.223 375.29 180.808 374.186L177.186 389.647L191.072 395.168C191.273 393.327 191.313 388.431 189.864 383.572Z" fill="#EC8424"/>
<path d="M203.387 397.968C196.24 395.705 176.613 385.516 174.923 384.487L167.681 389.244L159.193 411.098L223.946 430.762L242.306 412.509L203.387 397.968Z" fill="#FF9D43"/>
<path d="M214.19 410.34C204.014 409.931 192.924 398.668 191.176 392.839L202.684 397.539L225.137 401.084C225.728 404.339 224.365 410.748 214.19 410.34Z" fill="white"/>
<path d="M176.582 411.074C182.878 399.949 170.499 390.959 169.795 390.53L165.562 410.151C167.137 414.167 171.546 419.974 176.582 411.074Z" fill="#EC8424"/>
<path d="M207.069 418.065C202.636 404.747 245.026 386.657 246.159 386.382L242.801 402.192L233.163 426.724C228.652 428.549 220.381 430.287 214.855 426.971L214.076 427.16L203.193 426.803L165.392 414.391C165.047 409.677 164.308 399.059 166.315 403.37C168.321 407.682 193.473 414.769 207.069 418.065Z" fill="#262626"/>
<path fill-rule="evenodd" clip-rule="evenodd" d="M199.71 395.819C201.929 395.665 203.882 395.938 205.128 396.697C205.678 397.032 205.852 397.749 205.517 398.299C205.182 398.849 204.465 399.023 203.915 398.688C203.284 398.304 201.918 398.003 199.871 398.145C197.877 398.283 195.392 398.833 192.659 399.959C192.063 400.204 191.382 399.921 191.137 399.325C190.891 398.73 191.175 398.049 191.77 397.803C194.708 396.593 197.438 395.977 199.71 395.819ZM209.621 401.439C209.631 401.438 209.632 401.437 209.629 401.438C210.255 401.286 210.885 401.67 211.037 402.296C211.189 402.921 210.805 403.552 210.179 403.704C210.04 403.737 209.868 403.759 209.751 403.774C209.743 403.775 209.734 403.776 209.726 403.777L209.71 403.779C209.567 403.797 209.407 403.817 209.218 403.847C208.831 403.909 208.317 404.012 207.686 404.212C206.427 404.611 204.658 405.408 202.489 407.079C201.979 407.472 201.247 407.377 200.855 406.867C200.462 406.357 200.557 405.625 201.067 405.232C203.445 403.4 205.456 402.473 206.982 401.99C207.744 401.748 208.373 401.621 208.852 401.545C209.078 401.509 209.269 401.485 209.411 401.467L209.432 401.464C209.549 401.449 209.601 401.442 209.621 401.439Z" fill="black"/>
</g>
<path d="M338.051 364.279C338.051 367.82 322.133 370.69 302.497 370.69C282.861 370.69 266.943 367.82 266.943 364.279C266.943 360.738 282.861 357.867 302.497 357.867C322.133 357.867 338.051 360.738 338.051 364.279Z" fill="#E8EBF2"/>
<path fill-rule="evenodd" clip-rule="evenodd" d="M290.258 201.082C296.087 200.305 308.443 201.082 311.241 210.408C314.038 219.733 300.75 296.669 293.755 333.971L293.578 333.949L293.497 335.128C296.698 338.944 305.57 346.508 315.444 346.238C327.78 345.901 331.458 348.328 331.866 356.034C331.866 356.04 331.866 356.047 331.866 356.054C331.865 356.057 331.865 356.06 331.865 356.063C331.359 361.043 327.091 364.784 322.088 364.635L272.785 363.163C270.576 363.097 268.547 361.794 268.041 359.643C266.23 351.945 267.533 340.054 273.964 334.848L276.139 290.666L276.171 290.664C277.416 266.547 279.233 242.008 281.516 234.304L272.19 228.476L290.258 201.082Z" fill="#F3956C"/>
<mask id="mask1" mask-type="alpha" maskUnits="userSpaceOnUse" x="267" y="289" width="66" height="76">
<path d="M315.399 346.26C305.524 346.53 296.653 338.965 293.451 335.149L297.833 312.989L296.596 289.504L276.094 290.687L273.919 334.87C267.488 340.075 266.185 351.966 267.995 359.664C268.501 361.815 270.53 363.118 272.739 363.184L322.042 364.656C327.045 364.806 331.313 361.064 331.819 356.084C331.82 356.074 331.821 356.064 331.82 356.055C331.412 348.349 327.734 345.922 315.399 346.26Z" fill="#6E4B40"/>
</mask>
<g mask="url(#mask1)">
<path d="M274.518 321.886C290.371 323.75 290.838 337.039 289.089 343.451L279.764 343.451C271.41 335.486 258.665 320.021 274.518 321.886Z" fill="#EB865F"/>
<path d="M297.07 328.325C285.09 324.061 282.695 338.983 282.096 339.515L299.466 342.714C302.661 339.339 306.654 331.736 297.07 328.325Z" fill="white"/>
<path d="M287.861 340.643C289.066 324.195 272.81 323.33 271.605 322.897L271.605 338.478C276.623 344.683 286.898 353.801 287.861 340.643Z" fill="#EC8424"/>
<path d="M300.525 340.775C293.061 340.068 271.728 334.242 269.86 333.592L263.782 339.768L260.087 362.92L327.53 368.504L341.633 346.793L300.525 340.775Z" fill="#FF9D43"/>
<path d="M313.689 350.595C303.656 352.339 295.52 343.808 287.342 338.052L299.746 340.505L322.442 339.241C323.705 342.299 323.722 348.851 313.689 350.595Z" fill="white"/>
<path d="M277.079 359.234C280.89 347.032 266.895 340.852 266.117 340.581L266.112 360.653C268.498 364.247 274.031 368.995 277.079 359.234Z" fill="#EC8424"/>
<path d="M308.356 359.647C301.217 347.561 338.846 320.949 339.896 320.441L339.943 336.605L335.689 362.616C331.663 365.35 323.944 368.791 317.842 366.713L317.121 367.062L306.407 369.006L266.84 364.834C265.509 360.298 262.551 350.074 265.42 353.866C268.29 357.658 294.371 359.288 308.356 359.647Z" fill="#262626"/>
<path fill-rule="evenodd" clip-rule="evenodd" d="M296.476 339.45C298.614 338.832 300.58 338.687 301.958 339.167C302.566 339.379 302.887 340.043 302.676 340.651C302.464 341.259 301.8 341.581 301.192 341.369C300.494 341.126 299.095 341.12 297.124 341.69C295.203 342.245 292.89 343.306 290.456 344.982C289.925 345.347 289.199 345.213 288.834 344.683C288.469 344.153 288.603 343.427 289.133 343.062C291.75 341.26 294.289 340.083 296.476 339.45ZM307.349 342.856C307.358 342.853 307.36 342.852 307.357 342.854C307.937 342.573 308.634 342.816 308.914 343.396C309.194 343.975 308.952 344.672 308.372 344.953C308.243 345.015 308.079 345.073 307.968 345.111C307.96 345.114 307.952 345.117 307.944 345.12L307.929 345.125C307.793 345.173 307.641 345.227 307.462 345.296C307.097 345.438 306.616 345.647 306.042 345.975C304.895 346.63 303.334 347.781 301.565 349.872C301.15 350.363 300.414 350.425 299.923 350.009C299.431 349.593 299.37 348.858 299.786 348.366C301.725 346.074 303.495 344.744 304.885 343.95C305.579 343.554 306.168 343.297 306.62 343.122C306.833 343.039 307.015 342.975 307.15 342.928L307.17 342.921C307.28 342.882 307.33 342.863 307.349 342.856Z" fill="black"/>
</g>
<path d="M300.166 201.082L238.967 192.339L205.162 205.162L216.819 229.641L278.018 241.298C276.852 224.978 292.2 207.299 300.166 201.082Z" fill="#262626"/>
<mask id="mask2" mask-type="alpha" maskUnits="userSpaceOnUse" x="205" y="192" width="96" height="50">
<path d="M300.166 201.082L238.967 192.339L205.162 205.162L216.819 229.641L278.018 241.298C276.852 224.978 292.2 207.299 300.166 201.082Z" fill="#262626"/>
</mask>
<g mask="url(#mask2)">
<path d="M236.052 212.155C233.721 208.891 224.978 214.292 220.898 217.401C221.87 222.841 223.929 233.837 224.396 234.304C224.862 234.77 239.355 243.435 246.544 247.709C252.372 245.961 264.262 241.997 265.195 240.132C265.195 238.966 258.201 234.887 257.035 234.887C255.869 234.887 248.875 234.304 251.789 229.641C254.704 224.978 252.955 225.561 248.875 222.064C244.795 218.567 248.292 220.898 241.881 218.567C235.47 216.235 238.967 216.235 236.052 212.155Z" fill="#1A1A1A"/>
<path d="M262.281 201.664C255.286 202.247 257.035 197.584 255.286 192.922C267.526 192.533 293.404 192.106 299 193.504C304.595 194.903 307.548 197.196 308.325 198.167C306.771 198.944 302.847 201.198 299.583 203.996C295.503 207.493 298.417 210.99 297.251 213.904C296.086 216.818 294.92 219.733 292.006 224.978C289.091 230.224 290.84 226.144 283.263 229.641C275.686 233.138 276.852 230.807 275.686 229.641C274.52 228.475 275.686 227.31 275.686 223.812C275.686 221.481 271.606 222.064 268.109 220.315C264.612 218.567 264.029 215.07 264.612 212.738C265.195 210.407 268.109 208.076 269.275 205.744C270.44 203.413 269.275 201.081 262.281 201.664Z" fill="#1A1A1A"/>
<path d="M241.298 221.481C241.298 217.285 244.795 214.293 246.544 213.321C248.875 210.602 254.47 204.812 258.2 203.413C262.863 201.665 262.28 203.413 265.777 205.744C268.109 207.493 265.777 208.659 263.446 210.99C261.115 213.321 260.532 213.904 260.532 215.07C260.532 216.236 261.115 215.653 261.115 218.567C261.115 221.481 259.366 224.396 258.2 226.727C257.035 229.058 256.452 226.144 255.869 226.144C255.286 226.144 251.206 225.561 250.041 226.144C248.875 226.727 248.292 229.058 244.795 228.475C241.298 227.893 241.298 226.727 241.298 221.481Z" fill="#423B3B"/>
<path d="M275.686 201.665C272.772 199.916 273.937 197.585 273.937 196.419C277.93 196.419 283.96 196.347 288.134 196.123C289.057 195.211 290.7 194.498 292.588 195.253C293.625 195.668 291.474 195.944 288.134 196.123C287.632 196.619 287.343 197.174 287.343 197.585C287.343 198.75 287.343 199.333 287.926 201.082C288.508 202.83 288.508 203.413 287.343 206.327C286.177 209.242 283.846 210.407 280.931 210.407C278.017 210.407 279.183 208.076 280.349 205.744C281.514 203.413 278.6 203.413 275.686 201.665Z" fill="#423B3B"/>
<path d="M265.777 234.305C265.311 234.305 263.64 238.191 262.863 240.133L278.6 243.048L276.269 240.133L278.6 235.471C279.766 233.139 278.017 233.722 277.434 232.556C276.852 231.391 275.686 231.391 273.354 232.556C271.023 233.722 272.772 233.139 272.189 233.722L270.44 235.471C269.275 236.636 268.109 234.888 265.777 234.305Z" fill="#423B3B"/>
<path d="M229.058 216.82C226.727 216.353 224.59 222.065 223.812 224.979C226.532 228.477 232.205 235.238 233.138 234.305C234.304 233.139 234.304 233.722 235.469 232.556C236.635 231.391 237.218 229.059 236.635 228.475C236.052 227.892 231.972 225.562 231.39 224.397C230.807 223.231 232.555 222.648 231.972 219.734C231.39 216.82 231.972 217.402 229.058 216.82Z" fill="#423B3B"/>
</g>
<path d="M191.174 267.526L167.277 223.23L217.985 205.745C222.065 216.43 233.491 239.815 237.802 251.789C243.047 266.361 240.327 277.823 237.802 283.846L192.34 286.76L191.174 267.526Z" fill="#373232"/>
<mask id="mask3" mask-type="alpha" maskUnits="userSpaceOnUse" x="167" y="205" width="74" height="82">
<path d="M191.174 267.526L167.277 223.23L217.985 205.745C222.065 216.43 233.491 239.815 237.802 251.789C243.047 266.361 240.327 277.823 237.802 283.846L192.34 286.76L191.174 267.526Z" fill="#373232"/>
</mask>
<g mask="url(#mask3)">
<path d="M210.407 228.476C204.578 225.561 209.824 210.407 210.407 208.659L218.567 203.413L227.893 213.905C233.138 222.647 243.629 240.715 243.629 243.047C243.629 245.961 241.881 247.127 240.715 248.875C239.549 250.624 240.132 250.041 237.218 252.372C234.304 254.704 234.304 251.79 231.972 250.041C229.641 248.292 231.39 247.71 229.058 244.795C226.727 241.881 224.978 246.544 220.316 247.71C215.653 248.875 215.07 246.544 214.487 245.378C213.904 244.213 215.07 243.047 216.818 236.053C218.567 229.059 216.235 231.39 210.407 228.476Z" fill="#1A1A1A"/>
<path d="M190.008 248.875C186.51 247.71 183.013 255.287 183.013 255.869L189.425 292.589C197.585 291.229 214.254 288.276 215.653 287.343C217.401 286.177 217.401 285.012 219.733 282.098C222.064 279.183 220.316 280.349 217.401 278.018C214.487 275.686 213.321 275.103 211.573 272.189C209.824 269.275 212.156 269.858 212.739 268.109C213.321 266.361 212.739 266.361 203.413 259.367C196.419 258.784 199.916 257.035 198.167 255.869C196.419 254.704 197.002 254.704 195.253 252.372C193.505 250.041 193.505 250.041 190.008 248.875Z" fill="#1A1A1A"/>
<path d="M230.224 259.949C233.954 257.618 238.772 258.201 240.715 258.784L242.464 285.012C239.161 285.789 232.322 287.343 231.39 287.343C230.224 287.343 226.727 286.76 224.978 285.012C223.23 283.263 223.813 282.68 223.813 282.098C223.813 281.515 224.395 278.6 227.893 274.521C231.39 270.441 227.893 272.189 225.561 269.275C224.395 267.526 224.978 268.109 223.813 265.195C222.647 262.281 225.561 262.864 230.224 259.949Z" fill="#1A1A1A"/>
<path d="M184.762 231.973C182.431 231.04 177.185 236.247 174.854 238.967L178.933 250.624C179.711 249.652 181.615 247.476 183.013 246.544C184.762 245.378 184.762 244.213 188.259 241.881C191.756 239.55 190.008 241.881 192.922 244.795C194.67 247.127 199.916 244.795 201.664 243.047C203.413 241.298 201.082 240.715 199.333 237.218C197.585 233.721 195.253 236.636 191.173 234.887C187.093 233.138 187.676 233.138 184.762 231.973Z" fill="#1A1A1A"/>
<path fill-rule="evenodd" clip-rule="evenodd" d="M212.469 226.602C210.914 226.336 207.828 225.808 206.911 226.726C205.746 227.891 205.745 227.893 205.164 229.055L205.162 229.058C204.991 229.4 204.871 229.591 204.771 229.75C204.529 230.133 204.409 230.324 203.996 231.973C203.76 232.92 204.1 233.579 204.392 234.144C204.82 234.97 205.144 235.597 203.414 236.635C201.631 237.705 202.247 238.556 202.994 239.589C203.469 240.246 203.996 240.975 203.996 241.881C203.996 244.212 204.579 245.378 205.162 246.544C205.745 247.71 210.408 251.207 212.157 248.875C213.414 247.198 214.069 246.728 214.554 246.379C214.744 246.242 214.907 246.125 215.071 245.961C215.199 245.833 215.497 245.648 215.896 245.4C217.309 244.523 219.99 242.86 220.899 240.133C221.525 238.257 219.802 238.058 217.8 237.827C216.07 237.627 214.132 237.404 213.322 236.053C211.574 233.138 212.739 231.973 213.905 230.807C214.838 229.874 216.237 229.253 216.819 229.058C217.402 229.253 218.218 229.292 216.819 227.893C215.421 226.494 213.905 226.532 213.322 226.726C213.198 226.726 212.889 226.673 212.469 226.602ZM193.506 235.47C194.745 232.991 193.642 232.269 192.687 231.644C192.295 231.387 191.927 231.147 191.757 230.807L178.352 238.967L178.934 247.71C179.906 248.098 182.315 248.759 184.18 248.292C186.152 247.8 186.039 247.307 185.605 245.404C185.526 245.056 185.436 244.662 185.346 244.212C184.824 241.602 185.705 241.33 187.15 240.883C187.319 240.831 187.495 240.776 187.677 240.715C188.843 240.715 190.009 240.133 191.174 239.55C191.892 239.191 191.947 239.053 192.292 238.183C192.507 237.64 192.834 236.813 193.506 235.47ZM226.694 251.193C225.366 251.538 224.806 251.683 222.648 254.704C220.999 257.012 221.03 258.201 221.05 259.009C221.066 259.63 221.076 260.026 220.317 260.532C219.064 261.367 218.709 261.604 218.394 261.886C218.269 261.997 218.151 262.115 217.986 262.28L217.986 262.28L217.986 262.28L217.985 262.281L217.985 262.281C217.402 262.864 217.402 264.612 218.568 265.778C218.851 266.061 219.134 266.446 219.425 266.844C220.334 268.083 221.324 269.433 222.648 268.109C223.999 267.029 224.348 265.948 224.566 265.274C224.818 264.493 224.894 264.257 226.145 265.195C227.922 266.464 228.704 267.512 229.213 268.195C229.873 269.079 230.075 269.35 231.391 268.692C233.404 267.686 233.679 267.114 234.466 265.476L234.466 265.476C234.591 265.217 234.729 264.931 234.888 264.612C235.179 264.029 235.398 263.629 235.562 263.328C235.779 262.929 235.901 262.707 235.968 262.469C236.054 262.169 236.054 261.846 236.054 261.115C234.56 258.426 233.219 257.422 232.345 256.767C231.515 256.146 231.107 255.84 231.391 254.704C231.857 252.839 230.031 251.207 229.059 250.624H228.477C227.72 250.927 227.159 251.072 226.694 251.193ZM208.077 257.035C204.58 255.869 203.414 256.452 202.248 262.281C201.082 268.109 199.334 272.189 197.585 272.189C195.837 272.189 192.922 272.772 194.671 276.269C196.42 279.766 198.169 282.097 200.5 281.515C201.002 281.389 201.504 281.318 201.995 281.248L201.995 281.248C203.782 280.994 205.414 280.761 206.328 278.018C206.717 276.852 206.976 276.204 207.149 275.773C207.279 275.446 207.361 275.243 207.411 275.032C207.494 274.686 207.494 274.321 207.494 273.355C207.494 272.9 207.472 272.533 207.453 272.23C207.378 270.979 207.366 270.796 209.243 269.858C211.574 268.692 212.74 267.526 213.323 266.943C214.488 264.612 214.488 264.029 213.905 262.281C213.676 261.899 213.444 261.47 213.203 261.026L213.203 261.025L213.203 261.025C211.973 258.754 210.514 256.06 208.077 257.035ZM238.803 273.449C236.73 273.357 235.105 273.285 234.305 275.686C233.985 276.645 233.797 277.472 233.644 278.144C233.24 279.923 233.083 280.612 231.391 279.766C229.059 278.6 227.31 279.766 226.728 281.515C226.505 282.183 226.197 282.851 225.935 283.421L225.935 283.421C225.509 284.344 225.202 285.012 225.562 285.012C226.029 285.012 232.751 286.566 236.054 287.343L244.796 282.097L241.882 273.355C240.786 273.537 239.748 273.491 238.803 273.449Z" fill="#645A5A"/>
</g>
<path fill-rule="evenodd" clip-rule="evenodd" d="M167.463 221.625L176.447 239.851C179.858 240.605 184.568 239.724 190.531 236.951C197.731 233.603 197.202 226.337 195.283 221.076L167.101 220.226L167.463 221.625Z" fill="#262626"/>
<path fill-rule="evenodd" clip-rule="evenodd" d="M282.914 52.1193C283.269 47.7042 283.254 41.18 281.175 39.4475C278.404 37.1382 286.53 32.3141 289.96 39.0478C292.025 37.3479 294.508 36.4805 297.462 36.9025C311.713 38.9384 310.186 55.2257 296.444 63.3692C296.256 63.6282 296.035 63.9113 295.798 64.2167C294.322 66.112 292.18 68.8649 292.881 72.0209C293.696 75.6855 285.925 73.4296 281.684 70.8251C280.786 70.5268 280.933 69.298 281.125 67.6791C281.278 66.3975 281.459 64.8715 281.175 63.3692C281.336 60.0474 281.882 56.0218 282.914 52.1193Z" fill="#F3956C"/>
<path d="M285.236 37.907C286.861 35.4383 289.637 37.5641 290.821 38.9356C297.083 40.8213 308.693 45.9299 305.037 51.2787C300.468 57.9647 293.36 60.5362 289.298 60.0219C285.236 59.5076 286.252 55.3931 287.267 51.793C288.283 48.1929 283.205 40.9928 285.236 37.907Z" fill="#E37651"/>
<path d="M285.236 37.907C286.861 35.4383 289.637 37.5641 290.821 38.9356C297.083 40.8213 308.693 45.9299 305.037 51.2787C300.468 57.9647 293.36 60.5362 289.298 60.0219C285.236 59.5076 286.252 55.3931 287.267 51.793C288.283 48.1929 283.205 40.9928 285.236 37.907Z" fill="url(#paint0_linear)"/>
<path d="M353.994 32.9166L228.462 44.4973L229.954 53.2504L350.147 51.7332C355.949 52.2971 359.015 50.8733 360.065 40.072C360.904 31.4309 356.563 32.5925 353.994 32.9166Z" fill="#EFA641"/>
<path fill-rule="evenodd" clip-rule="evenodd" d="M329.155 51.9962C331.321 45.0987 330.407 38.7035 329.296 35.1932L328.106 35.3029C329.204 38.5998 330.217 45.0621 327.925 52.0117L329.155 51.9962ZM325.803 52.0385C326.766 49.5473 327.059 46.3528 327.029 43.2589C327.002 40.473 326.71 37.7 326.36 35.464L325.197 35.5713C325.544 37.7697 325.836 40.5165 325.863 43.2703C325.896 46.5564 325.547 49.7558 324.536 52.0545L325.803 52.0385ZM266.99 52.7809C267.983 50.9417 268.31 48.5932 268.325 46.3851C268.338 44.3515 268.087 42.3663 267.79 40.8672L266.623 40.9749C266.916 42.4167 267.172 44.3759 267.159 46.3774C267.143 48.7991 266.732 51.1769 265.616 52.7982L266.99 52.7809ZM263.838 52.8206C264.987 51.0417 265.33 48.8236 265.288 46.7289C265.247 44.6913 264.84 42.6972 264.384 41.1815L263.198 41.2909C263.655 42.7418 264.082 44.7314 264.123 46.7525C264.169 49.0431 263.719 51.2718 262.374 52.8391L263.838 52.8206Z" fill="#EE8F0D"/>
<path d="M239.874 50.761C249.217 50.8688 352.207 49.1486 355.329 46.4577C358.45 43.7668 358.967 36.7917 358.063 33.2181C358.042 33.1344 358.026 33.0566 358.017 32.9845C359.475 33.6206 360.515 35.4351 360.065 40.0706C359.015 50.872 355.949 52.2957 350.147 51.7319L229.954 53.249L228.462 44.4959L232.132 44.1574C231.752 46.5479 232.805 50.6794 239.874 50.761Z" fill="#EE8F0D"/>
<path d="M241.623 109.045C237.543 103.799 225.886 102.633 222.389 100.885L234.046 142.267C240.845 145.181 255.494 150.193 259.691 146.93C264.936 142.85 278.925 113.124 284.753 102.633C293.245 87.3483 299.713 69.7996 299.324 61.2511C294.195 62.65 286.307 60.2797 282.422 56.5884C278.342 57.1712 270.765 70.5767 259.691 86.3135C254.508 93.6781 248.034 104.965 241.623 109.045Z" fill="#3146CC"/>
<path fill-rule="evenodd" clip-rule="evenodd" d="M254.364 122.223C253.147 123.834 252.001 125.115 250.994 125.762C249.027 127.027 246.709 127.183 244.39 126.731C242.078 126.28 239.66 125.207 237.349 123.866C232.726 121.183 228.299 117.287 225.628 114.516L227.306 112.898C229.88 115.567 234.138 119.307 238.52 121.85C240.712 123.122 242.876 124.06 244.837 124.442C246.791 124.823 248.437 124.634 249.733 123.801C250.359 123.399 251.292 122.423 252.503 120.818C253.685 119.251 255.051 117.197 256.552 114.767C259.552 109.909 263.05 103.618 266.645 96.8686C271.812 87.1704 277.154 76.5735 281.486 67.9809C283.185 64.6116 284.728 61.5504 286.045 58.9724L288.121 60.0327C286.814 62.5928 285.277 65.6417 283.582 69.0026C279.247 77.6011 273.883 88.2417 268.703 97.9647C265.1 104.728 261.575 111.07 258.535 115.992C257.016 118.451 255.608 120.574 254.364 122.223ZM272.258 103.245C280.246 88.453 288.659 71.423 293.613 61.3207L295.707 62.3472C290.752 72.4502 282.321 89.5167 274.31 104.353C270.305 111.768 266.395 118.647 263.069 123.827C261.407 126.414 259.876 128.602 258.54 130.228C257.872 131.04 257.237 131.732 256.644 132.268C256.068 132.79 255.458 133.234 254.836 133.456C252.966 134.124 250.467 134.216 247.773 134.003C245.047 133.788 241.985 133.247 238.914 132.548C232.771 131.149 226.483 129.092 222.561 127.621L223.379 125.438C227.228 126.882 233.413 128.905 239.432 130.275C242.442 130.96 245.384 131.476 247.957 131.679C250.562 131.885 252.657 131.758 254.051 131.261C254.245 131.191 254.586 130.987 255.08 130.54C255.557 130.107 256.112 129.51 256.739 128.747C257.991 127.223 259.466 125.122 261.107 122.567C264.385 117.462 268.263 110.644 272.258 103.245Z" fill="white"/>
<path d="M231.713 221.534C226.118 213.141 225.108 190.255 225.302 179.569L219.474 128.279L208.982 96.805C210.148 94.2794 215.044 91.7925 225.302 102.051C238.125 114.873 236.959 121.285 239.873 162.667C242.04 193.439 258.14 201.752 268.981 202.77C269.807 202.74 270.603 202.781 271.347 202.883C270.594 202.883 269.802 202.848 268.981 202.77C265.058 202.914 260.44 204.673 257.359 209.294C253.628 214.89 238.707 219.591 231.713 221.534Z" fill="#3D58FF"/>
<path d="M231.713 221.534C226.118 213.141 225.108 190.255 225.302 179.569L219.474 128.279L208.982 96.805C210.148 94.2794 215.044 91.7925 225.302 102.051C238.125 114.873 236.959 121.285 239.873 162.667C242.205 195.772 273.095 199.969 272.513 202.883C272.513 202.883 261.089 203.699 257.359 209.294C253.628 214.89 238.707 219.591 231.713 221.534Z" fill="#3D58FF"/>
<path fill-rule="evenodd" clip-rule="evenodd" d="M229.059 215.558C229.801 217.933 230.679 219.981 231.714 221.533C238.708 219.591 253.629 214.889 257.359 209.294C261.089 203.699 272.513 202.882 272.513 202.882C272.653 202.184 270.984 201.412 268.334 200.185C267.178 199.65 265.836 199.029 264.376 198.291C262.728 200.489 259.7 202.879 254.445 204.631C245.504 207.611 234.586 212.763 229.059 215.558Z" fill="#3146CC"/>
<path fill-rule="evenodd" clip-rule="evenodd" d="M225.304 179.57C225.109 190.255 226.119 213.142 231.715 221.535C234.285 220.821 237.925 219.734 241.687 218.368C229.273 211.354 225.343 138.517 228.217 120.119C229.447 112.253 228.246 106.741 226.323 103.088C225.993 102.747 225.654 102.401 225.304 102.051C221.778 98.5258 218.886 96.5056 216.561 95.4751V106.714L218.05 124.004L219.475 128.279L225.304 179.57Z" fill="#526AFF"/>
<path d="M195.577 81.0676C183.453 79.6687 177.314 84.7589 175.76 87.4789L181.588 92.7248C197.442 88.5283 217.725 97.5819 225.885 102.633C229.148 98.903 228.41 92.142 227.633 89.2278C220.639 89.8106 210.731 82.8161 195.577 81.0676Z" fill="#3146CC"/>
<path d="M211.897 89.8108C209.753 84.6001 211.945 78.8636 213.955 77.8767C206.809 71.9554 193.052 61.6525 195.196 67.8106C197.34 73.9687 192.069 86.1664 189.166 91.4956C196.312 96.8247 210.622 103.651 217.306 102.154C222.971 100.885 214.577 96.3241 211.897 89.8108Z" fill="#E37651"/>
<path d="M222.388 107.296C221.922 102.167 218.308 98.1649 216.559 96.8049L203.154 101.468L194.994 212.208C195.771 214.734 199.307 218.853 207.234 215.123C216.559 210.46 228.799 212.791 227.051 205.214C225.302 197.637 222.971 113.707 222.388 107.296Z" fill="white"/>
<path d="M216.559 96.8049C212.479 100.885 203.737 97.9706 203.154 97.3878C201.988 99.5249 201.172 103.916 207.234 104.382C213.295 104.848 218.308 101.856 220.056 100.302L216.559 96.8049Z" fill="#DCE7F1"/>
<path d="M175.76 87.4798L179.84 100.302C194.761 97.5051 203.931 106.908 206.651 111.959L212.479 96.222C206.651 95.0563 199.656 89.2283 193.245 86.8969C188.116 85.0318 179.451 86.5084 175.76 87.4798Z" fill="#3D58FF"/>
<path d="M234.045 50.1772C229.848 49.7109 229.965 38.7149 230.548 33.2752C230.203 31.6067 229.791 30.0545 229.317 28.6119C227.202 27.4462 221.106 24.6485 213.645 22.7834C206.185 20.9183 183.143 27.2522 176.926 31.5266L179.257 65.3312C182.56 67.6626 199.307 76.755 209.565 80.4852C222.388 85.1479 232.879 79.9023 232.879 74.0739C232.879 68.2454 233.462 61.2513 235.793 58.337C238.125 55.4228 239.29 50.76 234.045 50.1772Z" fill="#F3956C"/>
<mask id="mask4" mask-type="alpha" maskUnits="userSpaceOnUse" x="176" y="22" width="62" height="61">
<path d="M234.045 50.1772C229.848 49.7109 229.965 38.7149 230.548 33.2752C230.203 31.6067 229.791 30.0545 229.317 28.6119C227.202 27.4462 221.106 24.6485 213.645 22.7834C206.185 20.9183 183.143 27.2522 176.926 31.5266L179.257 65.3312C182.56 67.6626 199.307 76.755 209.565 80.4852C222.388 85.1479 232.879 79.9023 232.879 74.0739C232.879 68.2454 233.462 61.2513 235.793 58.337C238.125 55.4228 239.29 50.76 234.045 50.1772Z" fill="#F3956C"/>
</mask>
<g mask="url(#mask4)">
<g filter="url(#filter0_f)">
<path d="M210.149 62.9997C210.149 68.4719 205.713 72.9081 200.24 72.9081C194.768 72.9081 190.332 68.4719 190.332 62.9997C190.332 57.5274 194.768 53.0913 200.24 53.0913C205.713 53.0913 210.149 57.5274 210.149 62.9997Z" fill="#BE1313" fill-opacity="0.7"/>
</g>
</g>
<path d="M233.462 7.04639C229.965 7.04643 227.983 7.74593 227.05 10.5436C233.85 11.1264 242.204 19.8691 238.124 28.6118C237.153 25.309 234.627 22.2005 232.879 22.2005C235.21 25.6976 238.124 31.2929 233.462 37.3545C232.684 34.0517 225.302 29.7775 221.805 28.6118C227.05 31.154 226.584 36.6551 227.05 38.5202C220.833 32.886 208.399 30.9432 197.908 46.0972C194.799 43.9601 189.092 41.0522 186.834 47.2629C184.502 53.6742 190.914 58.9198 194.411 59.5027C193.828 63.5826 193.245 69.411 194.994 74.0738C185.085 72.3253 167.367 60.0855 168.766 39.1031C168.954 36.4621 169.765 31.1471 171.52 30.4137L164.686 32.6917C165.657 28.4175 169.465 19.8691 176.925 19.8691C175.565 15.5949 176.226 5.88083 189.748 1.21806C190.063 2.8868 190.16 6.35605 188.736 9.35046C194.632 1.82725 209.194 -6.11594 233.462 7.04639Z" fill="#282828"/>
<path d="M159.441 169.121C165.969 124.468 157.692 127.658 167.018 108.521C177.509 95.7628 203.737 94.1676 207.234 110.116C210.637 125.635 215.005 179.227 220.64 213.957C217.725 217.324 205.084 225.368 187.417 220.951C173.429 217.454 171.098 226.327 158.275 229.694C158.276 223.283 152.913 213.774 159.441 169.121Z" fill="#3D58FF"/>
<path fill-rule="evenodd" clip-rule="evenodd" d="M219.791 208.541C220.07 210.389 220.352 212.197 220.638 213.957C217.724 217.324 205.082 225.368 187.416 220.951C178.741 218.782 174.549 221.371 169.558 224.454C166.501 226.342 163.144 228.415 158.274 229.694C158.274 228.31 158.024 226.781 157.698 224.786C157.659 224.548 157.619 224.304 157.578 224.053C162.696 219.442 172.744 212.22 179.256 213.957C187.808 216.237 215.323 214.614 219.791 208.541Z" fill="#3146CC"/>
<path fill-rule="evenodd" clip-rule="evenodd" d="M221.313 213.448L214.811 218.038L198.451 100.152C203.105 102.002 206.674 105.662 207.817 111.375C209.678 120.684 213.225 149.056 216.978 179.082C218.42 190.623 219.893 202.408 221.313 213.448Z" fill="#526AFF"/>
<path d="M211.112 125.417L203.596 191.99C203.398 193.748 205.152 195.078 206.79 194.412L245.451 178.701C246.188 178.401 246.721 177.747 246.866 176.966L257.354 120.38C257.643 118.817 256.318 117.429 254.744 117.645L213.111 123.369C212.055 123.514 211.231 124.358 211.112 125.417Z" fill="#D5D5D5"/>
<path d="M215.783 127.248L208.281 190.179C208.072 191.934 209.815 193.274 211.457 192.621L246.366 178.74C247.118 178.441 247.661 177.774 247.801 176.977L257.762 120.256C258.047 118.636 256.609 117.239 254.997 117.569L217.629 125.24C216.646 125.442 215.902 126.251 215.783 127.248Z" fill="#E5E3E3"/>
<path fill-rule="evenodd" clip-rule="evenodd" d="M213.721 191.722L209.658 178.631L210.128 174.689L245.876 119.442L254.997 117.57C256.609 117.239 258.047 118.637 257.762 120.257L257.626 121.032L215.68 190.943L213.721 191.722ZM231.647 184.594L223.188 187.957L223.594 183.522L255.442 133.47L252.509 150.174L231.647 184.594Z" fill="url(#paint1_linear)" fill-opacity="0.5"/>
<path d="M238.544 153.184C238.293 155.424 236.793 157.093 235.194 156.914C233.594 156.735 232.501 154.774 232.752 152.535C233.003 150.295 234.504 148.626 236.103 148.805C237.703 148.984 238.796 150.945 238.544 153.184Z" fill="#D5D5D5"/>
<path d="M222.481 164.582C223.504 162.732 226.31 158.139 231.713 155.673C238.467 152.59 241.515 150.4 241.515 154.716C241.515 158.169 239.966 159.308 238.124 160.335C242.013 158.28 248.146 156.32 250.111 157.8C251.917 159.16 250.055 160.973 248.63 161.895C249.513 161.402 251.288 160.73 251.953 162.732C252.567 164.582 251.339 166.637 249.497 167.048C250.725 167.048 251.953 168.281 251.339 169.515C250.206 171.788 242.743 178.147 234.147 179.38C227.27 180.366 222.276 180.202 220.639 179.996L222.481 164.582Z" fill="#F3956C"/>
<path fill-rule="evenodd" clip-rule="evenodd" d="M241.487 154.058C241.506 154.258 241.515 154.478 241.515 154.717C241.515 157.596 240.438 158.866 239.012 159.804L232.879 162.667C235.276 160.589 239.725 156.486 241.487 154.058ZM250.806 159.478C247.361 161.48 238.638 165.361 234.045 167.33C238.751 166.474 246.434 163.263 250.52 161.389C249.84 161.313 249.106 161.63 248.63 161.895C249.513 161.325 250.562 160.413 250.806 159.478ZM250.527 166.614C250.267 166.655 250.014 166.7 249.781 166.747C246.479 168.301 239.057 171.526 235.793 171.993C239.87 171.483 247.955 170.172 251.482 168.604C251.335 167.739 250.416 167.049 249.497 167.049C249.869 166.966 250.215 166.816 250.527 166.614Z" fill="#E37651"/>
<path d="M165.703 109.482C161.04 118.807 159.066 129.444 165.704 187.146C167.917 206.38 208.445 191.08 228.068 181.172L226.319 159.024L193.829 163.832C195.578 145.181 196.244 108.083 190.183 102.488C182.606 95.4935 171.531 97.8249 165.703 109.482Z" fill="#3146CC"/>
<path fill-rule="evenodd" clip-rule="evenodd" d="M179.843 98.5782C179.868 112.208 180.113 131.413 180.774 147.517C181.124 156.04 181.592 163.719 182.208 169.249C182.516 172.005 182.865 174.275 183.268 175.859C183.466 176.64 183.697 177.333 183.983 177.848C184.125 178.104 184.319 178.387 184.591 178.609C184.883 178.847 185.306 179.041 185.814 178.977C186.847 178.848 189.267 178.239 192.392 177.392C195.563 176.533 199.569 175.398 203.853 174.177C204.931 173.869 206.027 173.556 207.132 173.241L207.168 173.23C214.174 171.23 221.528 169.129 227.002 167.685L226.815 165.324C221.273 166.778 213.699 168.941 206.526 170.989C205.409 171.308 204.302 171.624 203.214 171.935C198.929 173.156 194.936 174.287 191.783 175.142C189.035 175.886 187.004 176.398 185.958 176.594C185.833 176.328 185.684 175.902 185.527 175.284C185.165 173.861 184.83 171.722 184.525 168.991C183.918 163.545 183.453 155.931 183.103 147.421C182.445 131.386 182.2 112.252 182.174 98.6445C181.401 98.5522 180.621 98.5301 179.843 98.5782ZM175.683 99.5166C174.944 114.33 174.395 135.708 175.06 153.545C175.405 162.776 176.073 171.007 177.193 176.879C177.756 179.827 178.418 182.097 179.165 183.587C179.956 185.164 180.597 185.417 180.945 185.399C183.038 185.289 186.428 184.625 190.641 183.595C194.827 182.571 199.741 181.207 204.841 179.732C208.907 178.555 213.098 177.307 217.124 176.107L217.125 176.107L217.126 176.107C220.765 175.022 224.27 173.978 227.426 173.064L227.614 175.437C224.603 176.312 221.289 177.299 217.843 178.326C213.813 179.527 209.603 180.781 205.489 181.971C200.379 183.449 195.429 184.824 191.195 185.86C186.988 186.889 183.404 187.604 181.067 187.727C179.201 187.826 177.931 186.327 177.081 184.632C176.188 182.851 175.478 180.329 174.903 177.316C173.749 171.265 173.076 162.892 172.731 153.632C172.081 136.227 172.582 115.505 173.29 100.721C174.071 100.239 174.871 99.8377 175.683 99.5166Z" fill="white"/>
<path d="M292.684 34.5531C293.365 32.9524 296.713 32.5478 297.943 33.8205C299.027 33.0078 301.622 31.9728 303.333 34.334C304.93 34.0514 308.22 33.8335 308.61 35.2235C309.096 36.9609 310.151 47.9078 306.201 47.9078C305.148 47.9078 303.051 46.7799 303.2 46.5894C303.023 46.6752 302.964 46.5379 302.745 46.5685C300.221 46.9202 297.161 46.5737 296.58 46.0265C296.167 46.3102 295.693 46.4745 295.152 46.4857C290.588 46.5798 290.972 38.5822 292.684 34.5531Z" fill="#F3956C"/>
<path fill-rule="evenodd" clip-rule="evenodd" d="M296.514 33.2722C297.689 35.2598 298.555 39.8839 296.616 43.9741C296.322 44.5071 295.467 45.7329 294.406 46.3725C294.425 46.3934 294.444 46.4141 294.465 46.4344C294.681 46.4735 294.91 46.4915 295.153 46.4865C295.695 46.4753 296.169 46.311 296.581 46.0273C296.756 46.192 297.041 46.3983 297.422 46.5966C299.057 46.9299 301.229 47.1894 302.613 46.8412C302.759 46.7839 302.896 46.7282 303.006 46.6806C302.98 46.6998 302.956 46.721 302.935 46.7438C302.96 46.7347 302.985 46.7253 303.009 46.7157C303.827 47.1998 305.592 47.9713 306.972 47.7762C307.62 47.5378 308.097 46.9985 308.443 46.2699C308.843 44.9906 309.094 42.9636 309.244 40.9011C309.205 38.3663 308.813 35.9473 308.611 35.2243C308.478 34.7486 308.005 34.4613 307.376 34.3004C307.981 35.6354 308.877 38.212 308.552 39.9769C308.46 40.476 308.445 41.0851 308.43 41.7236C308.372 44.1526 308.304 47.006 303.92 45.8428C304.554 43.6428 304.989 36.809 304.208 34.2109C303.886 34.2464 303.589 34.2898 303.334 34.3349C303.326 34.3235 303.318 34.3122 303.309 34.301C303.996 38.0124 304.171 45.2458 302.253 45.8428C299.17 46.8023 297.166 46.0193 296.999 45.8428C297.438 45.3433 297.906 44.6131 298.385 43.5744C299.901 40.2842 298.925 36.1711 297.966 33.8053C297.959 33.8107 297.952 33.816 297.945 33.8213C297.578 33.4426 297.074 33.2856 296.514 33.2722Z" fill="#E37651"/>
<path d="M358.58 42.0239C358.295 45.8761 357.023 48.9218 355.739 48.8267C354.455 48.7315 353.645 45.5316 353.93 41.6794C354.216 37.8272 355.488 34.7815 356.772 34.8766C358.056 34.9718 358.866 38.1717 358.58 42.0239Z" fill="#FFE3BD"/>
<path fill-rule="evenodd" clip-rule="evenodd" d="M358.52 42.7006L355.199 48.5859C354.423 47.9217 353.915 45.9633 353.876 43.5072L357.986 36.1693C358.511 37.4691 358.759 39.6197 358.581 42.0246C358.564 42.2529 358.544 42.4784 358.52 42.7006Z" fill="#FFF3E2"/>
<path fill-rule="evenodd" clip-rule="evenodd" d="M214.905 42.9331C213.147 44.1127 212.035 46.3286 211.577 48.0685C211.455 48.5355 210.976 48.8144 210.509 48.6915C210.042 48.5686 209.764 48.0905 209.886 47.6235C210.4 45.6721 211.678 42.9921 213.931 41.4809C215.08 40.7106 216.474 40.2513 218.105 40.3565C219.723 40.4609 221.509 41.117 223.467 42.4628C223.865 42.7364 223.966 43.2807 223.692 43.6786C223.419 44.0765 222.874 44.1772 222.476 43.9037C220.704 42.685 219.216 42.1803 217.992 42.1014C216.78 42.0232 215.763 42.358 214.905 42.9331Z" fill="#282828"/>
<path fill-rule="evenodd" clip-rule="evenodd" d="M216.981 50.3368C216.291 50.6871 215.864 51.0958 215.688 51.4463C215.472 51.8781 214.947 52.0529 214.515 51.8367C214.083 51.6206 213.909 51.0954 214.125 50.6636C214.532 49.8493 215.322 49.2179 216.189 48.7777C217.073 48.3289 218.131 48.0295 219.207 47.9372C221.323 47.7557 223.801 48.3748 224.979 50.6534C225.119 50.9244 225.107 51.2488 224.949 51.5094C224.79 51.7699 224.507 51.9289 224.202 51.929C224.202 51.929 224.202 51.929 224.202 51.929L224.195 51.9291L224.165 51.9293C224.139 51.9296 224.098 51.9303 224.044 51.9316C223.938 51.9342 223.783 51.9396 223.595 51.9503C223.217 51.9719 222.713 52.0149 222.198 52.0992C221.676 52.1849 221.184 52.3067 220.808 52.4699C220.403 52.6459 220.302 52.7962 220.287 52.8338C220.107 53.282 219.598 53.4996 219.15 53.3199C218.702 53.1403 218.484 52.6313 218.664 52.1831C218.94 51.4939 219.575 51.099 220.111 50.8662C220.676 50.6206 221.329 50.4698 221.916 50.3737C222.074 50.3477 222.231 50.3252 222.384 50.3058C221.578 49.7768 220.505 49.5808 219.357 49.6793C218.492 49.7535 217.654 49.995 216.981 50.3368Z" fill="#282828"/>
<path d="M230.256 69.2021C229.904 71.1011 228.192 72.3761 226.432 72.0498C224.672 71.7235 223.53 69.9196 223.882 68.0205C224.234 66.1215 225.946 64.8465 227.707 65.1728C229.467 65.4991 230.608 67.3031 230.256 69.2021Z" fill="#D74848"/>
<path fill-rule="evenodd" clip-rule="evenodd" d="M230.258 67.8411C230.011 66.5062 229.035 65.4187 227.707 65.1725C226.334 64.9181 224.991 65.6372 224.299 66.8665C226.088 66.4299 228.887 66.2336 230.258 67.8411Z" fill="white"/>
<defs>
<filter id="filter0_f" x="170.332" y="33.0913" width="59.8168" height="59.8168" filterUnits="userSpaceOnUse" color-interpolation-filters="sRGB">
<feFlood flood-opacity="0" result="BackgroundImageFix"/>
<feBlend mode="normal" in="SourceGraphic" in2="BackgroundImageFix" result="shape"/>
<feGaussianBlur stdDeviation="10" result="effect1_foregroundBlur"/>
</filter>
<linearGradient id="paint0_linear" x1="291.329" y1="58.9933" x2="292.891" y2="42.0249" gradientUnits="userSpaceOnUse">
<stop stop-color="#F3956C"/>
<stop offset="1" stop-color="#E37651" stop-opacity="0"/>
</linearGradient>
<linearGradient id="paint1_linear" x1="258.784" y1="118.318" x2="224.979" y2="181.265" gradientUnits="userSpaceOnUse">
<stop stop-color="white"/>
<stop offset="0.0001" stop-color="white"/>
<stop offset="1" stop-color="#E5E3E3"/>
</linearGradient>
</defs>
</svg>
