<svg width="522" height="350" viewBox="0 0 522 350" fill="none" xmlns="http://www.w3.org/2000/svg">
<path d="M65.9421 193.768H293.189V202.899H65.9421V193.768Z" fill="#E4E8F0"/>
<path d="M57.8262 23.3333H285.073V32.4637H57.8262V23.3333Z" fill="#E4E8F0"/>
<path d="M57.8262 98.4058H285.073V107.536H57.8262V98.4058Z" fill="#E4E8F0"/>
<path d="M165.362 202.898L165.362 25.3622L174.493 25.3622L174.493 202.898L165.362 202.898Z" fill="#E4E8F0"/>
<path d="M39.6549 9.91309C29.3913 23.5558 18.2724 15.5976 13.9958 9.91309V337.826H89.8068V9.91309C80.4762 23.5558 69.5905 15.5976 65.314 9.91309C51.9013 26.9665 40.2381 10.4003 39.6549 9.91309Z" fill="#EEF3FF"/>
<path fill-rule="evenodd" clip-rule="evenodd" d="M53.0676 17.5947C56.7474 17.4625 60.9376 15.4774 65.314 9.91309C65.6608 10.374 66.051 10.8499 66.4803 11.328V337.826H53.0676V17.5947ZM25.0759 17.258C29.3834 18.0162 34.3038 16.6092 39.0718 10.6641V337.826H25.0759V17.258ZM78.1436 337.826V17.4459C81.9194 17.4569 85.993 15.4894 89.8068 9.91309V337.826H78.1436Z" fill="#E8EBF2"/>
<path d="M272.919 9.91309C262.655 23.5558 251.536 15.5976 247.26 9.91309V337.826H323.071V9.91309C313.74 23.5558 302.854 15.5976 298.578 9.91309C285.165 26.9665 273.502 10.4003 272.919 9.91309Z" fill="#EEF3FF"/>
<path fill-rule="evenodd" clip-rule="evenodd" d="M286.332 17.5947C290.011 17.4625 294.202 15.4774 298.578 9.91309C298.925 10.374 299.315 10.8499 299.744 11.328V337.826H286.332V17.5947ZM258.34 17.258C262.647 18.0162 267.568 16.6092 272.336 10.6641V337.826H258.34V17.258ZM311.407 337.826V17.4459C315.183 17.4569 319.257 15.4894 323.071 9.91309V337.826H311.407Z" fill="#E8EBF2"/>
<path d="M6.99793 7.58109C6.99793 11.768 5.43139 15.1622 3.49896 15.1622C1.56654 15.1622 0 11.768 0 7.58109C0 3.39417 1.56654 0 3.49896 0C5.43139 0 6.99793 3.39417 6.99793 7.58109Z" fill="#E4E8F0"/>
<path d="M342.898 7.58109C342.898 11.768 341.332 15.1622 339.399 15.1622C337.467 15.1622 335.9 11.768 335.9 7.58109C335.9 3.39417 337.467 0 339.399 0C341.332 0 342.898 3.39417 342.898 7.58109Z" fill="#E4E8F0"/>
<path d="M5.83154 4.66528H337.067V9.33057H5.83154V4.66528Z" fill="#EEF3FF"/>
<path d="M221.159 172.211C230.087 122.704 196.642 113.54 179.565 116.414L134.42 138.225C121.435 171.906 114.13 207.717 137.971 259.964L224.71 310.181L260.725 295.978L252.101 281.268L264.275 294.456L275.942 289.891C261.57 279.07 212.232 221.718 221.159 172.211Z" fill="#FFCA63"/>
<path d="M221.159 172.211C230.087 122.704 196.642 113.54 179.565 116.414L134.42 138.225C121.435 171.906 114.13 207.717 137.971 259.964L224.71 310.181L260.725 295.978L252.101 281.268L264.275 294.456L275.942 289.891C261.57 279.07 212.232 221.718 221.159 172.211Z" fill="#FFCA63"/>
<path d="M146.594 254.13C135.232 238.71 135.773 193.937 137.464 173.478C167.053 161.304 222.884 146.087 209.493 182.609C196.102 219.13 225.556 272.222 241.957 294.203L195.797 301.304C184.131 292.005 157.957 269.551 146.594 254.13Z" fill="#F4B53B"/>
<path d="M177.029 230.543C170.536 227.297 175.676 216.848 177.029 212.283C169.42 203.321 155.014 188.746 158.261 202.138C161.507 215.529 148.623 219.384 144.058 224.456C159.884 237.848 172.802 237.476 177.029 230.543Z" fill="#FF8982"/>
<path d="M196.812 238.913C190.319 229.58 179.058 227.922 176.522 229.275L186.667 289.131C187.343 298.768 191.333 318.551 201.884 320.58C212.435 322.609 247.029 319.565 256.159 318.551V301.812L219.13 297.246C215.072 283.044 203.304 248.247 196.812 238.913Z" fill="#3146CC"/>
<path d="M252.417 306.386C250.293 310.847 252.418 318.552 257.196 320.58L278.967 318.552C279.321 315.511 274.4 306.387 271.002 304.359C266.754 301.824 255.072 300.81 252.417 306.386Z" fill="#FBBDAA"/>
<path d="M252.417 306.386C250.293 310.847 252.418 318.552 257.196 320.58L278.967 318.552C279.321 315.511 274.4 306.387 271.002 304.359C266.754 301.824 255.072 300.81 252.417 306.386Z" fill="#FBBDAA"/>
<path d="M258.696 312.464L264.275 320.58L267.826 316.015L258.696 312.464Z" fill="#FF8982"/>
<mask id="mask0" mask-type="alpha" maskUnits="userSpaceOnUse" x="176" y="228" width="83" height="93">
<path d="M196.812 238.913C190.319 229.58 179.058 227.922 176.522 229.275L186.667 289.131C187.343 298.768 191.333 318.551 201.884 320.58C212.435 322.609 245.507 303.672 258.188 293.189L251.594 274.421L217.101 293.189C213.043 278.986 203.304 248.247 196.812 238.913Z" fill="#3146CC"/>
</mask>
<g mask="url(#mask0)">
<path d="M203.406 297.754C205.942 284.565 196.812 255.145 196.812 254.13L185.145 285.072L171.449 311.449C183.623 313.816 188.696 318.855 196.812 318.043C204.927 317.232 220.145 312.971 227.246 308.406C203.913 317.536 233.841 300.797 232.826 298.261L203.406 297.754Z" fill="#213094"/>
</g>
<path d="M198.841 260.218C193.134 237.391 180.749 227.501 175.507 229.53L175 232.065H159.275L142.536 222.428C116.159 230.949 128.334 298.768 114.638 327.174H197.319C197.319 290.145 204.928 284.565 198.841 260.218Z" fill="#3D58FF"/>
<path d="M234.784 294.603C231.923 289.637 227.034 289.234 224.947 289.653C216.856 296.782 216.092 303.52 216.721 305.997L214.293 307.628C215.156 308.753 217.227 311.49 218.609 313.43C220.337 315.855 230.967 315.5 234.777 313.788C237.825 312.417 238.565 309.989 238.553 308.946L245.348 317.811C247.613 320.766 249.538 321.735 251.007 319.881C252.182 318.398 240.681 302.411 234.784 294.603Z" fill="#FBBDAA"/>
<path d="M238.65 309.179L238.692 308.724L232.895 300.457C233.28 301.663 234.121 303.198 234.986 304.775C236.406 307.365 237.887 310.068 237.505 311.604C237.497 311.636 237.489 311.667 237.482 311.697C238.208 310.78 238.541 309.847 238.65 309.179Z" fill="#FF8982"/>
<path d="M229.327 315.106C229.887 315.038 230.436 314.957 230.965 314.864C233.803 312.832 235.909 308.787 230.973 303.235C232.953 305.592 235.141 311.637 229.327 315.106Z" fill="#FF8982"/>
<path d="M221.007 314.899C221.931 315.137 223.064 315.275 224.292 315.325C227.937 314.536 231.495 312.085 228.735 306.121L227.085 303.151C227.908 304.813 228.778 308.466 228.265 310.699C227.556 313.78 224.161 314.359 221.651 314.787C221.429 314.825 221.213 314.861 221.007 314.899Z" fill="#FF8982"/>
<path d="M217.145 306.057C217.153 306.102 217.163 306.144 217.172 306.186L214.736 307.903C214.754 307.927 214.772 307.951 214.79 307.976L214.957 307.942C216.055 307.714 217.179 308.106 217.892 308.965C218.622 309.847 219.628 310.449 220.748 310.677L222.585 311.05L217.145 306.057Z" fill="#FF8982"/>
<path d="M175.507 228.514C163.739 236.63 150.99 226.485 146.087 220.398C144.058 218.876 142.029 221.412 141.522 222.934C141.014 224.456 154.661 234.775 159.782 236.123C169.42 238.659 182.101 231.557 180.072 228.514C178.449 226.079 176.352 227.499 175.507 228.514Z" fill="white"/>
<path d="M132.391 165.869C132.97 158.92 141.425 157.664 143.814 161.275C153.056 121.996 169.753 127.618 192.228 130.352C214.703 133.085 215.507 159.564 210.908 177.202C206.308 194.839 196.988 220.687 170.353 214.99C149.044 210.433 146.087 190.725 146.087 180.58C141.246 179.362 131.377 178.044 132.391 165.869Z" fill="#FFAB94"/>
<mask id="mask1" mask-type="alpha" maskUnits="userSpaceOnUse" x="120" y="113" width="106" height="112">
<path d="M132.391 165.87C132.97 158.921 141.425 157.665 143.814 161.276C153.056 121.997 169.753 127.619 192.228 130.353C214.703 133.086 215.507 159.565 210.908 177.202C206.308 194.84 196.988 220.688 170.353 214.991C149.044 210.434 146.087 190.726 146.087 180.581C141.246 179.363 131.377 178.045 132.391 165.87Z" fill="#FFAB94"/>
</mask>
<g mask="url(#mask1)">
<g filter="url(#filter0_f)">
<path d="M162.319 182.862C162.319 191.547 155.278 198.587 146.594 198.587C137.91 198.587 130.869 191.547 130.869 182.862C130.869 174.178 137.91 167.138 146.594 167.138C155.278 167.138 162.319 174.178 162.319 182.862Z" fill="#FF8982"/>
</g>
<g filter="url(#filter1_f)">
<path d="M230.29 198.08C230.29 206.764 223.25 213.804 214.565 213.804C205.881 213.804 198.841 206.764 198.841 198.08C198.841 189.395 205.881 182.355 214.565 182.355C223.25 182.355 230.29 189.395 230.29 198.08Z" fill="#FF8982"/>
</g>
</g>
<path d="M187.682 198.84C179.566 199.347 173.309 197.149 170.942 194.782C170.435 197.318 169.943 203.12 174.493 204.42C181.594 206.449 185.145 201.884 187.682 198.84Z" fill="white"/>
<path d="M186.294 200.477C178.885 201.301 173.01 198.334 170.69 196.512C170.428 199.345 170.8 203.365 174.493 204.42C180.392 206.106 183.841 203.24 186.294 200.477Z" fill="#DE4444"/>
<path d="M188.696 161.091C210.203 160.685 216.087 133.192 205.435 131.671C195.062 123.914 192.247 112.902 177.537 112.902C139.492 108.844 123.768 147.649 122.754 184.678L128.334 181.128C128.334 181.128 137.295 183.623 136.957 177.536C126.812 173.986 130.87 164.642 134.421 159.569C137.261 155.511 142.029 158.893 144.058 161.091C167.595 162.714 186.329 151.284 192.754 145.367C195.189 151.048 191.063 158.217 188.696 161.091Z" fill="#FFCA63"/>
<path d="M156.739 104.37C139.29 110.807 131.546 127.073 130.362 134.928L148.623 140L216.087 124.276C212.029 101.957 178.551 96.3245 156.739 104.37Z" fill="#3D58FF"/>
<path d="M130.473 134.67L127.826 149.13L159.143 137.884L219.131 134.67L216.087 123.261C190.681 112.978 148.704 126.636 130.473 134.67Z" fill="#213094"/>
<path d="M116.16 154.709C87.219 180.12 109.566 203.406 122.754 203.406C121.536 188.392 124.614 167.729 126.305 159.275C161.812 136.956 219.638 138.985 220.652 142.028C221.667 145.072 222.681 166.376 220.652 172.97C219.21 177.657 219.638 185.82 220.145 189.709C226.401 184.975 255.043 165.564 252.608 146.086C249.565 121.738 157.754 118.188 116.16 154.709Z" fill="#3D58FF"/>
<path d="M220.145 175.507C230.577 166.462 241.448 157.498 236.377 148.623C232.006 140.974 210.867 138.474 186.583 141.123C205.522 139.245 220.147 140.51 220.652 142.027C221.667 145.071 222.681 166.375 220.652 172.969C220.08 174.83 220.145 175.507 220.145 175.507Z" fill="#3146CC"/>
<path d="M132.995 155.476C130.494 156.672 128.088 157.939 125.797 159.275C110.073 178.551 110.893 188.074 122.477 195.42C122.534 181.775 124.898 166.304 126.304 159.274C128.458 157.92 130.695 156.655 132.995 155.476Z" fill="#3146CC"/>
<path d="M190.879 178.593C190.123 180.989 190.618 183.282 191.986 183.713C193.353 184.145 195.074 182.552 195.831 180.155C196.587 177.759 196.092 175.467 194.724 175.035C193.357 174.604 191.636 176.196 190.879 178.593Z" fill="#2D2424"/>
<path d="M190.879 178.593C190.123 180.989 190.618 183.282 191.986 183.713C193.353 184.145 195.074 182.552 195.831 180.155C196.587 177.759 196.092 175.467 194.724 175.035C193.357 174.604 191.636 176.196 190.879 178.593Z" fill="#2D2424"/>
<path d="M171.737 175.123C171.227 177.584 171.952 179.814 173.356 180.105C174.76 180.396 176.311 178.637 176.821 176.176C177.33 173.715 176.605 171.485 175.201 171.194C173.797 170.904 172.246 172.663 171.737 175.123Z" fill="#2D2424"/>
<path fill-rule="evenodd" clip-rule="evenodd" d="M199.496 169.27C200.55 170.516 200.815 172.198 200.554 173.334C200.429 173.88 200.77 174.425 201.316 174.55C201.863 174.675 202.407 174.334 202.532 173.788C202.927 172.066 202.536 169.721 201.045 167.96C199.499 166.132 196.894 165.067 193.154 165.726C192.602 165.823 192.234 166.349 192.331 166.901C192.428 167.453 192.954 167.821 193.506 167.724C196.669 167.167 198.498 168.09 199.496 169.27ZM179.439 163.818L179.439 163.818C179.709 164.309 180.326 164.488 180.817 164.218C181.308 163.948 181.487 163.331 181.217 162.84C181.007 162.458 180.487 161.879 179.803 161.331C179.091 160.761 178.11 160.151 176.913 159.773C174.444 158.994 171.237 159.264 167.846 162.399C167.434 162.779 167.409 163.421 167.789 163.832C168.17 164.244 168.811 164.269 169.223 163.889C172.106 161.224 174.561 161.158 176.302 161.708C177.21 161.994 177.972 162.465 178.535 162.915C178.815 163.139 179.038 163.353 179.199 163.527C179.37 163.712 179.437 163.814 179.439 163.818Z" fill="#2D2424"/>
<path fill-rule="evenodd" clip-rule="evenodd" d="M185.386 180.029C184.967 180.055 184.648 180.416 184.674 180.836C184.704 181.32 184.928 182.265 185.428 183.649C185.938 185.057 186.755 186.974 188.015 189.424C188.586 190.533 188.604 191.257 188.443 191.724C188.283 192.191 187.88 192.586 187.202 192.896C185.816 193.532 183.689 193.623 182.1 193.475C181.682 193.436 181.311 193.744 181.272 194.162C181.233 194.581 181.541 194.951 181.959 194.99C183.631 195.146 186.083 195.084 187.837 194.279C188.73 193.87 189.537 193.222 189.882 192.219C190.227 191.217 190.046 190.045 189.369 188.728C188.133 186.325 187.343 184.468 186.859 183.131C186.367 181.77 186.209 180.997 186.193 180.741C186.167 180.322 185.806 180.003 185.386 180.029Z" fill="#F3724E"/>
<path d="M301.812 180.58C320.581 180.58 335.797 165.364 335.797 146.594C335.797 127.825 320.581 112.609 301.812 112.609C283.042 112.609 267.826 127.825 267.826 146.594C267.826 152.504 269.334 158.062 271.987 162.903L263.768 178.044L281.577 173.902C287.23 178.098 294.231 180.58 301.812 180.58Z" fill="#47BB8E"/>
<path fill-rule="evenodd" clip-rule="evenodd" d="M318.014 136.597C318.773 137.421 318.721 138.704 317.896 139.464L298.621 157.217C297.839 157.937 296.634 157.932 295.859 157.205L287.743 149.596C286.925 148.83 286.884 147.546 287.65 146.728C288.417 145.911 289.701 145.869 290.518 146.636L297.259 152.955L315.147 136.479C315.972 135.72 317.255 135.772 318.014 136.597Z" fill="white"/>
<path d="M122.246 233.841C109.604 250.317 125.923 308.792 128.84 317.03C133.87 331.233 199.348 321.595 217.609 306.378C213.719 299.012 226.739 289.131 226.739 289.131L155.724 298.769C152.483 280.192 152.681 256.669 150.652 242.972C148.309 227.157 134.889 217.364 122.246 233.841Z" fill="#3146CC"/>
<path d="M352.118 321.869C352.118 320.749 351.21 319.84 350.089 319.84H217.102C215.981 319.84 215.073 320.749 215.073 321.869V325.569C215.073 326.689 215.981 327.598 217.102 327.598H350.089C351.21 327.598 352.118 326.689 352.118 325.569V321.869Z" fill="#697DB5"/>
<path d="M394.807 258.327C396.01 255.642 394.046 252.609 391.104 252.609H288.895C287.253 252.609 285.773 253.598 285.145 255.115L255.153 327.596H361.127C362.726 327.596 364.176 326.657 364.83 325.198L394.807 258.327Z" fill="#8397CC"/>
<path fill-rule="evenodd" clip-rule="evenodd" d="M291.49 252.609L363.756 322.425L359.761 327.596H343.117L279.748 268.16L285.146 255.115C285.773 253.598 287.253 252.609 288.895 252.609H291.49Z" fill="url(#paint0_linear)"/>
<path d="M323.634 290.075C323.634 292.874 325.904 295.143 328.703 295.143C331.503 295.143 333.772 292.874 333.772 290.075C333.772 287.275 331.503 285.006 328.703 285.006C325.904 285.006 323.634 287.275 323.634 290.075Z" fill="#5B73B3"/>
<path d="M462.609 240.942C464.3 236.715 469.812 229.377 480.363 233.841C477.996 237.392 471.131 243.783 462.609 240.942Z" fill="#EFF2FA"/>
<path d="M458.551 257.681C458.382 256.159 457.131 253.014 453.479 252.609C453.31 254.3 454.087 257.681 458.551 257.681Z" fill="#EFF2FA"/>
<path d="M449.42 265.797C448.237 264.444 443.942 262.348 436.232 264.783C437.585 267.319 442.116 271.072 449.42 265.797Z" fill="#EFF2FA"/>
<path d="M432.174 238.406C430.145 235.531 427.305 228.362 432.174 222.681C435.894 226.232 441.102 234.348 432.174 238.406Z" fill="#EFF2FA"/>
<path d="M470.218 264.783C469.88 266.812 471.435 271.377 480.363 273.406C482.053 269.517 482.392 262.348 470.218 264.783Z" fill="#EFF2FA"/>
<path fill-rule="evenodd" clip-rule="evenodd" d="M461.103 251.288C459.072 266.138 458.212 282.328 458.043 292.698L456.015 292.665C456.184 282.238 457.048 265.964 459.093 251.013C460.115 243.539 461.435 236.37 463.119 230.418C464.791 224.512 466.864 219.637 469.486 216.906L470.949 218.311C468.701 220.653 466.733 225.099 465.072 230.97C463.423 236.796 462.119 243.861 461.103 251.288ZM449.143 260.361C451.819 268.603 453.631 277.613 454.482 283.403L452.475 283.698C451.635 277.991 449.846 269.096 447.213 260.987C445.896 256.932 444.378 253.103 442.677 249.977C440.963 246.827 439.124 244.505 437.22 243.326L438.288 241.601C440.644 243.06 442.69 245.756 444.459 249.008C446.241 252.283 447.805 256.241 449.143 260.361ZM464.636 288.793C464.637 288.927 464.638 289.04 464.638 289.131H462.609C462.609 289.042 462.608 288.931 462.607 288.798C462.597 287.043 462.565 281.523 463.708 275.991C464.322 273.016 465.288 269.97 466.826 267.483C468.371 264.984 470.534 262.988 473.533 262.274L474.003 264.248C471.676 264.802 469.908 266.357 468.552 268.55C467.189 270.755 466.285 273.543 465.695 276.401C464.598 281.712 464.627 287.035 464.636 288.793Z" fill="#E4E8F0"/>
<path d="M448.043 282.029L429.13 334.783H487.971L470.22 282.029H448.043Z" fill="#E8EBF2"/>
<path d="M0 327.681H521.449V350H0V327.681Z" fill="#EFF2FA"/>
<path d="M464.131 193.263C470.331 188.38 476.838 190.97 475.859 200.736C475.711 202.212 475.538 203.478 475.349 204.562C478.095 198.973 482.264 193.529 486.629 196.179C492.609 199.81 487.817 206.953 481.166 210.366C485.333 209.764 489.94 209.666 491.198 211.478C494.135 215.71 488.913 227.103 481.407 222.872C480.699 222.472 480.044 222.057 479.439 221.631C481.714 225.873 482.277 229.994 477.491 231.01C468.795 232.855 468.056 225.697 468.725 219.551C467.292 224.647 464.803 230.114 461.117 229.086C453.486 226.957 455.793 218.875 463.184 213.974C456.786 216.842 449.222 218.966 449.424 213.106C449.751 203.666 457.179 202.364 465.541 205.944C461.496 200.079 460.305 196.275 464.131 193.263Z" fill="#EEF3FF"/>
<path d="M479.855 212.029C479.855 214.83 476.221 217.101 471.739 217.101C467.257 217.101 463.623 214.83 463.623 212.029C463.623 209.228 467.257 206.957 471.739 206.957C476.221 206.957 479.855 209.228 479.855 212.029Z" fill="#E8EBF2"/>
<path d="M442.234 228.235C437.067 224.166 431.644 226.324 432.46 234.462C432.584 235.692 432.728 236.748 432.885 237.651C430.597 232.994 427.123 228.456 423.486 230.665C418.502 233.69 422.495 239.644 428.038 242.488C424.566 241.986 420.726 241.905 419.678 243.414C417.23 246.941 421.582 256.435 427.837 252.909C428.428 252.576 428.973 252.23 429.477 251.875C427.581 255.41 427.113 258.844 431.1 259.691C438.347 261.228 438.963 255.263 438.405 250.141C439.599 254.388 441.674 258.944 444.746 258.087C451.105 256.313 449.182 249.578 443.023 245.494C448.355 247.884 454.658 249.654 454.489 244.771C454.217 236.904 448.027 235.819 441.059 238.803C444.43 233.915 445.422 230.745 442.234 228.235Z" fill="#EEF3FF"/>
<path d="M429.13 243.874C429.13 246.208 432.158 248.101 435.893 248.101C439.629 248.101 442.657 246.208 442.657 243.874C442.657 241.539 439.629 239.646 435.893 239.646C432.158 239.646 429.13 241.539 429.13 243.874Z" fill="#E8EBF2"/>
<path d="M486.872 241.423C481.705 237.354 476.282 239.513 477.098 247.651C477.221 248.881 477.366 249.936 477.523 250.839C475.235 246.182 471.761 241.645 468.123 243.853C463.14 246.879 467.133 252.832 472.676 255.676C469.204 255.174 465.364 255.093 464.316 256.603C461.868 260.129 466.219 269.624 472.475 266.097C473.065 265.764 473.611 265.418 474.115 265.064C472.219 268.598 471.75 272.033 475.738 272.879C482.985 274.417 483.601 268.451 483.043 263.33C484.237 267.576 486.311 272.133 489.383 271.276C495.743 269.502 493.82 262.767 487.661 258.683C492.993 261.073 499.296 262.843 499.127 257.959C498.855 250.092 492.665 249.007 485.697 251.991C489.067 247.104 490.06 243.934 486.872 241.423Z" fill="#EEF3FF"/>
<path d="M473.768 257.062C473.768 259.397 476.796 261.289 480.531 261.289C484.266 261.289 487.294 259.397 487.294 257.062C487.294 254.727 484.266 252.835 480.531 252.835C476.796 252.835 473.768 254.727 473.768 257.062Z" fill="#E8EBF2"/>
<defs>
<filter id="filter0_f" x="110.869" y="147.138" width="71.4493" height="71.4493" filterUnits="userSpaceOnUse" color-interpolation-filters="sRGB">
<feFlood flood-opacity="0" result="BackgroundImageFix"/>
<feBlend mode="normal" in="SourceGraphic" in2="BackgroundImageFix" result="shape"/>
<feGaussianBlur stdDeviation="10" result="effect1_foregroundBlur"/>
</filter>
<filter id="filter1_f" x="178.841" y="162.355" width="71.4493" height="71.4493" filterUnits="userSpaceOnUse" color-interpolation-filters="sRGB">
<feFlood flood-opacity="0" result="BackgroundImageFix"/>
<feBlend mode="normal" in="SourceGraphic" in2="BackgroundImageFix" result="shape"/>
<feGaussianBlur stdDeviation="10" result="effect1_foregroundBlur"/>
</filter>
<linearGradient id="paint0_linear" x1="287.476" y1="259.72" x2="345.655" y2="321.779" gradientUnits="userSpaceOnUse">
<stop stop-color="#8DA0D5"/>
<stop offset="1" stop-color="#8397CC"/>
</linearGradient>
</defs>
</svg>
