<svg width="462" height="280" viewBox="0 0 462 280" fill="none" xmlns="http://www.w3.org/2000/svg">
<path d="M420.725 204.669V169.981C420.725 167.459 418.846 165.332 416.343 165.02L377.914 160.229C374.816 159.843 372.126 162.358 372.303 165.475L374.113 197.278C374.239 199.498 375.817 201.368 377.984 201.867L411.833 209.655C412.267 209.755 412.713 209.796 413.159 209.778L415.929 209.664C418.609 209.555 420.725 207.35 420.725 204.669Z" fill="#E8EBF2"/>
<path fill-rule="evenodd" clip-rule="evenodd" d="M402.412 163.284C403.146 164.146 411.339 171.14 415.53 174.686L420.726 173.696V169.983C420.726 167.46 418.848 165.333 416.345 165.021L402.412 163.284Z" fill="#D2DBEE"/>
<path d="M415.686 204.424V169.281C415.686 166.764 413.815 164.64 411.319 164.321L373.922 159.547C370.934 159.165 368.289 161.494 368.289 164.507V195.473C368.289 197.786 369.876 199.797 372.125 200.336L409.522 209.287C412.665 210.039 415.686 207.656 415.686 204.424Z" fill="#EFF2FA"/>
<path fill-rule="evenodd" clip-rule="evenodd" d="M415.686 174.771L368.289 167.033V164.506C368.289 161.494 370.934 159.165 373.922 159.547L411.319 164.321C413.815 164.639 415.686 166.764 415.686 169.28V174.771Z" fill="#DEE5F5"/>
<path d="M374.668 172.996L378.383 174.009V194.609L374.668 193.934V172.996Z" fill="#DEE5F5"/>
<path d="M382.098 172.996L386.15 173.671V196.298L382.098 195.285V172.996Z" fill="#DEE5F5"/>
<path d="M389.527 177.048L393.242 178.062V197.986L389.527 196.973V177.048Z" fill="#DEE5F5"/>
<path d="M396.281 183.127L400.334 183.919V199.675L396.281 198.662V183.127Z" fill="#DEE5F5"/>
<path d="M404.386 190.557L408.439 191.707V201.701L404.386 200.688V190.557Z" fill="#DEE5F5"/>
<path fill-rule="evenodd" clip-rule="evenodd" d="M378.379 178.579L374.664 177.705V193.935L378.379 194.611V178.579ZM386.146 175.902L382.094 175.091V195.286L386.146 196.299V175.902ZM393.238 189.135V197.988L389.523 196.975V188.339L393.238 189.135ZM400.33 185.704L396.277 184.944V198.663L400.33 199.676V185.704ZM408.435 192.684V201.702L404.382 200.689V191.73L408.435 192.684Z" fill="#3D58FF"/>
<path d="M433.617 239.029V230.789C433.617 228.521 432.09 226.536 429.897 225.956L412.097 221.244C411.155 220.995 410.161 221.026 409.236 221.334L407.243 221.999C406.294 222.315 405.725 223.283 405.91 224.265L408.033 235.564C408.365 237.331 409.62 238.784 411.321 239.369L425.96 244.402C427.386 244.892 428.957 244.713 430.235 243.913L431.267 243.268C432.729 242.355 433.617 240.752 433.617 239.029Z" fill="#E8EBF2"/>
<path fill-rule="evenodd" clip-rule="evenodd" d="M432.193 227.294L428.891 227.954L430.579 234.708L433.619 233.879V230.79C433.619 229.448 433.084 228.205 432.193 227.294Z" fill="#C6D2EB"/>
<path fill-rule="evenodd" clip-rule="evenodd" d="M432.612 227.783C431.954 226.91 431.011 226.252 429.897 225.957L412.097 221.245C411.155 220.996 410.161 221.027 409.236 221.335L407.243 222C406.864 222.126 406.546 222.356 406.312 222.649L429.903 228.63L432.612 227.783Z" fill="#D1DAEF"/>
<path d="M430.623 239.432V231.893C430.623 229.607 429.073 227.612 426.857 227.048L410.134 222.788C406.973 221.983 403.9 224.371 403.9 227.633V233.121C403.9 235.202 405.188 237.065 407.134 237.799L423.858 244.11C427.128 245.344 430.623 242.928 430.623 239.432Z" fill="#EFF2FA"/>
<path fill-rule="evenodd" clip-rule="evenodd" d="M430.625 234.749L404 226.631C404.549 223.9 407.307 222.064 410.136 222.784L426.859 227.044C429.074 227.608 430.625 229.603 430.625 231.889V234.749Z" fill="#DEE5F5"/>
<path d="M461.064 153.578V90.033C461.064 87.036 458.446 84.7122 455.47 85.0685L425.133 88.7006C422.619 89.0015 420.727 91.1336 420.727 93.6652V150.416C420.727 152.977 422.662 155.123 425.209 155.389L455.546 158.552C458.497 158.859 461.064 156.545 461.064 153.578Z" fill="#E8EBF2"/>
<path fill-rule="evenodd" clip-rule="evenodd" d="M461.057 94.828L456.048 95.663L447.928 85.9712L455.463 85.069C458.439 84.7128 461.057 87.0365 461.057 90.0336V94.828Z" fill="#D2DBEE"/>
<path d="M456.021 153.539V90.5911C456.021 87.596 453.406 85.2728 450.432 85.626L420.094 89.2286C417.579 89.5273 415.684 91.6603 415.684 94.1937V150.402C415.684 152.964 417.621 155.112 420.17 155.375L450.507 158.512C453.456 158.817 456.021 156.503 456.021 153.539Z" fill="#EFF2FA"/>
<path fill-rule="evenodd" clip-rule="evenodd" d="M456.019 95.5559L415.682 98.0193V94.1938C415.682 91.6604 417.576 89.5274 420.092 89.2287L450.429 85.6261C453.404 85.2729 456.019 87.5961 456.019 90.5912V95.5559Z" fill="#DEE5F5"/>
<path d="M424.164 115.562C426.19 114.323 431.323 112.252 432.944 119.276C434.971 128.057 438.01 129.07 440.036 127.381C442.063 125.693 444.089 117.25 451.181 117.25" stroke="#F65D6D" stroke-width="1.5" stroke-linecap="round" stroke-linejoin="round"/>
<path d="M423.488 105.767C425.852 104.304 429.635 107.118 431.256 109.82C433.282 113.197 434.633 115.561 436.997 115.561C442.062 115.561 444.426 116.574 444.089 119.951C443.751 123.328 442.738 127.043 445.102 127.043C447.466 127.043 446.115 124.679 449.492 124.341H451.18" stroke="#EC9216" stroke-width="1.5" stroke-linecap="round" stroke-linejoin="round"/>
<path d="M423.824 123.327C425.738 125.241 427.02 124.859 428.214 123.665C429.565 122.314 428.89 119.275 431.592 117.924C434.293 116.573 435.267 117.296 436.657 119.613C437.67 121.301 441.723 123.327 442.736 119.95C443.749 116.573 441.723 105.091 451.179 106.442" stroke="#48C5A1" stroke-width="1.5" stroke-linecap="round" stroke-linejoin="round"/>
<path d="M422.814 102.663V131.369L449.831 132.382" stroke="#D2DBEE" stroke-width="2" stroke-linecap="round" stroke-linejoin="round"/>
<path d="M418.762 128.33H420.45M418.762 122.589H420.45M418.762 117.186H420.45M418.762 111.445H420.45M418.762 105.366H420.45" stroke="#B4C0DB" stroke-linecap="round"/>
<path d="M424.84 134.258L427.879 134.409M431.594 134.641L434.646 134.716M438.348 134.716L441.388 134.911M445.102 134.911L448.504 135.084" stroke="#B4C0DB" stroke-linecap="round"/>
<g filter="url(#filter0_d_362_1244)">
<path d="M419.438 140.589C419.438 139.436 420.411 138.521 421.562 138.593L449.982 140.369C451.036 140.435 451.858 141.309 451.858 142.365V149.795C451.858 150.965 450.857 151.885 449.691 151.788L421.271 149.42C420.235 149.333 419.438 148.467 419.438 147.427V140.589Z" fill="#3D58FF"/>
</g>
<ellipse cx="424.84" cy="144.202" rx="2.70167" ry="3.03938" fill="white"/>
<path d="M431.258 142.852L448.143 143.865M431.258 146.229L441.727 146.904" stroke="white" stroke-width="2" stroke-linecap="round"/>
<path d="M407.193 147.84V95.6209C407.193 92.6242 404.575 90.3006 401.6 90.6563L362.691 95.307C360.177 95.6075 358.284 97.7398 358.284 100.272V142.785C358.284 145.298 360.149 147.42 362.64 147.744L401.549 152.799C404.541 153.187 407.193 150.858 407.193 147.84Z" fill="#E8EBF2"/>
<path fill-rule="evenodd" clip-rule="evenodd" d="M407.189 100.487L400.259 101.065L387.088 92.9601C388.093 92.686 389.374 92.3329 390.715 91.9581L401.596 90.6575C404.572 90.3019 407.189 92.6255 407.189 95.6222V100.487Z" fill="#D2DBEE"/>
<path d="M402.15 147.846V96.1326C402.15 93.1379 399.536 90.8148 396.562 91.1674L357.653 95.7803C355.137 96.0786 353.241 98.2118 353.241 100.746V142.832C353.241 145.347 355.108 147.47 357.602 147.791L396.511 152.805C399.502 153.191 402.15 150.861 402.15 147.846Z" fill="#EFF2FA"/>
<path fill-rule="evenodd" clip-rule="evenodd" d="M402.149 100.912L353.314 104.104L353.24 103.734V100.749C353.24 98.2152 355.135 96.082 357.652 95.7837L396.561 91.1707C399.535 90.8182 402.149 93.1412 402.149 96.136V100.912Z" fill="#DEE5F5"/>
<g filter="url(#filter1_d_362_1244)">
<path d="M379.927 107.596C379.972 107.233 379.724 106.897 379.361 106.859C377.131 106.626 374.885 107.139 372.887 108.348C370.697 109.673 368.914 111.767 367.79 114.338C366.666 116.908 366.256 119.826 366.618 122.683C366.98 125.54 368.096 128.193 369.809 130.27C371.522 132.347 373.746 133.745 376.171 134.268C378.596 134.791 381.1 134.412 383.332 133.185C385.564 131.958 387.412 129.944 388.618 127.425C389.74 125.083 390.254 122.413 390.104 119.742C390.086 119.411 389.786 119.173 389.458 119.215C389.144 119.255 388.921 119.536 388.938 119.852C389.069 122.252 388.606 124.65 387.598 126.754C386.511 129.024 384.846 130.839 382.835 131.944C380.823 133.05 378.568 133.391 376.383 132.92C374.198 132.449 372.194 131.19 370.65 129.318C369.107 127.446 368.102 125.056 367.776 122.482C367.449 119.908 367.819 117.279 368.832 114.963C369.844 112.646 371.45 110.759 373.424 109.565C375.186 108.499 377.163 108.034 379.132 108.212C379.519 108.247 379.88 107.982 379.927 107.596Z" fill="#3D58FF"/>
<path d="M379.927 107.596C379.972 107.233 379.724 106.897 379.361 106.859C377.131 106.626 374.885 107.139 372.887 108.348C370.697 109.673 368.914 111.767 367.79 114.338C366.666 116.908 366.256 119.826 366.618 122.683C366.98 125.54 368.096 128.193 369.809 130.27C371.522 132.347 373.746 133.745 376.171 134.268C378.596 134.791 381.1 134.412 383.332 133.185C385.564 131.958 387.412 129.944 388.618 127.425C389.74 125.083 390.254 122.413 390.104 119.742C390.086 119.411 389.786 119.173 389.458 119.215C389.144 119.255 388.921 119.536 388.938 119.852C389.069 122.252 388.606 124.65 387.598 126.754C386.511 129.024 384.846 130.839 382.835 131.944C380.823 133.05 378.568 133.391 376.383 132.92C374.198 132.449 372.194 131.19 370.65 129.318C369.107 127.446 368.102 125.056 367.776 122.482C367.449 119.908 367.819 117.279 368.832 114.963C369.844 112.646 371.45 110.759 373.424 109.565C375.186 108.499 377.163 108.034 379.132 108.212C379.519 108.247 379.88 107.982 379.927 107.596Z" fill="url(#paint0_linear_362_1244)"/>
</g>
<ellipse cx="378.389" cy="120.505" rx="8.12703" ry="10.0887" fill="#DEE5F5"/>
<ellipse cx="378.523" cy="118.686" rx="2.39814" ry="2.977" fill="#3D58FF"/>
<path d="M372.455 127.397C373.301 124.835 375.699 122.987 378.524 122.987C381.258 122.987 383.591 124.717 384.506 127.151C383.016 129.262 380.829 130.595 378.391 130.595C376.049 130.595 373.938 129.365 372.455 127.397Z" fill="#3D58FF"/>
<path d="M370.543 139.899L386.415 141.25M373.582 143.952L383.376 144.965" stroke="#CDDCFF" stroke-width="2" stroke-linecap="round"/>
<path d="M435.591 70.259L435.462 6.72322C435.456 4.12033 433.455 1.9569 430.86 1.74933L428.13 1.53092C427.392 1.47189 426.65 1.57746 425.958 1.84003L375.043 21.1535C373.101 21.8902 371.816 23.7511 371.816 25.8284V79.4837C371.816 82.5827 374.606 84.9353 377.661 84.4119L431.435 75.1973C433.84 74.7853 435.596 72.6984 435.591 70.259Z" fill="#E8EBF2"/>
<path fill-rule="evenodd" clip-rule="evenodd" d="M435.466 9.54649H430.384L427.007 6.50711L425.592 1.97737L425.957 1.83895C426.649 1.57638 427.391 1.47081 428.129 1.52984L430.859 1.74825C433.453 1.95582 435.455 4.11925 435.46 6.72214L435.466 9.54649Z" fill="#D2DBEE"/>
<path d="M430.557 70.9065V7.16505C430.557 3.68784 427.095 1.27237 423.832 2.47207L370.048 22.2423C368.081 22.9655 366.773 24.8391 366.773 26.9353V80.0476C366.773 83.1438 369.558 85.4957 372.611 84.9769L426.394 75.8358C428.798 75.4273 430.557 73.3447 430.557 70.9065Z" fill="#EFF2FA"/>
<path fill-rule="evenodd" clip-rule="evenodd" d="M430.555 9.62106L366.771 31.0874V26.9353C366.771 24.8392 368.079 22.9655 370.046 22.2423L423.83 2.47211C427.094 1.27241 430.555 3.68788 430.555 7.16509V9.62106Z" fill="#DEE5F5"/>
<g filter="url(#filter2_d_362_1244)">
<path d="M371.285 37.4928C371.285 35.3268 372.68 33.4071 374.74 32.7377L418.773 18.4268C422.004 17.3768 425.319 19.785 425.319 23.182V38.7132C425.319 41.0185 423.742 43.025 421.503 43.5709L377.469 54.3041C374.321 55.0715 371.285 52.687 371.285 49.4463V37.4928Z" fill="white"/>
</g>
<ellipse cx="380.403" cy="41.5757" rx="6.41646" ry="8.39076" fill="#DEE5F5"/>
<ellipse cx="380.507" cy="40.0627" rx="1.89338" ry="2.47596" fill="#3D58FF"/>
<path d="M375.719 47.3053C376.387 45.1739 378.28 43.637 380.51 43.637C382.669 43.637 384.511 45.0761 385.233 47.1006C384.057 48.856 382.33 49.9645 380.405 49.9645C378.556 49.9645 376.89 48.9418 375.719 47.3053Z" fill="#3D58FF"/>
<ellipse cx="383.332" cy="66.8405" rx="5.96887" ry="7.80545" fill="#DEE5F5"/>
<ellipse cx="383.429" cy="65.4328" rx="1.76131" ry="2.30325" fill="#3D58FF"/>
<path d="M378.975 72.1727C379.596 70.1899 381.357 68.7603 383.432 68.7603C385.44 68.7603 387.153 70.099 387.825 71.9822C386.731 73.6152 385.125 74.6464 383.334 74.6464C381.614 74.6464 380.064 73.695 378.975 72.1727Z" fill="#3D58FF"/>
<path d="M395.309 32.1391C395.266 32.0424 395.18 31.9822 395.091 31.986L393.865 32.037L393.188 30.7781C393.138 30.6857 393.049 30.6346 392.96 30.6481C392.871 30.6615 392.8 30.7366 392.78 30.8396L392.503 32.2419L391.317 32.554C391.23 32.577 391.166 32.6597 391.154 32.7646C391.141 32.8696 391.183 32.9764 391.261 33.0363L392.316 33.8522L392.259 35.3043C392.255 35.4111 392.305 35.5133 392.387 35.5647C392.431 35.5925 392.479 35.6025 392.525 35.5956C392.564 35.5897 392.601 35.5713 392.633 35.5409L393.561 34.6429L394.712 35.2279C394.797 35.2708 394.892 35.2513 394.954 35.1782C395.017 35.1051 395.035 34.9927 395 34.8919L394.518 33.5207L395.286 32.4303C395.343 32.3503 395.352 32.236 395.309 32.1391Z" fill="#FEAF45"/>
<path d="M401.369 30.259C401.327 30.1622 401.241 30.1021 401.151 30.1059L399.926 30.1568L399.249 28.898C399.199 28.8056 399.109 28.7545 399.02 28.7679C398.931 28.7814 398.861 28.8565 398.84 28.9595L398.564 30.3618L397.378 30.6739C397.291 30.6969 397.227 30.7796 397.214 30.8845C397.202 30.9895 397.244 31.0963 397.321 31.1562L398.376 31.9721L398.32 33.4242C398.316 33.531 398.366 33.6332 398.447 33.6846C398.491 33.7124 398.539 33.7223 398.585 33.7155C398.625 33.7095 398.662 33.6911 398.693 33.6608L399.622 32.7628L400.773 33.3478C400.857 33.3906 400.952 33.3712 401.015 33.2981C401.078 33.225 401.095 33.1126 401.06 33.0117L400.579 31.6405L401.347 30.5502C401.403 30.4702 401.412 30.3559 401.369 30.259Z" fill="#FEAF45"/>
<path d="M407.432 28.3257C407.389 28.229 407.303 28.1688 407.214 28.1726L405.988 28.2236L405.311 26.9647C405.261 26.8723 405.172 26.8212 405.083 26.8347C404.994 26.8481 404.923 26.9232 404.903 27.0262L404.627 28.4285L403.44 28.7406C403.353 28.7636 403.289 28.8463 403.277 28.9512C403.264 29.0562 403.306 29.163 403.384 29.2229L404.439 30.0388L404.382 31.491C404.378 31.5977 404.428 31.7 404.51 31.7513C404.554 31.7791 404.602 31.7891 404.648 31.7822C404.687 31.7763 404.725 31.7579 404.756 31.7275L405.684 30.8295L406.835 31.4145C406.92 31.4574 407.015 31.4379 407.078 31.3648C407.14 31.2917 407.158 31.1793 407.123 31.0785L406.641 29.7073L407.409 28.6169C407.466 28.5369 407.475 28.4226 407.432 28.3257Z" fill="#FEAF45"/>
<path d="M413.489 26.5944C413.446 26.4977 413.36 26.4375 413.27 26.4413L412.045 26.4923L411.368 25.2334C411.318 25.141 411.228 25.0899 411.139 25.1034C411.05 25.1168 410.98 25.1919 410.959 25.2949L410.683 26.6972L409.497 27.0093C409.41 27.0323 409.346 27.115 409.333 27.2199C409.321 27.3249 409.363 27.4317 409.44 27.4916L410.495 28.3075L410.439 29.7596C410.435 29.8664 410.485 29.9686 410.567 30.02C410.61 30.0478 410.659 30.0578 410.704 30.0509C410.744 30.045 410.781 30.0266 410.813 29.9962L411.741 29.0982L412.892 29.6832C412.976 29.7261 413.071 29.7066 413.134 29.6335C413.197 29.5604 413.215 29.448 413.179 29.3472L412.698 27.976L413.466 26.8856C413.522 26.8056 413.531 26.6913 413.489 26.5944Z" fill="#FEAF45"/>
<path d="M419.502 24.7734C419.455 24.6772 419.359 24.6186 419.258 24.6241L417.871 24.6994L417.13 23.4502C417.076 23.3584 416.975 23.309 416.874 23.3242C416.773 23.3394 416.692 23.4162 416.667 23.5199L416.327 24.9318L414.979 25.2682C414.88 25.293 414.806 25.3772 414.79 25.4826C414.774 25.5882 414.819 25.6945 414.906 25.753L416.083 26.5506L415.99 28.0082C415.984 28.1153 416.038 28.2169 416.129 28.2668C416.179 28.2938 416.233 28.3028 416.285 28.295C416.329 28.2883 416.372 28.2691 416.408 28.238L417.476 27.3191L418.766 27.8831C418.861 27.9244 418.969 27.9031 419.041 27.8285C419.113 27.7539 419.136 27.6408 419.098 27.5404L418.58 26.1746L419.471 25.0659C419.536 24.9845 419.548 24.8698 419.502 24.7734Z" fill="#FEAF45"/>
<path d="M398.757 58.7863C398.726 58.6929 398.652 58.6296 398.568 58.6251L397.429 58.5634L396.914 57.3376C396.876 57.2475 396.798 57.1923 396.714 57.1968C396.63 57.2013 396.558 57.2646 396.53 57.3582L396.15 58.6322L395.024 58.8157C394.941 58.8293 394.874 58.9002 394.853 58.9962C394.833 59.0923 394.862 59.195 394.928 59.2573L395.833 60.1066L395.652 61.4463C395.638 61.5448 395.676 61.6439 395.747 61.6987C395.785 61.7283 395.828 61.7418 395.871 61.7395C395.908 61.7375 395.945 61.7238 395.976 61.6985L396.916 60.9495L397.93 61.5934C398.004 61.6406 398.094 61.6311 398.158 61.569C398.223 61.5069 398.249 61.4043 398.226 61.3078L397.902 59.9953L398.71 59.0539C398.769 58.9848 398.788 58.8798 398.757 58.7863Z" fill="#FEAF45"/>
<path d="M404.534 57.5838C404.503 57.4904 404.429 57.4271 404.345 57.4226L403.206 57.3609L402.691 56.1351C402.653 56.045 402.575 55.9898 402.491 55.9943C402.408 55.9988 402.335 56.0621 402.308 56.1557L401.927 57.4297L400.801 57.6132C400.718 57.6268 400.652 57.6977 400.631 57.7937C400.61 57.8898 400.639 57.9925 400.706 58.0548L401.61 58.9041L401.429 60.2437C401.416 60.3422 401.453 60.4414 401.524 60.4962C401.562 60.5258 401.606 60.5393 401.649 60.537C401.686 60.535 401.722 60.5213 401.754 60.496L402.693 59.747L403.707 60.3909C403.781 60.4381 403.871 60.4286 403.936 60.3665C404 60.3044 404.027 60.2018 404.003 60.1053L403.679 58.7928L404.487 57.8514C404.547 57.7823 404.565 57.6773 404.534 57.5838Z" fill="#FEAF45"/>
<path d="M410.319 56.3319C410.288 56.2386 410.214 56.1753 410.131 56.1708L408.991 56.1091L408.476 54.8833C408.438 54.7932 408.36 54.738 408.276 54.7425C408.193 54.747 408.121 54.8103 408.093 54.9039L407.712 56.1779L406.586 56.3614C406.503 56.375 406.437 56.4459 406.416 56.5419C406.395 56.638 406.425 56.7406 406.491 56.803L407.395 57.6523L407.214 58.9919C407.201 59.0904 407.238 59.1896 407.309 59.2444C407.347 59.274 407.391 59.2875 407.434 59.2852C407.471 59.2832 407.507 59.2695 407.539 59.2442L408.478 58.4952L409.492 59.1391C409.567 59.1863 409.656 59.1768 409.721 59.1147C409.786 59.0525 409.812 58.95 409.788 58.8535L409.464 57.541L410.273 56.5996C410.332 56.5305 410.35 56.4255 410.319 56.3319Z" fill="#FEAF45"/>
<path d="M416.085 55.2687C416.054 55.1753 415.98 55.112 415.896 55.1075L414.757 55.0458L414.242 53.82C414.204 53.7299 414.126 53.6747 414.042 53.6792C413.958 53.6837 413.886 53.747 413.858 53.8406L413.478 55.1146L412.352 55.2981C412.269 55.3117 412.202 55.3826 412.181 55.4786C412.161 55.5747 412.19 55.6774 412.257 55.7397L413.161 56.589L412.98 57.9286C412.967 58.0271 413.004 58.1263 413.075 58.1811C413.113 58.2107 413.157 58.2242 413.2 58.2219C413.236 58.2199 413.273 58.2062 413.305 58.1809L414.244 57.4319L415.258 58.0758C415.332 58.123 415.422 58.1135 415.487 58.0514C415.551 57.9893 415.578 57.8867 415.554 57.7902L415.23 56.4777L416.038 55.5363C416.097 55.4672 416.116 55.3622 416.085 55.2687Z" fill="#FEAF45"/>
<path d="M421.814 54.1172C421.78 54.024 421.696 53.9612 421.602 53.9573L420.311 53.9038L419.736 52.6812C419.693 52.5914 419.605 52.5367 419.51 52.5418C419.415 52.5469 419.333 52.6108 419.301 52.7046L418.86 53.9818L417.582 54.1735C417.488 54.1877 417.412 54.2591 417.388 54.3552C417.364 54.4516 417.396 54.554 417.471 54.6159L418.49 55.4591L418.275 56.8005C418.26 56.8992 418.301 56.998 418.381 57.0524C418.424 57.0818 418.473 57.0949 418.522 57.0923C418.564 57.0901 418.605 57.0761 418.642 57.0505L419.712 56.2945L420.857 56.9314C420.941 56.9781 421.042 56.9679 421.116 56.9053C421.19 56.8427 421.22 56.7399 421.194 56.6435L420.837 55.3329L421.759 54.3853C421.827 54.3158 421.849 54.2106 421.814 54.1172Z" fill="#D2DBEE"/>
<path d="M392.9 39.9398L418.229 32.5102M393.238 44.6677L411.812 39.2644" stroke="#CDDCFF" stroke-width="2" stroke-linecap="round"/>
<path d="M396.277 65.9428L406.746 63.9165M396.277 71.3461L421.943 66.2805" stroke="#CDDCFF" stroke-width="2" stroke-linecap="round"/>
<path d="M362.202 81.5303L361.88 37.9015C361.855 34.5454 358.596 32.1662 355.392 33.1649L295.66 51.7832C293.571 52.4344 292.148 54.3684 292.148 56.5567V89.8434C292.148 92.8762 294.826 95.2106 297.831 94.7966L357.885 86.5204C360.373 86.1775 362.221 84.042 362.202 81.5303Z" fill="#E8EBF2"/>
<path fill-rule="evenodd" clip-rule="evenodd" d="M361.892 36.8954H357.107L292.604 54.2158C293.133 53.0557 294.098 52.115 295.337 51.6322L352.271 29.4356C352.789 29.2334 353.338 29.1192 353.895 29.0978L356.679 28.9907C359.5 28.8822 361.851 31.1288 361.871 33.9516L361.892 36.8954Z" fill="#D2DBEE"/>
<path d="M357.195 82.1096V34.6881C357.195 31.1987 353.712 28.7825 350.443 30.0051L290.357 52.4834C288.404 53.2142 287.109 55.0807 287.109 57.1664V90.3228C287.109 93.3534 289.784 95.6872 292.786 95.2768L352.872 87.0635C355.349 86.725 357.195 84.6093 357.195 82.1096Z" fill="#EFF2FA"/>
<path fill-rule="evenodd" clip-rule="evenodd" d="M287.202 58.8527L357.108 36.9016L357.196 36.4489V34.6875C357.196 31.1981 353.712 28.7818 350.444 30.0044L290.357 52.4827C288.404 53.2135 287.109 55.0801 287.109 57.1658V58.8992L287.202 58.8527Z" fill="#DEE5F5"/>
<path d="M291.25 64.4796C291.25 62.3275 292.627 60.4168 294.669 59.7362L298.853 58.3416C302.09 57.2624 305.434 59.6723 305.434 63.0851V67.6838C305.434 70.172 303.604 72.2816 301.141 72.6335L296.957 73.2312C293.945 73.6615 291.25 71.3242 291.25 68.2814V64.4796Z" fill="#DEE5F5"/>
<g filter="url(#filter3_d_362_1244)">
<path d="M291.59 81.2238C291.59 78.8232 293.296 76.7613 295.654 76.3121L299.838 75.5152C302.919 74.9283 305.774 77.2904 305.774 80.4269V84.5696C305.774 87.0579 303.944 89.1675 301.481 89.5194L297.297 90.1171C294.285 90.5474 291.59 88.2101 291.59 85.1673V81.2238Z" fill="#3D58FF"/>
</g>
<path d="M299.214 87.4656L297.188 85.4393L298.876 84.4262L301.915 87.4656H299.214Z" fill="#CDD4FF"/>
<path d="M298.877 78.3479L294.486 82.7381L295.837 84.089L301.916 78.3479H298.877Z" fill="white"/>
<path d="M296.513 84.7644L298.877 82.4004H301.916L297.863 86.1152L296.513 84.7644Z" fill="white"/>
<path d="M309.15 60.0901C309.15 57.938 310.528 56.0273 312.569 55.3467L316.753 53.9521C319.991 52.8729 323.334 55.2828 323.334 58.6956V64.3074C323.334 66.7956 321.504 68.9052 319.041 69.2571L314.857 69.8548C311.845 70.2851 309.15 67.9478 309.15 64.9051V60.0901Z" fill="#DEE5F5"/>
<path d="M311.765 60.4274C311.389 60.1713 312.11 59.2442 312.721 59.0973C313.268 58.9658 317.154 62.5962 319.378 64.4867L319.448 64.8162L318.963 65.6267L318.052 66.3427C316.079 64.6229 312.241 60.7512 311.765 60.4274Z" fill="#A8BBE4"/>
<path d="M313.06 65.1754C312.762 65.5265 311.739 64.4993 311.71 63.8245C311.683 63.221 315.531 58.9028 317.64 56.8949L317.953 56.8811L318.967 58.5269C317.057 60.3007 313.438 64.7312 313.06 65.1754Z" fill="#BDCDF0"/>
<path d="M317.969 57.2191C317.957 56.9492 317.745 56.8909 317.641 56.8955C317.88 56.6146 319.441 57.38 320.192 57.7979L320.517 65.2203L318.055 66.3423C318.055 66.3423 318.358 66.1036 318.353 65.9912L317.969 57.2191Z" fill="#CDDAF6"/>
<path d="M309.49 77.8474C309.49 75.4467 311.196 73.3849 313.555 72.9357L317.738 72.1388C320.82 71.5519 323.674 73.9139 323.674 77.0505V82.4404C323.674 84.9732 321.78 87.1059 319.265 87.4054L315.081 87.9034C312.107 88.2576 309.49 85.9342 309.49 82.9385V77.8474Z" fill="#DEE5F5"/>
<rect x="313.396" y="74.9705" width="6.07875" height="3.37709" rx="1.68854" fill="#CDDAF6"/>
<path d="M313.396 80.0365C313.396 79.1039 314.152 78.3479 315.085 78.3479H316.774V81.725H315.085C314.152 81.725 313.396 80.969 313.396 80.0365Z" fill="#BDCDF0"/>
<path d="M320.154 76.659C320.154 75.7265 319.398 74.9705 318.466 74.9705H316.777V78.3476H318.466C319.398 78.3476 320.154 77.5916 320.154 76.659Z" fill="#BDCDF0"/>
<path d="M313.396 83.413C313.396 82.4804 314.152 81.7244 315.085 81.7244H316.774V83.5665C316.774 84.4143 316.086 85.1015 315.239 85.1015H315.085C314.152 85.1015 313.396 84.3455 313.396 83.413Z" fill="#A7BBE4"/>
<circle cx="318.462" cy="80.0365" r="1.68854" fill="#A7BBE4"/>
<path d="M297.641 59.8628C297.534 59.8959 297.441 60.0015 297.39 60.1534L295.687 65.2208C295.629 65.3937 295.628 65.5986 295.685 65.7725L296.183 67.2942C296.25 67.5009 296.389 67.6315 296.54 67.6315H298.834C298.989 67.6315 299.131 67.4937 299.196 67.2783L299.658 65.759C299.709 65.5925 299.707 65.4001 299.655 65.2351L298.04 60.1641C297.999 60.0339 297.927 59.9361 297.841 59.887V64.7524C298.013 64.8201 298.14 65.059 298.14 65.3434C298.14 65.6803 297.962 65.9535 297.741 65.9535C297.52 65.9535 297.342 65.6803 297.342 65.3434C297.342 65.059 297.469 64.8201 297.641 64.7524V59.8628Z" fill="#BDCDF0"/>
<path d="M296.044 68.5468C296.044 68.2098 296.222 67.9366 296.443 67.9366H299.039C299.26 67.9366 299.438 68.2098 299.438 68.5468C299.438 68.8838 299.26 69.157 299.039 69.157H296.443C296.222 69.157 296.044 68.8838 296.044 68.5468Z" fill="#BDCDF0"/>
<path d="M296.737 70.0593C296.737 69.7223 296.916 69.4491 297.137 69.4491H298.435C298.655 69.4491 298.834 69.7223 298.834 70.0593C298.834 70.3963 298.655 70.6695 298.435 70.6695H297.137C296.916 70.6695 296.737 70.3963 296.737 70.0593Z" fill="#BDCDF0"/>
<path d="M328.594 60.1116L352.233 53.6951M328.931 65.1772L348.519 60.1116M328.594 74.633L349.869 70.2428M328.594 80.3741L352.233 76.3216M328.594 55.3836L343.453 51.3311" stroke="#CDDCFF" stroke-width="2" stroke-linecap="round"/>
<path d="M345.82 140.977V101.57C345.82 98.563 343.186 96.2363 340.202 96.608L292.116 102.599C289.613 102.911 287.734 105.038 287.734 107.56V135.628C287.734 138.176 289.65 140.316 292.182 140.598L340.268 145.947C343.23 146.276 345.82 143.958 345.82 140.977Z" fill="#E8EBF2"/>
<path fill-rule="evenodd" clip-rule="evenodd" d="M329.556 98.0357L340.212 96.7332C343.192 96.369 345.818 98.6943 345.818 101.696V105.226H341.582C338.293 103.297 332.78 100.032 329.556 98.0357Z" fill="#D2DBEE"/>
<path d="M341.768 140.985V102.235C341.768 99.2316 339.139 96.906 336.158 97.2724L288.072 103.183C285.565 103.491 283.682 105.62 283.682 108.146V135.707C283.682 138.258 285.601 140.399 288.136 140.677L336.222 145.955C339.182 146.28 341.768 143.962 341.768 140.985Z" fill="#EFF2FA"/>
<path fill-rule="evenodd" clip-rule="evenodd" d="M341.766 105.348L283.803 108.306L283.701 107.697C283.912 105.376 285.717 103.481 288.071 103.191L336.156 97.2814C339.137 96.9151 341.766 99.2407 341.766 102.244V105.348Z" fill="#DEE5F5"/>
<g filter="url(#filter4_d_362_1244)">
<path d="M286.383 115.31C286.383 112.597 288.545 110.38 291.256 110.311L294.765 110.222C297.575 110.151 299.891 112.41 299.891 115.221V132.926C299.891 135.887 297.331 138.2 294.385 137.9L290.877 137.543C288.324 137.283 286.383 135.134 286.383 132.569V115.31Z" fill="white"/>
<path d="M298.539 118.535C298.539 117.039 298.024 115.601 297.103 114.529C296.181 113.457 294.927 112.836 293.607 112.796C292.287 112.757 291.006 113.303 290.036 114.319C289.066 115.334 288.485 116.739 288.415 118.233C288.346 119.728 288.794 121.194 289.664 122.319C290.534 123.444 291.758 124.14 293.074 124.258C294.391 124.376 295.695 123.907 296.711 122.951C297.727 121.995 298.373 120.627 298.511 119.139L296.342 118.879C296.263 119.726 295.895 120.505 295.317 121.049C294.739 121.594 293.996 121.861 293.246 121.794C292.497 121.726 291.8 121.33 291.305 120.69C290.809 120.049 290.554 119.214 290.594 118.363C290.633 117.512 290.964 116.713 291.517 116.135C292.069 115.556 292.798 115.245 293.55 115.268C294.301 115.29 295.015 115.644 295.54 116.255C296.064 116.865 296.358 117.683 296.358 118.535H298.539Z" fill="#DEE5F5"/>
<path d="M298.539 118.535C298.539 119.888 298.118 121.198 297.349 122.233C296.58 123.268 295.513 123.962 294.337 124.192C293.16 124.423 291.95 124.175 290.919 123.493C289.888 122.81 289.103 121.737 288.702 120.462C288.301 119.188 288.311 117.794 288.728 116.526C289.146 115.259 289.946 114.199 290.986 113.535C292.026 112.87 293.239 112.643 294.412 112.894C295.586 113.144 296.643 113.857 297.398 114.905L295.708 116.468C295.278 115.871 294.676 115.466 294.008 115.323C293.34 115.18 292.649 115.31 292.057 115.688C291.465 116.066 291.01 116.67 290.772 117.391C290.534 118.113 290.529 118.907 290.757 119.632C290.985 120.358 291.432 120.969 292.019 121.358C292.606 121.746 293.295 121.887 293.965 121.756C294.635 121.625 295.242 121.23 295.68 120.641C296.118 120.051 296.358 119.306 296.358 118.535H298.539Z" fill="#48C5A1"/>
<path d="M289.76 126.978L296.852 127.315M291.448 130.017L295.163 130.355" stroke="#CDDCFF" stroke-width="2" stroke-linecap="round"/>
</g>
<g filter="url(#filter5_d_362_1244)">
<path d="M302.592 114.666C302.592 111.951 304.759 109.731 307.474 109.668L313.009 109.537C315.815 109.471 318.126 111.728 318.126 114.536V134.575C318.126 137.551 315.544 139.868 312.586 139.546L307.051 138.945C304.514 138.669 302.592 136.526 302.592 133.974V114.666Z" fill="white"/>
<path d="M316.099 118.198C316.099 116.437 315.515 114.747 314.471 113.485C313.427 112.224 312.005 111.493 310.509 111.446C309.013 111.4 307.561 112.043 306.462 113.237C305.363 114.432 304.704 116.085 304.625 117.843C304.546 119.601 305.054 121.326 306.041 122.65C307.027 123.974 308.414 124.792 309.905 124.931C311.397 125.07 312.876 124.518 314.027 123.393C315.178 122.268 315.91 120.659 316.067 118.908L313.609 118.602C313.519 119.599 313.102 120.515 312.447 121.156C311.792 121.796 310.95 122.111 310.1 122.032C309.251 121.952 308.461 121.486 307.9 120.733C307.338 119.979 307.049 118.997 307.094 117.996C307.139 116.995 307.514 116.054 308.14 115.374C308.766 114.693 309.593 114.327 310.444 114.354C311.296 114.38 312.105 114.797 312.7 115.515C313.294 116.233 313.627 117.196 313.627 118.198H316.099Z" fill="#DEE5F5"/>
<path d="M305.287 115.031C305.667 114.191 306.193 113.454 306.831 112.869C307.469 112.284 308.206 111.865 308.991 111.638C309.777 111.411 310.595 111.383 311.391 111.554C312.187 111.725 312.943 112.092 313.61 112.631C314.276 113.17 314.839 113.869 315.26 114.682C315.681 115.495 315.952 116.403 316.054 117.347C316.155 118.291 316.087 119.25 315.851 120.161C315.616 121.072 315.22 121.914 314.689 122.632L312.824 120.722C313.126 120.314 313.352 119.834 313.486 119.316C313.62 118.797 313.659 118.251 313.601 117.714C313.543 117.176 313.389 116.659 313.149 116.196C312.909 115.733 312.589 115.336 312.209 115.029C311.83 114.722 311.399 114.513 310.946 114.415C310.493 114.318 310.027 114.334 309.58 114.463C309.133 114.592 308.713 114.831 308.35 115.164C307.987 115.497 307.687 115.916 307.471 116.395L305.287 115.031Z" fill="#F65D6D"/>
<path d="M306.645 127.653L313.736 127.99M308.333 130.692L312.048 131.03" stroke="#CDDCFF" stroke-width="2" stroke-linecap="round"/>
</g>
<g filter="url(#filter6_d_362_1244)">
<path d="M320.826 113.343C320.826 110.622 323.002 108.401 325.722 108.344L333.958 108.172C336.76 108.114 339.062 110.369 339.062 113.171V136.907C339.062 139.894 336.461 142.214 333.494 141.874L325.257 140.932C322.733 140.642 320.826 138.505 320.826 135.964V113.343Z" fill="white"/>
<path d="M337.035 117.86C337.035 115.836 336.314 113.891 335.024 112.441C333.734 110.99 331.978 110.149 330.13 110.096C328.282 110.042 326.488 110.781 325.131 112.155C323.773 113.529 322.959 115.43 322.861 117.451C322.764 119.473 323.391 121.457 324.61 122.979C325.828 124.502 327.541 125.444 329.384 125.603C331.227 125.763 333.054 125.128 334.476 123.835C335.897 122.541 336.802 120.69 336.996 118.677L333.959 118.325C333.848 119.471 333.333 120.525 332.524 121.262C331.714 121.998 330.674 122.36 329.625 122.269C328.576 122.178 327.6 121.642 326.907 120.775C326.213 119.908 325.856 118.779 325.911 117.628C325.967 116.476 326.43 115.394 327.203 114.612C327.976 113.83 328.998 113.409 330.05 113.439C331.102 113.47 332.102 113.949 332.836 114.775C333.57 115.6 333.981 116.707 333.981 117.86H337.035Z" fill="#DEE5F5"/>
<path d="M337.035 117.86C337.035 119.138 336.748 120.395 336.198 121.522C335.648 122.648 334.853 123.609 333.883 124.318C332.914 125.028 331.799 125.465 330.639 125.59C329.478 125.715 328.307 125.525 327.229 125.036C326.152 124.547 325.201 123.775 324.461 122.788C323.721 121.8 323.215 120.628 322.988 119.376C322.76 118.123 322.818 116.828 323.157 115.605C323.495 114.383 324.104 113.271 324.929 112.368L327.088 114.733C326.619 115.247 326.272 115.881 326.08 116.576C325.887 117.272 325.854 118.01 325.983 118.723C326.113 119.436 326.401 120.104 326.822 120.666C327.243 121.228 327.785 121.668 328.398 121.946C329.012 122.224 329.678 122.333 330.339 122.261C331 122.19 331.635 121.941 332.187 121.537C332.739 121.133 333.191 120.586 333.504 119.945C333.817 119.303 333.981 118.587 333.981 117.86H337.035Z" fill="#EC9216"/>
<path d="M326.229 129.004L333.32 129.342M327.917 132.044L331.632 132.381" stroke="#CDDCFF" stroke-width="2" stroke-linecap="round"/>
</g>
<path d="M365.212 218.88L365.258 160.625C365.26 158.047 363.302 155.89 360.735 155.644L287.127 148.585C284.007 148.286 281.385 150.898 281.671 154.019L285.799 199.06C285.981 201.049 287.33 202.739 289.23 203.358L355.83 225.047C357.079 225.454 358.439 225.353 359.614 224.765L362.448 223.348C364.14 222.502 365.21 220.772 365.212 218.88Z" fill="#E8EBF2"/>
<mask id="mask0_362_1244" style="mask-type:alpha" maskUnits="userSpaceOnUse" x="281" y="148" width="85" height="78">
<path d="M365.161 218.873L365.207 160.624C365.209 158.046 363.25 155.888 360.683 155.643L286.791 148.581C283.671 148.283 281.049 150.896 281.336 154.016L285.479 199.055C285.662 201.046 287.013 202.736 288.914 203.353L355.759 225.049C357.005 225.453 358.36 225.353 359.533 224.768L362.391 223.344C364.087 222.499 365.159 220.768 365.161 218.873Z" fill="#E8EBF2"/>
</mask>
<g mask="url(#mask0_362_1244)">
<path d="M365.887 165.906L360.146 167.256L280.109 154.086L283.486 145.981L366.225 154.086L365.887 165.906Z" fill="#D2DBEE"/>
</g>
<path d="M360.221 219.405V159.912C360.221 157.341 358.271 155.189 355.712 154.937L286.55 148.109C283.608 147.818 281.059 150.129 281.059 153.084V197.599C281.059 199.782 282.474 201.712 284.555 202.368L353.717 224.174C356.939 225.19 360.221 222.784 360.221 219.405Z" fill="#EFF2FA"/>
<mask id="mask1_362_1244" style="mask-type:alpha" maskUnits="userSpaceOnUse" x="281" y="148" width="80" height="77">
<path d="M360.221 219.405V159.913C360.221 157.341 358.271 155.189 355.712 154.937L286.55 148.109C283.608 147.818 281.059 150.129 281.059 153.084V197.599C281.059 199.782 282.474 201.712 284.555 202.368L353.717 224.174C356.939 225.19 360.221 222.784 360.221 219.405Z" fill="#EFF2FA"/>
</mask>
<g mask="url(#mask1_362_1244)">
<path d="M364.873 167.932L278.42 155.775L281.122 145.306L364.873 155.775V167.932Z" fill="#DEE5F5"/>
</g>
<path d="M292.797 170.206C296.512 171.782 303.356 176.783 304.617 183.714C305.292 187.429 314.073 180.337 316.436 178.987C319.369 177.311 333.322 168.18 333.66 185.065C333.93 198.574 345.029 197.673 350.545 195.534" stroke="#DEE5F5" stroke-width="2"/>
<g filter="url(#filter7_d_362_1244)">
<path d="M293.305 176.833C293.305 176.833 300.58 181.651 303.437 178.86C306.384 175.98 312.147 166.279 318.181 171.972C324.215 177.666 321.535 184.054 326.231 184.187C333.778 184.401 335.525 178.109 341.18 181.239C344.966 183.334 342.534 191.468 350.016 191.297" stroke="#3D58FF" stroke-width="3" stroke-linecap="round" stroke-linejoin="round"/>
</g>
<ellipse cx="289.079" cy="193.845" rx="2.02625" ry="2.70167" fill="#3D58FF"/>
<path d="M295.158 193.508L307.316 197.561M295.158 196.885L301.912 199.249M319.811 201.951C320.081 201.951 323.751 203.076 325.552 203.639M319.811 205.328L328.591 208.367M340.749 210.731L350.542 214.108" stroke="#CDDCFF" stroke-width="2" stroke-linecap="round"/>
<ellipse cx="314.073" cy="202.626" rx="2.02625" ry="2.70167" fill="#E44758"/>
<ellipse cx="337.036" cy="209.38" rx="2.02625" ry="2.70167" fill="#0CAF80"/>
<path d="M230.079 81.8892C237.945 77.8555 238.231 84.0742 237.39 87.6877L166.043 87.6877C166.648 81.2337 172.682 81.8051 175.623 82.8976C180.061 78.0571 186.38 79.3681 188.985 80.6286C191.809 78.0067 194.532 79.5362 195.54 80.6288C205.221 69.1326 215.877 75.8387 219.995 80.6288C224.835 76.7967 228.734 79.8724 230.079 81.8892Z" fill="#EFF2FA"/>
<circle r="7.5" transform="matrix(-1 0 0 1 209.982 267.395)" stroke="#242E6C" stroke-width="10.2109"/>
<circle r="7.5" transform="matrix(-1 0 0 1 84.9356 261.849)" stroke="#242E6C" stroke-width="10.2109"/>
<path d="M200.151 226.301C195.865 236.806 183.511 258.168 178.469 259.58C173.427 260.991 182.923 259.58 187.041 259.58L190.719 255.591L206.201 250.504L205.445 246.974L195.007 250.941L204.941 240.167L200.151 226.301Z" fill="#E44758"/>
<rect width="3.36667" height="122.757" rx="1.68333" transform="matrix(-0.983918 0.178622 0.178622 0.983918 188.057 137.811)" fill="#9D303C"/>
<path d="M133.997 247.636L144.533 226.995L132.677 224.265L124.934 244.531C120.519 246.216 119.986 251.453 119.914 253.738L148.773 263.625C149.76 259.965 148.342 257.881 142.537 256.158C137.892 254.78 134.908 249.903 133.997 247.636Z" fill="#FFAD95"/>
<mask id="mask2_362_1244" style="mask-type:alpha" maskUnits="userSpaceOnUse" x="119" y="224" width="31" height="40">
<path d="M133.997 247.636L144.533 226.995L132.677 224.265L124.934 244.531C120.519 246.216 119.986 251.453 119.914 253.738L148.773 263.625C149.76 259.965 148.342 257.881 142.537 256.158C137.892 254.78 134.908 249.903 133.997 247.636Z" fill="#FFAD95"/>
</mask>
<g mask="url(#mask2_362_1244)">
<path d="M127.986 232.518C131.622 232.484 137.756 236.931 140.368 239.158L134.123 251.942L120.659 250.794C121.586 244.716 124.35 232.551 127.986 232.518Z" fill="white"/>
<path d="M127.405 234.984C131.934 234.83 137.274 240.142 139.378 242.817L136.973 244.391C134.59 239.524 129.056 237.682 126.588 237.369L127.405 234.984Z" fill="#EC9216"/>
<path d="M128.34 247.031C127.09 243.832 125.443 243.818 124.775 244.211L120.844 247.128L118.393 254.283L150.516 264.756C150.079 262.918 149.191 259.132 149.131 258.685C149.071 258.238 139.488 251.828 134.704 248.679C133.103 249.463 129.589 250.231 128.34 247.031Z" fill="#3D58FF"/>
<path d="M125.278 250.822C125.75 252.007 131.33 256.536 134.06 258.652L121.123 257.626C120.303 255.064 119.142 249.507 121.064 247.781C123.465 245.623 124.645 248.586 124.66 248.837C124.674 249.089 124.688 249.341 125.278 250.822Z" fill="#2D44D5"/>
<path fill-rule="evenodd" clip-rule="evenodd" d="M140.447 258.372C134.008 256.166 129.77 251.889 128.03 246.389C128.009 246.324 127.99 246.259 127.974 246.196C128.1 246.447 128.223 246.724 128.343 247.031C128.877 248.4 129.282 247.783 129.931 246.794C130.799 245.472 132.105 243.484 134.74 244.692C137.687 246.632 142.441 251.32 145.672 254.74L146.354 257.465L140.447 258.372Z" fill="#6B80FD"/>
<path d="M138.244 260.636C135.643 264.793 145.161 264.911 150.363 264.435L149.224 257.648L146.914 257.39C145.534 256.586 142.167 255.996 139.104 259.511L119.848 252.381L119.352 254.609L138.244 260.636Z" fill="white"/>
<path d="M137.426 257.072C137.857 256.332 139.949 254.685 142.304 255.279M134.332 255.213C134.764 254.472 136.057 252.979 137.779 252.929M131.088 252.236C131.333 251.52 133.82 249.707 135.81 250.123" stroke="white" stroke-width="2" stroke-linecap="round"/>
</g>
<path d="M134.543 249.154C136.56 249.49 140.566 249.619 140.457 247.45C140.347 245.28 136.468 247.682 134.543 249.154ZM134.543 249.154C135.006 247.803 135.516 245.224 133.854 245.72C132.191 246.217 133.62 248.217 134.543 249.154Z" stroke="#2537A9"/>
<rect width="79.1622" height="5.54639" rx="2.7732" transform="matrix(-1 0 0 1 183.26 261.343)" fill="#9D303C"/>
<path d="M79.1357 237.393C99.9094 239.41 104.263 253.696 103.842 260.587L95.5227 259.579C90.2789 244.856 77.539 245.881 71.8245 248.234C65.6058 243.78 58.3619 235.377 79.1357 237.393Z" fill="#E44758"/>
<path d="M187.291 261.092C187.291 259.839 186.275 258.823 185.022 258.823H84.6828C83.4296 258.823 82.4138 259.839 82.4138 261.092C82.4138 262.345 83.4296 263.361 84.6828 263.361H185.022C186.275 263.361 187.291 262.345 187.291 261.092Z" fill="#F65D6D"/>
<path d="M121.998 248.739L125.275 225.798L113.174 227.058L112.418 248.739C108.787 251.765 109.981 256.891 110.653 259.076H141.158C140.906 255.294 138.889 253.782 132.839 254.034C127.998 254.235 123.595 250.588 121.998 248.739Z" fill="#FFAD95"/>
<mask id="mask3_362_1244" style="mask-type:alpha" maskUnits="userSpaceOnUse" x="109" y="225" width="33" height="35">
<path d="M121.998 248.739L125.275 225.798L113.174 227.058L112.418 248.739C108.787 251.765 109.981 256.891 110.653 259.076H141.158C140.906 255.294 138.889 253.782 132.839 254.034C127.998 254.235 123.595 250.588 121.998 248.739Z" fill="#FFAD95"/>
</mask>
<g mask="url(#mask3_362_1244)">
<path d="M111.409 236.386C114.838 235.176 122.082 237.395 125.275 238.655L123.511 252.773L110.401 256.051C109.308 250 107.981 237.597 111.409 236.386Z" fill="white"/>
<path d="M111.661 238.906C115.897 237.293 122.67 240.587 125.527 242.436L123.763 244.705C119.931 240.873 114.098 240.923 111.661 241.427V238.906Z" fill="#EC9216"/>
<path d="M116.45 250C114.232 247.378 112.669 247.899 112.164 248.487L109.391 252.521V260.084L143.174 259.58C142.165 257.983 140.098 254.689 139.896 254.286C139.695 253.882 128.552 250.924 123.005 249.496C121.745 250.756 118.669 252.622 116.45 250Z" fill="#3D58FF"/>
<path fill-rule="evenodd" clip-rule="evenodd" d="M131.581 256.809C124.774 256.809 119.379 254.136 115.95 249.497C115.908 249.44 115.868 249.383 115.83 249.327C116.032 249.524 116.24 249.748 116.454 250.001C117.403 251.122 117.586 250.408 117.88 249.262C118.273 247.73 118.863 245.426 121.748 245.715C125.164 246.594 131.179 249.488 135.345 251.676L136.875 254.035L131.581 256.809Z" fill="#6B80FD"/>
<path d="M130.228 259.662C129.114 264.437 138.157 261.464 142.924 259.327L139.646 253.277L137.377 253.781C135.811 253.468 132.435 254.001 130.677 258.319L110.15 257.815L110.402 260.084L130.228 259.662Z" fill="white"/>
<path d="M128.3 256.555C128.468 255.715 129.914 253.479 132.334 253.278M124.771 255.799C124.939 254.958 125.678 253.126 127.292 252.521M120.737 254.034C120.737 253.278 122.502 250.757 124.519 250.504" stroke="white" stroke-width="2" stroke-linecap="round"/>
</g>
<path d="M123.008 250.001C125.025 249.665 128.857 248.488 128.05 246.472C127.243 244.455 124.353 247.984 123.008 250.001ZM123.008 250.001C123.008 248.573 122.655 245.967 121.243 246.976C119.832 247.984 121.832 249.413 123.008 250.001Z" stroke="#2537A9"/>
<path d="M167.379 89.4059C164.958 85.5739 163.513 80.5821 163.093 78.5652L157.546 75.0357L152.252 81.5905C152.504 85.7924 153.664 94.5489 156.286 95.9608C158.908 97.3726 161.412 96.3809 162.589 95.2044C163.194 97.423 160.824 97.8095 159.311 98.2297C161.126 98.4314 161.412 99.9945 161.328 100.751C168.135 99.4903 170.404 94.7002 167.379 89.4059Z" fill="#FFCA63"/>
<path d="M160.57 201.09C160.57 196.047 153.007 159.24 149.73 140.079L116.451 141.34L142.923 199.073C141.713 200.686 134.351 216.132 131.578 221.763C130.821 221.763 130.569 221.51 130.065 222.267C129.561 223.023 130.065 227.813 131.83 227.309C133.595 226.805 141.41 230.082 142.923 230.334C144.435 230.586 143.931 231.343 145.948 228.569C147.561 226.351 146.62 225.292 145.948 225.04C150.486 220.082 160.57 206.132 160.57 201.09Z" fill="#DCEBF1"/>
<path d="M148 98.0535C148.003 98.1849 148.006 98.3194 148.01 98.4568C147.686 98.6744 147.267 98.9463 146.734 99.2827C142.594 101.896 147.274 123.003 147.796 123.902C148.317 124.801 154.346 127.03 151.387 122.172C149.068 118.366 148.179 105.035 148.01 98.4568C149.698 97.3226 148.803 97.6664 148 98.0535Z" fill="white"/>
<path d="M149.819 83.6387C149.223 81.7579 153.303 77.0934 158.304 76.4543C163.306 75.8151 165.494 84.5835 165.664 85.1209L158.699 85.9094C157.147 86.3619 153.942 86.9444 153.533 85.6547C153.022 84.0426 155.15 84.7872 155.884 83.3718C156.618 81.9563 155.203 80.911 153.239 81.3713C151.808 81.7068 150.306 85.1774 149.819 83.6387Z" fill="#FFAD95"/>
<path fill-rule="evenodd" clip-rule="evenodd" d="M164.622 82.0756C164.573 82.075 164.521 82.0703 164.466 82.061C162.439 81.7233 157.373 80.0341 155.347 78.3462L156.377 76.9036C156.998 76.6941 157.643 76.5393 158.304 76.4548C158.316 76.4533 158.327 76.4519 158.338 76.4505L161.817 77.7029C163.071 78.8489 163.994 80.5743 164.622 82.0756Z" fill="#FF948D"/>
<path d="M157.536 85.832C160.332 82.9452 165.334 82.7629 167.486 83.0325C171.43 89.9756 181.854 110.036 183.039 116.044C184.52 123.555 174.632 130.182 167.319 127.257C156.221 122.818 141.708 82.0649 158.029 87.5716L157.536 85.832Z" fill="#2A3EC0"/>
<path fill-rule="evenodd" clip-rule="evenodd" d="M157.431 115.869C162.079 119.144 173.005 125.347 180.001 124.271C180.021 124.268 180.04 124.265 180.059 124.262C176.814 127.389 171.62 128.975 167.317 127.254C164.024 125.937 160.431 121.423 157.431 115.869Z" fill="#213094"/>
<path d="M157.847 87.5122L167.558 117.097C163.357 108.994 155.451 92.4279 155.317 87.0612C156.058 87.0634 156.899 87.2082 157.847 87.5122Z" fill="#213094"/>
<path fill-rule="evenodd" clip-rule="evenodd" d="M141.057 140.409L135.791 183.517L142.406 197.944L141.177 140.405L141.057 140.409Z" fill="#AFD4E2"/>
<path d="M137.376 196.299C140.402 188.433 141.914 152.684 140.654 136.045C134.435 134.028 116.336 131.967 115.443 139.826C114.182 150.919 118.216 180.668 118.72 185.962C119.124 190.198 112.838 214.787 109.644 226.552C106.619 228.064 107.628 231.846 108.384 232.602C109.14 233.359 126.536 234.367 127.292 234.367C128.048 234.367 130.317 232.098 130.569 230.081C130.771 228.468 129.309 227.896 128.553 227.812C130.233 220.585 134.351 204.164 137.376 196.299Z" fill="#E9F3F8"/>
<path fill-rule="evenodd" clip-rule="evenodd" d="M128.571 227.731C128.715 227.113 128.876 226.43 129.053 225.692C127.894 226.301 124.946 227.243 120.486 227.057L128.571 227.731ZM110.175 224.585C109.99 225.274 109.812 225.932 109.643 226.554C109.563 226.595 109.485 226.637 109.41 226.68L115.443 227.057C112.595 226.608 110.963 225.48 110.175 224.585Z" fill="#C2E9F8"/>
<path fill-rule="evenodd" clip-rule="evenodd" d="M145.95 225.041C145.949 225.041 145.949 225.041 145.949 225.041C146.467 224.475 147.058 223.791 147.697 223.017C141.856 220.606 137.208 221.68 135.613 222.52C138.638 221.915 143.764 223.948 145.949 225.041C145.949 225.041 145.95 225.041 145.95 225.041Z" fill="#AFD4E2"/>
<path d="M151.159 141.936C151.763 139.86 151.41 138.956 151.159 138.764C140.691 132.766 123.479 137.226 116.182 140.206C115.762 140.975 115.225 142.744 116.433 143.667C117.943 144.82 124.234 140.494 133.544 140.783C140.993 141.013 148.391 141.648 151.159 141.936Z" fill="white"/>
<path d="M197.125 140.079C200.067 138.147 206.294 137.669 212.345 144.929C219.908 154.005 213.857 170.393 195.706 173.418C177.554 176.443 184.865 210.226 196.21 208.209M202.924 207.897C206.117 206.804 212.857 205.829 214.269 210.67C216.034 216.72 207.966 227.813 194.352 233.612C180.738 239.41 172.923 248.99 173.175 258.823" stroke="#9D303C" stroke-width="2"/>
<path d="M204.98 136.033C204.727 134.23 203.06 132.974 201.257 133.227L186.38 135.315C183.949 135.656 182.204 137.832 182.399 140.279C182.637 143.276 185.619 145.259 188.476 144.319L202.746 139.622C204.261 139.123 205.201 137.612 204.98 136.033Z" fill="#F65D6D"/>
<circle r="3.78163" transform="matrix(-1 0 0 1 191.074 136.55)" fill="#9D303C"/>
<path d="M155.527 114.616C159.964 109.17 157.375 94.5309 155.527 87.892L151.493 85.623C150.484 80.833 149.482 71.6285 137.784 79.696C123.162 89.7804 115.189 131.759 114.433 136.045C113.677 140.331 118.467 141.843 121.744 139.322C125.021 136.801 141.409 138.566 145.694 139.322C149.98 140.079 154.014 137.557 152.753 135.288C151.493 133.019 149.98 121.422 155.527 114.616Z" fill="#3D58FF"/>
<path d="M155.527 114.616C159.964 109.17 157.375 94.5309 155.527 87.892L151.493 85.623C150.484 80.833 149.482 71.6285 137.784 79.696C123.162 89.7804 115.189 131.759 114.433 136.045C113.677 140.331 118.467 141.843 121.744 139.322C125.021 136.801 141.409 138.566 145.694 139.322C149.98 140.079 154.014 137.557 152.753 135.288C151.493 133.019 149.98 121.422 155.527 114.616Z" fill="#3D58FF"/>
<path d="M149.267 97.5958C149.267 91.6521 142.513 88.5902 139.136 87.8022C137.672 86.2262 136.299 83.6822 142.513 86.1137C150.28 89.1531 156.021 92.1924 150.955 112.793C146.903 129.273 132.607 129.566 125.965 127.652C119.774 125.288 111.376 121.37 127.316 124.612C147.241 128.665 149.267 105.025 149.267 97.5958Z" fill="#48C5A1"/>
<path d="M155.781 89.1537C155.781 88.1453 155.529 86.1284 153.512 85.3717C154.521 87.1369 153.764 86.8844 151.748 86.1281C149.731 85.3717 138.134 75.5395 144.941 84.1115C151.039 91.7911 155.781 90.9185 155.781 89.1537Z" fill="white"/>
<path d="M153.763 85.8766C151.545 82.2462 155.528 78.3133 157.797 76.8007L151.242 68.7332L143.931 80.8344C148.133 84.0278 155.982 89.5069 153.763 85.8766Z" fill="#FF8982"/>
<path d="M172.417 66.4641C174.837 60.8169 174.097 55.3713 172.417 52.8502L168.383 56.3798C167.29 61.0858 165.811 70.1953 168.635 68.9852C171.459 67.7751 171.828 64.1111 171.66 62.4304C172.467 62.4304 172.501 65.1195 172.417 66.4641Z" fill="#FFCA63"/>
<path d="M169.393 58.9011C168.99 54.464 164.351 51.5059 162.082 50.5815L153.51 62.9348C151.241 59.9095 149.225 60.6659 148.72 64.1954C148.216 67.7249 151.494 69.4897 151.494 69.7418C152.25 74.784 151.494 75.0361 159.057 79.0698C162.55 80.933 164.699 79.3839 166.231 77.305C166.598 77.0529 167.376 77.305 167.628 76.5487C167.82 75.9747 167.376 75.8955 167.124 75.9471C167.713 75.8115 168.819 75.4123 168.537 74.9006C168.255 74.3889 168.42 73.7693 168.537 73.5234C168.656 73.3377 168.773 73.1682 168.889 73.0192C169.561 73.0192 170.956 72.7167 171.158 71.5065C171.41 69.9939 169.393 69.4897 168.889 67.7249C168.385 65.9601 169.897 64.4475 169.393 58.9011Z" fill="#FFAD95"/>
<mask id="mask4_362_1244" style="mask-type:alpha" maskUnits="userSpaceOnUse" x="148" y="50" width="24" height="30">
<path d="M169.395 58.9011C168.992 54.464 164.353 51.5059 162.084 50.5815L153.512 62.9349C151.243 59.9096 149.227 60.6659 148.722 64.1954C148.218 67.7249 151.495 69.4897 151.495 69.7418C152.252 74.784 151.495 75.0361 159.059 79.0698C162.552 80.9331 164.701 79.3839 166.233 77.3051C166.6 77.053 167.378 77.3051 167.63 76.5487C167.822 75.9747 167.378 75.8956 167.126 75.9471C167.714 75.8115 168.821 75.4124 168.539 74.9006C168.257 74.3889 168.421 73.7693 168.539 73.5234C168.658 73.3377 168.775 73.1682 168.891 73.0192C169.563 73.0192 170.958 72.7167 171.16 71.5066C171.412 69.9939 169.395 69.4897 168.891 67.7249C168.387 65.9602 169.899 64.4475 169.395 58.9011Z" fill="#FFAD95"/>
</mask>
<g mask="url(#mask4_362_1244)">
<g filter="url(#filter8_f_362_1244)">
<circle r="5.54639" transform="matrix(-1 0 0 1 157.041 69.2388)" fill="#FF7A72"/>
</g>
</g>
<path d="M153.511 64.1948C165.108 65.7074 173.175 63.1865 173.68 54.1105C173.175 43.774 149.052 38.0901 142.67 46.2951C137.208 53.8583 121.695 69.5396 103.341 71.7581C80.3994 74.5313 74.0967 103.524 82.4163 111.339L85.1895 110.835C83.4247 109.911 78.4465 100.751 83.6768 95.9606C80.9036 101.759 87.2064 109.322 87.2064 109.322L102.837 106.801C102.837 106.801 107.459 105.204 105.106 103.272C108.888 98.2294 112.417 90.9182 118.972 84.3634C125.527 77.8086 133.342 85.1197 140.401 86.1282C147.46 87.1366 152.755 70.7495 151.494 69.7411C150.234 68.7327 147.713 64.1947 149.477 61.9257C150.889 60.1105 152.25 61.6737 153.007 62.9342L153.511 64.1948Z" fill="#FFCA63"/>
<mask id="mask5_362_1244" style="mask-type:alpha" maskUnits="userSpaceOnUse" x="78" y="42" width="96" height="70">
<path d="M153.513 64.1949C165.11 65.7075 173.177 63.1866 173.682 54.1106C173.177 43.7741 149.054 38.0902 142.672 46.2951C137.21 53.8584 121.697 69.5396 103.343 71.7582C80.4014 74.5314 74.0987 103.524 82.4183 111.339L85.1915 110.835C83.4267 109.911 78.4484 100.751 83.6788 95.9606C80.9056 101.759 87.2083 109.322 87.2083 109.322L102.839 106.801C102.839 106.801 111.097 105.945 108.744 104.012C112.526 98.9699 114.009 93.6815 120.564 87.1267C127.119 80.5719 133.344 85.1198 140.403 86.1283C147.462 87.1367 152.757 70.7496 151.496 69.7412C150.236 68.7327 147.715 64.1948 149.479 61.9258C150.891 60.1106 152.252 61.6738 153.009 62.9343L153.513 64.1949Z" fill="#FFBA34"/>
</mask>
<g mask="url(#mask5_362_1244)">
<path d="M102.586 85.8765C109.444 79.2208 141.602 77.4975 149.922 79.3463C143.142 89.6431 114.083 107.457 113.679 108.062C113.175 108.818 96.788 114.617 94.519 109.323C92.25 104.028 94.0148 94.1961 102.586 85.8765Z" fill="#F4B53B"/>
</g>
<path d="M98.1901 124.491C96.1732 116.827 106.594 102.978 112.056 97.0113L127.315 94.8933C128.891 93.3174 132.381 90.5031 133.732 91.854C135.42 93.5425 127.991 117.52 126.978 125.287C126.167 131.501 123.945 133.927 122.925 134.067C114.164 136.009 100.207 132.155 98.1901 124.491Z" fill="#0CAF80"/>
<path fill-rule="evenodd" clip-rule="evenodd" d="M130.689 108.716C130.554 109.256 130.418 109.798 130.282 110.338C129.634 112.92 128.992 115.477 128.442 117.794C120.988 114.041 107.726 106.163 108.076 101.427C108.435 100.968 108.791 100.521 109.141 100.091C112.444 99.0735 122.746 104.182 130.689 108.716Z" fill="#109C74"/>
<path d="M109.032 100.289C103.99 93.2301 125.419 81.6331 126.428 80.3726L136.008 85.1626L130.018 110.766C129.343 116.17 113.066 105.936 109.032 100.289Z" fill="#48C5A1"/>
<path d="M127.229 88.5283C127.124 88.652 127.018 88.779 126.909 88.9089C126.461 88.8195 125.89 88.6951 125.17 88.5283C119.584 87.2323 106.352 110.884 106.058 112.18C105.764 113.476 108.998 120.928 110.469 113.8C111.621 108.215 121.707 95.1265 126.909 88.9089C129.244 89.3749 128.215 88.8907 127.229 88.5283Z" fill="white"/>
<path d="M128.087 81.0442C133.522 82.9784 141.269 85.1226 145.067 84.8831C132.403 96.3939 119.404 93.7545 118.757 91.452C118.109 89.1495 121.798 86.1493 122.103 84.7969C120.736 81.703 119.897 78.1294 128.087 81.0442Z" fill="#3D58FF"/>
<path fill-rule="evenodd" clip-rule="evenodd" d="M142.472 84.7748C138.365 84.3035 132.472 82.6058 128.087 81.0449C126.986 80.6532 126.048 80.3787 125.253 80.2044C124.488 80.3139 124.408 80.9735 125.989 82.7134C129.25 86.3016 139.052 85.7765 143.545 85.0654L142.472 84.7748Z" fill="#213094"/>
<path d="M144.938 64.6991C146.282 68.8169 150.585 77.2541 157.039 78.0609C152.4 66.1613 155.442 61.3376 157.543 60.4132" stroke="#213094" stroke-width="3"/>
<path d="M172.784 48.8056C167.744 44.5353 159.174 42.6941 155.519 42.3073C146.653 41.3789 145.486 42.7714 140.587 44.396C135.687 46.0206 135.454 52.2868 136.154 55.768C136.714 58.553 142.142 63.8909 144.786 66.2117L146.653 65.2834C145.72 60.6418 151.552 60.4097 154.352 60.6418C157.152 60.8738 158.785 62.2663 160.185 62.0343C161.305 61.8486 162.829 60.1002 163.451 59.2493C167.558 54.422 171.695 54.9171 173.25 55.768C175.195 55.2265 177.823 53.0759 172.784 48.8056Z" fill="#3D58FF"/>
<path fill-rule="evenodd" clip-rule="evenodd" d="M170.514 55.0714C167.651 52.6733 160.952 47.7841 157.053 47.4127C158.832 47.3354 162.948 47.3663 165.176 48.109C160.372 46.41 151.663 43.4775 146.913 42.3156C145.468 42.5899 144.308 43.0276 142.949 43.5401C142.236 43.8093 141.467 44.0992 140.574 44.3969C139.591 44.7246 138.797 45.2411 138.161 45.8855C137.506 47.087 136.818 48.4188 136.229 49.5912C136.083 50.1957 135.987 50.8154 135.932 51.4313L145.681 57.8566L142.2 52.2866L153.269 60.5886C153.629 60.5978 153.966 60.6175 154.267 60.6426C155.686 60.7608 156.803 61.18 157.742 61.5323C158.647 61.8717 159.386 62.149 160.069 62.0351C161.183 61.8495 162.7 60.1011 163.318 59.2502C165.877 56.2266 168.447 55.291 170.391 55.2232L170.514 55.0714Z" fill="#6B80FD"/>
<path d="M166.115 46.6159C165.595 45.3397 162.164 44.4281 158.836 43.3343C159.356 44.6104 164.035 47.1628 166.115 46.6159Z" fill="#26337E"/>
<path d="M152.596 43.6075C155.508 44.9202 160.916 49.1682 162.995 51.8118C163.775 55.9138 152.596 46.3422 151.296 45.2483C149.996 44.1545 148.957 41.9667 152.596 43.6075Z" fill="#26337E"/>
<path d="M155.976 53.9993C155.768 53.1242 148.61 50.7177 145.057 49.6238C144.277 49.3504 142.769 49.1863 142.977 50.7177C143.237 52.632 156.236 55.0932 155.976 53.9993Z" fill="#26337E"/>
<path d="M154.156 56.734C152.671 56.4214 146.443 56.0047 143.497 55.3667C141.157 55.0934 141.417 56.4605 141.417 57.5544C141.417 58.6483 149.737 58.9217 153.116 58.3748C156.496 57.8279 155.456 57.0077 154.156 56.734Z" fill="#26337E"/>
<path d="M114.897 104.749L113.432 103.346M115.776 102.504C115.092 101.568 113.608 99.7533 113.139 99.9778C112.553 100.258 110.502 102.784 110.795 103.626C111.088 104.468 113.139 106.994 113.725 106.433C114.311 105.872 116.069 103.626 115.776 102.504Z" stroke="#EC9216" stroke-width="2" stroke-linecap="round"/>
<path d="M217.799 229.325C217.799 227.712 215.446 227.308 214.269 227.308C213.009 231.174 211.143 239.107 213.765 239.914C217.043 240.922 217.799 231.342 217.799 229.325Z" fill="#EC9216"/>
<path d="M214.267 227.308C207.813 227.712 207.04 232.687 207.46 235.124C207.46 241.427 218.048 242.183 214.771 238.401C212.149 235.578 213.342 229.83 214.267 227.308Z" fill="#E44758"/>
<rect width="6.55483" height="86.4105" rx="3" transform="matrix(-0.983918 0.178622 0.178622 0.983918 198.166 182.087)" fill="#F65D6D"/>
<circle r="1.51265" transform="matrix(-1 0 0 1 209.48 263.361)" fill="#9D303C"/>
<path d="M193.827 133.018C187.718 129.163 183.81 131.483 183.306 131.457C180.851 131.748 178.701 134.547 182.91 139.009C188.171 144.587 190.357 141.42 189.403 140.36C188.449 139.3 186.7 138.956 187.613 135.974C188.766 133.258 192.927 135.748 193.576 137.802C194.226 139.856 191.868 141.499 191.775 143.261C191.683 145.024 194.001 144.136 195.896 141.711C197.79 139.285 199.937 136.873 193.827 133.018Z" fill="#FFAD95"/>
<path d="M148.785 92.5949C146.816 88.9834 143.354 87.9992 141.578 88.1584C134.025 87.762 131.924 95.605 138.635 112.014C148.526 136.196 155.062 134.417 159.546 136.775C166.995 138.68 177.806 140.005 183.384 139.541L187.186 129.642L158.383 119.884C155.682 112.014 152.013 98.5133 148.785 92.5949Z" fill="#3146CC"/>
<path d="M76.8688 131.761H24.1781M89.4742 155.46H61.9944M55.9438 113.105H38.5483M246.164 126.977H216.415M233.933 141.499H222.336M208.722 116.635H191.074" stroke="#EFF2FA" stroke-width="2" stroke-linecap="round"/>
<path d="M22.9168 204.62C28.1606 202.805 32.665 212.099 34.2617 216.973H0.226959C-0.109184 216.553 -0.327682 215.411 1.4875 214.2C3.30269 212.99 5.60529 213.864 6.52968 214.453C7.53812 210.923 11.5719 210.671 14.8493 210.167C18.1267 209.662 16.3619 206.889 22.9168 204.62Z" fill="#EFF2FA"/>
<path d="M58.4641 199.578C49.3882 199.578 50.8168 203.864 50.3966 205.881L48.6318 216.973H72.3301C72.3301 210.671 67.54 210.671 65.7752 209.662C64.0105 208.654 64.2186 199.578 58.4641 199.578Z" fill="#EFF2FA"/>
<path fill-rule="evenodd" clip-rule="evenodd" d="M60.3608 199.969C60.7047 201.85 60.8328 204.764 59.2176 205.123C58.8978 205.194 58.5879 205.25 58.2987 205.303L58.2986 205.303L58.2986 205.303C56.5362 205.622 55.5393 205.802 57.705 208.401L57.7576 208.464C58.3474 209.171 58.6177 209.496 58.6308 209.83C58.6419 210.113 58.4689 210.403 58.1496 210.938C57.6066 211.849 56.6403 213.469 55.4363 216.971H55.4367C55.5104 216.873 61.4662 208.911 66.2767 209.913C66.3066 209.92 66.3362 209.925 66.3652 209.931C66.145 209.846 65.9461 209.758 65.7754 209.66C65.1835 209.322 64.8136 208.076 64.3662 206.57C63.6466 204.147 62.7267 201.05 60.3608 199.969ZM15.7171 209.939C16.5071 209.626 16.8932 209.095 17.3644 208.446C17.9592 207.627 18.6894 206.622 20.5383 205.634C21.1815 206.306 21.7881 207.725 21.6535 210.417C21.4518 214.451 23.2501 215.46 24.1745 215.46C21.6904 215.78 16.6998 215.077 15.7171 209.939ZM14.5868 216.971H15.0952C14.1681 216.718 11.6667 215.963 9.04798 214.956C7.73002 214.449 8.69258 212.859 9.39962 211.691C9.49686 211.53 9.58927 211.378 9.67025 211.237C8.20326 211.811 7.01556 212.75 6.52981 214.451C6.36967 214.349 6.16816 214.238 5.93498 214.131C8.12139 215.937 12.109 216.902 14.5868 216.971Z" fill="#E8EBF2"/>
<path d="M51.574 197.354C58.4985 201.379 55.1586 212.111 52.6232 216.974H38.8018C39.2389 215.548 42.5511 211.239 44.2298 205.403C46.3283 198.109 26.394 187.042 36.0987 182.263C45.8035 177.484 37.1479 171.196 29.8038 161.638C22.4596 152.08 38.9839 133.718 45.8035 142.773C52.623 151.828 44.7544 152.079 44.2298 161.638C43.7053 171.196 57.8689 171.699 56.0329 182.263C54.1969 192.827 42.9184 192.324 51.574 197.354Z" fill="#EFF2FA"/>
<path d="M48.6322 199.578C54.0777 204.015 50.0608 213.024 47.3716 216.973H43.8421C45.6068 214.452 49.0355 208.351 48.6322 204.116C48.1279 198.822 42.3294 196.553 41.8252 191.51C41.321 186.468 52.1617 183.191 39.8083 169.325C29.9257 158.232 36.0267 151.425 40.3126 149.408C38.2957 150.585 35.1695 155.005 38.7999 163.274C43.3379 173.611 50.649 178.149 47.8758 184.704C45.1026 191.258 41.8252 194.032 48.6322 199.578Z" fill="#E8EBF2"/>
<path d="M37.8896 196.749C47.5706 201.993 42.7637 212.38 39.1502 216.918H31.839C31.839 212.884 30.0742 213.137 26.5447 208.851C23.0152 204.565 30.5784 203.809 20.9983 196.749C11.4182 189.69 14.9477 184.144 14.6956 180.11C14.4435 176.077 7.38441 178.598 3.09856 168.261C-1.18729 157.925 12.6787 157.42 18.2251 165.992C23.7715 174.564 24.2757 173.555 31.839 179.354C39.4022 185.152 25.7884 190.195 37.8896 196.749Z" fill="#3D58FF"/>
<path d="M37.8896 196.749C47.5706 201.993 42.7637 212.38 39.1502 216.918H31.839C31.839 212.884 30.0742 213.137 26.5447 208.851C23.0152 204.565 30.5784 203.809 20.9983 196.749C11.4182 189.69 14.9477 184.144 14.6956 180.11C14.4435 176.077 7.38441 178.598 3.09856 168.261C-1.18729 157.925 12.6787 157.42 18.2251 165.992C23.7715 174.564 24.2757 173.555 31.839 179.354C39.4022 185.152 25.7884 190.195 37.8896 196.749Z" fill="#EFF2FA"/>
<path fill-rule="evenodd" clip-rule="evenodd" d="M36.0674 216.917C37.6267 211.376 39.1257 202.749 35.5192 201.847C30.477 200.586 25.435 194.284 27.1997 188.485C28.9645 182.687 22.6618 177.14 17.6196 175.88C12.8845 174.696 5.03681 164.397 4.72475 160.641C8.27609 158.887 14.8163 160.729 18.2212 165.991C22.4998 172.603 23.7778 173.515 27.6106 176.248C28.7463 177.058 30.1063 178.027 31.8351 179.353C35.2355 181.96 34.3552 184.414 33.4559 186.921C32.3548 189.991 31.2251 193.14 37.8857 196.748C47.5667 201.992 42.7598 212.379 39.1462 216.917H36.0674Z" fill="#E8EBF2"/>
<path d="M73.502 27.8683C89.6658 15.2682 99.8294 27.2506 102.891 34.8168C107.666 31.8525 110.391 36.3608 111.156 38.9854H8.29586C10.1327 34.9089 14.8777 35.434 17.0206 36.206C17.7553 26.5707 26.5107 26.9414 30.7966 28.3312C48.4298 1.27812 66.614 16.7505 73.502 27.8683Z" fill="#EFF2FA"/>
<path d="M160.264 107.591C161.049 102.446 157.648 91.4567 155.032 86.2666L157.321 85.9281C159.719 90.2156 162.488 97.7748 163.534 104.545C164.581 111.314 161.245 118.423 158.302 119.777L157.321 116.73C158.52 116.053 159.479 112.736 160.264 107.591Z" fill="#48C5A1"/>
<path d="M155.686 81.5278C155.163 80.9863 154.16 81.0765 153.724 81.1893C152.939 82.5435 153.179 84.2356 153.397 84.9124C156.667 83.8969 156.34 82.2048 155.686 81.5278Z" fill="#48C5A1"/>
<defs>
<filter id="filter0_d_362_1244" x="415.438" y="136.589" width="40.4199" height="21.2061" filterUnits="userSpaceOnUse" color-interpolation-filters="sRGB">
<feFlood flood-opacity="0" result="BackgroundImageFix"/>
<feColorMatrix in="SourceAlpha" type="matrix" values="0 0 0 0 0 0 0 0 0 0 0 0 0 0 0 0 0 0 127 0" result="hardAlpha"/>
<feOffset dy="2"/>
<feGaussianBlur stdDeviation="2"/>
<feColorMatrix type="matrix" values="0 0 0 0 0.709804 0 0 0 0 0.74902 0 0 0 0 0.988235 0 0 0 1 0"/>
<feBlend mode="normal" in2="BackgroundImageFix" result="effect1_dropShadow_362_1244"/>
<feBlend mode="normal" in="SourceGraphic" in2="effect1_dropShadow_362_1244" result="shape"/>
</filter>
<filter id="filter1_d_362_1244" x="362.49" y="105.804" width="31.6387" height="35.6921" filterUnits="userSpaceOnUse" color-interpolation-filters="sRGB">
<feFlood flood-opacity="0" result="BackgroundImageFix"/>
<feColorMatrix in="SourceAlpha" type="matrix" values="0 0 0 0 0 0 0 0 0 0 0 0 0 0 0 0 0 0 127 0" result="hardAlpha"/>
<feOffset dy="3"/>
<feGaussianBlur stdDeviation="2"/>
<feColorMatrix type="matrix" values="0 0 0 0 0.733333 0 0 0 0 0.770447 0 0 0 0 1 0 0 0 1 0"/>
<feBlend mode="normal" in2="BackgroundImageFix" result="effect1_dropShadow_362_1244"/>
<feBlend mode="normal" in="SourceGraphic" in2="effect1_dropShadow_362_1244" result="shape"/>
</filter>
<filter id="filter2_d_362_1244" x="367.285" y="18.1783" width="62.0332" height="44.2704" filterUnits="userSpaceOnUse" color-interpolation-filters="sRGB">
<feFlood flood-opacity="0" result="BackgroundImageFix"/>
<feColorMatrix in="SourceAlpha" type="matrix" values="0 0 0 0 0 0 0 0 0 0 0 0 0 0 0 0 0 0 127 0" result="hardAlpha"/>
<feOffset dy="4"/>
<feGaussianBlur stdDeviation="2"/>
<feColorMatrix type="matrix" values="0 0 0 0 0.909804 0 0 0 0 0.921569 0 0 0 0 0.94902 0 0 0 1 0"/>
<feBlend mode="normal" in2="BackgroundImageFix" result="effect1_dropShadow_362_1244"/>
<feBlend mode="normal" in="SourceGraphic" in2="effect1_dropShadow_362_1244" result="shape"/>
</filter>
<filter id="filter3_d_362_1244" x="287.59" y="73.4254" width="22.1836" height="22.7429" filterUnits="userSpaceOnUse" color-interpolation-filters="sRGB">
<feFlood flood-opacity="0" result="BackgroundImageFix"/>
<feColorMatrix in="SourceAlpha" type="matrix" values="0 0 0 0 0 0 0 0 0 0 0 0 0 0 0 0 0 0 127 0" result="hardAlpha"/>
<feOffset dy="2"/>
<feGaussianBlur stdDeviation="2"/>
<feColorMatrix type="matrix" values="0 0 0 0 0.717647 0 0 0 0 0.756863 0 0 0 0 0.988235 0 0 0 1 0"/>
<feBlend mode="normal" in2="BackgroundImageFix" result="effect1_dropShadow_362_1244"/>
<feBlend mode="normal" in="SourceGraphic" in2="effect1_dropShadow_362_1244" result="shape"/>
</filter>
<filter id="filter4_d_362_1244" x="281.383" y="107.221" width="23.5078" height="37.7053" filterUnits="userSpaceOnUse" color-interpolation-filters="sRGB">
<feFlood flood-opacity="0" result="BackgroundImageFix"/>
<feColorMatrix in="SourceAlpha" type="matrix" values="0 0 0 0 0 0 0 0 0 0 0 0 0 0 0 0 0 0 127 0" result="hardAlpha"/>
<feOffset dy="2"/>
<feGaussianBlur stdDeviation="2.5"/>
<feColorMatrix type="matrix" values="0 0 0 0 0.65098 0 0 0 0 0.698039 0 0 0 0 0.988235 0 0 0 0.2 0"/>
<feBlend mode="normal" in2="BackgroundImageFix" result="effect1_dropShadow_362_1244"/>
<feBlend mode="normal" in="SourceGraphic" in2="effect1_dropShadow_362_1244" result="shape"/>
</filter>
<filter id="filter5_d_362_1244" x="297.592" y="106.536" width="25.5352" height="40.0401" filterUnits="userSpaceOnUse" color-interpolation-filters="sRGB">
<feFlood flood-opacity="0" result="BackgroundImageFix"/>
<feColorMatrix in="SourceAlpha" type="matrix" values="0 0 0 0 0 0 0 0 0 0 0 0 0 0 0 0 0 0 127 0" result="hardAlpha"/>
<feOffset dy="2"/>
<feGaussianBlur stdDeviation="2.5"/>
<feColorMatrix type="matrix" values="0 0 0 0 0.65098 0 0 0 0 0.698039 0 0 0 0 0.988235 0 0 0 0.2 0"/>
<feBlend mode="normal" in2="BackgroundImageFix" result="effect1_dropShadow_362_1244"/>
<feBlend mode="normal" in="SourceGraphic" in2="effect1_dropShadow_362_1244" result="shape"/>
</filter>
<filter id="filter6_d_362_1244" x="315.826" y="105.171" width="28.2363" height="43.7364" filterUnits="userSpaceOnUse" color-interpolation-filters="sRGB">
<feFlood flood-opacity="0" result="BackgroundImageFix"/>
<feColorMatrix in="SourceAlpha" type="matrix" values="0 0 0 0 0 0 0 0 0 0 0 0 0 0 0 0 0 0 127 0" result="hardAlpha"/>
<feOffset dy="2"/>
<feGaussianBlur stdDeviation="2.5"/>
<feColorMatrix type="matrix" values="0 0 0 0 0.65098 0 0 0 0 0.698039 0 0 0 0 0.988235 0 0 0 0.2 0"/>
<feBlend mode="normal" in2="BackgroundImageFix" result="effect1_dropShadow_362_1244"/>
<feBlend mode="normal" in="SourceGraphic" in2="effect1_dropShadow_362_1244" result="shape"/>
</filter>
<filter id="filter7_d_362_1244" x="284.805" y="161.713" width="79.7109" height="44.0866" filterUnits="userSpaceOnUse" color-interpolation-filters="sRGB">
<feFlood flood-opacity="0" result="BackgroundImageFix"/>
<feColorMatrix in="SourceAlpha" type="matrix" values="0 0 0 0 0 0 0 0 0 0 0 0 0 0 0 0 0 0 127 0" result="hardAlpha"/>
<feOffset dx="3" dy="3"/>
<feGaussianBlur stdDeviation="5"/>
<feColorMatrix type="matrix" values="0 0 0 0 0.239216 0 0 0 0 0.345098 0 0 0 0 1 0 0 0 0.5 0"/>
<feBlend mode="normal" in2="BackgroundImageFix" result="effect1_dropShadow_362_1244"/>
<feBlend mode="normal" in="SourceGraphic" in2="effect1_dropShadow_362_1244" result="shape"/>
</filter>
<filter id="filter8_f_362_1244" x="131.494" y="43.6924" width="51.0938" height="51.0928" filterUnits="userSpaceOnUse" color-interpolation-filters="sRGB">
<feFlood flood-opacity="0" result="BackgroundImageFix"/>
<feBlend mode="normal" in="SourceGraphic" in2="BackgroundImageFix" result="shape"/>
<feGaussianBlur stdDeviation="10" result="effect1_foregroundBlur_362_1244"/>
</filter>
<linearGradient id="paint0_linear_362_1244" x1="368.612" y1="114.931" x2="394.047" y2="121.639" gradientUnits="userSpaceOnUse">
<stop stop-color="#3D58FF"/>
<stop offset="1" stop-color="#CDD3FB"/>
</linearGradient>
</defs>
</svg>
