<svg width="40" height="40" viewBox="0 0 40 40" fill="none" xmlns="http://www.w3.org/2000/svg">
<circle cx="20" cy="20" r="20" fill="#E5E9F2"/>
<path d="M24.5 17H23.75V15.5C23.75 13.43 22.07 11.75 20 11.75C17.93 11.75 16.25 13.43 16.25 15.5V17H15.5C14.675 17 14 17.675 14 18.5V26C14 26.825 14.675 27.5 15.5 27.5H24.5C25.325 27.5 26 26.825 26 26V18.5C26 17.675 25.325 17 24.5 17ZM20 23.75C19.175 23.75 18.5 23.075 18.5 22.25C18.5 21.425 19.175 20.75 20 20.75C20.825 20.75 21.5 21.425 21.5 22.25C21.5 23.075 20.825 23.75 20 23.75ZM22.325 17H17.675V15.5C17.675 14.2175 18.7175 13.175 20 13.175C21.2825 13.175 22.325 14.2175 22.325 15.5V17Z" fill="#34364A"/>
</svg>
