<svg width="84" height="30" viewBox="0 0 84 30" fill="none" xmlns="http://www.w3.org/2000/svg">
<mask id="mask0_1731_1584" style="mask-type:alpha" maskUnits="userSpaceOnUse" x="0" y="0" width="30" height="30">
<rect width="30" height="30" rx="8" fill="#34364A"/>
</mask>
<g mask="url(#mask0_1731_1584)">
<rect x="1" width="29" height="15" rx="7.5" fill="#335EF7"/>
<rect width="13" height="30" rx="6.5" fill="#47BB8E"/>
</g>
<path d="M45.69 16.784V21.5H43.152V8.792H47.778C49.278 8.792 50.406 9.152 51.162 9.872C51.93 10.592 52.314 11.57 52.314 12.806C52.314 14.018 51.918 14.984 51.126 15.704C50.346 16.424 49.23 16.784 47.778 16.784H45.69ZM47.508 14.75C48.996 14.75 49.74 14.102 49.74 12.806C49.74 12.17 49.566 11.684 49.218 11.348C48.87 11.012 48.3 10.844 47.508 10.844H45.69V14.75H47.508ZM53.6745 8.666C53.6745 8.258 53.8185 7.928 54.1065 7.676C54.3945 7.412 54.7725 7.28 55.2405 7.28C55.7085 7.28 56.0865 7.412 56.3745 7.676C56.6625 7.928 56.8065 8.258 56.8065 8.666C56.8065 9.062 56.6625 9.392 56.3745 9.656C56.0865 9.908 55.7085 10.034 55.2405 10.034C54.7725 10.034 54.3945 9.908 54.1065 9.656C53.8185 9.392 53.6745 9.062 53.6745 8.666ZM56.5005 11.528V21.5H53.9625V11.528H56.5005ZM64.8625 21.5L62.5945 18.296L60.6865 21.5H57.8965L61.1905 16.298L57.8245 11.528H60.6685L62.8825 14.678L64.7905 11.528H67.5805L64.2325 16.586L67.7065 21.5H64.8625ZM78.3874 16.136C78.3874 16.388 78.3574 16.676 78.2974 17H70.9894C71.0254 17.888 71.2654 18.542 71.7094 18.962C72.1534 19.382 72.7054 19.592 73.3654 19.592C73.9534 19.592 74.4394 19.448 74.8234 19.16C75.2194 18.872 75.4714 18.482 75.5794 17.99H78.2614C78.1294 18.686 77.8474 19.31 77.4154 19.862C76.9834 20.414 76.4254 20.846 75.7414 21.158C75.0694 21.47 74.3194 21.626 73.4914 21.626C72.5194 21.626 71.6554 21.422 70.8994 21.014C70.1434 20.594 69.5554 20 69.1354 19.232C68.7154 18.464 68.5054 17.558 68.5054 16.514C68.5054 15.47 68.7154 14.564 69.1354 13.796C69.5554 13.016 70.1434 12.422 70.8994 12.014C71.6554 11.606 72.5194 11.402 73.4914 11.402C74.4754 11.402 75.3334 11.606 76.0654 12.014C76.8094 12.422 77.3794 12.986 77.7754 13.706C78.1834 14.414 78.3874 15.224 78.3874 16.136ZM75.8314 15.884C75.8674 15.068 75.6514 14.45 75.1834 14.03C74.7274 13.61 74.1634 13.4 73.4914 13.4C72.8074 13.4 72.2314 13.61 71.7634 14.03C71.2954 14.45 71.0374 15.068 70.9894 15.884H75.8314ZM82.7271 8.18V21.5H80.1891V8.18H82.7271Z" fill="#47BB8E"/>
</svg>
