<svg width="20" height="20" viewBox="0 0 20 20" fill="none" xmlns="http://www.w3.org/2000/svg">
<circle cx="10" cy="10" r="10" fill="#F4A42B"/>
<path d="M13.1593 7.8007C13.2232 7.86047 13.3276 7.81517 13.3276 7.72767V5.81411C13.3276 5.75888 13.2828 5.71411 13.2276 5.71411H11.1821C11.0914 5.71411 11.0475 5.82517 11.1138 5.88714L13.1593 7.8007Z" fill="white"/>
<path d="M7.40391 8.24863C7.33668 8.31026 7.38028 8.42234 7.47148 8.42234H12.5287C12.62 8.42234 12.6636 8.31026 12.5963 8.24863L10.0677 5.93072C10.0295 5.89567 9.97078 5.89567 9.93254 5.93072L7.40391 8.24863Z" fill="white"/>
<path d="M13.0344 9.33616C13.0631 9.27012 13.0147 9.19629 12.9427 9.19629H7.05728C6.98526 9.19629 6.93685 9.27012 6.96557 9.33616L9.90829 16.1044C9.94314 16.1846 10.0568 16.1846 10.0917 16.1044L13.0344 9.33616Z" fill="white"/>
<path d="M6.67282 7.72768C6.67282 7.81517 6.77724 7.86047 6.84114 7.8007L8.88667 5.88714C8.95291 5.82517 8.90906 5.71411 8.81835 5.71411H6.77282C6.71759 5.71411 6.67282 5.75888 6.67282 5.81411V7.72768Z" fill="white"/>
<path d="M5.87646 8.4224C5.93169 8.4224 5.97646 8.37763 5.97646 8.3224V6.50351C5.97646 6.41354 5.86693 6.36933 5.80448 6.43409L4.05054 8.25299C3.98931 8.31649 4.03431 8.4224 4.12252 8.4224H5.87646Z" fill="white"/>
<path d="M14.0239 8.3224C14.0239 8.37763 14.0687 8.4224 14.1239 8.4224H15.8778C15.9661 8.4224 16.0111 8.31649 15.9498 8.25299L14.1959 6.43409C14.1334 6.36933 14.0239 6.41354 14.0239 6.50351V8.3224Z" fill="white"/>
<path d="M13.9918 9.19629C13.952 9.19629 13.9161 9.21984 13.9002 9.25628L11.6776 14.3476C11.6312 14.4538 11.7725 14.5407 11.8463 14.4513L16.0552 9.36C16.1091 9.2948 16.0627 9.19629 15.9781 9.19629H13.9918Z" fill="white"/>
<path d="M6.09999 9.25628C6.08408 9.21984 6.0481 9.19629 6.00834 9.19629H4.02207C3.93747 9.19629 3.8911 9.2948 3.945 9.36L8.15382 14.4513C8.22767 14.5407 8.36892 14.4538 8.32254 14.3476L6.09999 9.25628Z" fill="white"/>
</svg>
