<svg width="32" height="32" viewBox="0 0 32 32" fill="none" xmlns="http://www.w3.org/2000/svg">
<circle cx="16" cy="16" r="16" fill="#E5E9F2"/>
<path d="M12.6666 21.6667H10.6666C10.313 21.6667 9.97382 21.5262 9.72378 21.2762C9.47373 21.0261 9.33325 20.687 9.33325 20.3334V15.6667C9.33325 15.3131 9.47373 14.9739 9.72378 14.7239C9.97382 14.4738 10.313 14.3334 10.6666 14.3334H12.6666M17.3333 13V10.3334C17.3333 9.80294 17.1225 9.29423 16.7475 8.91916C16.3724 8.54409 15.8637 8.33337 15.3333 8.33337L12.6666 14.3334V21.6667H20.1866C20.5081 21.6703 20.8202 21.5576 21.0652 21.3494C21.3102 21.1411 21.4717 20.8513 21.5199 20.5334L22.4399 14.5334C22.4689 14.3423 22.456 14.1472 22.4021 13.9615C22.3483 13.7759 22.2547 13.6042 22.1278 13.4584C22.001 13.3125 21.844 13.196 21.6676 13.1169C21.4913 13.0377 21.2999 12.9979 21.1066 13H17.3333Z" stroke="#34364A" stroke-width="1.5" stroke-linecap="round" stroke-linejoin="round"/>
</svg>
