<svg width="24" height="24" viewBox="0 0 24 24" fill="none" xmlns="http://www.w3.org/2000/svg">
<path d="M24 12C24 18.6274 18.6274 24 12 24C5.37258 24 0 18.6274 0 12C0 5.37258 5.37258 0 12 0C18.6274 0 24 5.37258 24 12Z" fill="#E8EFFF"/>
<path d="M13.005 6.885C14.075 6.885 14.93 7.165 15.57 7.725C16.22 8.285 16.545 9.075 16.545 10.095C16.545 11.035 16.235 11.77 15.615 12.3C15.005 12.82 14.195 13.085 13.185 13.095L13.11 14.22H10.86L10.785 11.43H11.685C12.455 11.43 13.04 11.335 13.44 11.145C13.85 10.955 14.055 10.61 14.055 10.11C14.055 9.76 13.96 9.485 13.77 9.285C13.58 9.085 13.315 8.985 12.975 8.985C12.615 8.985 12.335 9.09 12.135 9.3C11.935 9.5 11.835 9.775 11.835 10.125H9.42C9.4 9.515 9.525 8.965 9.795 8.475C10.075 7.985 10.485 7.6 11.025 7.32C11.575 7.03 12.235 6.885 13.005 6.885ZM12.015 18.12C11.565 18.12 11.195 17.99 10.905 17.73C10.625 17.46 10.485 17.13 10.485 16.74C10.485 16.34 10.625 16.005 10.905 15.735C11.195 15.465 11.565 15.33 12.015 15.33C12.455 15.33 12.815 15.465 13.095 15.735C13.385 16.005 13.53 16.34 13.53 16.74C13.53 17.13 13.385 17.46 13.095 17.73C12.815 17.99 12.455 18.12 12.015 18.12Z" fill="#2447F9"/>
</svg>
