<svg width="28" height="28" viewBox="0 0 28 28" fill="none" xmlns="http://www.w3.org/2000/svg">
<path fill-rule="evenodd" clip-rule="evenodd" d="M2.1875 16.625C2.1875 21.6991 6.30088 25.8125 11.375 25.8125H16.625C21.6991 25.8125 25.8125 21.6991 25.8125 16.625V11.375C25.8125 6.30088 21.6991 2.1875 16.625 2.1875H11.375C6.30088 2.1875 2.1875 6.30088 2.1875 11.375V16.625ZM11.375 0C5.09276 0 0 5.09276 0 11.375V16.625C0 22.9072 5.09276 28 11.375 28H16.625C22.9072 28 28 22.9072 28 16.625V11.375C28 5.09276 22.9072 0 16.625 0H11.375Z" fill="#999AA4"/>
<path fill-rule="evenodd" clip-rule="evenodd" d="M21.1476 9.46638C21.2302 10.2388 21.0904 11.0973 20.5625 11.8011L20.5341 11.8389L13.4541 19.7519C13.0438 20.2105 12.4958 20.5236 11.8925 20.6442L9.6594 21.0908C8.17044 21.3886 6.78125 20.2498 6.78125 18.7313V17.0664C6.78125 16.3638 7.04129 15.6862 7.51126 15.164L14.809 7.05533C14.9424 6.9072 15.1099 6.75142 15.3133 6.61888C16.2536 6.00619 17.2262 5.79006 18.1427 5.96449C19.0435 6.13593 19.761 6.66005 20.2581 7.29058C20.7523 7.91745 21.0647 8.69127 21.1476 9.46638ZM17.7337 8.11341C17.4613 8.06158 17.0561 8.09422 16.5075 8.45165C16.4979 8.45795 16.4718 8.4778 16.435 8.51869L15.5225 9.53256L17.8439 11.565L18.8331 10.4595C18.9388 10.3007 19.0096 10.0457 18.9725 9.69899C18.9334 9.33297 18.7793 8.94806 18.5403 8.64491C18.3041 8.34542 18.0217 8.16824 17.7337 8.11341ZM16.3852 13.1953L14.059 11.1587L9.13721 16.6273C9.02876 16.7479 8.96875 16.9042 8.96875 17.0664V18.7313C8.96875 18.8694 9.09504 18.9729 9.2304 18.9458L11.4635 18.4992C11.6027 18.4714 11.7292 18.3991 11.8239 18.2933L16.3852 13.1953Z" fill="#999AA4"/>
</svg>