<svg width="17" height="18" viewBox="0 0 17 18" fill="none" xmlns="http://www.w3.org/2000/svg">
<path d="M15.4948 8.28756L8.60227 15.1801C7.75789 16.0244 6.61266 16.4988 5.41852 16.4988C4.22438 16.4988 3.07915 16.0244 2.23477 15.1801C1.39039 14.3357 0.916016 13.1904 0.916016 11.9963C0.916016 10.8022 1.39039 9.65694 2.23477 8.81256L9.12727 1.92006C9.69019 1.35714 10.4537 1.04089 11.2498 1.04089C12.0459 1.04089 12.8093 1.35714 13.3723 1.92006C13.9352 2.48298 14.2514 3.24647 14.2514 4.04256C14.2514 4.83865 13.9352 5.60214 13.3723 6.16506L6.47227 13.0576C6.19081 13.339 5.80906 13.4971 5.41102 13.4971C5.01297 13.4971 4.63123 13.339 4.34977 13.0576C4.06831 12.7761 3.91018 12.3944 3.91018 11.9963C3.91018 11.5983 4.06831 11.2165 4.34977 10.9351L10.7173 4.57506" stroke="#3D58FF" stroke-width="1.46541" stroke-linecap="round" stroke-linejoin="round"/>
</svg>
