<svg width="26" height="26" viewBox="0 0 26 26" fill="none" xmlns="http://www.w3.org/2000/svg">
<circle cx="13" cy="13" r="13" fill="#E5E9F2"/>
<g clip-path="url(#clip0_43_1145)">
<path d="M17.0833 12.4166H8.91667C8.27233 12.4166 7.75 12.939 7.75 13.5833V17.6666C7.75 18.311 8.27233 18.8333 8.91667 18.8333H17.0833C17.7277 18.8333 18.25 18.311 18.25 17.6666V13.5833C18.25 12.939 17.7277 12.4166 17.0833 12.4166Z" stroke="#34364A" stroke-width="2" stroke-linecap="round" stroke-linejoin="round"/>
<path d="M10.0834 12.4166V10.0833C10.0834 9.30974 10.3907 8.56788 10.9376 8.0209C11.4846 7.47392 12.2265 7.16663 13 7.16663C13.7736 7.16663 14.5155 7.47392 15.0624 8.0209C15.6094 8.56788 15.9167 9.30974 15.9167 10.0833V12.4166" stroke="#34364A" stroke-width="2" stroke-linecap="round" stroke-linejoin="round"/>
</g>
<defs>
<clipPath id="clip0_43_1145">
<rect width="14" height="14" fill="white" transform="translate(6 6)"/>
</clipPath>
</defs>
</svg>
